<svg class="animated" id="freepik_stories-car-finance" xmlns="http://www.w3.org/2000/svg" width="500" height="500" version="1.1" xmlns:xlink="http://www.w3.org/1999/xlink" xmlns:svgjs="http://svgjs.com/svgjs"><style>svg#freepik_stories-car-finance:not(.animated) .animable {opacity: 0;}svg#freepik_stories-car-finance.animated #freepik--background-complete--inject-47 {animation: 1s 1 forwards cubic-bezier(.36,-0.01,.5,1.38) slideRight;animation-delay: 0s;}svg#freepik_stories-car-finance.animated #freepik--Clipboard--inject-47 {animation: 1s 1 forwards cubic-bezier(.36,-0.01,.5,1.38) zoomOut;animation-delay: 0s;}svg#freepik_stories-car-finance.animated #freepik--Stamp--inject-47 {animation: 1s 1 forwards cubic-bezier(.36,-0.01,.5,1.38) slideDown;animation-delay: 0s;}svg#freepik_stories-car-finance.animated #freepik--Floor--inject-47 {animation: 1s 1 forwards cubic-bezier(.36,-0.01,.5,1.38) zoomIn;animation-delay: 0s;}svg#freepik_stories-car-finance.animated #freepik--Car--inject-47 {animation: 1s 1 forwards cubic-bezier(.36,-0.01,.5,1.38) lightSpeedRight;animation-delay: 0s;}svg#freepik_stories-car-finance.animated #freepik--character-1--inject-47 {animation: 1s 1 forwards cubic-bezier(.36,-0.01,.5,1.38) slideLeft;animation-delay: 0s;}svg#freepik_stories-car-finance.animated #freepik--character-2--inject-47 {animation: 1s 1 forwards cubic-bezier(.36,-0.01,.5,1.38) slideDown;animation-delay: 0s;}            @keyframes slideRight {                0% {                    opacity: 0;                    transform: translateX(30px);                }                100% {                    opacity: 1;                    transform: translateX(0);                }            }                    @keyframes zoomOut {                0% {                    opacity: 0;                    transform: scale(1.5);                }                100% {                    opacity: 1;                    transform: scale(1);                }            }                    @keyframes slideDown {                0% {                    opacity: 0;                    transform: translateY(-30px);                }                100% {                    opacity: 1;                    transform: translateY(0);                }            }                    @keyframes zoomIn {                0% {                    opacity: 0;                    transform: scale(0.5);                }                100% {                    opacity: 1;                    transform: scale(1);                }            }                    @keyframes lightSpeedRight {              from {                transform: translate3d(50%, 0, 0) skewX(-20deg);                opacity: 0;              }              60% {                transform: skewX(10deg);                opacity: 1;              }              80% {                transform: skewX(-2deg);              }              to {                opacity: 1;                transform: translate3d(0, 0, 0);              }            }                    @keyframes slideLeft {                0% {                    opacity: 0;                    transform: translateX(-30px);                }                100% {                    opacity: 1;                    transform: translateX(0);                }            }        </style><g id="freepik--background-complete--inject-47" class="animable" style="transform-origin: 374.378px 155.2px;"><path d="M339,209.33c-44.31,0-44.38,63,0,63S383.33,209.33,339,209.33Z" style="fill: rgb(235, 235, 235); transform-origin: 339.004px 240.83px;" id="elcxnjby5wenj" class="animable"></path><path d="M365.89,246.74C363.53,257.58,354.54,267,338.94,267c-36.82,0-36.77-52.3,0-52.3.24,0,.48,0,.73,0-34.61.63-34.44,50.16.67,50.16C354.67,264.86,363.2,256.57,365.89,246.74Z" style="fill: rgb(219, 219, 219); transform-origin: 338.617px 240.85px;" id="elak16os140g8" class="animable"></path><path d="M339.21,221.58a1.12,1.12,0,0,1,1.15,1v1.76a16.43,16.43,0,0,1,8.54,3.07c.43.3.67.57.67,1a1.29,1.29,0,0,1-2.11.78,14.4,14.4,0,0,0-7.19-2.85v12.28c7.28,1.41,10.35,3.91,10.35,8.21,0,4.65-4.27,7.94-10.26,8.11v3.42a1.15,1.15,0,0,1-2.3,0V255a18.84,18.84,0,0,1-10.78-4.26,1.1,1.1,0,0,1-.53-.92,1.19,1.19,0,0,1,1.2-1.09,1.27,1.27,0,0,1,.86.3,16.13,16.13,0,0,0,9.35,4v-12.5C331,239,328,236.62,328,232.24s4.21-7.81,10.06-7.94v-1.67A1.12,1.12,0,0,1,339.21,221.58Zm-1,16.67v-12c-4.65.09-7.72,2.63-7.72,5.79C330.44,235,332,236.89,338.16,238.25Zm2.11,2.67V253c4.79-.09,7.91-2.63,7.91-6C348.18,244,346.5,242.19,340.27,240.92Z" style="fill: rgb(219, 219, 219); transform-origin: 338.685px 240.545px;" id="elzqlfftfbcqa" class="animable"></path><path d="M392.49,38.26c-37.71,3.78-32.4,57.41,5.37,53.63S430.26,34.48,392.49,38.26Z" style="fill: rgb(235, 235, 235); transform-origin: 395.187px 65.075px;" id="el9d6e1zuwu2h" class="animable"></path><path d="M418.61,67.8c-1.09,9.43-7.93,18.2-21.21,19.53-31.34,3.14-35.75-41.38-4.46-44.51l.62,0c-29.4,3.49-25,45.62,4.85,42.63C410.6,84.18,417.16,76.4,418.61,67.8Z" style="fill: rgb(219, 219, 219); transform-origin: 395.088px 65.1542px;" id="eld0fc34fds7j" class="animable"></path><path d="M393.76,48.66a1,1,0,0,1,1.07.8L395,51a14.09,14.09,0,0,1,7.52,1.88c.4.23.62.43.66.8a1.1,1.1,0,0,1-1.73.85,12.32,12.32,0,0,0-6.36-1.81l1.05,10.45c6.32.58,9.14,2.44,9.51,6.1.39,4-3,7.12-8,7.78l.29,2.91a1,1,0,0,1-2,.2l-.29-3a16.13,16.13,0,0,1-9.55-2.7,1,1,0,0,1-.52-.74,1,1,0,0,1,.92-1,1.06,1.06,0,0,1,.76.18,13.77,13.77,0,0,0,8.3,2.6l-1.07-10.64c-6.24-.61-9-2.42-9.35-6.15s2.93-7,7.89-7.61l-.14-1.42A1,1,0,0,1,393.76,48.66Zm.52,14.28-1-10.19c-3.95.47-6.34,2.9-6.07,5.58S388.9,62.31,394.28,62.94Zm2,2.1,1,10.3c4.07-.48,6.51-2.91,6.22-5.75C403.3,67,401.72,65.59,396.31,65Z" style="fill: rgb(219, 219, 219); transform-origin: 395.397px 64.8581px;" id="el7sjqx1yeb7w" class="animable"></path><path d="M304.67,94.28c-31.53,19.55-2.63,66.28,28.95,46.7S336.24,74.69,304.67,94.28Z" style="fill: rgb(219, 219, 219); transform-origin: 319.155px 117.627px;" id="el0ke8p7jmsoxg" class="animable"></path><path d="M307.63,92.44c-30.05,18.64-1.14,65.37,29,46.7S337.72,73.78,307.63,92.44Z" style="fill: rgb(235, 235, 235); transform-origin: 322.145px 115.791px;" id="elu2mphq5jki" class="animable"></path><path d="M343.09,108.84c3.38,9,1.61,19.77-9,26.33-25,15.49-49-23.29-24-38.76l.5-.29c-23.18,15-.3,51.66,23.51,36.89C343.81,127,345.79,117.25,343.09,108.84Z" style="fill: rgb(219, 219, 219); transform-origin: 322.083px 117.438px;" id="elwe68o7179qg" class="animable"></path><path d="M317.94,99.6a.93.93,0,0,1,1.12.65l.39,1.48a12.51,12.51,0,0,1,7.27.83,1.09,1.09,0,0,1,.75.72,1,1,0,0,1-.72,1.18.93.93,0,0,1-.73-.08,10.92,10.92,0,0,0-6.19-.93l2.76,10.35c5.93-.32,8.86,1.16,9.83,4.78,1,3.92-1.51,7.57-6.09,9l.77,2.88a.92.92,0,1,1-1.77.48l-.78-2.92a14.47,14.47,0,0,1-9.28-1.37,1,1,0,0,1-.61-.67,1,1,0,0,1,.68-1.17,1,1,0,0,1,.73.08,12.34,12.34,0,0,0,8.11,1.44l-2.81-10.53c-5.87.26-8.7-1.17-9.69-4.86s1.5-7.45,6-8.76l-.37-1.41A.93.93,0,0,1,317.94,99.6Zm2.93,14.26-2.69-10.09c-3.57,1-5.36,3.81-4.65,6.47S315.79,114,320.87,113.86Zm2.22,1.82,2.72,10.21c3.68-1.06,5.51-3.85,4.76-6.66C329.89,116.68,328.19,115.48,323.09,115.68Z" style="fill: rgb(219, 219, 219); transform-origin: 322.051px 115.632px;" id="elrtivqz0m7d" class="animable"></path><path d="M444.09,182.91c31.53,19.55,2.62,66.28-29,46.7S412.51,163.32,444.09,182.91Z" style="fill: rgb(219, 219, 219); transform-origin: 429.574px 206.257px;" id="elgdxi6pn4hk6" class="animable"></path><path d="M441.13,181.07c30.05,18.64,1.14,65.37-29,46.7S411,162.41,441.13,181.07Z" style="fill: rgb(235, 235, 235); transform-origin: 426.611px 204.421px;" id="elu96m65hgtkc" class="animable"></path><path d="M405.67,197.47c-3.38,9-1.61,19.77,9,26.33,25,15.49,49-23.29,24-38.75a4.94,4.94,0,0,0-.49-.3c23.18,15,.3,51.66-23.52,36.89C405,215.62,403,205.88,405.67,197.47Z" style="fill: rgb(219, 219, 219); transform-origin: 426.677px 206.068px;" id="ellyniyxlhp29" class="animable"></path><path d="M433.14,189a.93.93,0,0,1,.5,1.2l-.59,1.41a12.47,12.47,0,0,1,5.26,5.08,1,1,0,0,1,.16,1,1,1,0,0,1-1.29.5.92.92,0,0,1-.53-.51,10.91,10.91,0,0,0-4.35-4.49l-4.1,9.89c4.9,3.36,6.33,6.31,4.89,9.77-1.55,3.75-5.8,5.09-10.27,3.4l-1.14,2.76a.92.92,0,0,1-1.7-.7l1.16-2.8a14.38,14.38,0,0,1-6.53-6.72,1,1,0,0,1,1.17-1.42.94.94,0,0,1,.53.51,12.34,12.34,0,0,0,5.56,6.07l4.18-10.07c-4.82-3.36-6.21-6.21-4.74-9.75s5.72-5,10.07-3.31l.56-1.35A.93.93,0,0,1,433.14,189Zm-6.35,13.1,4-9.64c-3.45-1.35-6.56-.24-7.62,2.3S422.69,199.14,426.79,202.12Zm.66,2.8-4,9.75c3.56,1.4,6.71.3,7.82-2.38C432.24,209.85,431.62,207.85,427.45,204.92Z" style="fill: rgb(219, 219, 219); transform-origin: 426.518px 204.237px;" id="elpzwufuhtnh" class="animable"></path></g><g id="freepik--Clipboard--inject-47" class="animable" style="transform-origin: 162.4px 189.105px;"><rect x="48.26" y="52.03" width="222.57" height="295.63" style="fill: rgb(38, 50, 56); transform-origin: 159.545px 199.845px;" id="el96q9460wvqi" class="animable"></rect><rect x="53.97" y="52.03" width="222.57" height="295.63" style="fill: rgb(55, 71, 79); transform-origin: 165.255px 199.845px;" id="elbu1qpanvkvg" class="animable"></rect><g id="elt7vbbhapuxp"><rect x="69.11" y="65.07" width="196.48" height="266.35" style="fill: rgb(235, 235, 235); transform-origin: 167.35px 198.245px; transform: rotate(-0.73deg);" class="animable"></rect></g><g id="elu8ph96mksn"><rect x="31.15" y="100.01" width="266.35" height="196.48" style="fill: rgb(219, 219, 219); transform-origin: 164.325px 198.25px; transform: rotate(-88.76deg);" class="animable"></rect></g><rect x="66.08" y="65.07" width="196.48" height="266.35" style="fill: rgb(255, 255, 255); transform-origin: 164.32px 198.245px;" id="el16273eqr7sa" class="animable"></rect><path d="M139.86,109.92V98.57a1.05,1.05,0,0,1,1.06-1.06A1.08,1.08,0,0,1,142,98.57v10.27h5.21a1.07,1.07,0,0,1,0,2.14h-6.29A1.05,1.05,0,0,1,139.86,109.92Z" style="fill: rgb(66, 140, 255); transform-origin: 144.07px 104.245px;" id="elb56fiz4lst" class="animable"></path><path d="M160.55,99.18a7.08,7.08,0,0,1,0,9.74A6.32,6.32,0,0,1,156,111a6.52,6.52,0,0,1-4.72-2.06,7.19,7.19,0,0,1,0-9.74A6.44,6.44,0,0,1,156,97.12,6.24,6.24,0,0,1,160.55,99.18Zm-.25,4.87a5,5,0,0,0-1.31-3.37,4.17,4.17,0,0,0-3-1.36,4.22,4.22,0,0,0-3.12,1.36,4.9,4.9,0,0,0-1.31,3.37,4.81,4.81,0,0,0,1.31,3.35,4.11,4.11,0,0,0,6.16,0A4.9,4.9,0,0,0,160.3,104.05Z" style="fill: rgb(66, 140, 255); transform-origin: 155.935px 104.06px;" id="elu20gbmvz2cf" class="animable"></path><path d="M172.38,107.8h-4.67l-.94,2.51a1.09,1.09,0,0,1-1,.67,1,1,0,0,1-.36-.06,1.09,1.09,0,0,1-.64-1.38L169,98.2a1.11,1.11,0,0,1,2,0l4.25,11.34a1.09,1.09,0,0,1-.64,1.38,1,1,0,0,1-.36.06,1,1,0,0,1-1-.67Zm-.79-2.11L170,101.55l-1.56,4.14Z" style="fill: rgb(66, 140, 255); transform-origin: 170.01px 104.277px;" id="el2lt10x923qq" class="animable"></path><path d="M180.06,109.92a1.06,1.06,0,0,1-1,1.06,1.05,1.05,0,0,1-1.05-1.06V98.72a1,1,0,0,1,.42-.88,1.06,1.06,0,0,1,1.46.23l6.22,8.6V98.74a1,1,0,0,1,1-1,1.06,1.06,0,0,1,1,1v11.18a1.07,1.07,0,0,1-1,1.06,1,1,0,0,1-.79-.39.35.35,0,0,1-.1-.11l-6.16-8.54Z" style="fill: rgb(66, 140, 255); transform-origin: 183.059px 104.313px;" id="elhycwqtef7bi" class="animable"></path><path d="M98,142c42.52-.3,90.21-.31,132.72,0-42.51.31-90.2.31-132.72,0Z" style="fill: rgb(38, 50, 56); transform-origin: 164.36px 142.002px;" id="elv6xmd20jimd" class="animable"></path><path d="M98,148.51c42.52-.31,90.21-.31,132.72,0-42.51.31-90.2.3-132.72,0Z" style="fill: rgb(38, 50, 56); transform-origin: 164.36px 148.508px;" id="el60g73is3xpf" class="animable"></path><path d="M98,155.06c42.52-.3,90.21-.31,132.72,0-42.51.31-90.2.31-132.72,0Z" style="fill: rgb(38, 50, 56); transform-origin: 164.36px 155.062px;" id="el6ity135n9pg" class="animable"></path><path d="M98,161.62c42.52-.31,90.21-.31,132.72,0-42.51.31-90.2.3-132.72,0Z" style="fill: rgb(38, 50, 56); transform-origin: 164.36px 161.618px;" id="eld8ydndmdoth" class="animable"></path><path d="M98,168.17c42.52-.3,90.21-.31,132.72,0-42.51.31-90.2.31-132.72,0Z" style="fill: rgb(38, 50, 56); transform-origin: 164.36px 168.172px;" id="elfc8kn7z7j77" class="animable"></path><path d="M98,174.73c25.57-.31,54.25-.31,79.82,0-25.57.31-54.25.3-79.82,0Z" style="fill: rgb(38, 50, 56); transform-origin: 137.91px 174.728px;" id="elulfxskd0wxc" class="animable"></path><path d="M98,187.84c42.52-.31,90.21-.31,132.72,0-42.51.31-90.2.31-132.72,0Z" style="fill: rgb(38, 50, 56); transform-origin: 164.36px 187.84px;" id="elqe8z0njkon" class="animable"></path><path d="M110.37,243c34.56-.3,73.34-.31,107.9,0-34.56.31-73.34.31-107.9,0Z" style="fill: rgb(38, 50, 56); transform-origin: 164.32px 243.002px;" id="ell93xdfj1zvd" class="animable"></path><path d="M98,194.39c42.52-.3,90.21-.3,132.72,0-42.51.31-90.2.31-132.72,0Z" style="fill: rgb(38, 50, 56); transform-origin: 164.36px 194.394px;" id="elldz318z7bdf" class="animable"></path><path d="M98,201c42.52-.31,90.21-.31,132.72,0-42.51.31-90.2.31-132.72,0Z" style="fill: rgb(38, 50, 56); transform-origin: 164.36px 201px;" id="elbdoq4iz4uci" class="animable"></path><path d="M182.63,263.86c15.5-.32,32.55-.33,48.05,0-15.5.33-32.55.33-48.05,0Z" style="fill: rgb(38, 50, 56); transform-origin: 206.655px 263.862px;" id="eld5dv9zjp2gd" class="animable"></path><path d="M182.63,270.42c15.5-.33,32.55-.33,48.05,0-15.5.33-32.55.32-48.05,0Z" style="fill: rgb(38, 50, 56); transform-origin: 206.655px 270.418px;" id="el87950v9up0c" class="animable"></path><path d="M194.36,277c11.71-.32,24.61-.33,36.32,0-11.71.33-24.61.33-36.32,0Z" style="fill: rgb(38, 50, 56); transform-origin: 212.52px 277.002px;" id="elgb85zck0qc" class="animable"></path><path d="M98,207.5c25.9-.3,55-.3,80.84,0-25.89.31-54.94.31-80.84,0Z" style="fill: rgb(38, 50, 56); transform-origin: 138.42px 207.504px;" id="el7d3pt2b0m8p" class="animable"></path><path d="M98,299.92c23.08-.33,48.47-.33,71.56,0-23.09.33-48.48.33-71.56,0Z" style="fill: rgb(38, 50, 56); transform-origin: 133.78px 299.92px;" id="el6r0kiliv7e7" class="animable"></path><path d="M100.56,296c1.79-1.23,3.62-2.39,5.51-3.47a25.94,25.94,0,0,1,6-2.68,5.66,5.66,0,0,1,.82-.16.86.86,0,0,1,.91.3,3.16,3.16,0,0,1,.38,1.69,19.81,19.81,0,0,1-.34,3.27c-.38,2.14-.91,4.25-1.49,6.35a98.07,98.07,0,0,1-4.33,12.3,19.54,19.54,0,0,1-1.54,2.93,4,4,0,0,1-.59.68.92.92,0,0,1-.56.25.64.64,0,0,1-.4-.14l-.19-.2a3.21,3.21,0,0,1-.46-1.74,22.05,22.05,0,0,1,1.14-6.48,38.91,38.91,0,0,1,2.45-6.07,18.69,18.69,0,0,1,3.82-5.33,6.08,6.08,0,0,1,3-1.43,3.65,3.65,0,0,1,1.7.15,2.6,2.6,0,0,1,1.19,1.22,8.44,8.44,0,0,0,.91,1.31,1.32,1.32,0,0,0,1.31.43,8.55,8.55,0,0,0,2.73-1.6c.43-.32.86-.66,1.31-1a5.58,5.58,0,0,1,.71-.43.81.81,0,0,1,.9-.05c.42.53.32,1.1.53,1.58a1,1,0,0,0,1.11.71,9.54,9.54,0,0,0,2.39-2.08c.73-.79,1.45-1.61,2.16-2.43,1.41-1.64,2.81-3.3,4.26-4.91.73-.81,1.46-1.61,2.25-2.37a12.91,12.91,0,0,1,1.25-1.08,3.81,3.81,0,0,1,.74-.44,1.3,1.3,0,0,1,.47-.11.65.65,0,0,1,.5.27,2.89,2.89,0,0,1,.23,1.73,14.21,14.21,0,0,1-.27,1.63c-.23,1.07-.53,2.12-.86,3.16a32,32,0,0,1-2.6,6,6.45,6.45,0,0,1-1,1.36,1.19,1.19,0,0,1-1,.39,3.22,3.22,0,0,1-.87-.25,4,4,0,0,1-2.18-2.66,1.49,1.49,0,0,1,.12-1,1.08,1.08,0,0,1,.42-.4,1.21,1.21,0,0,1,.56-.12,6.17,6.17,0,0,1,1.68.4c1,.37,2,.81,3,1.24s2,.88,3,1.28c.5.2,1,.39,1.5.54a4.21,4.21,0,0,0,.72.15,1.1,1.1,0,0,0,.6-.12c.81-.42,1.36-1.42,2.17-2.23a2.66,2.66,0,0,1,1.66-.84.81.81,0,0,1,.67.21.91.91,0,0,1,.23.66,4.92,4.92,0,0,1-.16.89c-.15.49-.22,1.1-.08,1.13s.78.05,1.24-.07a8.47,8.47,0,0,0,2.74-1.43c.44-.31.88-.65,1.38-.94a2.76,2.76,0,0,1,1.81-.43,6.76,6.76,0,0,1,2.78,2,7.46,7.46,0,0,0,1.16,1c.19.12.37.16.42.12a5,5,0,0,0,.62-.38,26.33,26.33,0,0,0,2.44-2.06,27.84,27.84,0,0,0,4.2-4.83,5.59,5.59,0,0,0,1.05-2.81c0-1-1-1.41-2-1.58a17.9,17.9,0,0,0-6.36.09A16.09,16.09,0,0,0,157,288a6.47,6.47,0,0,0-1.37.75c-.4.29-.76.71-.64,1.1s.58.71,1,.94,1,.4,1.48.6a30.54,30.54,0,0,0,3.1.91c4.21,1,8.58,1,12.9,1.23v.08c-4.32-.13-8.7,0-13-.95a30.57,30.57,0,0,1-3.15-.88,16.3,16.3,0,0,1-1.54-.6,2.22,2.22,0,0,1-1.28-1.21,1.59,1.59,0,0,1,.79-1.6,7.38,7.38,0,0,1,1.47-.83,16.63,16.63,0,0,1,3.16-.94,18.41,18.41,0,0,1,6.58-.18,4.64,4.64,0,0,1,1.64.56,2,2,0,0,1,.95,1.6,6,6,0,0,1-1.12,3.23,26.62,26.62,0,0,1-4.28,5,26,26,0,0,1-2.52,2.13,4.93,4.93,0,0,1-.76.46,1.19,1.19,0,0,1-1.12-.16,7.57,7.57,0,0,1-1.3-1.11,6.39,6.39,0,0,0-2.39-1.8c-.8-.12-1.73.63-2.58,1.24a9.22,9.22,0,0,1-3,1.56,2.4,2.4,0,0,1-1.92-.08,1.14,1.14,0,0,1-.37-1.09,4.91,4.91,0,0,1,.17-.85,4,4,0,0,0,.14-.71c0-.1,0-.14,0-.1s0,0-.1,0a2,2,0,0,0-1.16.63c-.74.68-1.24,1.73-2.39,2.35a1.74,1.74,0,0,1-1,.18,4.46,4.46,0,0,1-.87-.18c-.54-.16-1.05-.37-1.56-.57-1-.42-2-.87-3-1.31s-2-.87-3-1.23a5.7,5.7,0,0,0-1.46-.37c-.35,0-.54.28-.45.74a3.41,3.41,0,0,0,1.8,2.22,2.43,2.43,0,0,0,.68.21c.14,0,.3-.07.49-.23a5.77,5.77,0,0,0,.93-1.22,35.21,35.21,0,0,0,3.52-9c.11-.53.21-1,.27-1.58a2.63,2.63,0,0,0-.13-1.45c-.15-.28-.77.08-1.15.36a13.29,13.29,0,0,0-1.22,1c-.78.74-1.52,1.53-2.25,2.33-1.46,1.6-2.87,3.25-4.3,4.87-.72.82-1.44,1.63-2.19,2.42a9.78,9.78,0,0,1-2.51,2.13,1.22,1.22,0,0,1-1.4-.86c-.2-.51-.19-1.15-.47-1.47-.14-.13-.4,0-.63.09a5.32,5.32,0,0,0-.67.42c-.43.31-.86.65-1.29,1a8.88,8.88,0,0,1-2.83,1.69,1.68,1.68,0,0,1-1.63-.51,9.27,9.27,0,0,1-1-1.35c-.29-.45-.58-.93-1-1.07a3.2,3.2,0,0,0-1.51-.1,5.64,5.64,0,0,0-2.78,1.36,18.15,18.15,0,0,0-3.65,5.23,36.79,36.79,0,0,0-2.35,6,21.44,21.44,0,0,0-1.06,6.29,2.69,2.69,0,0,0,.34,1.37l.09.09h0a.28.28,0,0,0,.15-.09,3.82,3.82,0,0,0,.46-.56,21.61,21.61,0,0,0,1.5-2.82,96,96,0,0,0,4.42-12.17c.6-2.08,1.16-4.17,1.55-6.29a18.23,18.23,0,0,0,.36-3.19,2.7,2.7,0,0,0-.28-1.45c-.13-.16-.25-.21-.54-.15a5.29,5.29,0,0,0-.78.13,29.31,29.31,0,0,0-5.92,2.53q-2.86,1.54-5.59,3.32Z" style="fill: rgb(38, 50, 56); transform-origin: 136.975px 301.215px;" id="eluiz066vsuo" class="animable"></path><rect x="94.34" y="116.63" width="139.96" height="1.89" style="fill: rgb(66, 140, 255); transform-origin: 164.32px 117.575px;" id="elibdmbd7tx4h" class="animable"></rect><rect x="114.96" y="46.63" width="96.51" height="29.42" style="fill: rgb(199, 199, 199); transform-origin: 163.215px 61.34px;" id="elbz8kkatyom" class="animable"></rect><path d="M192.72,30.55h-59.9l-2.65,16.08h66.09ZM163.21,42.12a3.53,3.53,0,1,1,3.53-3.53A3.52,3.52,0,0,1,163.21,42.12Z" style="fill: rgb(199, 199, 199); transform-origin: 163.215px 38.59px;" id="ellvlqu0paqaq" class="animable"></path><polygon points="196.26 46.63 130.17 46.63 130.76 43.03 195.46 43.03 196.26 46.63" style="fill: rgb(166, 166, 166); transform-origin: 163.215px 44.83px;" id="el3hd1kd6ib4g" class="animable"></polygon></g><g id="freepik--Stamp--inject-47" class="animable" style="transform-origin: 139.86px 224.935px;"><path d="M105.37,234.3l-4,.73-.4,2.26a.94.94,0,0,1-.74.73,1.17,1.17,0,0,1-.32,0A.94.94,0,0,1,99.2,237L101,226.72a.93.93,0,0,1,.75-.73.91.91,0,0,1,1,.41l5.37,8.9a.94.94,0,0,1-.32,1.27.82.82,0,0,1-.3.11.88.88,0,0,1-.93-.42Zm-1-1.66-2-3.25-.66,3.73Z" style="fill: rgb(66, 140, 255); transform-origin: 103.72px 231.997px;" id="elgz4ahj9rdr4" class="animable"></path><path d="M113.55,231l-2,.37.65,3.53a.92.92,0,0,1-1.8.33l-1.78-9.58a.9.9,0,0,1,.73-1.06h0l2.89-.54a3.54,3.54,0,1,1,1.3,7Zm-2.34-1.43,2-.37a1.7,1.7,0,1,0-.62-3.35l-2,.37Z" style="fill: rgb(66, 140, 255); transform-origin: 112.527px 229.94px;" id="elwl4bhll3d0j" class="animable"></path><path d="M123,229.22l-2,.37.65,3.52a.93.93,0,0,1-.74,1.07.92.92,0,0,1-1.06-.73l-1.78-9.59a.9.9,0,0,1,.72-1.06h0l2.89-.54a3.54,3.54,0,1,1,1.29,7Zm-2.33-1.44,2-.37a1.7,1.7,0,1,0-.62-3.34l-2,.37Z" style="fill: rgb(66, 140, 255); transform-origin: 121.968px 228.197px;" id="el7fti0hn1jhq" class="animable"></path><path d="M136.79,229.83a.92.92,0,0,1-.35,1.25,2.49,2.49,0,0,1-.35.11h0a1.16,1.16,0,0,1-.67-.06,1.65,1.65,0,0,1-.62-.47,4.29,4.29,0,0,1-.7-1.89,1.39,1.39,0,0,0-.9-1,3.44,3.44,0,0,0-1-.22l-1.91.36.65,3.52a.93.93,0,0,1-.74,1.07.91.91,0,0,1-1.06-.73l-1.78-9.59a.89.89,0,0,1,.72-1.06h0l2.89-.54a3.54,3.54,0,0,1,3.36,5.75,2.6,2.6,0,0,1,.68.49,3.19,3.19,0,0,1,.86,1.66,4.24,4.24,0,0,0,.24.95A.85.85,0,0,1,136.79,229.83Zm-3.49-6.11a1.69,1.69,0,0,0-2-1.37l-2,.37.62,3.34,2-.37A1.69,1.69,0,0,0,133.3,223.72Z" style="fill: rgb(66, 140, 255); transform-origin: 132.124px 226.518px;" id="elqubn6ruoel" class="animable"></path><path d="M146.52,219.11a6.09,6.09,0,0,1,2.41,3.81,6,6,0,0,1-.88,4.41,5.4,5.4,0,0,1-3.56,2.47,5.58,5.58,0,0,1-4.3-1,6.17,6.17,0,0,1-1.53-8.22,5.51,5.51,0,0,1,3.66-2.48A5.35,5.35,0,0,1,146.52,219.11Zm.56,4.15a4.3,4.3,0,0,0-1.64-2.63,3.55,3.55,0,0,0-2.78-.68,3.59,3.59,0,0,0-2.42,1.64,4.18,4.18,0,0,0-.57,3,4.06,4.06,0,0,0,1.63,2.62,3.57,3.57,0,0,0,2.85.68,3.61,3.61,0,0,0,2.35-1.64A4.29,4.29,0,0,0,147.08,223.26Z" style="fill: rgb(66, 140, 255); transform-origin: 143.375px 223.951px;" id="elgsryf0irmce" class="animable"></path><path d="M156.25,227.44a.52.52,0,0,0-.13-.06s0,0,0,0l-.1-.09s0,0,0,0a.53.53,0,0,0-.1-.12l-5.75-8.74a.91.91,0,0,1,1.52-1l4.56,6.93,1.77-8.11a.92.92,0,0,1,1.09-.69.91.91,0,0,1,.7,1.06l-2.25,10.24a.37.37,0,0,1,0,.14s0,0,0,0-.06.08-.07.11l0,.06a.7.7,0,0,0-.08.1l0,0a1.43,1.43,0,0,1-.12.11l0,0a.61.61,0,0,0-.12,0h0a.58.58,0,0,1-.16,0,.49.49,0,0,1-.17,0h0a.33.33,0,0,0-.14,0s0,0,0,0h0l-.17-.07Z" style="fill: rgb(66, 140, 255); transform-origin: 154.929px 221.49px;" id="elkzx90zo2raa" class="animable"></path><path d="M164.11,225.22l-1.78-9.58a.88.88,0,0,1,.73-1.06h.05l5.26-1a.92.92,0,0,1,1.06.73.93.93,0,0,1-.73,1.07l-4.4.82.55,3,3.79-.7a.93.93,0,0,1,1.06.73.92.92,0,0,1-.72,1.07l-3.79.71.55,3,4.41-.82a.92.92,0,0,1,.33,1.8l-5.26,1s0,0,0,0v0A.91.91,0,0,1,164.11,225.22Z" style="fill: rgb(66, 140, 255); transform-origin: 166.725px 219.79px;" id="elx0nvicln11" class="animable"></path><path d="M173.75,223.43,172,213.84a.89.89,0,0,1,.73-1.06l1.91-.35a5.78,5.78,0,0,1,2.12,11.37l-1.92.36A.91.91,0,0,1,173.75,223.43Zm1.64-1.25,1-.18a4,4,0,0,0-1.44-7.77l-1,.19Z" style="fill: rgb(66, 140, 255); transform-origin: 176.732px 218.256px;" id="elk7o9g6a0i1" class="animable"></path><path d="M190.08,229,94.45,246.75,89.64,220.9l95.63-17.78Zm-94,15.42,91.64-17-4.06-21.86L92,222.53Z" style="fill: rgb(66, 140, 255); transform-origin: 139.86px 224.935px;" id="elvuhs622gg2" class="animable"></path></g><g id="freepik--Floor--inject-47" class="animable" style="transform-origin: 250px 469.588px;"><path d="M42.29,469.59c133.07-.61,282.35-.62,415.42,0-133.07.61-282.35.61-415.42,0Z" style="fill: rgb(38, 50, 56); transform-origin: 250px 469.588px;" id="elrbz9g4kldmj" class="animable"></path></g><g id="freepik--Car--inject-47" class="animable" style="transform-origin: 250px 345.95px;"><rect x="380.59" y="366.57" width="40.65" height="103.18" rx="11.25" style="fill: rgb(38, 50, 56); transform-origin: 400.915px 418.16px;" id="elhkec9m5m1ct" class="animable"></rect><path d="M408,342.2s10.37,5.32,12.66,9.86-2.43,50.06-2.59,53.56-9,25.92-10.54,28.24-21.89,4.05-21.89,4.05Z" style="fill: rgb(66, 140, 255); transform-origin: 403.463px 390.055px;" id="elk4nkoqqrkh8" class="animable"></path><g id="elrauni15uw2i"><path d="M408,342.2s10.37,5.32,12.66,9.86-2.43,50.06-2.59,53.56-9,25.92-10.54,28.24-21.89,4.05-21.89,4.05Z" style="opacity: 0.1; transform-origin: 403.463px 390.055px;" class="animable"></path></g><rect x="78.76" y="366.57" width="40.65" height="103.18" rx="11.25" style="fill: rgb(38, 50, 56); transform-origin: 99.085px 418.16px;" id="el28fvfnt24qa" class="animable"></rect><path d="M92,342.2s-10.37,5.32-12.66,9.86,2.43,50.06,2.59,53.56,9,25.92,10.54,28.24,21.89,4.05,21.89,4.05Z" style="fill: rgb(66, 140, 255); transform-origin: 96.5371px 390.055px;" id="el1e6tx0hxsv7" class="animable"></path><g id="elda69mo7hggp"><path d="M92,342.2s-10.37,5.32-12.66,9.86,2.43,50.06,2.59,53.56,9,25.92,10.54,28.24,21.89,4.05,21.89,4.05Z" style="opacity: 0.1; transform-origin: 96.5371px 390.055px;" class="animable"></path></g><path d="M372.49,290.12s6.63-1.6,7.8-2.93,6.21-6.93,7.66-6.93c5.46,0,19.87,3,24.31,6.53,2.42,1.92-2.6,11.06-5.46,13.19s-17.16,2.4-19.89,1.33-7.14-5.86-7.14-5.86l-7.28.8Z" style="fill: rgb(66, 140, 255); transform-origin: 392.695px 291.091px;" id="elnq9mb0j94w" class="animable"></path><g id="elxg4jq5xcmag"><g style="opacity: 0.1; transform-origin: 392.695px 291.091px;" class="animable"><path d="M372.49,290.12s6.63-1.6,7.8-2.93,6.21-6.93,7.66-6.93c5.46,0,19.87,3,24.31,6.53,2.42,1.92-2.6,11.06-5.46,13.19s-17.16,2.4-19.89,1.33-7.14-5.86-7.14-5.86l-7.28.8Z" id="el395u4g0welo" class="animable" style="transform-origin: 392.695px 291.091px;"></path></g></g><path d="M127.63,290.12s-6.63-1.6-7.8-2.93-6.21-6.93-7.67-6.93c-5.46,0-19.87,3-24.3,6.53-2.43,1.92,2.6,11.06,5.46,13.19s17.15,2.4,19.88,1.33,7.15-5.86,7.15-5.86l7.28.8Z" style="fill: rgb(66, 140, 255); transform-origin: 107.423px 291.091px;" id="eloo8mtyk9fk" class="animable"></path><g id="elnldhdnvo7"><g style="opacity: 0.1; transform-origin: 107.423px 291.091px;" class="animable"><path d="M127.63,290.12s-6.63-1.6-7.8-2.93-6.21-6.93-7.67-6.93c-5.46,0-19.87,3-24.3,6.53-2.43,1.92,2.6,11.06,5.46,13.19s17.15,2.4,19.88,1.33,7.15-5.86,7.15-5.86l7.28.8Z" id="el6qywl3s2um6" class="animable" style="transform-origin: 107.423px 291.091px;"></path></g></g><path d="M407.67,425.37c-1.53,7-22.51,14.34-32.12,14.34-1.09,0-8.11-1.64-9.9-1.46-14,1.38-45,5.8-115.59,5.8-66.6,0-101.6-4.42-115.6-5.8-1.79-.18-8.81,1.46-9.89,1.46-9.62,0-30.6-7.35-32.13-14.34s-6.06-71.67-5.13-79,22.63-30.5,24.81-33.68,38.17-76.24,49.32-83.23,52.36-7.31,88.61-7.31h0c36.25,0,77.45.33,88.61,7.31s47.17,80.05,49.32,83.23,23.9,26.36,24.81,33.68S409.25,418.41,407.67,425.37Z" style="fill: rgb(66, 140, 255); transform-origin: 250.048px 333.1px;" id="ela5z73z10w7i" class="animable"></path><path d="M114.62,400.49a1144.82,1144.82,0,0,0,270.88,0c3.84,2.75-5.09,28.84-16.23,30a1177,1177,0,0,1-238.42,0C119.71,429.33,110.77,403.24,114.62,400.49Z" style="fill: rgb(38, 50, 56); transform-origin: 250.058px 418.516px;" id="elli4rkjr2v4" class="animable"></path><path d="M383.88,414c-.21.54-.44,1.1-.68,1.64a1161.36,1161.36,0,0,1-266.29,0c-.24-.55-.47-1.1-.68-1.64A1159.67,1159.67,0,0,0,383.88,414Z" style="fill: rgb(66, 140, 255); transform-origin: 250.055px 418.649px;" id="el5h45iry5mo9" class="animable"></path><path d="M155.52,432.7l-1.81-.15q-2.15-6.8-4.21-13.61c-.16-.54-.32-1.07-.49-1.61q-2.06-6.81-4-13.63l1.75.16q2,6.83,4.09,13.63l.48,1.6Q153.36,425.9,155.52,432.7Z" style="fill: rgb(66, 140, 255); transform-origin: 150.265px 418.2px;" id="elapnqpvcm16l" class="animable"></path><path d="M192.3,435.09l-1.74-.09c-.94-4.45-1.85-8.91-2.76-13.37-.1-.52-.21-1.05-.31-1.57q-1.35-6.69-2.66-13.38l1.68.09q1.32,6.69,2.68,13.38l.33,1.57Q190.89,428.41,192.3,435.09Z" style="fill: rgb(66, 140, 255); transform-origin: 188.565px 420.885px;" id="elup4dq4hwe1p" class="animable"></path><path d="M359.07,403.34q-2,6.82-4,13.64l-.48,1.61q-2.05,6.81-4.16,13.63l-1.8.15q2.13-6.81,4.19-13.63c.16-.53.32-1.06.47-1.6q2.06-6.81,4-13.64Z" style="fill: rgb(66, 140, 255); transform-origin: 353.85px 417.855px;" id="els8g01ffdg7c" class="animable"></path><path d="M319.22,406.45q-1.28,6.69-2.6,13.38c-.1.53-.21,1.05-.31,1.58q-1.33,6.69-2.72,13.38l-1.73.09q1.39-6.69,2.73-13.37c.11-.53.21-1.05.31-1.58q1.34-6.69,2.63-13.38Z" style="fill: rgb(66, 140, 255); transform-origin: 315.54px 420.665px;" id="elqxc08kr0bvm" class="animable"></path><path d="M152.68,430q-11.16-.93-22.3-2.07a1.64,1.64,0,0,1-1.53-1.76c.18-1.58.36-3.16.55-4.74a1.67,1.67,0,0,1,1.88-1.4q11.06,1.13,22.13,2.05a1.64,1.64,0,0,1,1.56,1.73c-.14,1.58-.29,3.16-.43,4.75A1.68,1.68,0,0,1,152.68,430Z" style="fill: rgb(69, 90, 100); transform-origin: 141.909px 425.013px;" id="el9xw3dmivcp5" class="animable"></path><path d="M369.74,428q-11.14,1.14-22.3,2.07a1.68,1.68,0,0,1-1.86-1.44c-.15-1.59-.29-3.17-.43-4.75a1.63,1.63,0,0,1,1.56-1.73q11.07-.92,22.12-2.05a1.68,1.68,0,0,1,1.89,1.4c.18,1.58.36,3.16.55,4.74A1.65,1.65,0,0,1,369.74,428Z" style="fill: rgb(69, 90, 100); transform-origin: 358.21px 425.083px;" id="elh2c5am6ii08" class="animable"></path><path d="M146.45,414.15q-11-1-22-2.19a1.62,1.62,0,0,1-1.5-1.76c.2-1.58.39-3.16.59-4.74a1.66,1.66,0,0,1,1.87-1.39q10.87,1.19,21.79,2.17a1.61,1.61,0,0,1,1.52,1.73c-.15,1.58-.31,3.17-.47,4.75A1.66,1.66,0,0,1,146.45,414.15Z" style="fill: rgb(69, 90, 100); transform-origin: 135.834px 409.106px;" id="el3p1iatj2tfk" class="animable"></path><path d="M375.63,412q-11,1.2-22,2.19a1.68,1.68,0,0,1-1.85-1.43c-.15-1.58-.31-3.17-.47-4.75a1.63,1.63,0,0,1,1.53-1.73q10.9-1,21.79-2.17a1.67,1.67,0,0,1,1.87,1.39c.19,1.58.39,3.16.58,4.74A1.61,1.61,0,0,1,375.63,412Z" style="fill: rgb(69, 90, 100); transform-origin: 364.197px 409.148px;" id="el3jcjn74vk5f" class="animable"></path><rect x="213.68" y="396.17" width="72.76" height="20.56" style="fill: rgb(255, 255, 255); transform-origin: 250.06px 406.45px;" id="el8x3h7b0jegh" class="animable"></rect><path d="M360.36,301.84H139.75c-4.41,0-3.88-9.07-3.07-12.52s19.12-49.25,33.07-55.63c7.94-3.62,31-5.06,80.31-5.06s72.37,1.44,80.31,5.06c14,6.38,32.26,52.17,33.07,55.63S364.78,301.84,360.36,301.84Z" style="fill: rgb(38, 50, 56); transform-origin: 250.06px 265.235px;" id="elfpj6pok2sik" class="animable"></path><path d="M351.53,295.24H148.59c-1.88,0-3.5-11-2.8-13.1s18.59-38.87,27.2-43.39,70.64-5.35,77.07-5.35,68.48.81,77.07,5.35,26.5,41.25,27.2,43.39S353.4,295.24,351.53,295.24Z" style="fill: rgb(55, 71, 79); transform-origin: 250.06px 264.32px;" id="elq46nvle33ym" class="animable"></path><g id="elvnpx7cpxlh"><g style="opacity: 0.1; transform-origin: 249.435px 264.345px;" class="animable"><path d="M296.51,234.81l-52.75,60.43H221.38l53.55-61.34C281.81,234.12,289.34,234.4,296.51,234.81Z" style="fill: rgb(255, 255, 255); transform-origin: 258.945px 264.57px;" id="elvlzf610wh5o" class="animable"></path><path d="M343.8,261.56l-29.41,33.68H292l42.48-48.66A166.56,166.56,0,0,1,343.8,261.56Z" style="fill: rgb(255, 255, 255); transform-origin: 317.9px 270.91px;" id="elq6aqqbfl8c" class="animable"></path><path d="M258.27,233.5l-53.9,61.74h-2.6l53.94-61.79C256.5,233.47,257.36,233.47,258.27,233.5Z" style="fill: rgb(255, 255, 255); transform-origin: 230.02px 264.345px;" id="eloow1i9vjdn" class="animable"></path><path d="M183.46,236.48l-35.15,40.25c1-2,2.25-4.5,3.66-7.19l28.51-32.66C181.42,236.74,182.4,236.62,183.46,236.48Z" style="fill: rgb(255, 255, 255); transform-origin: 165.885px 256.605px;" id="elbfnml0aekeo" class="animable"></path><path d="M352.82,278.8l-14.35,16.44h-10l20.71-23.72C350.66,274.4,351.93,276.92,352.82,278.8Z" style="fill: rgb(255, 255, 255); transform-origin: 340.645px 283.38px;" id="elw1lh9mz7mnj" class="animable"></path><path d="M202.84,234.86l-52.72,60.38h-1.54c-1,0-2-3.41-2.53-6.81l46.12-52.84C195.52,235.31,199.13,235.07,202.84,234.86Z" style="fill: rgb(255, 255, 255); transform-origin: 174.445px 265.05px;" id="elta8qak4wc7" class="animable"></path></g></g><path d="M161.55,298.1h17.62a27.88,27.88,0,0,0-1.64-4.45c-.5-.57-5-1.38-7.17-1.38s-6.68.81-7.17,1.38A27.88,27.88,0,0,0,161.55,298.1Z" style="fill: rgb(38, 50, 56); transform-origin: 170.36px 295.185px;" id="el3mh95p1gk8v" class="animable"></path><path d="M169.83,292.72s10.26-3.88,11.24-4,42.39-3.42,42.39-3.42l.1.93L183,290.9c-.65.09-12.78,5-12.78,5Z" style="fill: rgb(38, 50, 56); transform-origin: 196.695px 290.6px;" id="elo48d7361m3" class="animable"></path><path d="M278,298.1h17.62a26.93,26.93,0,0,0-1.64-4.45c-.49-.57-5-1.38-7.17-1.38s-6.67.81-7.17,1.38A27.88,27.88,0,0,0,278,298.1Z" style="fill: rgb(38, 50, 56); transform-origin: 286.81px 295.185px;" id="elpq5qspgehb" class="animable"></path><path d="M286.28,292.72s10.25-3.88,11.23-4,42.39-3.42,42.39-3.42l.1.93-40.6,4.69c-.66.09-12.79,5-12.79,5Z" style="fill: rgb(38, 50, 56); transform-origin: 313.14px 290.61px;" id="elmcmj8wkmbq" class="animable"></path><g id="el1revirrtbrd"><path d="M170.4,305.86c26.12-2,53.41-2.37,79.66-2.5,26.26.12,53.52.49,79.66,2.5-26.12,2-53.42,2.38-79.66,2.5-26.26-.13-53.52-.5-79.66-2.5Z" style="fill: rgb(255, 255, 255); opacity: 0.4; transform-origin: 250.06px 305.86px;" class="animable"></path></g><g id="elq5xrot6paq"><path d="M365.81,301.84c0,.09,13.93,21.72,14,21.81a94.8,94.8,0,0,1-20.35,14c-54.12.24-162.86.29-217,0a150.94,150.94,0,0,1-22-16l-.07-.06.05-.07L134,300.89l-13.38,20.76c3.16,2.35,7.1,5.73,10.74,8.17,3.71,2.59,7.51,5.08,11.41,7.36-.66-.1,108.36-.23,108.23-.27l108.36.24c1.17-.68,3.78-1.88,5.29-2.87,5.37-3,10.5-7.23,14.91-10.59l-13.71-21.85Z" style="opacity: 0.1; transform-origin: 250.1px 319.37px;" class="animable"></path></g><g id="elkxswvrjv3wg"><path d="M405.67,360c-.19,1.43-1.39,9.59-2.59,10.1-3.38,1.38-17.63,3.85-26.3,4.44-40.74,2.18-98.4,3.69-126.72,3.59-28.32.1-86-1.41-126.72-3.59-8.68-.59-22.92-3.06-26.3-4.44-1.21-.51-2.4-8.67-2.6-10.1s6.91-21.83,8.73-22.54,23.56,7.54,57.71,10.71c35,2.83,89.14,2.41,89.18,2.66,0-.25,54.14.17,89.18-2.66,34.15-3.16,55.81-10.36,57.58-9.7S405.92,358.56,405.67,360Z" style="opacity: 0.1; transform-origin: 250.056px 357.776px;" class="animable"></path></g><g id="eld7lihftgmq8"><path d="M403.08,370.09c-12.27,4.43-25.26,6-38.1,6.82s-25.64,1.76-38.41,2.5c-25.58,1.38-51,3.07-76.51,3-41.36-.36-82.76-3.2-124.56-6.32a117.42,117.42,0,0,1-28.46-6,127.81,127.81,0,0,0,28.56,4.5c41.76,1.13,83.19,3.54,124.46,3.76,25.39.15,50.83-1.4,76.36-2.11,12.79-.46,25.6-.85,38.45-1.31,6.4-.25,12.84-.22,19.22-1.11s12.8-1.86,19-3.73Z" style="fill: rgb(255, 255, 255); opacity: 0.5; transform-origin: 250.065px 376.251px;" class="animable"></path></g><path d="M110.2,332.67c7.39-.47,43.05,16.48,44.42,18.21,1.57,1.55,6.28,18.2,4.34,20s-26.67,3.32-34.24,3.1-23.47-2.47-27.33-4.6-3.8-21.36-.79-25.63C100.43,338.31,105.56,332.85,110.2,332.67Z" style="fill: rgb(255, 255, 255); transform-origin: 126.916px 353.331px;" id="elup3qrz0ika" class="animable"></path><path d="M110.2,332.67a22.83,22.83,0,0,1,5.51,1,158.83,158.83,0,0,1,15.76,5.68,233.27,233.27,0,0,1,22.68,10.48,4.11,4.11,0,0,1,1.89,2.35,48.71,48.71,0,0,1,1.89,5.22,52.11,52.11,0,0,1,2.35,10.88c.11,2.12-.13,3.56-2.41,4-5.82,1.38-11.79,1.63-17.71,2.14a147.52,147.52,0,0,1-16.43.41,126.61,126.61,0,0,1-24.34-4.1,9,9,0,0,1-2.66-1.24c-2.46-2.94-2.32-7.2-2.59-10.81.06-5,0-10.33,2.3-14.9,3.37-4.43,7.7-10.49,13.76-11.19Zm0,0c-5.76.74-9.57,5.94-12.8,10.16a10.64,10.64,0,0,0-2.08,5,47.33,47.33,0,0,0-.53,10.89,30.12,30.12,0,0,0,1.37,8c.48,1.29,1,2.24,2.31,2.65,6.46,2,13.31,2.56,20,3.3,7.18.83,14.38.31,21.57-.17,3.61-.23,7.21-.51,10.79-.89,2.47-.33,5.22-.44,7.51-1.31,0,.11.15-.26.17-.63.15-3.93-.95-7.91-1.92-11.8a34,34,0,0,0-2.2-6.29c-.14-.32-.5-.47-.83-.72a223.41,223.41,0,0,0-22.19-11.17,135.81,135.81,0,0,0-15.66-5.91,23.39,23.39,0,0,0-5.5-1.07Z" style="fill: rgb(219, 219, 219); transform-origin: 127.221px 353.745px;" id="el3ldk8jgeq4u" class="animable"></path><path d="M130.46,355.76c.92,8.18-8.6,13.8-15.33,8.92a9.65,9.65,0,0,1-1.68-14c5.47-6.47,16.27-3.14,17,5.07Zm0,0c-.74-7.74-11.12-10.35-15.61-4a8.53,8.53,0,0,0,1.37,11.52c5.77,5,15.08.19,14.24-7.53Z" style="fill: rgb(219, 219, 219); transform-origin: 120.852px 356.885px;" id="elkd6ekl5x31n" class="animable"></path><path d="M149.57,359.86c.73,6.92-7.55,11.71-13.14,7.42a8.31,8.31,0,0,1-1.23-12.08c4.69-5.42,13.92-2.3,14.37,4.66Zm0,0c-.54-6.57-9.15-8.86-13-3.55-3.6,4.67.13,11.73,6,11.47a7.32,7.32,0,0,0,7-7.92Z" style="fill: rgb(219, 219, 219); transform-origin: 141.383px 360.676px;" id="elglkywhztrzh" class="animable"></path><path d="M109.16,349.77c-.7,3.21,0,18.3.86,20.19a11.13,11.13,0,0,0,2.33,2.81c-6.37-.88-12.72-2.09-15-3.35-3.84-2.16-3.8-21.36-.79-25.63,3.82-5.48,9-11,13.59-11.11,1.64-.06,4.77.71,8.63,2C118.79,334.67,109.81,346.56,109.16,349.77Z" style="fill: rgb(66, 140, 255); transform-origin: 106.579px 352.723px;" id="el9cma69o7mki" class="animable"></path><g id="elr6ix4oqe3u"><path d="M109.16,349.77c-.7,3.21,0,18.3.86,20.19a11.13,11.13,0,0,0,2.33,2.81c-6.37-.88-12.72-2.09-15-3.35-3.84-2.16-3.8-21.36-.79-25.63,3.82-5.48,9-11,13.59-11.11,1.64-.07,4.77.71,8.63,2C118.79,334.67,109.81,346.55,109.16,349.77Z" style="opacity: 0.2; transform-origin: 106.579px 352.723px;" class="animable"></path></g><path d="M389.92,332.67c-7.4-.47-43.06,16.48-44.43,18.21-1.56,1.55-6.28,18.2-4.34,20s26.68,3.32,34.24,3.1,23.47-2.47,27.33-4.6,3.8-21.36.79-25.63C399.69,338.31,394.55,332.85,389.92,332.67Z" style="fill: rgb(255, 255, 255); transform-origin: 373.194px 353.331px;" id="eln5ktandxim8" class="animable"></path><path d="M389.92,332.67a23.89,23.89,0,0,0-5.51,1.07,135,135,0,0,0-15.65,5.91,222.49,222.49,0,0,0-22.2,11.17c-.33.25-.69.4-.83.72a35.48,35.48,0,0,0-2.2,6.29c-1,3.89-2.06,7.87-1.91,11.8,0,.37.18.74.17.63a4.09,4.09,0,0,0,.93.33c5.68,1.17,11.57,1.42,17.36,1.87,7.19.48,14.39,1,21.57.17,6.68-.74,13.54-1.26,20-3.3a3.65,3.65,0,0,0,2.31-2.65,30.11,30.11,0,0,0,1.36-8,46.78,46.78,0,0,0-.53-10.89,10.63,10.63,0,0,0-2.07-5c-3.23-4.22-7.05-9.42-12.8-10.16Zm0,0c6.06.7,10.38,6.76,13.76,11.19,2.31,4.57,2.23,9.92,2.29,14.9-.26,3.64-.12,7.84-2.58,10.81a9.08,9.08,0,0,1-2.66,1.24,126,126,0,0,1-24.35,4.1c-9.14.36-18.23-.48-27.3-1.39a50.64,50.64,0,0,1-6.84-1.16,4.64,4.64,0,0,1-1.58-.69,2.65,2.65,0,0,1-.8-1.85c-.15-4.28,1.19-8.34,2.32-12.38a53.47,53.47,0,0,1,1.89-5.22,4.18,4.18,0,0,1,1.89-2.35,234.37,234.37,0,0,1,22.68-10.48,159.75,159.75,0,0,1,15.76-5.68,23,23,0,0,1,5.52-1Z" style="fill: rgb(219, 219, 219); transform-origin: 372.909px 353.813px;" id="elkm0lmbqxi2" class="animable"></path><path d="M369.65,355.76c-.84,7.72,8.48,12.58,14.24,7.53a8.53,8.53,0,0,0,1.38-11.52c-4.5-6.36-14.87-3.75-15.62,4Zm0,0c.75-8.21,11.55-11.54,17-5.07a9.66,9.66,0,0,1-1.69,14c-6.72,4.88-16.25-.74-15.33-8.92Z" style="fill: rgb(219, 219, 219); transform-origin: 379.239px 356.895px;" id="el11w9tzdh22an" class="animable"></path><path d="M350.54,359.86a7.33,7.33,0,0,0,7,7.92c8.85,0,10.2-12.53,1.38-14.33a7.21,7.21,0,0,0-8.39,6.41Zm0,0c.46-7,9.69-10.08,14.38-4.66a8.33,8.33,0,0,1-1.23,12.08c-5.59,4.29-13.88-.5-13.15-7.42Z" style="fill: rgb(219, 219, 219); transform-origin: 358.728px 360.672px;" id="elt3gmrxtonl" class="animable"></path><path d="M391,349.77c.7,3.21-.05,18.3-.86,20.19a10.72,10.72,0,0,1-2.33,2.81c6.38-.88,12.72-2.09,15-3.35,3.85-2.16,3.8-21.36.79-25.63-3.82-5.48-9-11-13.59-11.11-1.63-.06-4.77.71-8.62,2C381.32,334.67,390.3,346.56,391,349.77Z" style="fill: rgb(66, 140, 255); transform-origin: 393.587px 352.723px;" id="elbxssruxwz7b" class="animable"></path><g id="elosnjgq76ywo"><path d="M391,349.77c.7,3.21-.05,18.3-.86,20.19a10.72,10.72,0,0,1-2.33,2.81c6.38-.88,12.72-2.09,15-3.35,3.85-2.16,3.8-21.36.79-25.63-3.82-5.48-9-11-13.59-11.12-1.63-.06-4.77.72-8.62,2C381.32,334.67,390.3,346.55,391,349.77Z" style="opacity: 0.2; transform-origin: 393.587px 352.718px;" class="animable"></path></g><path d="M339.24,348.16c.08.76-9.69,18.12-11.32,20.23s-9.13,5.4-10.82,5.64-27.72,3.56-67,3.51S184.74,374.34,183,374s-9.14-3.56-10.81-5.64-11.4-19.47-11.32-20.23,25.81,2.12,41.1,2.14c7.55-.1,31.15.44,48.08.52,16.92-.08,40.53-.62,48.08-.52C313.42,350.28,339.11,347.33,339.24,348.16Z" style="fill: rgb(55, 71, 79); transform-origin: 250.055px 362.771px;" id="elmzllmc2brbi" class="animable"></path><path d="M177.7,349.05c3.49.26,7.21.54,10.9.76q-13,.75-26.07,1.8c-.27-.5-.52-1-.73-1.37Q169.75,349.58,177.7,349.05Zm144.71,0c-3.48.26-7.21.54-10.89.76q13,.75,26.06,1.8c.28-.5.52-1,.73-1.37Q330.36,349.58,322.41,349.05Zm-56.64,1.62c-5.43.07-10.84.15-15.71.15s-10.29-.08-15.72-.15q-35.28.51-70.52,3.34l.75,1.36a1077.15,1077.15,0,0,1,171,0l.75-1.36Q301.08,351.19,265.77,350.67Zm-99.86,7.1c.25.46.51.91.77,1.36a1074.49,1074.49,0,0,1,166.76,0c.26-.45.52-.9.77-1.36A1074.56,1074.56,0,0,0,165.91,357.77Zm2.12,3.75c.27.48.54.94.8,1.38a1069.23,1069.23,0,0,1,162.46,0c.26-.44.52-.9.79-1.38A1072.07,1072.07,0,0,0,168,361.52Zm2.18,3.76c.3.5.59,1,.84,1.37a1065.84,1065.84,0,0,1,158,0c.24-.41.53-.87.83-1.37A1066.7,1066.7,0,0,0,170.21,365.28Zm2.6,3.73a13.42,13.42,0,0,0,1.84,1.3,1063.13,1063.13,0,0,1,150.81,0,14.24,14.24,0,0,0,1.85-1.3A1065.14,1065.14,0,0,0,172.81,369Zm6.11,3.51a32.43,32.43,0,0,0,3,1.22,1056.77,1056.77,0,0,1,136.23,0c.8-.27,1.88-.7,3-1.22A1058.86,1058.86,0,0,0,178.92,372.52Zm17.18,2.9c3.39.29,7.38.6,11.93.88q42-1.68,84,0c4.55-.28,8.54-.59,11.93-.88A1055.45,1055.45,0,0,0,196.1,375.42Z" style="fill: rgb(69, 90, 100); transform-origin: 250.055px 362.675px;" id="elphjg4h5a5qf" class="animable"></path></g><g id="freepik--character-1--inject-47" class="animable" style="transform-origin: 294.713px 276.317px;"><path d="M345.88,469.59c-2.53.82-74.73-.12-77.45-1.9-1.05-.66-1.52-11.19-1.74-23.92v-.4c-.05-2.63,3.4-46.65,3.4-46.65l48.3.48-5.12,46.25,0,.79s27.47,12.72,30.26,15S348.41,468.79,345.88,469.59Z" style="fill: rgb(211, 118, 106); transform-origin: 306.854px 433.305px;" id="elhg52urqpcnp" class="animable"></path><path d="M345.88,469.59c-2.53.82-74.73-.12-77.45-1.9-1.05-.66-1.52-11.19-1.74-23.92v-.4c-.05-2.63.57-8.82.56-9.2l47,.13-1,9.15,0,.79s27.47,12.72,30.26,15S348.41,468.79,345.88,469.59Z" style="fill: rgb(235, 235, 235); transform-origin: 306.85px 452.03px;" id="el176l9u444t5" class="animable"></path><path d="M345.88,469.59c-1.3.42-20.91.37-40.08,0-3.86-.08-7.69-.17-11.35-.27-13.67-.37-25-.94-26-1.62s-1.52-10.89-1.73-23.39c0-.18,0-.36,0-.53s0-.28,0-.41h.06l46.52.09,0,.79s27.48,12.71,30.26,15S348.41,468.78,345.88,469.59Z" style="fill: rgb(66, 140, 255); transform-origin: 306.872px 456.628px;" id="elnkrz1oazydh" class="animable"></path><path d="M345.1,466.78c-12.17-.45-61.28-1.15-73.34-.68-.1,0-.1.08,0,.08,12.05.72,61.16,1,73.33.8C345.35,467,345.35,466.79,345.1,466.78Z" style="fill: rgb(38, 50, 56); transform-origin: 308.486px 466.493px;" id="elwkinykn08b" class="animable"></path><path d="M318.46,443.65c-4.78-.95-10.65-.29-14.35,3.07-.14.13,0,.33.2.29a67.06,67.06,0,0,1,14.12-2.75A.31.31,0,0,0,318.46,443.65Z" style="fill: rgb(38, 50, 56); transform-origin: 311.378px 445.135px;" id="el7p3t59ba18d" class="animable"></path><path d="M321.89,445.78c-4.78-1-10.65-.3-14.35,3.07-.14.13,0,.33.2.28a68.36,68.36,0,0,1,14.12-2.75A.3.3,0,0,0,321.89,445.78Z" style="fill: rgb(38, 50, 56); transform-origin: 314.828px 447.249px;" id="el42zct2fqiez" class="animable"></path><path d="M325.32,447.91c-4.78-1-10.65-.3-14.35,3.07-.15.13,0,.33.2.28a67.06,67.06,0,0,1,14.12-2.75A.3.3,0,0,0,325.32,447.91Z" style="fill: rgb(38, 50, 56); transform-origin: 318.257px 449.379px;" id="el0nnof1orir3j" class="animable"></path><g id="eltw32pdk08ei"><path d="M305.8,469.58c-3.86-.08-7.69-.17-11.35-.27-13.67-.37-25-.94-26-1.62s-1.52-10.89-1.73-23.39c0-.18,0-.36,0-.53s0-.28,0-.41h.06C273.12,447.83,295.58,462.78,305.8,469.58Z" style="opacity: 0.1; transform-origin: 286.26px 456.47px;" class="animable"></path></g><path d="M316.44,442.55h-52S274.92,321.12,274.51,319c-.52-2.72-3.59-15-7.68-31.07-1.28-5-2.66-10.41-4.09-16-3.88-15.11-8.15-31.62-11.87-46-5.59-21.53-10-38.25-10-38.25H285s5.13,16.28,11.61,37.46c10.54,34.42,24.63,81.8,26,93.32C324.87,337.08,316.44,442.55,316.44,442.55Z" style="fill: rgb(38, 50, 56); transform-origin: 281.932px 315.115px;" id="el3fmm9mmiv16" class="animable"></path><path d="M314.14,433.68c-7.94-.16-5.66-.23-13.6-.3-3.89,0-29.43-.26-33.06.34a.08.08,0,0,0,0,.16c3.63.6,29.17.38,33.06.34,7.94-.08,5.66-.14,13.6-.31A.12.12,0,0,0,314.14,433.68Z" style="fill: rgb(55, 71, 79); transform-origin: 290.813px 433.808px;" id="elni419q9nra9" class="animable"></path><path d="M284.29,311.58c-1.7-7.52-4.25-14.89-6.47-22.26q-6.75-22.49-13.6-44.95-3.41-11.24-6.86-22.45-1.74-5.67-3.5-11.33c-1.16-3.69-2.48-7.35-3.52-11.07-.42-1.52-.66-.68-.11,1.24,1.09,3.88,2.18,7.76,3.31,11.63q3.36,11.49,6.76,23,6.76,22.84,13.64,45.66,3.44,11.44,6.88,22.88A94,94,0,0,1,283.63,315a51,51,0,0,1,.46,11.84c-.5,7.95-1.42,15.9-2.16,23.83s-1.47,15.91-2.2,23.86q-2.21,23.75-4.36,47.49c-.18,2-.36,4-.51,6-.05.67,1,.62,1,0,1.71-15.65,3-31.35,4.49-47s2.93-31.2,4.38-46.79c.37-3.92.79-7.84.79-11.78A48.61,48.61,0,0,0,284.29,311.58Z" style="fill: rgb(55, 71, 79); transform-origin: 267.715px 313.62px;" id="el8jx5ssnum0w" class="animable"></path><path d="M280,187.7c-3.06,23.67-8.89,68-13.15,100.23-9.93-39-25.91-100.23-25.91-100.23Z" style="fill: rgb(55, 71, 79); transform-origin: 260.47px 237.815px;" id="el2ated4gg23b" class="animable"></path><path d="M289.69,469.91c-2.53.83-74.73.16-77.46-1.61-1-.66-1.56-11.19-1.82-23.92V444c-.06-2.62-.11-5.33-.12-8.07,0-.37,0-.75,0-1.13-.17-18.38,1.16-37.45,1.16-37.45l47.19.31-1.32,37.1-.05,1.47-.26,7.68,0,.79s27.52,12.62,30.32,14.89S292.22,469.1,289.69,469.91Z" style="fill: rgb(211, 118, 106); transform-origin: 250.551px 433.807px;" id="elpuyhq98qfh8" class="animable"></path><path d="M289.69,469.91c-2.53.83-74.73.16-77.46-1.61-1-.66-1.56-11.19-1.82-23.92V444c-.06-2.62-.11-5.33-.12-8.07,0-.37,0-.75,0-1.13l47,0-.05,1.47-.26,7.68,0,.79s27.52,12.62,30.32,14.89S292.22,469.1,289.69,469.91Z" style="fill: rgb(235, 235, 235); transform-origin: 250.555px 452.532px;" id="eljcq3uxbnzy" class="animable"></path><path d="M289.69,469.91c-2.53.83-74.73.16-77.46-1.61-1-.66-1.56-11.19-1.82-23.92V444l46.58-.09,0,.79s27.52,12.62,30.32,14.89S292.22,469.1,289.69,469.91Z" style="fill: rgb(66, 140, 255); transform-origin: 250.617px 457.087px;" id="el8kjblk57zva" class="animable"></path><path d="M288.9,467.11c-12.17-.41-61.28-.93-73.34-.41-.1,0-.1.07,0,.07,12.05.68,61.16.79,73.34.54C289.15,467.3,289.15,467.12,288.9,467.11Z" style="fill: rgb(38, 50, 56); transform-origin: 252.286px 466.957px;" id="elssu9oad7tzn" class="animable"></path><path d="M262.17,444.07c-4.78-.93-10.64-.25-14.33,3.12-.15.14,0,.34.2.29a67.06,67.06,0,0,1,14.11-2.8A.31.31,0,0,0,262.17,444.07Z" style="fill: rgb(38, 50, 56); transform-origin: 255.097px 445.589px;" id="el0pvx13rlcgpc" class="animable"></path><path d="M265.61,446.19c-4.78-.94-10.65-.26-14.34,3.12-.14.13,0,.33.2.28a67.7,67.7,0,0,1,14.11-2.8A.3.3,0,0,0,265.61,446.19Z" style="fill: rgb(38, 50, 56); transform-origin: 258.553px 447.701px;" id="elxdoa5es3aeh" class="animable"></path><path d="M269.05,448.31c-4.78-.94-10.65-.26-14.34,3.12-.14.13,0,.33.2.28a67.06,67.06,0,0,1,14.11-2.8A.3.3,0,0,0,269.05,448.31Z" style="fill: rgb(38, 50, 56); transform-origin: 261.993px 449.821px;" id="elr3q1oaj8yqh" class="animable"></path><path d="M283.55,187.7s-1,21.08-5.84,37.78c-.38,1.38-.8,2.74-1.26,4a79.33,79.33,0,0,0-12.7,6.53s-.5,17-1,35.88c-.57,21.15-1.15,44.74-1,49.74.44,18.72-2.34,121.65-2.34,121.65l-52,.21s9.4-114.95,9.33-121.8c-.1-11,2.52-59.74,4.54-95.27,1.23-21.88,2.25-38.76,2.25-38.76Z" style="fill: rgb(38, 50, 56); transform-origin: 245.48px 315.575px;" id="ely35oqv71w5" class="animable"></path><path d="M257.59,434.07c-7.94-.13-5.66-.21-13.6-.25-3.89,0-29.43-.13-33.06.48-.08,0-.08.15,0,.16,3.64.59,29.17.26,33.06.2,7.94-.11,5.66-.16,13.6-.36A.12.12,0,0,0,257.59,434.07Z" style="fill: rgb(55, 71, 79); transform-origin: 234.273px 434.307px;" id="el32qjhxscw9b" class="animable"></path><path d="M227.88,195.23c-1,29-2,58-3.27,87s-3.05,58.16-5.49,87.18c-1.36,16.21-2.64,39-4.39,55.19,0,.11.15.15.17,0,3.78-28.77,5.89-64.34,7.76-93.29s3.12-58,4.11-86.93c.55-16.4,1-32.81,1.47-49.21C228.25,195,227.89,195,227.88,195.23Z" style="fill: rgb(55, 71, 79); transform-origin: 221.485px 309.874px;" id="el5aso1l12t5" class="animable"></path><path d="M278.12,228.27a95.93,95.93,0,0,0-14.86,7.78.17.17,0,0,0,.16.31c5-2.44,10.13-4.79,15-7.5A.33.33,0,0,0,278.12,228.27Z" style="fill: rgb(55, 71, 79); transform-origin: 270.883px 232.307px;" id="elaupn7ob8p4v" class="animable"></path><path d="M278.41,210.38c-.34,1.85-.79,3.68-1.19,5.51s-.65,3.48-1.1,5.19a8.89,8.89,0,0,1-2.42,4.34c-.67.63-1.42,1.19-2.14,1.76-.39.31-.81.61-1.21.93,0-.25.09-.5.14-.75l.36-2.1c.26-1.56.51-3.12.74-4.68.47-3.06.91-6.16,1.54-9.19a.1.1,0,1,0-.19,0c-.76,3-1.6,6-2.27,9-.32,1.49-1.49,8.84-1.54,9.36s-.1,1.07-.12,1.61a6.51,6.51,0,0,0,0,1.65c0,.13.19.11.25,0h0a6.7,6.7,0,0,0,.47-1.6c.13-.52.25-1.06.34-1.59,0-.19.06-.39.09-.58.72-.44,1.4-1,2.07-1.51s1.48-1.05,2.16-1.63A8.18,8.18,0,0,0,277,222a30.3,30.3,0,0,0,.87-5.28c.23-2.08.4-4.18.69-6.26C278.62,210.31,278.44,210.25,278.41,210.38Z" style="fill: rgb(55, 71, 79); transform-origin: 273.765px 221.704px;" id="elrrwoxgfol3" class="animable"></path><path d="M252.47,207.3c-1.5,4.31-1.63,9.78-5.47,13.16a13.25,13.25,0,0,1-7.24,2.74,40.05,40.05,0,0,1-9.22-.09c-.13,0-.15.15,0,.19,5.41,1.81,13,2,17.42-1.64a11.18,11.18,0,0,0,3.54-6.28,51,51,0,0,0,1.22-8C252.7,207.23,252.5,207.2,252.47,207.3Z" style="fill: rgb(55, 71, 79); transform-origin: 241.577px 215.901px;" id="el375fn57t3ac" class="animable"></path><path d="M282.52,203.73c.84,4.34,1.07,9.81,3,13.3a6,6,0,0,0,3.57,2.95,9.51,9.51,0,0,0,4.43.18c.07,0,.08.16,0,.19a5.73,5.73,0,0,1-8.44-2.15,17.75,17.75,0,0,1-1.89-6.37c-.38-2.63-.66-5.4-.83-8.07C282.4,203.65,282.5,203.63,282.52,203.73Z" style="fill: rgb(55, 71, 79); transform-origin: 287.968px 212.531px;" id="eltuzvk473ooo" class="animable"></path><path d="M265.2,138.32c2.06,9.15,25.28,46.1,34.59,47.62,14.59,2.38,48.68-10.9,52.39-12.51,7.21-3.14-4.89-31.21-10.89-28.66-10,4.28-34.59,15.19-38.38,12.59a221.23,221.23,0,0,1-26.32-20.83C268.83,129.49,262.93,128.22,265.2,138.32Z" style="fill: rgb(211, 118, 106); transform-origin: 309.557px 158.61px;" id="elt5e0j6jp6c" class="animable"></path><path d="M349.19,174.59c3.23-.85,17.9-5.6,21.59-8s12-10.87,11.18-14.13c-.71-2.69-3.8-1.13-3.8-1.13s3.35-3.23,1.56-6.12-6.12.57-6.12.57,3.59-4.24,1.59-7-6.28,1.29-6.28,1.29,3.47-3.73.86-5.31c-3.13-1.89-8.74,5.7-13,8-1,.52-20.4,9.12-20.4,9.12Z" style="fill: rgb(211, 118, 106); transform-origin: 359.193px 154.525px;" id="elgxvtynqp6f" class="animable"></path><path d="M369.29,139.78c-4.14,5.57-6.91,7.3-13.29,9.76-.12.05-.08.25.06.21,6.46-1.85,10.25-3.51,13.51-9.78C369.73,139.66,369.48,139.51,369.29,139.78Z" style="fill: rgb(38, 50, 56); transform-origin: 362.775px 144.697px;" id="elzm9oscfk31" class="animable"></path><path d="M373.92,145.38c-4.81,5.41-7.8,7.31-14.28,10.38-.09.05,0,.21.07.17,6.61-2.48,10.35-4.22,14.44-10.26C374.34,145.39,374.14,145.13,373.92,145.38Z" style="fill: rgb(38, 50, 56); transform-origin: 366.914px 150.608px;" id="elm1uzffz24of" class="animable"></path><path d="M377.93,151.5c-5,4.91-8.22,7.13-14.9,9.3a.13.13,0,0,0,.07.25c7-1.55,11-4.29,15-9.38C378.33,151.32,378.25,151.19,377.93,151.5Z" style="fill: rgb(38, 50, 56); transform-origin: 370.587px 156.189px;" id="el9lnjojph0nt" class="animable"></path><path d="M331,150.51s4.79-7.27,7.59-10,17-9,18.54-6c2,3.86-5.49,9.12-9.49,11.22,0,0,4.61,8.92.06,13.86S331,150.51,331,150.51Z" style="fill: rgb(211, 118, 106); transform-origin: 344.232px 147.18px;" id="el1kag8vejl17" class="animable"></path><path d="M357.35,135.7c-.73,4.82-6.15,7.24-9.88,9.57a.39.39,0,0,0-.06.65c1.68,3.87,2.92,9.82.58,13.61a.1.1,0,0,0,.16.12c3.06-3.73,2.32-9.67.21-13.79,3.86-2.32,9.19-5,9-10.16C357.4,135.67,357.36,135.67,357.35,135.7Z" style="fill: rgb(38, 50, 56); transform-origin: 352.32px 147.684px;" id="elay7btje6s3r" class="animable"></path><path d="M330.38,147.91s-23.43,10.17-26.07,8.91c-4.38-2.1-24.22-18.06-31.14-24s-17.37-7.2-6.57,13.11,21.64,35.52,32.14,41.29c6.54,3.6,42.45-6.77,42.45-6.77Z" style="fill: rgb(166, 166, 166); transform-origin: 301.567px 158.491px;" id="el5i0wqhc9nds" class="animable"></path><g id="elswcafe53e2o"><path d="M263.1,129.71c-1.59,2.39-1.19,7.41,3.51,16.24,10.79,20.32,21.64,35.52,32.13,41.29,1.3.72,3.78.88,6.92.67C295.6,174.22,271.34,141.21,263.1,129.71Z" style="opacity: 0.1; transform-origin: 283.959px 158.853px;" class="animable"></path></g><path d="M333.18,180.25c-2.88-12.41-7.79-24.93-8.49-27.18,0-.11-.2,0-.17.07.81,2.17,4.86,17.16,8.48,27.19C333,180.45,333.21,180.37,333.18,180.25Z" style="fill: rgb(38, 50, 56); transform-origin: 328.85px 166.706px;" id="el2e4x3rsw25m" class="animable"></path><path d="M221.63,216.23l70.6-5.25s3-6.95,2.18-11.11c-1.09-5.7-21.74-60.5-26.2-68.9-2.58-4.84-14.89-5.54-19.76-1-8.82,8.29-22.78,50.8-28.93,76C218.55,209.94,221.63,216.23,221.63,216.23Z" style="fill: rgb(166, 166, 166); transform-origin: 256.941px 171.577px;" id="eltkkpbwnnv" class="animable"></path><g id="el4x99oe18wkh"><rect x="310.16" y="178.89" width="14.38" height="20.69" rx="1.72" style="fill: rgb(55, 71, 79); transform-origin: 317.35px 189.235px; transform: rotate(-26.66deg);" class="animable"></rect></g><g id="elezlya8znisu"><rect x="309.16" y="181.37" width="10.29" height="3.65" style="fill: rgb(69, 90, 100); transform-origin: 314.305px 183.195px; transform: rotate(-26.66deg);" class="animable"></rect></g><g id="elp1sm6bw0b8r"><rect x="311.19" y="185.39" width="10.29" height="3.65" style="fill: rgb(69, 90, 100); transform-origin: 316.335px 187.215px; transform: rotate(-26.66deg);" class="animable"></rect></g><g id="elac3zmze4j9h"><rect x="313.21" y="189.42" width="10.29" height="3.65" style="fill: rgb(69, 90, 100); transform-origin: 318.355px 191.245px; transform: rotate(-26.66deg);" class="animable"></rect></g><g id="elhe92b5uzkpm"><rect x="315.23" y="193.45" width="10.29" height="3.65" style="fill: rgb(69, 90, 100); transform-origin: 320.375px 195.275px; transform: rotate(-26.66deg);" class="animable"></rect></g><path d="M316.32,180l-5.8,2.91-1.12-2.23a1.43,1.43,0,0,1,.63-1.92l3.25-1.63a1.44,1.44,0,0,1,1.92.63Zm-5.41,1.72,4.22-2.12-.72-1.44a.55.55,0,0,0-.73-.24l-3.25,1.63a.54.54,0,0,0-.24.73Z" style="fill: rgb(55, 71, 79); transform-origin: 312.783px 179.945px;" id="elf19rnst7f4t" class="animable"></path><path d="M304.29,182.15a9,9,0,1,1,9-9A9,9,0,0,1,304.29,182.15Zm0-17a8.05,8.05,0,1,0,8,8A8.06,8.06,0,0,0,304.29,165.11Z" style="fill: rgb(66, 140, 255); transform-origin: 304.29px 173.15px;" id="elkhr8wfigdus" class="animable"></path><g id="elqag2p5ykb2j"><rect x="304.3" y="188.61" width="1.79" height="5.42" style="fill: rgb(66, 140, 255); transform-origin: 305.195px 191.32px; transform: rotate(-78.41deg);" class="animable"></rect></g><polygon points="303.19 191.83 306.8 192.56 306.62 193.45 305.54 193.77 306.4 194.48 306.11 195.94 304.75 196.48 305.78 197.51 305.72 197.84 304.63 198.16 305.5 198.88 304.42 199.19 305.29 199.91 305.06 201.07 303.7 201.61 304.73 202.63 304.53 203.65 302.27 205.49 300.92 202.91 303.19 191.83" style="fill: rgb(235, 235, 235); transform-origin: 303.86px 198.66px;" id="elfdrvit4a3ic" class="animable"></polygon><g id="elxc7a7rby50l"><rect x="298.46" y="197.71" width="10.54" height="0.25" style="fill: rgb(219, 219, 219); transform-origin: 303.73px 197.835px; transform: rotate(-78.41deg);" class="animable"></rect></g><path d="M311.47,181.87l-8.32-1.71a1.06,1.06,0,0,0-1.24.83l-1.19,5.82a3,3,0,0,0,2.36,3.58l4.43.91a3,3,0,0,0,3.58-2.37l1.19-5.81A1.06,1.06,0,0,0,311.47,181.87Zm-1.62,2.64-6.26-1.28.33-1.59,6.26,1.28Z" style="fill: rgb(66, 140, 255); transform-origin: 306.477px 185.754px;" id="el9ap0s9k04h" class="animable"></path><g id="el3de5l6juona"><path d="M309.19,186.88l-.21,1.05a1.69,1.69,0,0,1-2.39,1.43l-2.11-.39a1.75,1.75,0,0,1-1.62-1.37,2.82,2.82,0,0,1,.13-1.1c.13-.46.1-1.37.82-1.34.37.05,1.21.27,1.58.34l2.1.47,1.05.23c.36,0,.75.27.65.68Zm0,0c.09-.41-.29-.65-.65-.67l-1.05-.2-2.12-.4c-.35-.05-1.24-.24-1.57-.28-.57,0-.45.77-.6,1.21a2.81,2.81,0,0,0-.1,1,1.5,1.5,0,0,0,1.42,1.21l2.09.48a1.62,1.62,0,0,0,2.36-1.32l.22-1.05Z" style="opacity: 0.1; transform-origin: 306.028px 187.336px;" class="animable"></path></g><path d="M240.76,139.92c-15,21.32-30.59,56.06-21.36,61.93,8.43,5.36,33.74-3.52,50.46-12.55,3.18-1.72-3.91-27.78-7.61-26.67-6.81,2.06-19,7.94-19.44,8.12-.93.38,3.6-14.79,7.7-29.45C255.08,125,249.34,127.74,240.76,139.92Z" style="fill: rgb(211, 118, 106); transform-origin: 243.646px 166.699px;" id="elj6zq7sgpsql" class="animable"></path><path d="M256,165.58s9.43-5.48,15.74-8.71c3.52-1.81,9.83-4.36,13-4.5,4.78-.21,24.88,1.95,24.46,6.84-.38,4.42-17.41.37-17.41.37s17.55,2.57,16.11,7.81-20.08-1.9-20.08-1.9,18,3,15.64,8.22c-1.76,3.91-19-1.61-19-1.61s15.43,2.73,13.79,6.82c-1.81,4.53-18.05.44-18.05.44-5.93,9.71-12.73,11.91-17.75,12.9C261.22,192.5,256,165.58,256,165.58Z" style="fill: rgb(211, 118, 106); transform-origin: 282.603px 172.309px;" id="elksoldpy2bfq" class="animable"></path><path d="M285.77,158.3c2.07.23,4.17.44,6.22.85s4.08.9,6.08,1.5a35.2,35.2,0,0,1,7.55,3.07c-4.42-2-11.72-3.6-13.76-4s-4.07-.92-6.11-1.33C285.7,158.37,285.72,158.29,285.77,158.3Z" style="fill: rgb(38, 50, 56); transform-origin: 295.671px 161.01px;" id="el6ijia0zxuh7" class="animable"></path><path d="M284.15,165.66c2.64.4,5.27.71,7.89,1.23s6.23,1.37,8.79,2.07c.2,0,.2.36,0,.31-2.59-.59-6.32-1.29-8.92-1.85s-5.17-1.23-7.77-1.7C284.1,165.71,284.11,165.65,284.15,165.66Z" style="fill: rgb(38, 50, 56); transform-origin: 292.547px 167.467px;" id="elopmnt6ruzvo" class="animable"></path><path d="M281.63,171.73a59.6,59.6,0,0,1,11.91,2.8c.19.06.06.16-.14.11-3.94-1-7-1.82-11.78-2.77C281.54,171.85,281.54,171.72,281.63,171.73Z" style="fill: rgb(38, 50, 56); transform-origin: 287.597px 173.192px;" id="elvhr0piq95c8" class="animable"></path><path d="M248.26,130.42c-11.62,9.11-38.67,58.07-31.36,69.88S263,193.86,263,193.86l-6.44-31.17s-10.85,4.83-11.26,4.34,4-16.67,5.84-23.24S254.45,125.57,248.26,130.42Z" style="fill: rgb(166, 166, 166); transform-origin: 239.333px 166.774px;" id="el6n5x9nlo1b7" class="animable"></path><path d="M257.64,192.52C256.4,188.13,252,170,251.25,166c-.05-.28.12-.38.2-.1,4.06,13.08,5.36,22.21,6.36,26.58C257.84,192.57,257.67,192.63,257.64,192.52Z" style="fill: rgb(38, 50, 56); transform-origin: 254.527px 179.156px;" id="ely92alujv3ve" class="animable"></path><path d="M256.7,162.26a24.55,24.55,0,0,0-3.53,1.32c-1,.43-2.07.86-3.1,1.31-2.24,1-4.45,2-6.66,3s-4.39,2.09-6.57,3.18-4.29,2.3-6.46,3.39c-.1.05,0,.2.09.15,2.2-1.05,4.48-2,6.71-3l6.56-2.94,6.55-2.92,3.2-1.46c1-.47,2-1,3.06-1.51a17.22,17.22,0,0,0,.35,1.71C257.13,164.4,257,162.19,256.7,162.26Z" style="fill: rgb(38, 50, 56); transform-origin: 243.678px 168.439px;" id="eluz6aa6vmgvm" class="animable"></path><path d="M250.71,151.1c-.56.91-1.1,1.81-1.61,2.75-.1.17-.18.35-.27.52.11-.46.23-.92.35-1.39a48.2,48.2,0,0,0,1.15-4.89c0-.08-.11-.09-.14,0a47.77,47.77,0,0,0-1.58,5c-.49,1.63-1,3.26-1.44,4.91s-.94,3.28-1.37,4.94a34.52,34.52,0,0,0-1.07,4.92c0,.1.12.12.16,0a34.88,34.88,0,0,0,1.65-5c.48-1.64.91-3.3,1.36-4.94.19-.69.37-1.39.54-2.08.1-.16.19-.33.28-.49.26-.44.5-.9.72-1.36.47-1,.9-1.92,1.32-2.9C250.78,151.1,250.73,151.07,250.71,151.1Z" style="fill: rgb(38, 50, 56); transform-origin: 247.747px 157.984px;" id="elnd0qunr0bm8" class="animable"></path><path d="M263,193.11c0-.22-.17-.26-.18,0s0,.38,0,.52c-1.33.52-6.18,2.61-7.36,3.11-2.49,1.05-5,2-7.56,2.89s-5.13,1.69-7.75,2.38c-3.64,1-14.66,3-19.85,1.07-.1,0-.07.12,0,.17,4.13,2.1,13,1,20.06-.6q3.93-.91,7.76-2.18c2.6-.86,5.17-1.84,7.69-2.92,1.25-.54,2.5-1.12,3.73-1.72A19.57,19.57,0,0,0,263,194a.3.3,0,0,0,.1-.27C263,193.49,263,193.3,263,193.11Z" style="fill: rgb(38, 50, 56); transform-origin: 241.669px 198.668px;" id="elzpm4iwsuhy" class="animable"></path><path d="M269,133.59a0,0,0,0,0-.06,0c.34,3.45.9,11.47-4.55,11.18-2.19-.12-4.24-1.42-5.95-2.69a30.41,30.41,0,0,1-4.77-4.51,45.25,45.25,0,0,1-4.51-5.84c0-.09-.19,0-.13.1,1.36,2.06,2.52,4.22,4.08,6.16a26.29,26.29,0,0,0,5.16,5c1.83,1.31,4,2.59,6.32,2.61a4.38,4.38,0,0,0,4.33-3.46A19.32,19.32,0,0,0,269,133.59Z" style="fill: rgb(38, 50, 56); transform-origin: 259.229px 138.647px;" id="elct4xggz1mbk" class="animable"></path><path d="M264.56,141.08c-3.89.52-10.64-6.5-12.76-11.46-.14-.34.69-3.7,1.51-7.83.49-2.5,1-5.3,1.22-7.89l15.84,5.54a41.27,41.27,0,0,0-2.54,9.79,6.37,6.37,0,0,0,0,1.07s0,.11,0,.18C268,132.53,268.32,140.57,264.56,141.08Z" style="fill: rgb(211, 118, 106); transform-origin: 261.077px 127.504px;" id="el3snwpns950p" class="animable"></path><path d="M267.83,130.3s0,.1,0,.17a10.82,10.82,0,0,1-1.68-.06c-9.37-1.14-10.45-12.86-10.56-16.13l4,1.38,10.81,3.79a41.12,41.12,0,0,0-2.54,9.78A6.37,6.37,0,0,0,267.83,130.3Z" style="fill: rgb(38, 50, 56); transform-origin: 262.995px 122.38px;" id="ele8jhz1ii549" class="animable"></path><path d="M273.1,88.7s5.48,2.25,6.49,7.81-.24,11.38-.72,11.67S273.1,88.7,273.1,88.7Z" style="fill: rgb(38, 50, 56); transform-origin: 276.537px 98.4416px;" id="elqgabp78s23" class="animable"></path><path d="M251.77,96c-1.67,5.81,1.64,22.46,5.81,26.12,6.05,5.31,15.82,5.67,20.29-1.57,4.34-7-.36-28.64-5-32C266,83.71,254.24,87.41,251.77,96Z" style="fill: rgb(211, 118, 106); transform-origin: 265.459px 106.227px;" id="el7md4msxwiot" class="animable"></path><path d="M268.3,105.87c0-.05-.08.06-.07.11.23,1.12.31,2.44-.65,3,0,0,0,.08,0,.07C268.82,108.65,268.7,106.89,268.3,105.87Z" style="fill: rgb(38, 50, 56); transform-origin: 268.078px 107.454px;" id="elvzqzmlmx9yr" class="animable"></path><path d="M267.09,104.86c-1.83.18-1.35,3.84.36,3.68S268.63,104.72,267.09,104.86Z" style="fill: rgb(38, 50, 56); transform-origin: 267.218px 106.701px;" id="elzdsszhr1cjb" class="animable"></path><path d="M274.58,104.93c0-.05.09,0,.1.08.11,1.14.44,2.43,1.51,2.67,0,0,0,.06,0,.06C274.92,107.73,274.5,106,274.58,104.93Z" style="fill: rgb(38, 50, 56); transform-origin: 275.38px 106.325px;" id="elkfvg5kapjod" class="animable"></path><path d="M275.43,103.61c1.81-.38,2.44,3.25.76,3.61S273.92,103.93,275.43,103.61Z" style="fill: rgb(38, 50, 56); transform-origin: 275.865px 105.414px;" id="el1vczy019ng7" class="animable"></path><path d="M265.43,103.38a14.3,14.3,0,0,0,1.35-.69,2.47,2.47,0,0,0,1.24-1,.77.77,0,0,0-.25-.92,1.94,1.94,0,0,0-2,.06,2.83,2.83,0,0,0-1.46,1.43A.83.83,0,0,0,265.43,103.38Z" style="fill: rgb(38, 50, 56); transform-origin: 266.149px 101.998px;" id="elopv3s2vx4wf" class="animable"></path><path d="M276.64,100.91a15.19,15.19,0,0,1-1.51-.19,2.44,2.44,0,0,1-1.5-.48.8.8,0,0,1-.08-.95,1.93,1.93,0,0,1,1.87-.61,2.8,2.8,0,0,1,1.86.85A.83.83,0,0,1,276.64,100.91Z" style="fill: rgb(38, 50, 56); transform-origin: 275.459px 99.772px;" id="elzg4g0pow1b" class="animable"></path><path d="M269.12,116.23c.24.3.46.7.87.79a2.85,2.85,0,0,0,1.26-.13s.06,0,0,.07a1.54,1.54,0,0,1-1.52.43,1.22,1.22,0,0,1-.77-1.12A.07.07,0,0,1,269.12,116.23Z" style="fill: rgb(38, 50, 56); transform-origin: 270.117px 116.806px;" id="elfem4jlv24mj" class="animable"></path><path d="M269.51,112.75a3.89,3.89,0,0,0,2.81,1.37,5,5,0,0,0,1.39-.12,1.07,1.07,0,0,0,.27-.07l.24-.07a.26.26,0,0,0,.19-.28h0s0-.07,0-.11h0v-.1c-.09-.88-.36-2.19-.36-2.19.35.11,2.07.63,2,.18a59,59,0,0,0-3.05-11.49.1.1,0,0,0-.2.06c.55,3.62,1.74,7.13,2.36,10.76a7.09,7.09,0,0,0-1.89-.31c-.12.06.55,2.54.56,2.94v0a5.41,5.41,0,0,1-4.17-.71C269.51,112.58,269.43,112.67,269.51,112.75Z" style="fill: rgb(38, 50, 56); transform-origin: 272.765px 106.961px;" id="el30l91796tc6" class="animable"></path><path d="M273.08,113.94a4.07,4.07,0,0,1-1.54,1.43,1.86,1.86,0,0,1-1.12.18c-.84-.14-.93-.89-.84-1.55a4.33,4.33,0,0,1,.27-1A5.46,5.46,0,0,0,273.08,113.94Z" style="fill: rgb(38, 50, 56); transform-origin: 271.316px 114.286px;" id="elty1u5han5f" class="animable"></path><path d="M271.54,115.37a1.86,1.86,0,0,1-1.12.18c-.84-.14-.93-.89-.84-1.55A1.94,1.94,0,0,1,271.54,115.37Z" style="fill: rgb(255, 156, 189); transform-origin: 270.546px 114.784px;" id="elrp2gnb3bpuj" class="animable"></path><path d="M253.43,111.17c1.95.3,3.27-5.64,3.56-7.89.26-2,0-8.12,0-8.55s8.94,4.15,13.45,2.07,7-6.77,6.81-8.75-6.82-6.13-11.92-5.64-11,7.94-11,7.94a23.87,23.87,0,0,0,1.8-3.34c-.11-.22-3.19,1.58-3.45,4,0,0,.22-3,0-3s-2.42,2.86-1.57,4.67c0,0-2.56,3-2.42,5.82S251.13,110.82,253.43,111.17Z" style="fill: rgb(38, 50, 56); transform-origin: 262.972px 96.7755px;" id="el79xowniwuq3" class="animable"></path><path d="M273.66,95.32a16,16,0,0,1-4.22,2.25,10.77,10.77,0,0,1-5.2-.06,16.15,16.15,0,0,1-4.85-2c-1.32-.8-2.54-1.81-3.92-2.49-.35-.17-.65.34-.41.6a17.13,17.13,0,0,0,9.48,5,9.83,9.83,0,0,0,9.14-3.31S273.68,95.31,273.66,95.32Z" style="fill: rgb(38, 50, 56); transform-origin: 264.327px 95.8737px;" id="elt38k0sjclde" class="animable"></path><path d="M255.55,109.55s-4-5.26-6.37-3.83.72,9.16,3.64,10.13a2.92,2.92,0,0,0,3.86-1.71Z" style="fill: rgb(211, 118, 106); transform-origin: 252.509px 110.772px;" id="eltmyl8sfj3" class="animable"></path><path d="M250.13,107.92s0,.06,0,.07c2,.75,3.18,2.58,4,4.49a1.62,1.62,0,0,0-2.43-.35c-.06,0,0,.12,0,.1a1.83,1.83,0,0,1,2,.56,8.53,8.53,0,0,1,1,1.57c.1.17.43.07.35-.14l0,0C255,111.6,252.9,108.08,250.13,107.92Z" style="fill: rgb(38, 50, 56); transform-origin: 252.596px 111.183px;" id="elvjlbq39h8ih" class="animable"></path><path d="M267.91,130.2l-4.28,9.43L252.23,127l-3.56,3.76s10.83,19.82,10.94,18.95l4.33-8.11,5.46,6,.17-14.49Z" style="fill: rgb(255, 255, 255); transform-origin: 259.12px 138.369px;" id="elexxn6lygtgu" class="animable"></path><path d="M269.89,140.41c-.05-2.39,0-4.8-.2-7.19,0-.08-.14-.12-.16,0-.58,2.29-.34,11.43-.44,13.62l0,0c-.22-.26-5.07-5.3-5.12-5.23-.92,1.28-4.09,7.18-4.31,7.72-1.72-3.15-8.3-14.61-10.36-17.6a.08.08,0,0,0-.15.07c1.49,3.31,10.2,18.74,10.34,18.71a93.16,93.16,0,0,0,4.53-8.58c.81,1.09,5.67,6.75,5.71,6.4A76.32,76.32,0,0,0,269.89,140.41Z" style="fill: rgb(38, 50, 56); transform-origin: 259.535px 141.096px;" id="elp2kd5ebm1u" class="animable"></path></g><g id="freepik--character-2--inject-47" class="animable" style="transform-origin: 390.16px 280.993px;"><path d="M392.81,92.5c-10.38,7.66-8.74,20.25-13.35,26.61-2.82,3.9-11.22,7.55-13.22,12.15-3.29,7.54,2.9,10.86,1.11,15-2.55,5.81-10.33,4.69-12.58,14.35s7.39,20.94,32.1,25.84,39.21-3.29,40.81-11.51-6.46-11.68-6.5-17.92c0-4,5.34-6.32,6.22-13.58s-5.85-10.22-6.32-16.49,4-21-4.21-29.46S397.94,88.71,392.81,92.5Z" style="fill: rgb(38, 50, 56); transform-origin: 391.172px 139.053px;" id="el7kb3trk92jp" class="animable"></path><path d="M393.92,92.81a21,21,0,0,0-7.06,7,46.7,46.7,0,0,0-4.43,9.73,27.85,27.85,0,0,1-2.45,5.85,15.17,15.17,0,0,1-3.71,3.95c-2.91,2.28-6.29,3.9-9,6.51-2.52,2.46-4.61,5.87-4,9.57.33,2,1.46,3.73,2.09,5.63s.72,4-.87,5.32c-1.35,1.14-3.21,1.55-4.71,2.45a16,16,0,0,0-3.95,3.31,12.74,12.74,0,0,0-3.13,9.62c.79,8.07,7.68,13.2,14.16,16.6l2.73,1.41c.14.07.28-.14.14-.22-6.49-3.65-14-7.93-15.94-15.87a11.91,11.91,0,0,1,2-10.15,14.58,14.58,0,0,1,3.89-3.54c1.44-.92,3.06-1.41,4.53-2.27a4.76,4.76,0,0,0,2.48-4,11.74,11.74,0,0,0-1.43-5.23,9.63,9.63,0,0,1-1.13-5.48,10.45,10.45,0,0,1,2.43-4.94c2.36-2.87,5.64-4.6,8.62-6.67a17.42,17.42,0,0,0,6.81-8.09c.67-1.78,1.15-3.63,1.75-5.43a50.62,50.62,0,0,1,1.92-4.92,24.3,24.3,0,0,1,6-8.46A13.75,13.75,0,0,1,394,93C394.07,92.9,394,92.76,393.92,92.81Z" style="fill: rgb(38, 50, 56); transform-origin: 373.336px 136.287px;" id="elrqyn9i0l1nf" class="animable"></path><path d="M429.31,168.91A9.57,9.57,0,0,0,427.9,165c-.77-1.19-1.74-2.23-2.61-3.35a7.31,7.31,0,0,1-1.75-3.62,7.12,7.12,0,0,1,1.49-4.51,33.8,33.8,0,0,0,2.62-4.26,16.41,16.41,0,0,0-.35-14.39c-.73-1.49-1.57-2.93-2.31-4.42a21.18,21.18,0,0,1-1.79-5.14c-.79-3.94-.69-8-1.27-12a62.49,62.49,0,0,0-3.07-11.92c0-.1-.17,0-.14.07a54.41,54.41,0,0,1,2.65,10.76c.5,3.48.51,7,.81,10.49a26.29,26.29,0,0,0,.84,5.08,26.91,26.91,0,0,0,1.8,4.45c1.45,3,2.95,5.88,3.13,9.25a16,16,0,0,1-2.42,9.43c-1.53,2.43-3.61,5.07-2.71,8.14.75,2.6,3,4.3,4.35,6.52a10.33,10.33,0,0,1,1,8.21c-2,7-9.26,10-15.85,9.8a.17.17,0,0,0,0,.33c5.71.41,12.13-1.64,15.27-6.88A12.67,12.67,0,0,0,429.31,168.91Z" style="fill: rgb(38, 50, 56); transform-origin: 420.8px 142.659px;" id="el4ff67uwx5y2" class="animable"></path><path d="M393.11,139.12c-22.66,19.34-36.06,31.42-37.71,42.56-1.85,12.47,7.47,20,11.72,20.13,11.58.43,25.19-36.84,33-54.55C407.68,130.06,398.08,134.87,393.11,139.12Z" style="fill: rgb(247, 169, 160); transform-origin: 379.04px 168.455px;" id="el2nd1cmci4lv" class="animable"></path><path d="M373,199.33c5.21-5.11-1.34-27.79-7.43-49.77-1.07-3.85-26.57.45-26.58,4.73,0,5.39,7.1,28.61,10.27,34.4C355.49,200.12,366.87,205.29,373,199.33Z" style="fill: rgb(247, 169, 160); transform-origin: 356.942px 174.945px;" id="el0oh56nrp0onl" class="animable"></path><path d="M372.89,180.22c-1.59-10.41-4.61-20.51-7.36-30.66,4.05,9.7,7.13,20.09,7.36,30.66Z" style="fill: rgb(38, 50, 56); transform-origin: 369.21px 164.89px;" id="elw9ha5pi193d" class="animable"></path><path d="M344.84,166.73c-2.81-1.44-15.43-8.83-18.37-11.75s-8.93-12.51-7.48-15.35c1.21-2.35,3.75-.27,3.75-.27s-2.45-3.68-.2-6,5.55,1.77,5.55,1.77-2.46-4.66,0-6.8,5.55,2.47,5.55,2.47-2.45-4.16.28-5.09c3.29-1.12,6.93,7.05,10.42,10,.8.67,17,12.59,17,12.59Z" style="fill: rgb(247, 169, 160); transform-origin: 340.054px 146.168px;" id="el1c5ss2pozic" class="animable"></path><path d="M333.31,130.42c2.7,6,4.92,8.16,10.32,11.74.1.07,0,.24-.09.18-5.61-3-8.78-5.33-10.52-11.81C332.93,130.22,333.19,130.13,333.31,130.42Z" style="fill: rgb(38, 50, 56); transform-origin: 338.337px 136.298px;" id="el2sif4bp11ft" class="animable"></path><path d="M327.89,134.66c3.34,6,5.73,8.35,11.11,12.52.07.06,0,.19-.1.14-5.62-3.65-8.73-6-11.29-12.44C327.5,134.59,327.74,134.39,327.89,134.66Z" style="fill: rgb(38, 50, 56); transform-origin: 333.305px 140.932px;" id="elh5isxed7if" class="animable"></path><path d="M322.93,139.51c3.65,5.57,6.16,8.27,11.9,11.64.13.08,0,.29-.11.22-6.19-2.87-9.34-6.22-12-11.73C322.59,139.27,322.7,139.16,322.93,139.51Z" style="fill: rgb(38, 50, 56); transform-origin: 328.774px 145.341px;" id="elarbu76wksnn" class="animable"></path><path d="M365.53,149.56s-2.82-7.74-4.81-10.87S347,126.62,345,129c-2.67,3.12,3.07,9.61,6.29,12.42,0,0-6.2,7.22-3.08,12.77S365.53,149.56,365.53,149.56Z" style="fill: rgb(247, 169, 160); transform-origin: 354.921px 142.224px;" id="eltf5g64b8z4p" class="animable"></path><path d="M344.5,130.14c-.39,4.6,4.09,8,7,11a.38.38,0,0,1-.08.62c-2.4,3.2-4.85,8.41-3.53,12.42a.09.09,0,1,1-.17.07c-2-4.1,0-9.41,2.83-12.75-3.05-3-7.38-6.61-6.11-11.35A0,0,0,0,1,344.5,130.14Z" style="fill: rgb(38, 50, 56); transform-origin: 347.919px 142.224px;" id="elhvjd1yt2pep" class="animable"></path><path d="M323.3,471.44c2.4.76,72.74-.76,75.3-2.48,1-.63-5-67.25-5-67.25l-44.61.85L354,447.12s-25.95,12.3-28.57,14.48S320.89,470.7,323.3,471.44Z" style="fill: rgb(247, 169, 160); transform-origin: 360.455px 436.675px;" id="elvnfmekpgh6" class="animable"></path><path d="M323.29,471.44c2.41.75,72.75-.77,75.31-2.48.31-.19.41-7-.71-15.77-12.75,2.14-58.28,9.13-61.82,7-2.47-1.45-.29-3.72,1.74-5.25-5.81,2.9-11.24,5.69-12.36,6.62C322.85,463.78,320.89,470.7,323.29,471.44Z" style="fill: rgb(38, 50, 56); transform-origin: 360.505px 462.413px;" id="el4ebv4w2bs0j" class="animable"></path><path d="M352.78,436.44l43.79-.62s-8.68-104.88-8.32-106.89c.46-2.59,31.53-124.41,31.53-124.41H378S345,318.07,343.85,329C341.93,346.67,352.78,436.44,352.78,436.44Z" style="fill: rgb(55, 71, 79); transform-origin: 381.701px 320.48px;" id="elmswg08wz0ro" class="animable"></path><path d="M392.63,425.94c-2.59-.19-5.2-.16-7.8-.19s-5.19,0-7.79,0c-5.19,0-10.38.13-15.57.28-1.42,0-2.84.08-4.26.15s-3,.33-4.55.38a.1.1,0,0,0,0,.19c1.28,0,2.55.2,3.83.24s2.65,0,4,0c2.6,0,5.2,0,7.79,0,5.19,0,10.39-.11,15.58-.32,2.93-.13,5.89-.16,8.81-.46A.13.13,0,0,0,392.63,425.94Z" style="fill: rgb(38, 50, 56); transform-origin: 372.689px 426.372px;" id="elue47dpn14vk" class="animable"></path><path d="M410.59,214.36c-3.74,13.24-7.16,26.6-10.51,39.95s-6.69,26.71-10,40.07q-2.49,10-5,20c-1.61,6.5-3.49,13-3.9,19.76s.47,13.72,1,20.53,1.15,13.67,1.75,20.51c1.2,13.67,2.35,27.36,3.84,41,.18,1.71.37,3.42.54,5.13,0,.14.24.14.23,0-.91-13.68-1.85-27.36-2.94-41q-.83-10.26-1.67-20.52c-.57-6.82-1.36-13.67-1.58-20.52s1.05-13.52,2.72-20.19S388.38,306,390,299.48q5-20,10-40.08c3.72-15,7.42-29.95,10.69-45A.06.06,0,1,0,410.59,214.36Z" style="fill: rgb(38, 50, 56); transform-origin: 395.892px 317.855px;" id="el6dgma1fkm4g" class="animable"></path><path d="M419.78,204.52s-13.33,52.27-22.65,89.06l-14.89-89.06Z" style="fill: rgb(38, 50, 56); transform-origin: 401.01px 249.05px;" id="elz0wxq3busxr" class="animable"></path><path d="M375.82,471.61c2.41.75,72.74-.77,75.31-2.48,1-.64-2.69-67.3-2.69-67.3l-44,.86,2.13,44.6S380.61,459.58,378,461.76,373.41,470.86,375.82,471.61Z" style="fill: rgb(247, 169, 160); transform-origin: 413.017px 436.818px;" id="el3npyaujoky1" class="animable"></path><path d="M375.82,471.61c2.4.75,72.74-.77,75.31-2.49.31-.19.23-6.78,0-15.77-12.76,2.14-59,9.13-62.53,7-2.47-1.45-.28-3.73,1.74-5.25-5.81,2.89-11.23,5.68-12.35,6.62C375.37,463.94,373.41,470.87,375.82,471.61Z" style="fill: rgb(38, 50, 56); transform-origin: 413.03px 462.578px;" id="eljx8b2zoqwd" class="animable"></path><path d="M379.34,204.51a169,169,0,0,0,6.08,29.77c.38,1.31.79,2.59,1.24,3.82a74.27,74.27,0,0,1,12.12,6s2.93,82.42,2.87,87.17c-.19,17.76,4.35,104.25,4.35,104.25l44.15-.42s-4.58-97.81-4.6-104.31c0-6.3-3-46-5.66-80.4,0,0,3.92-11,3.49-16.54-1.06-13.46-7.09-29.37-7.09-29.37Z" style="fill: rgb(55, 71, 79); transform-origin: 414.745px 320px;" id="ela1uohqp7om" class="animable"></path><path d="M393.57,228.15c-.11-1.11-.23-2.23-.35-3.34-.22-2-.54-4.07-.8-6.1-.6-4.61-1.11-8.23-1.92-12.81a.1.1,0,0,0-.2,0c.1,1.84.11,2.67.28,4.5s.28,3.68.45,5.51c.35,3.64.69,7.28,1.14,10.91.17,1.4.92,3.92-1.09,4.26-1.6.27-2.69-1.34-3.09-2.66a30.48,30.48,0,0,1-.84-5c-.24-1.84-.44-3.68-.62-5.53-.38-4-.82-8-1.29-12,0-.12-.19-.09-.19,0a122.72,122.72,0,0,0,.32,12.28q.25,2.94.61,5.86a20.74,20.74,0,0,0,1.09,5.48,4.42,4.42,0,0,0,3.18,2.8h.1a.14.14,0,0,0-.07.11c0,.65,0,1.31,0,2s.14,1.29.23,1.93a12.62,12.62,0,0,0,.41,1.92,9.37,9.37,0,0,0,.31.89c.13.3.32.54.48.83.06.11.2.05.21-.06h0c0-.11,0-.21,0-.32v-.05h0a5.42,5.42,0,0,0,0-.57c0-.32-.09-.63-.15-.94-.1-.62-.24-1.24-.38-1.86s-.24-1.23-.37-1.85-.31-1.26-.43-1.9a.07.07,0,0,0,0-.06,2.9,2.9,0,0,0,2.86-1.62A4.93,4.93,0,0,0,393.57,228.15Z" style="fill: rgb(38, 50, 56); transform-origin: 389.353px 222.924px;" id="elcm9fq11y6b7" class="animable"></path><path d="M402.79,245.46a35.78,35.78,0,0,0-4.15-2.73,40.94,40.94,0,0,0-4.74-2.46c-3.19-1.38-6.49-2.33-9.78-3.42-.1,0-.17.13-.07.17,3.19,1.27,6.25,2.95,9.34,4.46,1.52.75,3.05,1.45,4.6,2.14s3.09,1.48,4.68,2.06C402.79,245.73,402.89,245.54,402.79,245.46Z" style="fill: rgb(38, 50, 56); transform-origin: 393.416px 241.269px;" id="elm5onaty4a3h" class="animable"></path><path d="M427.2,223.81a27.19,27.19,0,0,1-6.66-.9c-1-.26-2-.58-3-.9a7.7,7.7,0,0,1-2.68-1.35c-1.52-1.3-2.22-3.36-2.88-5.18a49,49,0,0,1-1.74-6.3c0-.1-.18-.07-.18,0a24.66,24.66,0,0,0,.9,7.15c.55,2,1.28,4.17,2.87,5.56a11.31,11.31,0,0,0,6.1,2.23,28.38,28.38,0,0,0,7.25-.1C427.35,224,427.35,223.81,427.2,223.81Z" style="fill: rgb(38, 50, 56); transform-origin: 418.682px 216.71px;" id="elp050918s49e" class="animable"></path><path d="M448.2,426.59c-2.59-.19-5.2-.16-7.8-.19s-5.19,0-7.79,0c-5.19.05-10.38.13-15.58.28-1.42,0-2.84.08-4.26.15s-3,.33-4.54.38a.1.1,0,0,0,0,.19c1.28,0,2.55.2,3.83.23s2.65.05,4,.05c2.6,0,5.19,0,7.79,0,5.19,0,10.39-.11,15.58-.33,2.93-.12,5.89-.15,8.8-.45A.13.13,0,1,0,448.2,426.59Z" style="fill: rgb(38, 50, 56); transform-origin: 428.266px 427.033px;" id="el96sa7cbyw5q" class="animable"></path><path d="M442.81,420.84h0a.54.54,0,0,0,.51-.56l-10-171.16c.13-.75,2.94-10.31,3.19-15.19.26-5.17-5.08-25.29-5.3-26.14a.55.55,0,0,0-.66-.38.53.53,0,0,0-.38.66c0,.2,5.52,20.81,5.26,25.8s-3.17,15-3.18,15.13,10,171.33,10,171.33A.55.55,0,0,0,442.81,420.84Z" style="fill: rgb(38, 50, 56); transform-origin: 436.735px 314.117px;" id="elo3almccsbn" class="animable"></path><path d="M376.9,204.42l3.41-20.34s-5.92-7.19-1.95-15.52c2-4.22,14.66-27.13,21.95-32.3,6.83-4.84,15.25,0,18.36,4.3,8.95,12.41,15.41,24.29,20,64.55Z" style="fill: rgb(66, 140, 255); transform-origin: 407.785px 169.676px;" id="el4g1oxqjsg9r" class="animable"></path><path d="M390.8,181a63.54,63.54,0,0,1,9.19,1.7c1.5.42,3,.9,4.43,1.41.73.26,1.46.49,2.2.72a10.64,10.64,0,0,0,2.37.5c.07,0,.06.11,0,.11a17.54,17.54,0,0,1-2.29-.09,16.1,16.1,0,0,1-2.17-.46c-1.52-.4-3-.88-4.54-1.3-3.05-.85-6.11-1.7-9.22-2.33C390.61,181.23,390.65,181,390.8,181Z" style="fill: rgb(38, 50, 56); transform-origin: 399.853px 183.223px;" id="ele3rpl1b2ja" class="animable"></path><path d="M383.07,183.6a66.12,66.12,0,0,1,7.71-.21c1.29,0,2.56.15,3.84.3.61.07,1.22.16,1.83.25s1.33.28,2,.37c.07,0,.07.12,0,.11-.63-.06-1.28,0-1.92,0l-1.92-.09c-1.28-.06-2.56-.1-3.85-.17-2.56-.14-5.12-.25-7.69-.3C382.92,183.81,382.94,183.61,383.07,183.6Z" style="fill: rgb(38, 50, 56); transform-origin: 390.734px 183.889px;" id="eld18zjo0azvc" class="animable"></path><path d="M436.69,262.23l-42-4c-11.34-1.09-8.65-10-5-19.25s9-23.31,19.18-22.34l10.89,1,10.91,1.05c10.14,1,12.78,15.79,14.59,25.57S448,263.32,436.69,262.23Z" style="fill: rgb(66, 140, 255); transform-origin: 416.445px 239.455px;" id="el32ziv8l1ncy" class="animable"></path><path d="M407.65,217a.44.44,0,0,1-.47.4.45.45,0,0,1-.4-.48.44.44,0,0,1,.48-.39A.43.43,0,0,1,407.65,217Zm6.76.21a.44.44,0,0,0-.47.4.42.42,0,0,0,.39.47.43.43,0,0,0,.47-.39A.44.44,0,0,0,414.41,217.18Zm7.16.69a.44.44,0,0,0-.48.39.44.44,0,0,0,.39.48.45.45,0,0,0,.48-.39A.44.44,0,0,0,421.57,217.87Zm7.15.68a.45.45,0,0,0-.48.4.44.44,0,0,0,.4.47.42.42,0,0,0,.47-.39A.44.44,0,0,0,428.72,218.55ZM399.22,225a.43.43,0,0,0-.47.39.44.44,0,0,0,.39.48.45.45,0,0,0,.48-.4A.44.44,0,0,0,399.22,225Zm7.16.69a.43.43,0,1,0-.09.86.43.43,0,1,0,.09-.86Zm7.15.68a.43.43,0,0,0-.47.39.43.43,0,1,0,.86.09A.43.43,0,0,0,413.53,226.38Zm7.16.68a.45.45,0,0,0-.48.4.43.43,0,0,0,.39.47.44.44,0,0,0,.48-.39A.45.45,0,0,0,420.69,227.06Zm7.15.69a.44.44,0,0,0-.48.39.45.45,0,0,0,.4.48.44.44,0,0,0,.08-.87Zm7.15.69a.43.43,0,1,0,.39.47A.42.42,0,0,0,435,228.44Zm-31.74-7.8a.43.43,0,1,0,.39.47A.42.42,0,0,0,403.25,220.64Zm7.16.68a.45.45,0,0,0-.48.39.44.44,0,1,0,.87.09A.44.44,0,0,0,410.41,221.32Zm7.15.69a.43.43,0,1,0-.08.86.42.42,0,0,0,.47-.39A.43.43,0,0,0,417.56,222Zm7.15.68a.44.44,0,0,0-.08.87.44.44,0,0,0,.48-.39A.45.45,0,0,0,424.71,222.69Zm7.16.69a.44.44,0,0,0-.48.39.44.44,0,1,0,.48-.39Zm7,.69a.44.44,0,0,0-.34.39.42.42,0,0,0,.39.47.41.41,0,0,0,.39-.18C439.19,224.51,439,224.29,438.89,224.07ZM398.34,234.2a.44.44,0,0,0-.47.4.43.43,0,0,0,.39.47.44.44,0,0,0,.48-.39A.45.45,0,0,0,398.34,234.2Zm7.16.69a.44.44,0,1,0,.39.48A.44.44,0,0,0,405.5,234.89Zm7.15.69a.43.43,0,1,0,.39.47A.42.42,0,0,0,412.65,235.58Zm7.15.68a.43.43,0,0,0-.47.39.44.44,0,0,0,.39.48.45.45,0,0,0,.48-.39A.45.45,0,0,0,419.8,236.26ZM427,237a.43.43,0,1,0-.08.86A.43.43,0,0,0,427,237Zm7.15.68a.43.43,0,0,0-.47.39.43.43,0,1,0,.86.09A.43.43,0,0,0,434.11,237.63Zm7.16.69a.43.43,0,1,0,.39.47A.43.43,0,0,0,441.27,238.32Zm-46-9.17a.43.43,0,1,0-.09.86.43.43,0,1,0,.09-.86Zm7.15.68a.44.44,0,0,0-.47.39.43.43,0,1,0,.86.09A.44.44,0,0,0,402.37,229.83Zm7.16.69a.43.43,0,1,0-.09.86.43.43,0,1,0,.09-.86Zm7.15.68a.45.45,0,0,0-.48.39.45.45,0,0,0,.4.48.43.43,0,0,0,.47-.39A.44.44,0,0,0,416.68,231.2Zm7.15.69a.42.42,0,0,0-.47.39.43.43,0,0,0,.39.47.43.43,0,1,0,.08-.86Zm7.16.68a.45.45,0,0,0-.48.39.44.44,0,1,0,.87.09A.44.44,0,0,0,431,232.57Zm7.15.69a.43.43,0,1,0,.39.47A.42.42,0,0,0,438.14,233.26Zm-47.83,9.46a.43.43,0,1,0-.08.86.42.42,0,0,0,.47-.39A.43.43,0,0,0,390.31,242.72Zm7.15.68a.43.43,0,0,0-.47.39.43.43,0,1,0,.86.09A.43.43,0,0,0,397.46,243.4Zm7.16.69a.43.43,0,1,0,.39.47A.43.43,0,0,0,404.62,244.09Zm7.15.68a.43.43,0,0,0-.47.39.43.43,0,1,0,.86.09A.43.43,0,0,0,411.77,244.77Zm7.15.69a.42.42,0,0,0-.47.39.43.43,0,0,0,.39.47.43.43,0,1,0,.08-.86Zm7.16.68a.44.44,0,0,0-.48.39.45.45,0,0,0,.4.48.44.44,0,0,0,.08-.87Zm7.15.69a.43.43,0,1,0,.39.47A.42.42,0,0,0,433.23,246.83Zm7.16.68a.44.44,0,0,0-.48.39.44.44,0,1,0,.48-.39Zm-46.05-9.17a.45.45,0,0,0-.48.39.44.44,0,1,0,.87.09A.44.44,0,0,0,394.34,238.34Zm7.15.69a.43.43,0,1,0,.39.47A.42.42,0,0,0,401.49,239Zm7.15.68a.44.44,0,1,0,.4.48A.45.45,0,0,0,408.64,239.71Zm7.16.69a.44.44,0,0,0-.48.39.45.45,0,0,0,.4.48.44.44,0,0,0,.47-.4A.43.43,0,0,0,415.8,240.4Zm7.15.68a.44.44,0,0,0-.47.4.43.43,0,0,0,.86.08A.44.44,0,0,0,423,241.08Zm7.16.69a.43.43,0,0,0-.48.39.44.44,0,1,0,.87.08A.43.43,0,0,0,430.11,241.77Zm7.15.68a.44.44,0,0,0-.47.4.43.43,0,0,0,.86.08A.44.44,0,0,0,437.26,242.45Zm7.15.69a.43.43,0,0,0-.47.39.44.44,0,0,0,.39.48.45.45,0,0,0,.48-.4A.44.44,0,0,0,444.41,243.14Zm-55,8.77a.44.44,0,0,0-.48.39.45.45,0,0,0,.4.48.44.44,0,0,0,.08-.87Zm7.15.69a.43.43,0,1,0,.39.47A.42.42,0,0,0,396.58,252.6Zm7.16.68a.44.44,0,0,0-.48.39.44.44,0,0,0,.39.48.44.44,0,0,0,.09-.87Zm7.15.69a.43.43,0,1,0-.08.86.42.42,0,0,0,.47-.39A.43.43,0,0,0,410.89,254Zm7.15.68a.43.43,0,0,0-.47.39.44.44,0,0,0,.39.48.45.45,0,0,0,.48-.39A.45.45,0,0,0,418,254.65Zm7.16.69a.44.44,0,0,0-.48.39.44.44,0,1,0,.48-.39Zm7.15.68a.43.43,0,0,0-.47.39.44.44,0,0,0,.39.48.44.44,0,0,0,.08-.87Zm7.16.69a.43.43,0,1,0-.09.86.43.43,0,1,0,.09-.86Zm-46.05-9.17a.43.43,0,1,0,.39.47A.43.43,0,0,0,393.46,247.54Zm7.15.68a.44.44,0,0,0-.47.4.43.43,0,0,0,.86.08A.44.44,0,0,0,400.61,248.22Zm7.15.69a.43.43,0,0,0-.47.39.44.44,0,0,0,.39.48.45.45,0,0,0,.48-.4A.44.44,0,0,0,407.76,248.91Zm7.16.68a.45.45,0,0,0-.48.4.44.44,0,0,0,.4.47.43.43,0,0,0,.47-.39A.44.44,0,0,0,414.92,249.59Zm7.15.69a.43.43,0,0,0-.47.39.43.43,0,1,0,.86.08A.42.42,0,0,0,422.07,250.28Zm7.16.68a.45.45,0,0,0-.48.4.43.43,0,0,0,.39.47.44.44,0,0,0,.09-.87Zm7.15.69a.44.44,0,0,0-.48.39.45.45,0,0,0,.4.48.44.44,0,0,0,.47-.4A.43.43,0,0,0,436.38,251.65Zm7.15.68a.44.44,0,0,0-.08.87.44.44,0,0,0,.48-.39A.45.45,0,0,0,443.53,252.33Zm-50.95,4.4a.45.45,0,0,0-.48.4.44.44,0,0,0,.87.08A.44.44,0,0,0,392.58,256.73Zm7.15.69a.44.44,0,0,0-.48.39.45.45,0,0,0,.4.48.44.44,0,0,0,.47-.4A.42.42,0,0,0,399.73,257.42Zm7.15.68a.44.44,0,0,0-.08.87.44.44,0,0,0,.48-.39A.45.45,0,0,0,406.88,258.1Zm7.16.69a.44.44,0,0,0-.48.39.45.45,0,0,0,.39.48.45.45,0,0,0,.48-.4A.43.43,0,0,0,414,258.79Zm7.15.68a.44.44,0,0,0-.47.4.43.43,0,1,0,.86.08A.44.44,0,0,0,421.19,259.47Zm7.16.69a.44.44,0,0,0-.48.39.44.44,0,0,0,.39.48.45.45,0,0,0,.48-.4A.44.44,0,0,0,428.35,260.16Zm7.15.68a.45.45,0,0,0-.48.4.44.44,0,0,0,.4.47.43.43,0,0,0,.47-.39A.44.44,0,0,0,435.5,260.84Zm6.82.8.25-.11A.44.44,0,0,0,442.32,261.64Z" style="fill: rgb(255, 255, 255); transform-origin: 416.963px 239.145px;" id="el42b74to5tfg" class="animable"></path><g id="elzh7aij96lw"><path d="M411.18,221.91a3.5,3.5,0,1,1-3.15-3.82A3.5,3.5,0,0,1,411.18,221.91Z" style="opacity: 0.1; transform-origin: 407.696px 221.574px;" class="animable"></path></g><g id="elny8mthgnu0d"><path d="M434.37,224.13a3.49,3.49,0,1,1-3.14-3.81A3.48,3.48,0,0,1,434.37,224.13Z" style="opacity: 0.1; transform-origin: 430.897px 223.794px;" class="animable"></path></g><path d="M410.06,221.8a2.37,2.37,0,1,1-2.13-2.58A2.38,2.38,0,0,1,410.06,221.8Z" style="fill: rgb(38, 50, 56); transform-origin: 407.7px 221.579px;" id="elts5w475dqlq" class="animable"></path><path d="M433.25,224a2.37,2.37,0,1,1-2.13-2.58A2.37,2.37,0,0,1,433.25,224Z" style="fill: rgb(38, 50, 56); transform-origin: 430.89px 223.779px;" id="elfv25xwzcwqg" class="animable"></path><path d="M429.51,224.1l0-1c-1.36-39.83-2.77-81-15-85.77l.72-1.87c13.45,5.24,14.81,45.23,16.25,87.58l0,1Z" style="fill: rgb(69, 90, 100); transform-origin: 422.995px 179.78px;" id="el2xp4ug15awl" class="animable"></path><path d="M410.94,137.53c-.23,1.17-7.73,7.61-12.84,5.84-1.9-.65.11-5.29.11-5.29l-2.74-10.38,12.82-8.84S411,137,410.94,137.53Z" style="fill: rgb(247, 169, 160); transform-origin: 403.205px 131.268px;" id="elpxb20ht3m4j" class="animable"></path><path d="M409.29,125.65a20.55,20.55,0,0,1-11.23,11.86l-2.59-9.8,12.82-8.85S408.74,121.93,409.29,125.65Z" style="fill: rgb(38, 50, 56); transform-origin: 402.38px 128.185px;" id="elvr23i1kp7df" class="animable"></path><path d="M381.62,111.74c-2.12,17.45,8.09,20.7,11.86,21.15,3.42.41,15.1,1.38,19-15.76s-3.53-23.65-11.29-25S383.75,94.28,381.62,111.74Z" style="fill: rgb(247, 169, 160); transform-origin: 397.442px 112.463px;" id="elgpkgke4dra5" class="animable"></path><path d="M385.59,107.75c.42,0,.8-.06,1.21-.09a1.93,1.93,0,0,0,1.22-.33.61.61,0,0,0,.1-.75,1.54,1.54,0,0,0-1.46-.57,2.33,2.33,0,0,0-1.53.6A.67.67,0,0,0,385.59,107.75Z" style="fill: rgb(38, 50, 56); transform-origin: 386.571px 106.87px;" id="elzyckgve5y4m" class="animable"></path><path d="M397.39,109.53c-.41-.11-.76-.27-1.15-.41a2,2,0,0,1-1.08-.64.62.62,0,0,1,.1-.76,1.55,1.55,0,0,1,1.57-.15,2.27,2.27,0,0,1,1.3,1A.67.67,0,0,1,397.39,109.53Z" style="fill: rgb(38, 50, 56); transform-origin: 396.638px 108.484px;" id="elaoq0ifhd49" class="animable"></path><path d="M394.29,113.59s.08.07.07.12c-.22,1.17-.29,2.56.72,3.12,0,0,0,.08,0,.07C393.78,116.5,393.88,114.66,394.29,113.59Z" style="fill: rgb(38, 50, 56); transform-origin: 394.548px 115.245px;" id="el5y07xxa01ek" class="animable"></path><path d="M395.54,112.52c1.93.16,1.46,4-.32,3.85S393.93,112.39,395.54,112.52Z" style="fill: rgb(38, 50, 56); transform-origin: 395.439px 114.446px;" id="el1ejqkhuavd8" class="animable"></path><path d="M396.27,112.82c.31.25.59.68,1,.77s.87-.26,1.22-.61c0,0,.07,0,.06,0-.08.74-.45,1.46-1.25,1.47s-1.17-.7-1.27-1.46C396,112.9,396.15,112.71,396.27,112.82Z" style="fill: rgb(38, 50, 56); transform-origin: 397.289px 113.618px;" id="elwjvfbahswmo" class="animable"></path><path d="M387.29,112.4s-.1,0-.1.1c-.1,1.19-.41,2.55-1.53,2.82,0,0,0,.07,0,.07C387,115.35,387.39,113.55,387.29,112.4Z" style="fill: rgb(38, 50, 56); transform-origin: 386.482px 113.895px;" id="elf3llwf24q7" class="animable"></path><path d="M386.37,111c-1.9-.36-2.48,3.46-.72,3.8S388,111.35,386.37,111Z" style="fill: rgb(38, 50, 56); transform-origin: 385.961px 112.899px;" id="el93qgrnr12k5" class="animable"></path><path d="M385.54,111.17c-.34.16-.69.48-1.06.45s-.67-.5-.87-.94c0,0-.06,0-.07,0-.13.73,0,1.53.68,1.78s1.18-.33,1.47-1C385.74,111.33,385.67,111.11,385.54,111.17Z" style="fill: rgb(38, 50, 56); transform-origin: 384.601px 111.6px;" id="elzo8dqk5ydo" class="animable"></path><path d="M392.81,123.48c-.29.27-.59.65-1,.67a3.21,3.21,0,0,1-1.28-.34s-.08,0-.06.06a1.63,1.63,0,0,0,1.51.7,1.29,1.29,0,0,0,1-1C393,123.47,392.86,123.44,392.81,123.48Z" style="fill: rgb(38, 50, 56); transform-origin: 391.724px 124.021px;" id="elhe6u2ot2du" class="animable"></path><path d="M388.2,118.5s-.4,1.76-.48,2.6c0,.08.2.13.48.17h0a4,4,0,0,0,4-1.16c.06-.08,0-.17-.12-.13a6,6,0,0,1-3.74.73c0-.24.79-3,.65-3a7,7,0,0,0-1.94.27c.73-3.7,2-7.24,2.71-10.93a.12.12,0,0,0-.22-.07,61,61,0,0,0-3.42,11.64C386.06,119.09,387.85,118.61,388.2,118.5Z" style="fill: rgb(38, 50, 56); transform-origin: 389.171px 114.168px;" id="ely4rrmcvotdk" class="animable"></path><path d="M388.46,120.87a4.74,4.74,0,0,0,1.6,1.77,2.15,2.15,0,0,0,1.26.3c1-.08,1.13-.91,1.09-1.66a5,5,0,0,0-.21-1.17A6.12,6.12,0,0,1,388.46,120.87Z" style="fill: rgb(38, 50, 56); transform-origin: 390.438px 121.528px;" id="elvyoe272ob5" class="animable"></path><path d="M390.06,122.64a2.15,2.15,0,0,0,1.26.3c1-.08,1.13-.91,1.09-1.66A2.21,2.21,0,0,0,390.06,122.64Z" style="fill: rgb(255, 154, 187); transform-origin: 391.238px 122.102px;" id="elhjmxd7g0w9r" class="animable"></path><path d="M411.4,120.89A7.29,7.29,0,0,1,408,114.5a19,19,0,0,1-7-7.12c.07.38.62,3.1.95,4.48-11-3.38-13.46-12.34-13.46-12.34a19.39,19.39,0,0,0-5.73,6.53s.72-6.87,4.8-11.07a11.21,11.21,0,0,1,10.78-3.38,16,16,0,0,1,14.95,6.53C419.64,106.89,411.4,120.89,411.4,120.89Z" style="fill: rgb(38, 50, 56); transform-origin: 399.227px 106.105px;" id="elxbb0qzzwpo" class="animable"></path><path d="M393.61,109a21,21,0,0,0,5.51,2.77s0,0,0,0a17.58,17.58,0,0,1-7.66-5.91,16.51,16.51,0,0,1-2-3.65,11.44,11.44,0,0,1-1-4.44c0-.11-.17-.12-.17,0a13.76,13.76,0,0,0,.37,4.52,12.45,12.45,0,0,0,2.07,4,14.07,14.07,0,0,0,2.9,2.76" style="fill: rgb(38, 50, 56); transform-origin: 393.681px 104.727px;" id="elin3zebd1vgf" class="animable"></path><path d="M408.47,117.89s4.3-5.13,6.66-3.55-1.2,9.25-4.21,10.09a3,3,0,0,1-3.83-1.94Z" style="fill: rgb(247, 169, 160); transform-origin: 411.494px 119.314px;" id="elq7dgiqna62f" class="animable"></path><path d="M414.06,116.51s.05.07,0,.08c-2.12.65-3.36,2.45-4.28,4.35a1.64,1.64,0,0,1,2.48-.23c.05,0,0,.12-.06.1a1.83,1.83,0,0,0-2.06.46,8.8,8.8,0,0,0-1.1,1.54c-.12.18-.44,0-.35-.16a.08.08,0,0,0,0,0C408.9,120,411.24,116.53,414.06,116.51Z" style="fill: rgb(38, 50, 56); transform-origin: 411.378px 119.698px;" id="elyvm2x5n95q9" class="animable"></path><path d="M420.05,140.17c20.85,16.39,41.35,44.7,41.5,60.53.15,15.64-5.29,14.12-6.84,14-9.44-.62-31.68-44.12-38.45-61.86S414.89,136.12,420.05,140.17Z" style="fill: rgb(247, 169, 160); transform-origin: 437.32px 176.249px;" id="elczwed6oi5qe" class="animable"></path><path d="M406.7,221.6c0-.49-1.42-49.46-.59-62.92.57-9.22,2.16-20.67,6.51-22.91a3.92,3.92,0,0,1,4.06.36l-1.06,1.7a2,2,0,0,0-2.09-.28c-2.66,1.37-4.69,9.31-5.42,21.25-.83,13.37.58,62.25.59,62.74Z" style="fill: rgb(69, 90, 100); transform-origin: 411.265px 178.483px;" id="eli2hwvn6ggm" class="animable"></path><path d="M396.16,146.73l9.85,30.5c.39.89,0,1.66-.91,1.72l-16,1a2.58,2.58,0,0,1-2.32-1.5L376.92,148c-.39-.89,0-1.66.91-1.72l16-1.05A2.59,2.59,0,0,1,396.16,146.73Z" style="fill: rgb(55, 71, 79); transform-origin: 391.465px 162.59px;" id="elz6x0bglsa6" class="animable"></path><path d="M394.26,146.83l9.85,30.51c.39.89,0,1.65-.91,1.71l-16,1a2.6,2.6,0,0,1-2.33-1.5L375,148.09c-.39-.89,0-1.65.91-1.71l16-1A2.58,2.58,0,0,1,394.26,146.83Z" style="fill: rgb(69, 90, 100); transform-origin: 389.555px 162.715px;" id="elyz1b9romt5c" class="animable"></path><path d="M390,148.54a1.36,1.36,0,1,0,1.24-1.48A1.36,1.36,0,0,0,390,148.54Z" style="fill: rgb(38, 50, 56); transform-origin: 391.354px 148.415px;" id="elizkub7kxred" class="animable"></path><path d="M456.88,214.69c-7,1-15.7-4.47-38.29-21-3.12-2.28,7.05-28.67,10.51-26.41,4.36,2.85,20.67,14.87,21.75,15.9C460,191.9,461.62,214,456.88,214.69Z" style="fill: rgb(247, 169, 160); transform-origin: 438.737px 190.973px;" id="elv6qkny2d59r" class="animable"></path><path d="M437.17,175.3s-6.43-9-11.28-12.72a39.23,39.23,0,0,0-17.38-7c-6.77-1-23.83,1.28-24,6.3-.18,4.55,17.14,1.35,17.14,1.35s-18.2.35-17.42,5.87,20.68.66,20.68.66-18.68.78-17,6.34c1.29,4.21,19.55.82,19.55.82s-16,.78-14.91,5.16c1.26,4.85,18.32,2.78,18.32,2.78,4.78,10.65,11.41,13.76,16.39,15.41C428.47,200.64,437.17,175.3,437.17,175.3Z" style="fill: rgb(247, 169, 160); transform-origin: 410.688px 177.812px;" id="el6pwaa1fqhxf" class="animable"></path><path d="M407.9,162.68c-2.14,0-4.3-.09-6.44.06s-4.26.39-6.37.74a36.31,36.31,0,0,0-8.09,2.15c4.76-1.48,12.39-2.15,14.52-2.3s4.26-.42,6.39-.57A0,0,0,0,0,407.9,162.68Z" style="fill: rgb(38, 50, 56); transform-origin: 397.455px 164.142px;" id="el4k0batkg7bn" class="animable"></path><path d="M408.6,170.38c-2.74.07-5.45,0-8.18.23s-5.28.61-8,1c-.21,0-.12.13.09.11,2.71-.27,5.23-.31,8-.55s5.41-.58,8.12-.72C408.65,170.44,408.64,170.37,408.6,170.38Z" style="fill: rgb(38, 50, 56); transform-origin: 400.47px 171.051px;" id="el0w1w25l13kko" class="animable"></path><path d="M410.38,176.88a60.94,60.94,0,0,0-12.48,1.31c-.2,0-.08.16.13.13,4.14-.51,7.39-.95,12.35-1.3C410.46,177,410.47,176.88,410.38,176.88Z" style="fill: rgb(38, 50, 56); transform-origin: 404.121px 177.602px;" id="el6zw7tjky3x" class="animable"></path><path d="M458.6,199.3c-1.11-4.79-2.89-9.67-5.94-13.54-5.4-5.57-13.45-10.56-19.63-15.31a34.14,34.14,0,0,0-11.81-10.79,28.34,28.34,0,0,0-5-2.06,26.81,26.81,0,0,1,9.7,4.62,32.35,32.35,0,0,1,7.46,7.68c6.29,4.74,14.33,9.7,19.67,15.49a32,32,0,0,1,5.51,13.91Z" style="fill: rgb(38, 50, 56); transform-origin: 437.41px 178.45px;" id="elbzya2nwa2pa" class="animable"></path></g><defs>     <filter id="active" height="200%">         <feMorphology in="SourceAlpha" result="DILATED" operator="dilate" radius="2"></feMorphology>                <feFlood flood-color="#32DFEC" flood-opacity="1" result="PINK"></feFlood>        <feComposite in="PINK" in2="DILATED" operator="in" result="OUTLINE"></feComposite>        <feMerge>            <feMergeNode in="OUTLINE"></feMergeNode>            <feMergeNode in="SourceGraphic"></feMergeNode>        </feMerge>    </filter>    <filter id="hover" height="200%">        <feMorphology in="SourceAlpha" result="DILATED" operator="dilate" radius="2"></feMorphology>                <feFlood flood-color="#ff0000" flood-opacity="0.5" result="PINK"></feFlood>        <feComposite in="PINK" in2="DILATED" operator="in" result="OUTLINE"></feComposite>        <feMerge>            <feMergeNode in="OUTLINE"></feMergeNode>            <feMergeNode in="SourceGraphic"></feMergeNode>        </feMerge>            <feColorMatrix type="matrix" values="0   0   0   0   0                0   1   0   0   0                0   0   0   0   0                0   0   0   1   0 "></feColorMatrix>    </filter></defs></svg>