<svg class="animated" id="freepik_stories-personal-data" xmlns="http://www.w3.org/2000/svg" width="500" height="500" version="1.1" xmlns:xlink="http://www.w3.org/1999/xlink" xmlns:svgjs="http://svgjs.com/svgjs"><style>svg#freepik_stories-personal-data:not(.animated) .animable {opacity: 0;}svg#freepik_stories-personal-data.animated #elbrqjvppgh4v {animation: 1s 1 forwards cubic-bezier(.36,-0.01,.5,1.38) slideRight;animation-delay: 0s;}svg#freepik_stories-personal-data.animated #el70bqj2223xm {animation: 1s 1 forwards cubic-bezier(.36,-0.01,.5,1.38) slideRight;animation-delay: 0.037037037037037035s;opacity: 0}svg#freepik_stories-personal-data.animated #elsaevz7aypzs {animation: 1s 1 forwards cubic-bezier(.36,-0.01,.5,1.38) slideRight;animation-delay: 0.07407407407407407s;opacity: 0}svg#freepik_stories-personal-data.animated #elq1g8r0ky79 {animation: 1s 1 forwards cubic-bezier(.36,-0.01,.5,1.38) slideRight;animation-delay: 0.1111111111111111s;opacity: 0}svg#freepik_stories-personal-data.animated #el3ufn8k0kunr {animation: 1s 1 forwards cubic-bezier(.36,-0.01,.5,1.38) slideRight;animation-delay: 0.14814814814814814s;opacity: 0}svg#freepik_stories-personal-data.animated #eljhrgm9pvfmp {animation: 1s 1 forwards cubic-bezier(.36,-0.01,.5,1.38) slideRight;animation-delay: 0.18518518518518517s;opacity: 0}svg#freepik_stories-personal-data.animated #elolq2c56ol7e {animation: 1s 1 forwards cubic-bezier(.36,-0.01,.5,1.38) slideRight;animation-delay: 0.2222222222222222s;opacity: 0}svg#freepik_stories-personal-data.animated #elrc0u5kcz0jp {animation: 1s 1 forwards cubic-bezier(.36,-0.01,.5,1.38) slideRight;animation-delay: 0.25925925925925924s;opacity: 0}svg#freepik_stories-personal-data.animated #el9tawny9wc2l {animation: 1s 1 forwards cubic-bezier(.36,-0.01,.5,1.38) slideRight;animation-delay: 0.2962962962962963s;opacity: 0}svg#freepik_stories-personal-data.animated #elmjmtf3cw6im {animation: 1s 1 forwards cubic-bezier(.36,-0.01,.5,1.38) slideRight;animation-delay: 0.3333333333333333s;opacity: 0}svg#freepik_stories-personal-data.animated #elmy2b4x4gezj {animation: 1s 1 forwards cubic-bezier(.36,-0.01,.5,1.38) slideRight;animation-delay: 0.37037037037037035s;opacity: 0}svg#freepik_stories-personal-data.animated #elgs7ohijw5n {animation: 1s 1 forwards cubic-bezier(.36,-0.01,.5,1.38) slideRight;animation-delay: 0.4074074074074074s;opacity: 0}svg#freepik_stories-personal-data.animated #elm9hh0fbb94 {animation: 1s 1 forwards cubic-bezier(.36,-0.01,.5,1.38) slideRight;animation-delay: 0.4444444444444444s;opacity: 0}svg#freepik_stories-personal-data.animated #el57n28ltvm1r {animation: 1s 1 forwards cubic-bezier(.36,-0.01,.5,1.38) slideRight;animation-delay: 0.48148148148148145s;opacity: 0}svg#freepik_stories-personal-data.animated #elw7jmew1y48 {animation: 1s 1 forwards cubic-bezier(.36,-0.01,.5,1.38) slideRight;animation-delay: 0.5185185185185185s;opacity: 0}svg#freepik_stories-personal-data.animated #elrg7d37hh299 {animation: 1s 1 forwards cubic-bezier(.36,-0.01,.5,1.38) slideRight;animation-delay: 0.5555555555555556s;opacity: 0}svg#freepik_stories-personal-data.animated #el90yk2zf2ow {animation: 1s 1 forwards cubic-bezier(.36,-0.01,.5,1.38) slideRight;animation-delay: 0.5925925925925926s;opacity: 0}svg#freepik_stories-personal-data.animated #elud82go6mf7 {animation: 1s 1 forwards cubic-bezier(.36,-0.01,.5,1.38) slideRight;animation-delay: 0.6296296296296295s;opacity: 0}svg#freepik_stories-personal-data.animated #elzk1nk9wvkb9 {animation: 1s 1 forwards cubic-bezier(.36,-0.01,.5,1.38) slideRight;animation-delay: 0.6666666666666666s;opacity: 0}svg#freepik_stories-personal-data.animated #elwogm0pgqa9i {animation: 1s 1 forwards cubic-bezier(.36,-0.01,.5,1.38) slideRight;animation-delay: 0.7037037037037037s;opacity: 0}svg#freepik_stories-personal-data.animated #el3tcg6a402o6 {animation: 1s 1 forwards cubic-bezier(.36,-0.01,.5,1.38) slideRight;animation-delay: 0.7407407407407407s;opacity: 0}svg#freepik_stories-personal-data.animated #el8gmln85i0pe {animation: 1s 1 forwards cubic-bezier(.36,-0.01,.5,1.38) slideRight;animation-delay: 0.7777777777777777s;opacity: 0}svg#freepik_stories-personal-data.animated #elbfjj97q864g {animation: 1s 1 forwards cubic-bezier(.36,-0.01,.5,1.38) slideRight;animation-delay: 0.8148148148148148s;opacity: 0}svg#freepik_stories-personal-data.animated #el0j4f1e2wtzf {animation: 1s 1 forwards cubic-bezier(.36,-0.01,.5,1.38) slideRight;animation-delay: 0.8518518518518519s;opacity: 0}svg#freepik_stories-personal-data.animated #el31d548cfc33 {animation: 1s 1 forwards cubic-bezier(.36,-0.01,.5,1.38) slideRight;animation-delay: 0.8888888888888888s;opacity: 0}svg#freepik_stories-personal-data.animated #el2i9yrkumjjp {animation: 1s 1 forwards cubic-bezier(.36,-0.01,.5,1.38) slideRight;animation-delay: 0.9259259259259258s;opacity: 0}svg#freepik_stories-personal-data.animated #elk71amzcjgh {animation: 1s 1 forwards cubic-bezier(.36,-0.01,.5,1.38) slideRight;animation-delay: 0.9629629629629629s;opacity: 0}svg#freepik_stories-personal-data.animated #freepik--background-complete--inject-118 {animation: 1s 1 forwards cubic-bezier(.36,-0.01,.5,1.38) slideRight;animation-delay: 0s;}svg#freepik_stories-personal-data.animated #freepik--Floor--inject-118 {animation: 1s 1 forwards cubic-bezier(.36,-0.01,.5,1.38) fadeIn;animation-delay: 0s;}svg#freepik_stories-personal-data.animated #freepik--Income--inject-118 {animation: 1s 1 forwards cubic-bezier(.36,-0.01,.5,1.38) slideLeft;animation-delay: 0s;}svg#freepik_stories-personal-data.animated #freepik--health-information--inject-118 {animation: 1s 1 forwards cubic-bezier(.36,-0.01,.5,1.38) lightSpeedRight;animation-delay: 0s;}svg#freepik_stories-personal-data.animated #freepik--Email--inject-118 {animation: 1s 1 forwards cubic-bezier(.36,-0.01,.5,1.38) lightSpeedLeft;animation-delay: 0s;}svg#freepik_stories-personal-data.animated #freepik--Localisation--inject-118 {animation: 1s 1 forwards cubic-bezier(.36,-0.01,.5,1.38) fadeIn;animation-delay: 0s;}svg#freepik_stories-personal-data.animated #freepik--phone-number--inject-118 {animation: 1s 1 forwards cubic-bezier(.36,-0.01,.5,1.38) slideLeft;animation-delay: 0s;}svg#freepik_stories-personal-data.animated #freepik--online-identifier--inject-118 {animation: 1s 1 forwards cubic-bezier(.36,-0.01,.5,1.38) slideUp;animation-delay: 0s;}svg#freepik_stories-personal-data.animated #freepik--Character--inject-118 {animation: 1s 1 forwards cubic-bezier(.36,-0.01,.5,1.38) zoomIn;animation-delay: 0s;}            @keyframes slideRight {                0% {                    opacity: 0;                    transform: translateX(30px);                }                100% {                    opacity: 1;                    transform: translateX(0);                }            }                    @keyframes fadeIn {                0% {                    opacity: 0;                }                100% {                    opacity: 1;                }            }                    @keyframes slideLeft {                0% {                    opacity: 0;                    transform: translateX(-30px);                }                100% {                    opacity: 1;                    transform: translateX(0);                }            }                    @keyframes lightSpeedRight {              from {                transform: translate3d(50%, 0, 0) skewX(-20deg);                opacity: 0;              }              60% {                transform: skewX(10deg);                opacity: 1;              }              80% {                transform: skewX(-2deg);              }              to {                opacity: 1;                transform: translate3d(0, 0, 0);              }            }                    @keyframes lightSpeedLeft {              from {                transform: translate3d(-50%, 0, 0) skewX(20deg);                opacity: 0;              }              60% {                transform: skewX(-10deg);                opacity: 1;              }              80% {                transform: skewX(2deg);              }              to {                opacity: 1;                transform: translate3d(0, 0, 0);              }            }                    @keyframes slideUp {                0% {                    opacity: 0;                    transform: translateY(30px);                }                100% {                    opacity: 1;                    transform: inherit;                }            }                    @keyframes zoomIn {                0% {                    opacity: 0;                    transform: scale(0.5);                }                100% {                    opacity: 1;                    transform: scale(1);                }            }        </style><g id="freepik--background-complete--inject-118" class="animable" style="transform-origin: 250.044px 288.722px;"><rect x="315.1" y="299.13" width="138.68" height="8.47" style="fill: rgb(235, 235, 235); transform-origin: 384.44px 303.365px;" id="elbrqjvppgh4v" class="animable"></rect><rect x="327.46" y="307.59" width="113.94" height="23.36" style="fill: rgb(235, 235, 235); transform-origin: 384.43px 319.27px;" id="el70bqj2223xm" class="animable"></rect><polygon points="441.41 312.21 327.46 314.47 327.46 307.59 441.41 307.59 441.41 312.21" style="fill: rgb(199, 199, 199); transform-origin: 384.435px 311.03px;" id="elsaevz7aypzs" class="animable"></polygon><path d="M424.27,326.56H344.61V312h79.66Zm-78.66-1h77.66V313H345.61Z" style="fill: rgb(219, 219, 219); transform-origin: 384.44px 319.28px;" id="elq1g8r0ky79" class="animable"></path><rect x="371.47" y="317.31" width="25.93" height="3.92" style="fill: rgb(219, 219, 219); transform-origin: 384.435px 319.27px;" id="el3ufn8k0kunr" class="animable"></rect><polygon points="326.54 465.29 322.77 465.29 333.75 330.95 343.37 330.95 326.54 465.29" style="fill: rgb(235, 235, 235); transform-origin: 333.07px 398.12px;" id="eljhrgm9pvfmp" class="animable"></polygon><polygon points="343.37 330.96 342.24 339.94 333.02 339.94 333.75 330.96 343.37 330.96" style="fill: rgb(199, 199, 199); transform-origin: 338.195px 335.45px;" id="elolq2c56ol7e" class="animable"></polygon><polygon points="442.33 465.29 446.1 465.29 435.13 330.95 425.5 330.95 442.33 465.29" style="fill: rgb(235, 235, 235); transform-origin: 435.8px 398.12px;" id="elrc0u5kcz0jp" class="animable"></polygon><polygon points="425.5 330.96 426.63 339.94 435.86 339.94 435.13 330.96 425.5 330.96" style="fill: rgb(199, 199, 199); transform-origin: 430.68px 335.45px;" id="el9tawny9wc2l" class="animable"></polygon><path d="M427.29,166a29,29,0,1,1,13.3-31.38A28.94,28.94,0,0,1,427.29,166Z" style="fill: rgb(235, 235, 235); transform-origin: 412.34px 141.153px;" id="elmjmtf3cw6im" class="animable"></path><path d="M421.2,138a8.82,8.82,0,1,1-8.72-8.93A8.83,8.83,0,0,1,421.2,138Z" style="fill: rgb(255, 255, 255); transform-origin: 412.381px 137.889px;" id="elmy2b4x4gezj" class="animable"></path><path d="M427.33,162.36l0,3.64a29,29,0,0,1-30.49-.38l.05-3.62a15.24,15.24,0,1,1,30.48.36Z" style="fill: rgb(255, 255, 255); transform-origin: 412.106px 158.541px;" id="elgs7ohijw5n" class="animable"></path><path d="M87.44,214.33a19,19,0,1,1,8.71-20.55A18.92,18.92,0,0,1,87.44,214.33Z" style="fill: rgb(235, 235, 235); transform-origin: 77.6426px 198.054px;" id="elm9hh0fbb94" class="animable"></path><path d="M83.45,196a5.78,5.78,0,1,1-5.71-5.85A5.79,5.79,0,0,1,83.45,196Z" style="fill: rgb(255, 255, 255); transform-origin: 77.6704px 195.93px;" id="el57n28ltvm1r" class="animable"></path><path d="M87.47,212l0,2.38a19,19,0,0,1-20-.25l0-2.37a10,10,0,1,1,20,.24Z" style="fill: rgb(255, 255, 255); transform-origin: 77.4704px 209.49px;" id="elw7jmew1y48" class="animable"></path><path d="M106.36,315.68a36.06,36.06,0,0,0,.12,4.89c-.06-1.08-.07-2.17-.09-3.26C106.37,316.77,106.36,316.22,106.36,315.68Z" style="fill: rgb(235, 235, 235); transform-origin: 106.403px 318.125px;" id="elrg7d37hh299" class="animable"></path><path d="M87.05,404.08a58.62,58.62,0,0,0,9.58-14.47l.61-.74c18.43,5.67,25.63-13.63,25.18-13.66-5.5-.43-10.35-.57-15.24,2.27a28.15,28.15,0,0,0-9.33,9.4,73.09,73.09,0,0,0,4.78-16.66l.09,0c4.31-2.45,9.1-5.73,10.9-10.59s.28-11.46-.75-16.44a.26.26,0,0,0-.49-.09h0c-7.2,7.37-13,15.34-10.32,25.82-2.72,12.88-8,23.08-15.53,33.61a117.44,117.44,0,0,1-5.66-47.19c.18-1.95.42-3.88.69-5.8a.69.69,0,0,0,.29-.09A106.11,106.11,0,0,0,97.7,337.34l.62-.37c9.26,8.91,21.31,1.29,30-4.37l0-.05a.48.48,0,0,0-.07-.9l-.08,0a.44.44,0,0,0-.15-.05c-5.69-1.8-10.92-4.36-17-2.94a25.05,25.05,0,0,0-8.56,4,85,85,0,0,0,17.76-27.14.49.49,0,0,0,.22-.06c10.68-5.44,15.25-14.56,14-26.23l.18-.28c.16-.26-.24-.49-.43-.28-6.77,7.35-16.9,13.25-13.84,24.46A155.31,155.31,0,0,1,110.22,320c3.45-9.39,3.51-18-1.07-28a.35.35,0,0,0-.42-.46.21.21,0,0,0-.17.08,0,0,0,0,1,0,0,35.38,35.38,0,0,0-7.94,20.12c-.31,5.47,2.27,9.47,6.12,13a100.45,100.45,0,0,1-24.94,23.17c3.34-21.89,12.32-42.2,20.8-62.58,0,0,.07,0,.1-.05,4.53-3.8,10.77-6.93,13.34-12.55,2.79-6.1,1.47-14,.8-20.43,0,0-.33-.14-.33-.06-4.84,4.53-10,9.57-12.75,15.71-2.36,5.32-2.19,11-2,16.66l-.06.06a.11.11,0,0,0,.06.18l0,.86q-3.69,7-6.94,14.21c.36-5.1,1-10.43-.35-15.28-1.6-6-9.67-16.64-9.72-16.64s-.12,0-.1.06h0c0,.14-.12.63-.11.67-2,12.92-6.14,27.77,9.2,33.54v0C83,327.19,76.62,354,79.58,380.05c-9.36-14.95-13.26-31.14-15-48.66a.3.3,0,0,0,.17-.18c2.37-6,4.88-12.64,4.4-19.21-.46-6.21-3.72-12.11-6.33-17.65a.35.35,0,0,0-.63,0c-3.17,7.05-6.7,13.41-6.26,21.41.36,6.48,3.89,10,8.14,14.54,0,0,0,.05,0,.08v.32L64,331a.34.34,0,0,0,.1.36,101.47,101.47,0,0,0,3.59,27.9c-2-5-3.39-9.89-7-14.13a94.73,94.73,0,0,0-13.95-12.9.27.27,0,0,0-.35.41l.11.1C47,339,47.58,346.9,51,352.46c3.68,6,10.58,7.7,17.1,8.62h.07a54.68,54.68,0,0,0,11.6,20.59,104.08,104.08,0,0,0,13.33,39.44c.26.44,1,.05.8-.42A142,142,0,0,1,87.05,404.08Zm19.39-24.91c5.21-3.5,9.65-2.81,15.18-3.12-3,3.89-4.75,7.29-8.9,9.88-4.49,2.79-9.88,2.39-15,2.3C100.4,385,102.91,381.55,106.44,379.17Zm-3.6-10.25a.36.36,0,0,0-.23-.39c-.4-5.38-.54-9.7,2.6-14.66,2.19-3.46,4.66-6.78,7.15-10,.2,4.51,1.1,9.08.31,13.53-.93,5.32-5.3,9-9.83,11.55Zm24-81.43c2.53-2.5,5.17-4.66,7.16-7.56-.81,5-.39,9.8-3.14,14.38a27.84,27.84,0,0,1-9.56,9.16C120.27,297.09,122.25,292,126.83,287.49Zm-20.35,33.08a20.7,20.7,0,0,0,.27,2.37,22.45,22.45,0,0,1-3.41-13.46c.42-5.94,3.7-10.88,5.33-16.46,0,.07,0,.15,0,.22a74.43,74.43,0,0,0-2.25,15.56c-.11,2.29-.11,4.59-.07,6.88.07-2.37.28-4.72.39-6.88a97.9,97.9,0,0,1,2-14.68c.26,4.82,1.28,9.54,1,14.41a80.9,80.9,0,0,1-2.61,14.89l-.2-.23A22,22,0,0,1,106.48,320.57Zm5.15-14.4c.36,6.19-2.24,11.85-4.28,17.55l-.12-.15A85.5,85.5,0,0,0,110,309a69.84,69.84,0,0,0-1.15-15.33l.06-.26C109.84,297.6,111.37,301.87,111.63,306.17Zm-8.88.48c1.18-4.82,3.32-8.81,5.56-13.06-2,5.66-5.2,10.79-5.32,17a21.85,21.85,0,0,0,2.78,11.25C102.28,317.32,101.13,313.33,102.75,306.65ZM111.44,330c5.45-1.27,10.16,1.1,15.3,2.3-4.27,2.83-8.62,6.19-13.69,7.11s-9.49-.61-13.89-2.93C103.13,334,106.71,331.07,111.44,330Zm-6-62.43c2.48-5.49,6.24-9.72,10.19-14.06a74.61,74.61,0,0,0-12.49,26.41C103.59,275.77,103.64,271.65,105.48,267.55Zm-2.8,16c.1-.5.18-1,.25-1.49a84.55,84.55,0,0,1,12.84-28.18A209.93,209.93,0,0,0,103,283.14Zm.47-.54a269.56,269.56,0,0,1,13.13-29.86c-1,5.46-1.33,11.24-3.39,16.41S106.79,278.83,103.15,283ZM113,270.12c2.24-5.33,2.78-11.6,3.52-17.31,0,5.77.28,13.94-2,19.2-2.18,5-7.19,8.05-11.32,11.39C106.83,279.34,110.87,275.14,113,270.12ZM85,269.25c0-.08,0-.17,0-.25,2.47,4.87,5.76,9,7.53,14.47,1.63,5,1.52,11.31,1.39,16.79a59.76,59.76,0,0,0-1.21-9.13s-.06,0-.06,0c.51,3.23.8,6.45,1,9.7-2.25-5.07-5-9.92-6.51-15.3A57.47,57.47,0,0,1,85,270c2.57,6.58,6.5,12.38,7.41,19.62h0C91.66,282.51,88.15,275.6,85,269.25Zm.31,8.27a62,62,0,0,0,1.55,8.11,78.56,78.56,0,0,0,6.8,15.78,27.48,27.48,0,0,1-8.65-13.82c-1.21-5-.74-10.24-.36-15.38C84.82,274,85.11,275.78,85.35,277.52Zm-1.82,7.06a50,50,0,0,1,.45-7,32.2,32.2,0,0,0,1.19,11.18,26.54,26.54,0,0,0,8.56,12.79c0,.11,0,.22,0,.33C87.3,297.65,83.71,292.51,83.53,284.58Zm-26.15,30c-.1-6.27,5.07-18.57,5.07-18.57.32.18,4.91,12.64,5.24,15.18.78,6.11-1.51,13-3.43,18.84C61.62,324.46,57.48,321.37,57.38,314.54Zm-6.88,34c-1.89-5-2.4-10.38-3.65-15.52,4.45,4.08,9.11,8,13.06,12.57,3.75,4.35,5,9.56,7.69,14.38C60.21,358.46,53.45,356.32,50.5,348.59Z" style="fill: rgb(235, 235, 235); transform-origin: 90.482px 336.759px;" id="el90yk2zf2ow" class="animable"></path><path d="M129.34,293.1a58.53,58.53,0,0,0,4.48-12.88l.31-.44a.06.06,0,0,0-.09-.07l-.17.19a.1.1,0,0,0-.16,0,.05.05,0,0,0-.07,0l-.44.75c-5.87,6.57-10.9,14-12.28,22.77l-.47.49s0,0,0,0,.27-.29.41-.44c0,.31-.1.61-.14.92,0,0,.06.06.07,0,0-.34.1-.68.16-1l.31-.33c-.07.2-.14.41-.2.61s.12.14.16,0l.47-1.1C124.58,299.68,127.46,296.84,129.34,293.1Zm4.12-12.38A69.32,69.32,0,0,1,129.11,293a40.75,40.75,0,0,1-7.33,9.55c3.17-7.38,7.54-14.15,11.29-21.26ZM121,303.34a31.83,31.83,0,0,1,4.63-12.29c1.92-2.94,4.22-5.6,6.36-8.37-1.87,3.21-3.65,6.47-5.45,9.71-1.92,3.43-4,6.85-5.21,10.6Z" style="fill: rgb(235, 235, 235); transform-origin: 127.292px 292.058px;" id="elud82go6mf7" class="animable"></path><path d="M127.84,332.38l-.79-.17s0,0,0,0h-.18L127,332a0,0,0,1,0,0,0l-.22.14c-4.46-1-9-1.7-13.6-1a43.79,43.79,0,0,0-14,5.11l-.7-.32s0,0,0,0l.67.32-.11,0-.33.11s0,.07,0,.07h0s0,.09,0,.07l.56-.24a24.05,24.05,0,0,0,13.52,1.95,27.6,27.6,0,0,0,7.09-2.18c2.23-1,4.89-2.07,6.76-3.72l1.18.25C127.93,332.63,128,332.41,127.84,332.38Zm-14.69-1a35.79,35.79,0,0,1,12.33.73,77.14,77.14,0,0,0-25.36,3.79C104.3,334.05,108.63,332.07,113.15,331.39ZM99.3,336.27l.06,0a86.81,86.81,0,0,1,27-4l.12,0C118.31,337.8,108.52,340.24,99.3,336.27Z" style="fill: rgb(235, 235, 235); transform-origin: 113.207px 334.659px;" id="elzk1nk9wvkb9" class="animable"></path><path d="M103,368.85l0-.05,0,.14s.06.06.07,0,0-.16,0-.25c3-3.13,5.86-6.53,7.39-10.61,1.66-4.42,1.79-9.17,1.75-13.83l.22-.32c0-.05,0-.1-.07-.06l-.15.2v-.16a0,0,0,0,0,0,0c0,.08,0,.16,0,.23s-.22.29-.32.44l.36-.87s0-.07-.05,0c-.27.49-.52,1-.76,1.49-5.14,6.95-8.82,14.79-8.66,23.64l-.63.68c-.06.08,0,.19.11.11l.53-.54c0,.21,0,.41,0,.62a.1.1,0,0,0,.21,0C103,369.42,103,369.13,103,368.85Zm2.29-12.57a46.63,46.63,0,0,1,5.7-10.16c-1.29,2.77-2.36,5.62-3.44,8.49,0,0,0,0,.05,0,1.23-3.19,2.67-6.28,4-9.42l.57-.83c-.21,4.3-.36,8.72-1.69,12.84-1.43,4.39-4.28,7.81-7.31,11.15a57,57,0,0,1,3.17-10.45,0,0,0,0,0,0,0,51.28,51.28,0,0,0-3.24,10.55l-.11.13A38.16,38.16,0,0,1,105.31,356.28Z" style="fill: rgb(235, 235, 235); transform-origin: 107.278px 356.747px;" id="elwogm0pgqa9i" class="animable"></path><path d="M121.87,376a.08.08,0,0,0,0-.13l.17-.2c0-.06,0-.14-.09-.08s-.2.22-.3.33l-.48.15a46.43,46.43,0,0,0-12.3,3.13c-3.94,1.76-7,4.57-10,7.62-.46.33-.91.67-1.36,1,0,0,0,.1,0,.07l.73-.47-.28.29h0l.45-.42a106.86,106.86,0,0,1,22.13-10.84l.6-.11a38.48,38.48,0,0,1-9.93,7.84c-4.59,2.48-9.09,3.38-14.2,4,0,0,0,.06,0,.06,9.26.29,18.5-5,24.39-11.92l.33-.06A.13.13,0,0,0,121.87,376ZM99.44,386.41c2.91-2.7,6-5.33,9.6-7a43,43,0,0,1,9.9-2.73A75.4,75.4,0,0,0,99.44,386.41Z" style="fill: rgb(235, 235, 235); transform-origin: 109.525px 381.91px;" id="el3tcg6a402o6" class="animable"></path><path d="M64.52,330.4c0-.09,0-.17,0-.25a.17.17,0,0,0,.07-.21l-.1-.22c-.26-5.33-1.2-10.57-1.72-15.88-.55-5.67-.37-11.35-.37-17,.12-.52.24-1,.35-1.56a.14.14,0,0,0-.27-.07,82.16,82.16,0,0,0-2.39,9.91,34.2,34.2,0,0,0-.91,8.37c.31,5.66,2.62,11.62,5.15,16.64a.15.15,0,0,0,.1.08c0,.07,0,.15,0,.23S64.52,330.45,64.52,330.4Zm-4.93-17.83c0-5.22,1.55-10.38,2.73-15.46a118.24,118.24,0,0,0,.19,16.73c.5,5.23,1.55,10.4,1.87,15.64C62.08,324.24,59.61,318.36,59.59,312.57Z" style="fill: rgb(235, 235, 235); transform-origin: 61.8893px 312.797px;" id="el8gmln85i0pe" class="animable"></path><path d="M64.69,330.56c.23-5.7,2.45-10.93,1.94-16.71a46.08,46.08,0,0,0-3.44-14.41s-.08,0-.06,0a48.23,48.23,0,0,1,3.29,15.61c.27,5.26-1.66,10.26-1.86,15.49C64.56,330.65,64.69,330.64,64.69,330.56Z" style="fill: rgb(235, 235, 235); transform-origin: 64.9163px 315.031px;" id="elbfjj97q864g" class="animable"></path><path d="M69.37,359.74a15.18,15.18,0,0,1-1.76-.24l-.44-.31c-2.94-4.29-5.5-8.78-8.8-12.82-3.67-4.5-7.27-9.18-11.35-13.32,0,0-.08,0-.05.05,3.54,4.27,7.14,8.49,10.66,12.77,3.37,4.07,5.9,8.63,8.94,12.9a54.5,54.5,0,0,1-11.21-10.51c-3.64-4.62-6-9.79-8.41-15.11,0,0-.07,0-.06,0,.06.25.15.5.22.74-.15-.4-.32-.81-.5-1.2a.11.11,0,0,0-.2.08c1.9,5.78,2.31,12.57,6.11,17.53a25.26,25.26,0,0,0,14.81,9.5l.23.32c.08.11.27,0,.19-.11l-.11-.16.27.05.18.11c.06,0,.11,0,.12-.07.38.06.77.11,1.16.14C69.6,360.12,69.6,359.76,69.37,359.74ZM67,359.39A24.54,24.54,0,0,1,51.7,348.45c-2.26-3.8-2.68-8.25-3.88-12.42,3.43,9.32,11,17.89,19.12,23.26A.61.61,0,0,1,67,359.39Z" style="fill: rgb(235, 235, 235); transform-origin: 57.9754px 346.403px;" id="el0j4f1e2wtzf" class="animable"></path><path d="M109.84,403.87s-.58,5.2-1.39,12.6c-1.92,17.44-5.13,47-5.13,48.82H74.39c0-1.8-3.2-31.38-5.11-48.82-.81-7.4-1.39-12.6-1.39-12.6Z" style="fill: rgb(219, 219, 219); transform-origin: 88.865px 434.58px;" id="el31d548cfc33" class="animable"></path><path d="M109.84,403.87s-.58,5.2-1.39,12.6H69.28c-.81-7.4-1.39-12.6-1.39-12.6Z" style="fill: rgb(199, 199, 199); transform-origin: 88.865px 410.17px;" id="el2i9yrkumjjp" class="animable"></path><rect x="65.25" y="401.78" width="47.23" height="9.2" style="fill: rgb(219, 219, 219); transform-origin: 88.865px 406.38px;" id="elk71amzcjgh" class="animable"></rect></g><g id="freepik--Floor--inject-118" class="animable" style="transform-origin: 250px 465.29px;"><polygon points="46.23 465.29 97.17 465.05 148.11 464.96 250 464.79 351.89 464.96 402.83 465.05 453.77 465.29 402.83 465.54 351.89 465.62 250 465.79 148.11 465.62 97.17 465.54 46.23 465.29" style="fill: rgb(38, 50, 56); transform-origin: 250px 465.29px;" id="elycz9m02ly3a" class="animable"></polygon></g><g id="freepik--Income--inject-118" class="animable" style="transform-origin: 362.341px 360.024px;"><g id="elsonk74mm41k"><rect x="332.9" y="342.59" width="71.32" height="71.32" style="fill: rgb(56, 128, 255); transform-origin: 368.56px 378.25px; transform: rotate(180deg);" class="animable"></rect></g><rect x="327.95" y="342.59" width="4.94" height="71.32" style="fill: rgb(56, 128, 255); transform-origin: 330.42px 378.25px;" id="elevdmg17ax6k" class="animable"></rect><g id="el243cd1qkxhb"><rect x="327.95" y="342.59" width="4.94" height="71.32" style="opacity: 0.1; transform-origin: 330.42px 378.25px;" class="animable"></rect></g><path d="M368.55,355.14c-32.5,0-32.55,46.22,0,46.22S401.11,355.14,368.55,355.14Z" style="fill: rgb(255, 255, 255); transform-origin: 368.561px 378.25px;" id="ely8dc3vpx7gf" class="animable"></path><path d="M388.32,382.58c-1.74,7.95-8.33,14.85-19.77,14.85-27,0-27-38.36,0-38.36h.53c-25.39.47-25.26,36.79.5,36.79C380.08,395.87,386.34,389.79,388.32,382.58Z" style="fill: rgb(56, 128, 255); transform-origin: 368.31px 378.25px;" id="elrwk5u7qh5" class="animable"></path><path d="M368.75,364.13a.82.82,0,0,1,.84.77v1.29a12,12,0,0,1,6.26,2.25c.32.23.49.42.49.74a.86.86,0,0,1-.91.8.94.94,0,0,1-.64-.22,10.42,10.42,0,0,0-5.27-2.09v9c5.34,1,7.59,2.86,7.59,6,0,3.41-3.12,5.83-7.52,6v2.5a.85.85,0,0,1-1.69,0v-2.54a13.79,13.79,0,0,1-7.91-3.12.82.82,0,0,1-.39-.67.89.89,0,0,1,.88-.81.94.94,0,0,1,.64.23,11.87,11.87,0,0,0,6.85,2.93V378c-5.27-1.07-7.45-2.84-7.45-6.05s3.09-5.73,7.38-5.83V364.9A.82.82,0,0,1,368.75,364.13ZM368,376.36v-8.79c-3.41.07-5.66,1.93-5.66,4.25S363.44,375.36,368,376.36Zm1.55,2v8.88c3.52-.07,5.8-1.93,5.8-4.38C375.32,380.6,374.09,379.25,369.52,378.32Z" style="fill: rgb(56, 128, 255); transform-origin: 368.355px 378.029px;" id="el5be8dpz8926" class="animable"></path><rect x="365.36" y="337.3" width="1" height="1.5" style="fill: rgb(56, 128, 255); transform-origin: 365.86px 338.05px;" id="el8mykpp0ocrg" class="animable"></rect><path d="M366.36,334.4h-1v-2.91h1Zm0-5.81h-1v-2.91h1Z" style="fill: rgb(56, 128, 255); transform-origin: 365.86px 330.04px;" id="ellhw3bi22ks" class="animable"></path><polygon points="366.36 322.78 365.36 322.78 365.36 321.65 364.28 321.32 364.57 320.36 366.36 320.91 366.36 322.78" style="fill: rgb(56, 128, 255); transform-origin: 365.32px 321.57px;" id="elnz12xehrc9g" class="animable"></polygon><path d="M361.57,320.49l-2.72-.83.29-1,2.72.82Zm-5.44-1.65-2.71-.83.29-1,2.72.83Zm-5.43-1.66-2.71-.83.29-1,2.71.82Zm-5.43-1.65-2.72-.83.3-1,2.71.83Zm-5.43-1.66-2.72-.83.29-1,2.72.83Zm-5.43-1.65-2.72-.83.29-1,2.72.83ZM329,310.56l-2.71-.82.29-1,2.72.83Z" style="fill: rgb(56, 128, 255); transform-origin: 344.075px 314.615px;" id="eleq69n2o5g3a" class="animable"></path><g id="elyhtt9bgfh1b"><rect x="322.47" y="307.46" width="1" height="1.5" style="fill: rgb(56, 128, 255); transform-origin: 322.97px 308.21px; transform: rotate(-73.04deg);" class="animable"></rect></g><path d="M322.89,306.22a1.88,1.88,0,1,0,1.25,2.35A1.89,1.89,0,0,0,322.89,306.22Z" style="fill: rgb(56, 128, 255); transform-origin: 322.341px 308.019px;" id="elzzdxdozrix9" class="animable"></path></g><g id="freepik--health-information--inject-118" class="animable animator-active" style="transform-origin: 371.045px 245px;"><g id="elwmua2q62l9m"><rect x="361.83" y="209.34" width="71.32" height="71.32" style="fill: rgb(56, 128, 255); transform-origin: 397.49px 245px; transform: rotate(180deg);" class="animable"></rect></g><rect x="356.89" y="209.34" width="4.94" height="71.32" style="fill: rgb(56, 128, 255); transform-origin: 359.36px 245px;" id="elkskcwhxj2" class="animable"></rect><g id="el79inj65ri7f"><rect x="356.89" y="209.34" width="4.94" height="71.32" style="opacity: 0.1; transform-origin: 359.36px 245px;" class="animable"></rect></g><path d="M417.12,250a61.16,61.16,0,0,1-19.64,17.05A61.18,61.18,0,0,1,377.85,250c-6.92-9.15-6.58-23.47,3.31-26.57,10.94-3.43,16.32,13,16.32,13s5.46-16.57,16.33-13C423.66,226.64,424,240.86,417.12,250Z" style="fill: rgb(255, 255, 255); transform-origin: 397.47px 244.988px;" id="ele78trpkti1" class="animable"></path><polygon points="389.76 259.83 386.78 247.41 384.84 251.79 372.79 251.79 372.79 250.39 383.93 250.39 387.18 243.07 389.51 252.75 392.79 232.69 395.69 248.56 397.99 241.93 401.61 252.78 402.41 250.38 422.19 250.38 422.19 251.78 403.42 251.78 401.6 257.2 397.96 246.28 395.27 254.05 392.87 240.89 389.76 259.83" style="fill: rgb(56, 128, 255); transform-origin: 397.49px 246.26px;" id="el14ekbnbblpi" class="animable"></polygon><rect x="354.48" y="244.5" width="1.5" height="1" style="fill: rgb(56, 128, 255); transform-origin: 355.23px 245px;" id="elu49hu9igbj" class="animable"></rect><path d="M351.66,245.5h-2.81v-1h2.81Zm-5.63,0h-2.82v-1H346Zm-5.63,0h-2.82v-1h2.82Zm-5.64,0h-2.82v-1h2.82Zm-5.63,0h-2.82v-1h2.82Zm-5.64,0h-2.81v-1h2.81Zm-5.63,0H315v-1h2.82Z" style="fill: rgb(56, 128, 255); transform-origin: 333.33px 245px;" id="el3qvq49uyqjg" class="animable"></path><rect x="310.73" y="244.5" width="1.5" height="1" style="fill: rgb(56, 128, 255); transform-origin: 311.48px 245px;" id="elyww4vki7mr" class="animable"></rect><circle cx="310.82" cy="245" r="1.88" style="fill: rgb(56, 128, 255); transform-origin: 310.82px 245px;" id="elbasbr1yf7dg" class="animable"></circle></g><g id="freepik--Email--inject-118" class="animable" style="transform-origin: 357.16px 132.01px;"><g id="elsu4ic3mqrl"><rect x="332.9" y="76.09" width="71.32" height="71.32" style="fill: rgb(56, 128, 255); transform-origin: 368.56px 111.75px; transform: rotate(180deg);" class="animable"></rect></g><rect x="327.95" y="76.09" width="4.94" height="71.32" style="fill: rgb(56, 128, 255); transform-origin: 330.42px 111.75px;" id="eltc67p54c3db" class="animable"></rect><g id="eltlj0viqixsf"><rect x="327.95" y="76.09" width="4.94" height="71.32" style="opacity: 0.1; transform-origin: 330.42px 111.75px;" class="animable"></rect></g><g id="freepik--TEfYE6--inject-118" class="animable" style="transform-origin: 368.553px 111.759px;"><path d="M388.56,96.77l-1.07,1-16.94,16.13a2.54,2.54,0,0,1-3.89,0L349.28,97.52l-.68-.67a2.64,2.64,0,0,1,1.51-.4l11.76,0,24.54-.1A3.57,3.57,0,0,1,388.56,96.77Z" style="fill: rgb(255, 255, 255); transform-origin: 368.58px 105.566px;" id="elfs7nnuh15g" class="animable"></path><path d="M388.51,126.77a8.18,8.18,0,0,1-1.45.26c-4.69,0-9.38,0-14.07.07l-22.61.09a3.35,3.35,0,0,1-1.83-.46l14-13.37,2.71,2.55,1.15,1.08a3,3,0,0,0,4.32,0c1.24-1.17,2.47-2.36,3.76-3.6l14,13.21Z" style="fill: rgb(255, 255, 255); transform-origin: 368.53px 120.276px;" id="elvreolrjkf8l" class="animable"></path><path d="M360.87,111.74c-4.55,4.43-9.17,8.73-13.67,13.18a3.42,3.42,0,0,1-.1-.66q-.06-12.39-.1-24.78a5.59,5.59,0,0,1,.09-.78Z" style="fill: rgb(255, 255, 255); transform-origin: 353.935px 111.81px;" id="el1g9kiq1n85f" class="animable"></path><path d="M390,124.78q-2.55-2.44-5.13-4.88l-8.32-7.85-.33-.26c4.58-4.46,9.21-8.77,13.68-13.19C390.09,99.08,390.2,124.12,390,124.78Z" style="fill: rgb(255, 255, 255); transform-origin: 383.163px 111.69px;" id="el5dwxet39lz6" class="animable"></path></g><rect x="366.74" y="151.69" width="1" height="1.5" style="fill: rgb(56, 128, 255); transform-origin: 367.24px 152.44px;" id="eln4fcvz4be5m" class="animable"></rect><path d="M367.74,164.81h-1v-2.9h1Zm0-5.81h-1v-2.91h1Z" style="fill: rgb(56, 128, 255); transform-origin: 367.24px 160.45px;" id="el3bo9nbls86i" class="animable"></path><polygon points="365.95 170.13 365.66 169.17 366.74 168.84 366.74 167.72 367.74 167.72 367.74 169.59 365.95 170.13" style="fill: rgb(56, 128, 255); transform-origin: 366.7px 168.925px;" id="eldyezrcjnvls" class="animable"></polygon><path d="M316.23,185.27l-.29-1,2.76-.84.3,1Zm5.53-1.68-.29-1,2.76-.85.29,1Zm5.52-1.68-.29-1,2.76-.84.29,1Zm5.53-1.68-.3-1,2.77-.84.29,1Zm5.52-1.69-.29-.95,2.76-.84.29.95Zm5.52-1.68-.29-1,2.77-.84.29,1Zm5.53-1.68-.29-1,2.76-.84.29,1Zm5.52-1.68-.29-1,2.76-.84.29,1Zm5.53-1.69-.29-.95,2.76-.84.29.95Z" style="fill: rgb(56, 128, 255); transform-origin: 339.565px 177.645px;" id="eloizro1ir38s" class="animable"></path><g id="elourksx3mxmh"><rect x="311.86" y="185.36" width="1.5" height="1" style="fill: rgb(56, 128, 255); transform-origin: 312.61px 185.86px; transform: rotate(-16.91deg);" class="animable"></rect></g><circle cx="311.98" cy="186.05" r="1.88" style="fill: rgb(56, 128, 255); transform-origin: 311.98px 186.05px;" id="eli8lqp8ose3" class="animable"></circle></g><g id="freepik--Localisation--inject-118" class="animable" style="transform-origin: 136.769px 358.235px;"><rect x="90.37" y="342.59" width="71.32" height="71.32" style="fill: rgb(56, 128, 255); transform-origin: 126.03px 378.25px;" id="el0w7sj99rmb5g" class="animable"></rect><g id="elybi72auxsk"><rect x="161.68" y="342.59" width="4.94" height="71.32" style="fill: rgb(56, 128, 255); transform-origin: 164.15px 378.25px; transform: rotate(180deg);" class="animable"></rect></g><g id="elmjgu0c5lwvk"><rect x="161.68" y="342.59" width="4.94" height="71.32" style="opacity: 0.1; transform-origin: 164.15px 378.25px; transform: rotate(180deg);" class="animable"></rect></g><g id="freepik--uGJA8C--inject-118" class="animable" style="transform-origin: 126.021px 378.252px;"><path d="M142.33,365.27c-3.48-7.68-12.36-11.72-20.9-9.59-7.25,1.8-13.9,8.46-13.07,17.89a23.52,23.52,0,0,0,2.37,7.8,60.06,60.06,0,0,0,10.13,14.68c1.62,1.82,3.34,3.55,5,5.34.25-.22.42-.34.55-.48,2.19-2.35,4.45-4.62,6.54-7.06a51.1,51.1,0,0,0,9.37-15C144.08,374.29,144.37,369.77,142.33,365.27ZM137,371.84a11,11,0,1,1-10.36-11.16A11,11,0,0,1,137,371.84Z" style="fill: rgb(255, 255, 255); transform-origin: 126.021px 378.252px;" id="elplbvwsfxrd" class="animable"></path></g><rect x="125.53" y="337.3" width="1" height="1.5" style="fill: rgb(56, 128, 255); transform-origin: 126.03px 338.05px;" id="el11jb2z4gaty" class="animable"></rect><path d="M126.53,334.4h-1v-2.91h1Zm0-5.81h-1v-2.91h1Z" style="fill: rgb(56, 128, 255); transform-origin: 126.03px 330.04px;" id="ela21dzrmb3bu" class="animable"></path><polygon points="126.53 322.78 125.53 322.78 125.53 320.91 127.31 320.36 127.61 321.32 126.53 321.65 126.53 322.78" style="fill: rgb(56, 128, 255); transform-origin: 126.57px 321.57px;" id="elrm68446nt4q" class="animable"></polygon><path d="M130.37,320.48l-.29-1,2.76-.84.29,1Zm5.52-1.69-.29-1,2.76-.84.29.95Zm5.53-1.68-.3-1,2.77-.84.29,1Zm5.52-1.68-.29-1,2.76-.84.29,1Zm5.52-1.68-.29-1,2.77-.84.29,1Zm5.53-1.69-.29-.95,2.76-.84.29,1Zm5.52-1.68-.29-1,2.76-.84.29,1ZM169,308.7l-.29-1,2.76-.84.29,1Zm5.52-1.68-.29-1,2.76-.84.29.95Z" style="fill: rgb(56, 128, 255); transform-origin: 153.68px 312.83px;" id="elcx8sfgg9kui" class="animable"></path><g id="el11f87zcmwsx"><rect x="179.91" y="304.14" width="1.5" height="1" style="fill: rgb(56, 128, 255); transform-origin: 180.66px 304.64px; transform: rotate(-16.91deg);" class="animable"></rect></g><path d="M181.83,306.24a1.88,1.88,0,1,0-2.34-1.25A1.86,1.86,0,0,0,181.83,306.24Z" style="fill: rgb(56, 128, 255); transform-origin: 181.288px 304.442px;" id="el17h3m46vzbih" class="animable"></path></g><g id="freepik--phone-number--inject-118" class="animable" style="transform-origin: 109.755px 245px;"><rect x="61.43" y="209.34" width="71.32" height="71.32" style="fill: rgb(56, 128, 255); transform-origin: 97.09px 245px;" id="elgma0ey85q4j" class="animable"></rect><g id="eld5tmtte4los"><rect x="132.74" y="209.34" width="4.94" height="71.32" style="fill: rgb(56, 128, 255); transform-origin: 135.21px 245px; transform: rotate(180deg);" class="animable"></rect></g><g id="elm9nwr9ls9o"><rect x="132.74" y="209.34" width="4.94" height="71.32" style="opacity: 0.1; transform-origin: 135.21px 245px; transform: rotate(180deg);" class="animable"></rect></g><g id="freepik--IaQ7Yo--inject-118" class="animable" style="transform-origin: 97.101px 245px;"><path d="M112.66,265.36a5.73,5.73,0,0,1-2.77,1.38c-.46.11-.92.18-1.38.27H106.1c-.8-.13-1.6-.23-2.4-.4a24.52,24.52,0,0,1-8.76-3.86A56.71,56.71,0,0,1,79.29,247a24.06,24.06,0,0,1-3.8-8.65c-.17-.82-.28-1.65-.41-2.48v-2.32a18.26,18.26,0,0,1,.53-2.24,15.54,15.54,0,0,1,1-2c.19.17.29.24.38.32q4.95,5,9.91,9.9a.56.56,0,0,1,.16.64A4.84,4.84,0,0,0,88.13,245a97,97,0,0,0,9,9,4.85,4.85,0,0,0,4.8,1,.49.49,0,0,1,.57.1l10,10.07Z" style="fill: rgb(255, 255, 255); transform-origin: 93.87px 248.16px;" id="elw3ufyogui1" class="animable"></path><path d="M118.46,259.58q-1.74,1.76-3.49,3.49l-.25.23-10.15-10.14c.23-.22.51-.46.77-.71,1-1,2-2,3-3a1.61,1.61,0,0,1,2.58,0q3.8,3.78,7.57,7.57A1.59,1.59,0,0,1,118.46,259.58Z" style="fill: rgb(255, 255, 255); transform-origin: 111.846px 256.052px;" id="el8fgvu9pcvjo" class="animable"></path><path d="M92.7,233.66c-1.29,1.26-2.61,2.49-3.91,3.72l-10-10a1.92,1.92,0,0,1,.2-.23q1.77-1.78,3.55-3.56a1.58,1.58,0,0,1,2.48,0c2.55,2.55,5.11,5.1,7.65,7.65A1.56,1.56,0,0,1,92.7,233.66Z" style="fill: rgb(255, 255, 255); transform-origin: 86.0253px 230.185px;" id="elpkipmsgjoo9" class="animable"></path></g><rect x="138.83" y="244.5" width="1.5" height="1" style="fill: rgb(56, 128, 255); transform-origin: 139.58px 245px;" id="eli1ll5dtl82i" class="animable"></rect><path d="M151.9,245.5H149v-1h2.89Zm-5.78,0h-2.9v-1h2.9Z" style="fill: rgb(56, 128, 255); transform-origin: 147.56px 245px;" id="elh0khgw94n2o" class="animable"></path><rect x="154.8" y="244.5" width="1.5" height="1" style="fill: rgb(56, 128, 255); transform-origin: 155.55px 245px;" id="el71526jcqsr7" class="animable"></rect><path d="M156.2,246.88a1.88,1.88,0,1,0-1.88-1.88A1.88,1.88,0,0,0,156.2,246.88Z" style="fill: rgb(56, 128, 255); transform-origin: 156.2px 245px;" id="elgnpmv40at9p" class="animable"></path></g><g id="freepik--online-identifier--inject-118" class="animable" style="transform-origin: 136.769px 132.011px;"><rect x="90.37" y="76.09" width="71.32" height="71.32" style="fill: rgb(56, 128, 255); transform-origin: 126.03px 111.75px;" id="elqth5uzfkdn" class="animable"></rect><g id="elafe17xfkj8"><rect x="161.68" y="76.09" width="4.94" height="71.32" style="fill: rgb(56, 128, 255); transform-origin: 164.15px 111.75px; transform: rotate(180deg);" class="animable"></rect></g><g id="elctzbmme3vc"><rect x="161.68" y="76.09" width="4.94" height="71.32" style="opacity: 0.1; transform-origin: 164.15px 111.75px; transform: rotate(180deg);" class="animable"></rect></g><path d="M138.33,102a11.92,11.92,0,1,1-11.78-12.06A11.92,11.92,0,0,1,138.33,102Z" style="fill: rgb(255, 255, 255); transform-origin: 126.411px 101.859px;" id="elnmu4fqj974" class="animable"></path><path d="M146.58,133.59H105.47a20.58,20.58,0,0,1,41.11,0Z" style="fill: rgb(255, 255, 255); transform-origin: 126.025px 123.807px;" id="elj28ozn17wxj" class="animable"></path><rect x="125.53" y="151.69" width="1" height="1.5" style="fill: rgb(56, 128, 255); transform-origin: 126.03px 152.44px;" id="el9t41u5o1dq" class="animable"></rect><path d="M126.53,164.81h-1v-2.9h1Zm0-5.81h-1v-2.91h1Z" style="fill: rgb(56, 128, 255); transform-origin: 126.03px 160.45px;" id="elfo02ybmnweq" class="animable"></path><polygon points="127.31 170.13 125.53 169.59 125.53 167.72 126.53 167.72 126.53 168.84 127.61 169.17 127.31 170.13" style="fill: rgb(56, 128, 255); transform-origin: 126.57px 168.925px;" id="elj24vvnksbwa" class="animable"></polygon><path d="M177,185.27l-2.76-.84.29-1,2.76.84Zm-5.52-1.68-2.76-.84.29-1,2.76.85ZM166,181.91l-2.76-.84.29-1,2.76.84Zm-5.52-1.68-2.76-.84.29-1,2.76.84Zm-5.52-1.69-2.77-.84.29-.95,2.77.84Zm-5.53-1.68-2.76-.84.29-1,2.76.84Zm-5.52-1.68-2.77-.84.3-1,2.76.84Zm-5.53-1.68-2.76-.84.29-1,2.76.84Zm-5.52-1.69-2.76-.84.29-.95,2.76.84Z" style="fill: rgb(56, 128, 255); transform-origin: 153.695px 177.645px;" id="el1mape4rqqby" class="animable"></path><g id="el64jwpwjtgvn"><rect x="180.16" y="185.11" width="1" height="1.5" style="fill: rgb(56, 128, 255); transform-origin: 180.66px 185.86px; transform: rotate(-73.06deg);" class="animable"></rect></g><path d="M180.74,187.85a1.88,1.88,0,1,0-1.25-2.35A1.88,1.88,0,0,0,180.74,187.85Z" style="fill: rgb(56, 128, 255); transform-origin: 181.287px 186.051px;" id="eldtd7gt7jlhu" class="animable"></path></g><g id="freepik--Character--inject-118" class="animable" style="transform-origin: 251.052px 258.248px;"><rect x="200.59" y="401.41" width="60.78" height="4.46" style="fill: rgb(199, 199, 199); transform-origin: 230.98px 403.64px;" id="elg1n6ekx96" class="animable"></rect><polygon points="205.66 254.04 205.34 278.26 203.29 392.2 203.22 397.32 202.32 464.73 198.88 464.73 197.97 397.32 197.91 392.2 195.85 278.26 195.53 254.04 205.66 254.04" style="fill: rgb(199, 199, 199); transform-origin: 200.595px 359.385px;" id="elohyfq9e81od" class="animable"></polygon><polygon points="195.53 254.04 205.66 254.04 205.34 278.26 195.85 278.26 195.53 254.04" style="fill: rgb(166, 166, 166); transform-origin: 200.595px 266.15px;" id="elzy2ler2z8ll" class="animable"></polygon><polygon points="266.44 254.04 266.11 278.26 263.09 464.73 259.65 464.73 258.75 397.32 258.68 392.2 256.62 278.26 256.3 254.04 266.44 254.04" style="fill: rgb(199, 199, 199); transform-origin: 261.37px 359.385px;" id="elxv7cgyw1yt9" class="animable"></polygon><polygon points="266.44 254.04 266.11 278.26 256.62 278.26 256.3 254.04 266.44 254.04" style="fill: rgb(166, 166, 166); transform-origin: 261.37px 266.15px;" id="elbct91pltjbg" class="animable"></polygon><rect x="170.24" y="401.41" width="59.66" height="4.46" style="fill: rgb(199, 199, 199); transform-origin: 200.07px 403.64px;" id="elum6bz5zv57" class="animable"></rect><polygon points="175.31 254.04 174.98 278.26 172.93 392.2 172.86 397.32 171.96 464.73 168.52 464.73 165.5 278.26 165.17 254.04 175.31 254.04" style="fill: rgb(199, 199, 199); transform-origin: 170.24px 359.385px;" id="eluvchr2zog5p" class="animable"></polygon><polygon points="165.17 254.04 175.31 254.04 174.98 278.26 165.5 278.26 165.17 254.04" style="fill: rgb(166, 166, 166); transform-origin: 170.24px 266.15px;" id="elshdedeqf5rr" class="animable"></polygon><polygon points="234.97 254.04 234.65 278.26 232.59 392.2 232.53 397.32 231.62 464.73 228.19 464.73 227.28 397.32 227.22 392.2 225.16 278.26 224.84 254.04 234.97 254.04" style="fill: rgb(199, 199, 199); transform-origin: 229.905px 359.385px;" id="el4recryfv5c9" class="animable"></polygon><polygon points="224.84 254.04 234.97 254.04 234.65 278.26 225.16 278.26 224.84 254.04" style="fill: rgb(166, 166, 166); transform-origin: 229.905px 266.15px;" id="el5rs4ve4lqol" class="animable"></polygon><rect x="161.14" y="229.79" width="110.56" height="26.24" style="fill: rgb(56, 128, 255); transform-origin: 216.42px 242.91px;" id="el131bh0zga3r" class="animable"></rect><rect x="161.14" y="229.79" width="110.56" height="26.24" style="fill: rgb(55, 71, 79); transform-origin: 216.42px 242.91px;" id="elsctbc0lktw" class="animable"></rect><rect x="161.14" y="229.79" width="87.47" height="26.24" style="fill: rgb(69, 90, 100); transform-origin: 204.875px 242.91px;" id="elhg7qthekciv" class="animable"></rect><path d="M239.31,331.85l-39.67,32.06c-7.62,6.09-14.18,11.56-17.31,14.71a.08.08,0,0,0-.05.05c-1.19,1.18-1.87,2-1.91,2.44,0,0,0,.06,0,.08.28,3.5,47.15,65.76,49.51,67.38s7.18-5,7.28-8.86S230,404,230,404l39.32-32.4Z" style="fill: rgb(211, 118, 106); transform-origin: 224.845px 390.335px;" id="el8rs18k15ltc" class="animable"></path><path d="M233.64,420.6c1.8,8.38,3.56,17.18,3.52,19.11-.11,3.86-4.92,10.5-7.28,8.86s-49.24-63.88-49.51-67.37c0,0,0-.05,0-.09,0-.41.72-1.26,1.91-2.44,0,0,0,0,0-.05,2.54-2.56,7.36-6.64,13.15-11.35,1.34-1.1,2.74-2.21,4.17-3.37,0,0,39.67-32.06,39.67-32.06l30,39.72L230,404s1.85,8.09,3.67,16.62Z" style="fill: rgb(211, 118, 106); transform-origin: 224.82px 390.333px;" id="el5bo7s5njs05" class="animable"></path><path d="M237.16,439.71c-.11,3.86-4.92,10.5-7.28,8.86s-49.24-63.88-49.51-67.37c0,0,0-.05,0-.09,0-.41.72-1.26,1.91-2.44,0,0,0,0,0-.05,2.54-2.56,7.36-6.64,13.15-11.35,8.6,17.39,32.19,64.12,36.95,63.8,1.69-.12,1.64-5.46,1.22-10.47C235.44,429,237.2,437.78,237.16,439.71Z" style="fill: rgb(38, 50, 56); transform-origin: 208.765px 408.048px;" id="elmszx0qq6l2r" class="animable"></path><path d="M260.75,293.67c-2.81,13.87-60.36,69.22-60.36,69.22l40.12,46.31S322.22,327.64,318,297c-3.7-26.65-43.61-133.85-43.61-133.85h-46S263.51,280,260.75,293.67Z" style="fill: rgb(55, 71, 79); transform-origin: 259.274px 286.175px;" id="elr2zmtqn02bc" class="animable"></path><path d="M260.75,293.67c-2.81,13.87-60.36,69.22-60.36,69.22l40.12,46.31S322.22,327.64,318,297c-3.7-26.65-43.61-133.85-43.61-133.85h-46S263.51,280,260.75,293.67Z" style="fill: rgb(38, 50, 56); transform-origin: 259.274px 286.175px;" id="el65lf6394mdt" class="animable"></path><path d="M245.08,398.19c-5.33-6.64-3.71-4.81-9.11-11.39-2.65-3.21-20.05-24.34-23-26.91a.09.09,0,0,0-.14.11c2,3.4,19.78,24.22,22.48,27.39,5.53,6.47,4,4.55,9.62,11C245,398.47,245.18,398.31,245.08,398.19Z" style="fill: rgb(55, 71, 79); transform-origin: 228.964px 379.138px;" id="elbxwd58g56to" class="animable"></path><path d="M266.47,286.91c-.66-3.46-1.41-6.91-2.14-10.36q-2.25-10.56-4.76-21.07-5-20.83-10.81-41.43c-3.93-13.78-8.08-27.54-12.85-41.05-.59-1.66-1.2-3.33-1.81-5a.1.1,0,0,0-.2.06c4.13,13.53,8.4,27,12.28,40.64s7.44,27.19,10.81,40.87c1.69,6.87,3.27,13.77,4.81,20.68q1.13,5.08,2.21,10.19A71.15,71.15,0,0,1,265.94,291a16,16,0,0,1-2.7,9.46c-1.73,2.83-3.76,5.48-5.72,8.15-3.94,5.33-41.41,47.09-42.62,48.23-.09.09,0,.22.15.13,5-4.51,36.82-38.93,40.86-44.26,2-2.63,3.94-5.3,5.86-8a32,32,0,0,0,4.57-8.06C267.4,293.43,267.08,290.14,266.47,286.91Z" style="fill: rgb(55, 71, 79); transform-origin: 240.949px 262.463px;" id="eln02hzgn0k6h" class="animable"></path><path d="M266.37,163.13,258,272.84c-8-37.55-29.71-109.71-29.71-109.71Z" style="fill: rgb(55, 71, 79); transform-origin: 247.33px 217.985px;" id="el496mw9c6xv" class="animable"></path><path d="M250.56,389s9.94,48.39,9.94,48.43c.13,9.75.42,18.29,1,22.69,0,0,0,.05,0,.08.21,1.66.45,2.72.76,3l.05.06c2.93,1.92,80.85,3.13,83.59,2.26s.46-8.73-2.53-11.19-32.63-16.26-32.63-16.26l-10.42-48.37Z" style="fill: rgb(211, 118, 106); transform-origin: 298.845px 427.403px;" id="elnhzrmtbfpve" class="animable"></path><path d="M345.9,465.52c-2.73.88-80.66-.32-83.58-2.25,0,0,0,0-.07-.07-.3-.27-.55-1.33-.76-3,0,0,0,0,0-.06-.43-3.52-.72-9.66-.88-16.95,19.8,3.86,69.5,13.05,72.08,9.13,1-1.51-3.89-5-8.37-7.8,8.24,4,17.46,8.51,19.06,9.82C346.36,456.8,348.64,464.67,345.9,465.52Z" style="fill: rgb(38, 50, 56); transform-origin: 303.87px 454.502px;" id="eltava0huc1gk" class="animable"></path><path d="M273.83,163.14a188.63,188.63,0,0,0-3.95,23c-1,9.64-2.17,18.16-3.45,19.22-1.46,1.2-8.73,5.87-11.18,7.37,0,0,22.68,68.77,28.54,91.7,8.48,33.23,28.81,132.94,28.81,132.94H258.44S242,342.41,234.77,310.77c-6.17-27.13-28.69-103.52-28.69-103.52-8.6-21.16,5.3-44.11,5.3-44.11S273.84,163.1,273.83,163.14Z" style="fill: rgb(38, 50, 56); transform-origin: 257.936px 300.246px;" id="el3lpuhysbp5f" class="animable"></path><path d="M310.65,426.8c-8.52-.05-6.07-.15-14.59-.1-4.16,0-31.53.21-35.41.91-.09,0-.09.16,0,.17,3.9.59,31.26-.07,35.43-.18,8.51-.21,6.06-.24,14.57-.55A.13.13,0,0,0,310.65,426.8Z" style="fill: rgb(55, 71, 79); transform-origin: 285.663px 427.354px;" id="elkkr897zjklq" class="animable"></path><path d="M270.26,202.62a103,103,0,0,0-14.94,10c-.18.14,0,.44.2.31,5.07-3.17,10.25-6.26,15.14-9.71A.36.36,0,0,0,270.26,202.62Z" style="fill: rgb(55, 71, 79); transform-origin: 263.033px 207.761px;" id="elcd0inu75avl" class="animable"></path><path d="M266.15,166.07c0-.18-.38-.17-.34,0a169.69,169.69,0,0,1,1.88,17.4c.18,2.83.33,18.63-4.69,18.25-.84-.06-1.38-.8-1.7-2a19.56,19.56,0,0,1-.09-4.84c0-3.31,0-6.62-.27-9.93a90,90,0,0,0-3-18.24.16.16,0,0,0-.31.06A169.85,169.85,0,0,1,260,192.26c0,4.11-1.07,10.47,3.23,10.43s5.57-10.59,5.66-13.44A86.81,86.81,0,0,0,266.15,166.07Z" style="fill: rgb(55, 71, 79); transform-origin: 263.266px 184.314px;" id="el4c6fv1vyrl6" class="animable"></path><path d="M263.19,202.15a25.54,25.54,0,0,0-.59,3.37,7.22,7.22,0,0,0-.05,2.7.19.19,0,0,0,.35,0,9.4,9.4,0,0,0,.73-2.74c.21-1,.45-2.09.63-3.14A.55.55,0,0,0,263.19,202.15Z" style="fill: rgb(55, 71, 79); transform-origin: 263.353px 205.057px;" id="elrc40eul57qg" class="animable"></path><path d="M252.14,397c-.14-1.26-.31-2.51-.49-3.76-.34-2.4-.74-4.79-1.11-7.18-.74-4.82-1.57-9.62-2.42-14.41-1.7-9.57-3.66-19.1-5.73-28.59-1.17-5.37-2.53-10.67-4-16-.1-.37-.62-.19-.56.17.87,4.85,1.71,9.7,2.7,14.53s2,9.63,2.94,14.45c1.89,9.53,3.65,19.08,5.54,28.61.53,2.69,1,5.39,1.54,8.08.26,1.35.53,2.69.82,4s.7,2.64.92,4c0,.13.21.07.19,0C252.31,399.56,252.29,398.25,252.14,397Z" style="fill: rgb(55, 71, 79); transform-origin: 245.153px 363.916px;" id="elpe8616gt60b" class="animable"></path><path d="M289.49,325c-1.81-9-4.24-17.85-6.68-26.68-4.92-17.78-10.72-35.29-16.5-52.8q-2.49-7.56-5-15.13c-.83-2.52-4.91-16.12-5.42-17.42a.11.11,0,0,0-.21.07c1.17,4.63,2.78,11.39,4.13,16s2.79,9,4.2,13.55c2.77,8.86,5.58,17.71,8.27,26.61,5.31,17.57,10.58,35.14,14.89,53,1.21,5,2.41,10,3.51,15s2,10.07,3.09,15.09c0,.14.26.1.25,0C293.11,343.06,291.3,334,289.49,325Z" style="fill: rgb(55, 71, 79); transform-origin: 274.848px 282.638px;" id="el5sj5hpm0wro" class="animable"></path><path d="M256,373.24c-2.89-16.73-6.36-33.37-10.2-49.91s-8.15-33.14-12.89-49.53-10-32.63-15.61-48.72c-2.67-7.63-5.39-15.28-7.14-23.18s-3.25-20.55,4.9-36.83c.07-.13-.38-.2-.45-.07-10.72,18.47-5.87,37.77-1.06,52.38,2.64,8,5.45,15.94,8,24q4,12.33,7.68,24.78c4.85,16.44,9.35,33,13.39,49.64s7.63,33.42,10.79,50.27,5.84,33.89,8.55,50.88c.35,2.21.63,4.43.91,6.65,0,.12.21.12.2,0C261.12,406.72,258.92,390,256,373.24Z" style="fill: rgb(55, 71, 79); transform-origin: 235.622px 294.31px;" id="elhcx6uh2fadn" class="animable"></path><path d="M220.57,187.74c1.09-.42,2.3-.51,3.43-.83a26.94,26.94,0,0,0,3.48-1.19,26.59,26.59,0,0,0,6-3.54,13.92,13.92,0,0,0,3.94-5.62c.5-1.16,2.67-7.29,2.69-7.33s.36-.09.35.06c-.06.82-1.3,6.06-1.72,7.38a13.57,13.57,0,0,1-4,6.47,21.18,21.18,0,0,1-6.71,3.77,22.26,22.26,0,0,1-3.85,1,10.43,10.43,0,0,1-3.69.19C220.35,188.06,220.41,187.79,220.57,187.74Z" style="fill: rgb(55, 71, 79); transform-origin: 230.436px 178.686px;" id="eli29321a7h6s" class="animable"></path><path d="M281.41,183.73a12.9,12.9,0,0,0-1.84-.63,11.76,11.76,0,0,1-1.9-1,15.38,15.38,0,0,1-3.4-3,15.81,15.81,0,0,1-2.48-5c-.35-1-1.29-6.69-1.3-6.73s-.19-.07-.17.07a46.48,46.48,0,0,0,.8,6.81,17,17,0,0,0,2.55,5.81,11.79,11.79,0,0,0,3.78,3.22,7.82,7.82,0,0,0,2.07.78,3,3,0,0,0,1.93,0C281.55,184,281.5,183.77,281.41,183.73Z" style="fill: rgb(55, 71, 79); transform-origin: 275.912px 175.778px;" id="el4izc07no5x9" class="animable"></path><path d="M264.47,89.91c1.83,4.66,4.43,8.89,5.88,13.72a31.44,31.44,0,0,1,1.22,13.76c-2.59,16.9-24.6,27-40.06,21.79-7.39-2.51-13.82-8.51-15.79-16.2-2.4-9.43,2.63-18.49,5.69-27.1a44.15,44.15,0,0,0,2.48-15c0-4.48-.27-9,.63-13.45.65-3.14,2.8-12.3,14.41-16,8.33-2.63,16.76,1.92,20.64,9.84C264.09,70.49,260.86,80.66,264.47,89.91Z" style="fill: rgb(38, 50, 56); transform-origin: 243.47px 95.6186px;" id="el6dw9ctb9c2c" class="animable"></path><path d="M224.78,91.28c-3.6,7.71-8.33,15.59-9.71,24.1-1.15,7.05.75,14.68,6.89,18.88,0,0,.11,0,.06-.08-6.45-5-7.25-13.63-5.44-21.06,1.85-7.61,6.31-14.23,8.56-21.68A.2.2,0,0,0,224.78,91.28Z" style="fill: rgb(38, 50, 56); transform-origin: 219.949px 112.726px;" id="el2uxf2mbqpp3" class="animable"></path><path d="M223.15,90.84c-2.72,10.11-11.05,18.07-11.58,28.83,0,.13.19.16.2,0,.7-10.74,10-18.37,11.58-28.83A.1.1,0,1,0,223.15,90.84Z" style="fill: rgb(38, 50, 56); transform-origin: 217.46px 105.26px;" id="elznaysnsvj2i" class="animable"></path><path d="M265.05,89.74a35.05,35.05,0,0,1-3.16-11.89c0-.21-.37-.23-.38,0-1,14.84,16,26,11.5,41.32,0,.11.13.18.17.07,2.17-6.33.48-12.67-2.36-18.51C269,97,266.81,93.49,265.05,89.74Z" style="fill: rgb(38, 50, 56); transform-origin: 267.817px 98.4901px;" id="el5wtuun3whiv" class="animable"></path><path d="M261.61,75.65c0-.29-.45-.2-.43.07a33.19,33.19,0,0,0,5.22,15.6c1.48,2.32,3.29,4.39,4.72,6.73,1.57,2.57,2.78,5.32,4.09,8a.06.06,0,0,0,.11,0c-1.71-5.11-4.39-9.18-7.46-13.53A36.57,36.57,0,0,1,261.61,75.65Z" style="fill: rgb(38, 50, 56); transform-origin: 268.25px 90.7784px;" id="elsyiboot98m9" class="animable"></path><path d="M247.26,117c16.51,21.06,36.51,43.39,50.92,44.45,13.72,1,38.88-37.31,42.18-49.1,1.13-4.07-29-15.27-32-11.89-5.63,6.39-14.5,24.81-16.63,24.77s-22.45-12.39-40.6-22.58C240.1,96.45,235.83,102.4,247.26,117Z" style="fill: rgb(211, 118, 106); transform-origin: 290.447px 130.651px;" id="els0m5y4gffh" class="animable"></path><path d="M333.88,119.22s9.11-9,14.79-15.23c3.17-3.45,8.08-9.85,9.25-13.46,1.74-5.38,5.61-29-.1-30.1-5.18-1-5.92,19.78-5.92,19.78s2.6-20.86-3.84-20.87-4.16,23.53-4.16,23.53,2.19-21.49-4.46-20.45c-5,.78-4.15,22.23-4.15,22.23s1.75-18.49-3.45-17.91c-5.74.65-6.19,20.49-6.19,20.49A30.84,30.84,0,0,0,305,106.45C304.45,107.82,333.88,119.22,333.88,119.22Z" style="fill: rgb(211, 118, 106); transform-origin: 332.908px 89.28px;" id="elrfvr68akoy" class="animable"></path><path d="M351.56,86.5c3.09-15.22-.06-23.63,0-23.39.91,5.68.42,14.51.24,17s-.13,3.94-.31,6.4C351.46,86.56,351.55,86.55,351.56,86.5Z" style="fill: rgb(38, 50, 56); transform-origin: 352.202px 74.8239px;" id="ell5be5hfw1t" class="animable"></path><path d="M342.55,87a52.74,52.74,0,0,0,1.26-18.67c0-.24-.13-.16-.14.08-.14,3.14-.91,15.47-1.19,18.59C342.47,87.06,342.54,87.06,342.55,87Z" style="fill: rgb(38, 50, 56); transform-origin: 343.307px 77.615px;" id="elw5u1s1g1w7e" class="animable"></path><path d="M334.82,88a38.94,38.94,0,0,0,.55-14.48c0-.24-.16-.12-.17.13-.09,4.81-.13,8.6-.54,14.33C334.65,88.05,334.81,88.09,334.82,88Z" style="fill: rgb(38, 50, 56); transform-origin: 335.231px 80.7209px;" id="eltcvjsjismwd" class="animable"></path><path d="M303.14,105.61l30.67,22.53S312.26,163.52,299,162.67s-43.71-30.9-55.44-51.37c-8.12-14.16.75-13.28,11-7.48s36.72,20,37.68,19.53S303.14,105.61,303.14,105.61Z" style="fill: rgb(56, 128, 255); transform-origin: 287.1px 131.275px;" id="elmhs27mbjjkh" class="animable"></path><g id="el25ggveb4l36"><g style="opacity: 0.5; transform-origin: 287.1px 131.275px;" class="animable"><path d="M303.14,105.61l30.67,22.53S312.26,163.52,299,162.67s-43.71-30.9-55.44-51.37c-8.12-14.16.75-13.28,11-7.48s36.72,20,37.68,19.53S303.14,105.61,303.14,105.61Z" style="fill: rgb(255, 255, 255); transform-origin: 287.1px 131.275px;" id="elpd9hddx3lan" class="animable"></path></g></g><path d="M308.94,158.49c-3.52,2.7-7,4.37-10,4.18-13.32-.85-43.71-30.9-55.44-51.37-6.48-11.3-2.14-13,5.07-10.31C266.39,117.64,293.56,143.22,308.94,158.49Z" style="fill: rgb(56, 128, 255); transform-origin: 274.635px 131.279px;" id="elfo0cztwl09b" class="animable"></path><path d="M326.31,134.19c-4.4-3.07-22-16.31-25.59-19.42-.25-.22-.17-.43.12-.24,13.43,8.89,21.42,16.25,25.59,19.48C326.53,134.1,326.42,134.27,326.31,134.19Z" style="fill: rgb(38, 50, 56); transform-origin: 313.52px 124.333px;" id="el7vt6txvn7t" class="animable"></path><path d="M205.63,165.07l69.69-1.59-7.45-20.61a21.59,21.59,0,0,0,1.45-18.18c-2.19-5.89-10.83-14.23-16.13-19.54-12.93-12.94-22.47-5.69-25.37-1.79C216.74,118.24,205.63,165.07,205.63,165.07Z" style="fill: rgb(56, 128, 255); transform-origin: 240.475px 131.427px;" id="el34c1uqqin4m" class="animable"></path><g id="el614y76zv7qu"><path d="M205.63,165.07l69.69-1.59-7.45-20.61a21.59,21.59,0,0,0,1.45-18.18c-2.19-5.89-10.83-14.23-16.13-19.54-12.93-12.94-22.47-5.69-25.37-1.79C216.74,118.24,205.63,165.07,205.63,165.07Z" style="fill: rgb(255, 255, 255); opacity: 0.5; transform-origin: 240.475px 131.427px;" class="animable"></path></g><path d="M247.74,142.42a59.24,59.24,0,0,1,8.83-.55c1.47,0,2.93.14,4.39.28.73.07,1.46.11,2.19.15a9.74,9.74,0,0,0,2.29-.08c.06,0,.08.08,0,.1a15.34,15.34,0,0,1-2.12.44,13.46,13.46,0,0,1-2.1.08c-1.49,0-3-.12-4.47-.16-3-.08-6-.16-9,0C247.62,142.67,247.6,142.43,247.74,142.42Z" style="fill: rgb(38, 50, 56); transform-origin: 256.568px 142.358px;" id="elpdzhwm0z0md" class="animable"></path><path d="M241.23,146.58a63.15,63.15,0,0,1,7-2c1.2-.26,2.4-.45,3.61-.6.57-.08,1.15-.14,1.73-.2s1.29,0,1.92-.11c.07,0,.09.1,0,.1-.59.09-1.18.28-1.77.4l-1.79.36c-1.19.24-2.38.49-3.57.72-2.39.46-4.77.95-7.14,1.49C241.14,146.8,241.11,146.62,241.23,146.58Z" style="fill: rgb(38, 50, 56); transform-origin: 248.35px 145.211px;" id="elmgjvoo0a5s" class="animable"></path><path d="M224.58,109.74c-15.68,27.06-37.08,83-41.31,91.89-2.88,6,28.64,21.91,30,17.53,1.71-5.61,21.53-71.79,23-104.06C236.87,100.15,229.6,101.09,224.58,109.74Z" style="fill: rgb(211, 118, 106); transform-origin: 209.695px 161.702px;" id="elguh2z1tqn0i" class="animable"></path><path d="M214.1,216.13c-.73,5.47-4.45,16.48-7.21,18.15s-17.27,1.32-24.58,1.32-8.75-2-8.63-4.55,15.46-3,15.46-3-20.49,5.88-25.64,6.83-17,4-18.75-.32c-.77-1.92,2.48-3.87,2.48-3.87s-5,1.45-5.77-1c-.91-2.82,3-4.37,3-4.37s-3.11.62-3.18-1.67c-.16-5.14,19.33-7.66,19.33-7.66s-14.92,7.26-15.4,3.07c-.67-5.8,29.91-12.16,33.09-14.69a58.4,58.4,0,0,0,6.48-6.29Z" style="fill: rgb(211, 118, 106); transform-origin: 177.69px 217.447px;" id="elq91mv4beola" class="animable"></path><path d="M173.79,232.32a2.25,2.25,0,0,1,.69-1.95,6.56,6.56,0,0,1,1.79-1.16,24.15,24.15,0,0,1,4.19-1.36c2.88-.73,5.83-1.25,8.77-2a35.76,35.76,0,0,0-9,1,16.89,16.89,0,0,0-4.31,1.65,5.85,5.85,0,0,0-1.79,1.54A2.34,2.34,0,0,0,173.79,232.32Z" style="fill: rgb(38, 50, 56); transform-origin: 181.432px 229.083px;" id="elnmcuvhbotj" class="animable"></path><path d="M147.23,230.69c2.11-.52,4.19-1.11,6.26-1.71s4.14-1.24,6.2-1.86l6.17-1.93c2.06-.65,4.12-1.29,6.2-1.91a49.45,49.45,0,0,0-6.41,1.15c-2.11.48-4.19,1.08-6.26,1.71s-4.12,1.33-6.15,2.09S149.2,229.77,147.23,230.69Z" style="fill: rgb(38, 50, 56); transform-origin: 159.645px 226.985px;" id="elblc8we7frw6" class="animable"></path><path d="M167.11,218.17a40.57,40.57,0,0,0-5.91.81,55.24,55.24,0,0,0-5.79,1.49,53.71,53.71,0,0,0-5.59,2.09,42.29,42.29,0,0,0-5.31,2.74c1.89-.65,3.72-1.38,5.6-2s3.73-1.27,5.61-1.85,3.77-1.15,5.66-1.7S165.19,218.69,167.11,218.17Z" style="fill: rgb(38, 50, 56); transform-origin: 155.81px 221.735px;" id="ellxku1amoaz" class="animable"></path><path d="M164.09,213.27a36.9,36.9,0,0,0-9.4,2,36.47,36.47,0,0,0-8.66,4.19c3-1.08,6-2.21,9-3.22S161,214.26,164.09,213.27Z" style="fill: rgb(38, 50, 56); transform-origin: 155.06px 216.365px;" id="el3h8aez91vt8" class="animable"></path><path d="M181.42,200.21,216,217.1s18.05-71.62,20.28-96.72-7.42-19.33-14.08-7.54C213.06,129,181.42,200.21,181.42,200.21Z" style="fill: rgb(56, 128, 255); transform-origin: 209.014px 159.934px;" id="elz1lr0nsd2i" class="animable"></path><g id="ely0w69w6a24b"><path d="M181.42,200.21,216,217.1s18.05-71.62,20.28-96.72-7.42-19.33-14.08-7.54C213.06,129,181.42,200.21,181.42,200.21Z" style="fill: rgb(255, 255, 255); opacity: 0.5; transform-origin: 209.014px 159.934px;" class="animable"></path></g><path d="M215.15,208.32c-4.71-1.91-23.68-10.42-27.65-12.54-.27-.15-.25-.36.06-.24,14.23,5.38,23.14,10.49,27.66,12.59C215.33,208.19,215.27,208.37,215.15,208.32Z" style="fill: rgb(38, 50, 56); transform-origin: 201.295px 201.917px;" id="elhl1pu393ehc" class="animable"></path><path d="M228,167.61c.51-3.7,1.15-7.37,1.82-11s1.38-7.33,2.13-11,1.54-7.3,2.4-10.93l1.29-5.44c.48-1.81.91-3.62,1.42-5.42-.24,1.86-.56,3.69-.85,5.54l-1,5.51c-.65,3.67-1.39,7.32-2.13,11s-1.54,7.29-2.4,10.92S229,164,228,167.61Z" style="fill: rgb(38, 50, 56); transform-origin: 232.53px 145.715px;" id="el3tvo9etaqgh" class="animable"></path><path d="M235.13,133.31a13.11,13.11,0,0,1,1.11-2.74,12.87,12.87,0,0,1,1.63-2.47,13.73,13.73,0,0,1-1.1,2.75A13.17,13.17,0,0,1,235.13,133.31Z" style="fill: rgb(38, 50, 56); transform-origin: 236.5px 130.705px;" id="eleuqj1vt8ngj" class="animable"></path><path d="M248.53,112.89s-14.31-8.35-21-7.12l-4.93,5.89s-1.78.9-2.53-.2c-1.86-2.71-3.2-9.75,2.2-15.25,5-5,16.52-5.88,24.43-5,7.6.84,12.27,4.55,10.73,9.65S248.53,112.89,248.53,112.89Z" style="fill: rgb(56, 128, 255); transform-origin: 238.08px 101.9px;" id="el3amyan1now" class="animable"></path><g id="el92h7vdkcy2p"><path d="M248.53,112.89s-14.31-8.35-21-7.12l-4.93,5.89s-1.78.9-2.53-.2c-1.86-2.71-3.2-9.75,2.2-15.25,5-5,16.52-5.88,24.43-5,7.6.84,12.27,4.55,10.73,9.65S248.53,112.89,248.53,112.89Z" style="fill: rgb(255, 255, 255); opacity: 0.5; transform-origin: 238.08px 101.9px;" class="animable"></path></g><path d="M248.93,110.54s5-7,5.37-10.69-7.28-6-12.07-6.66c-7.41-1-12.18.17-15.6,4.56S248.93,110.54,248.93,110.54Z" style="fill: rgb(56, 128, 255); transform-origin: 240.315px 101.698px;" id="eln8wkx0kphua" class="animable"></path><path d="M248.93,110.54S236.08,98,225.53,98.12l2,7.65s8.65-1.13,21,7.12Z" style="fill: rgb(56, 128, 255); transform-origin: 237.23px 105.505px;" id="el9oqjoos9xft" class="animable"></path><g id="eltd34euf6zc"><path d="M248.93,110.54S236.08,98,225.53,98.12l2,7.65s8.65-1.13,21,7.12Z" style="fill: rgb(255, 255, 255); opacity: 0.5; transform-origin: 237.23px 105.505px;" class="animable"></path></g><path d="M224.78,106.33a13.23,13.23,0,0,1,5.67-.08c7.35.62,15.46,5.39,15.46,5.39l2.37,1.61.26.18.24-.18c3.2-2.4,6-7.31,6.57-8.27a46.66,46.66,0,0,1-7.06,7.55h.5l-2.38-1.67c-.81-.53-9.52-4.57-15.89-5.15a14.13,14.13,0,0,0-1.45-.1c-.49,0-1,0-1.46.06A8.58,8.58,0,0,0,224.78,106.33Z" style="fill: rgb(38, 50, 56); transform-origin: 240.065px 109.205px;" id="elsx3j2m05vr" class="animable"></path><path d="M222.62,111.66a27.93,27.93,0,0,0,2.65-2.79,29.09,29.09,0,0,0,2.28-3.1,32.56,32.56,0,0,0-4.93,5.89Z" style="fill: rgb(38, 50, 56); transform-origin: 225.085px 108.715px;" id="elhbz8d7ujqge" class="animable"></path><path d="M246,108.85a57.59,57.59,0,0,0-.33,10c.11,2.32,1.55,10.56,4.11,10.09s-2-5.55-3-9.88-.07-7.61-.09-10.24Z" style="fill: rgb(56, 128, 255); transform-origin: 248.068px 118.89px;" id="ela46lq4c5cid" class="animable"></path><path d="M252.34,108.25a52.72,52.72,0,0,1,3.68,8.31c.7,2,2.29,9.47,0,10s-.21-5.38-.81-9.4-2.54-6.47-3.42-8.71Z" style="fill: rgb(56, 128, 255); transform-origin: 254.501px 117.422px;" id="elhqahgkwtys4" class="animable"></path><path d="M237.09,100.79c.29,1.22,6.52,6.77,12.13,6.48,1.82-.09,1.41-7.69,1.41-7.69l.16-.74,2.27-10.35-12.18-7.74-1.76-1s-.43,2.87-.94,6.46c0,.16-.05.33-.07.51s-.07.39-.09.58c-.08.53-.16,1.08-.23,1.63s-.11.81-.16,1.25-.09.86-.15,1.3A67.63,67.63,0,0,0,237.09,100.79Z" style="fill: rgb(211, 118, 106); transform-origin: 245.063px 93.5155px;" id="el248fh5nbtac" class="animable"></path><path d="M238.18,86.18a21.27,21.27,0,0,0,12.61,12.66l2.27-10.35-12.18-7.74-1.76-1S238.69,82.59,238.18,86.18Z" style="fill: rgb(38, 50, 56); transform-origin: 245.62px 89.295px;" id="elk2iibhlu5el" class="animable"></path><path d="M266,70.71c5.07,17.9-5.08,23-8.94,24-3.5,1-15.55,3.91-22.45-13.36s-.17-25.29,7.72-28S261,52.82,266,70.71Z" style="fill: rgb(211, 118, 106); transform-origin: 249.565px 73.9598px;" id="el13hitnuuh7w" class="animable"></path><path d="M260.46,70c-.43,0-.84,0-1.28,0a2.05,2.05,0,0,1-1.31-.26.64.64,0,0,1-.16-.79,1.63,1.63,0,0,1,1.5-.7,2.43,2.43,0,0,1,1.66.52A.71.71,0,0,1,260.46,70Z" style="fill: rgb(38, 50, 56); transform-origin: 259.369px 69.1307px;" id="eldtd6746gelu" class="animable"></path><path d="M247.69,72.48a12.42,12.42,0,0,0,1.18-.52,2.08,2.08,0,0,0,1.1-.75.66.66,0,0,0-.17-.79,1.64,1.64,0,0,0-1.66,0,2.39,2.39,0,0,0-1.31,1.15A.71.71,0,0,0,247.69,72.48Z" style="fill: rgb(38, 50, 56); transform-origin: 248.414px 71.3497px;" id="el0219urh6ibng" class="animable"></path><path d="M251.11,75.42s-.08.08-.07.13c.33,1.23.5,2.68-.52,3.35,0,0,0,.08,0,.07C251.86,78.46,251.61,76.53,251.11,75.42Z" style="fill: rgb(38, 50, 56); transform-origin: 251.016px 77.1954px;" id="elm27mvq59r9" class="animable"></path><path d="M249.71,74.39c-2,.31-1.25,4.33.62,4S251.4,74.13,249.71,74.39Z" style="fill: rgb(38, 50, 56); transform-origin: 249.965px 76.3934px;" id="elm3h5rsc03" class="animable"></path><path d="M249,74.75c-.31.3-.57.77-1,.89s-.93-.21-1.33-.55c0,0-.06,0-.06.06.14.77.59,1.5,1.44,1.46s1.18-.83,1.22-1.64C249.25,74.82,249.08,74.64,249,74.75Z" style="fill: rgb(38, 50, 56); transform-origin: 247.94px 75.6638px;" id="elfzumfay8vfv" class="animable"></path><path d="M258.41,73.06s.11,0,.12.1c.19,1.25.62,2.65,1.82,2.86,0,0,0,.07,0,.07C259,76.15,258.39,74.28,258.41,73.06Z" style="fill: rgb(38, 50, 56); transform-origin: 259.38px 74.5757px;" id="el575u4x9ld8t" class="animable"></path><path d="M259.29,71.56c2-.52,2.87,3.46,1,4S257.63,72,259.29,71.56Z" style="fill: rgb(38, 50, 56); transform-origin: 259.854px 73.5611px;" id="elyj1vqam5kms" class="animable"></path><path d="M260.18,71.63c.36.14.76.46,1.14.4s.67-.58.85-1c0,0,.06,0,.07,0a1.55,1.55,0,0,1-.57,1.92c-.64.28-1.28-.26-1.63-1C260,71.82,260,71.58,260.18,71.63Z" style="fill: rgb(38, 50, 56); transform-origin: 261.195px 72.0276px;" id="el8i0paw5d7h" class="animable"></path><path d="M254,85.5c.34.25.7.61,1.16.58a3.34,3.34,0,0,0,1.3-.51s.09,0,.07.05a1.73,1.73,0,0,1-1.49.92,1.36,1.36,0,0,1-1.15-1C253.89,85.5,254,85.46,254,85.5Z" style="fill: rgb(38, 50, 56); transform-origin: 255.211px 86.0117px;" id="elcdkem0t4sg" class="animable"></path><path d="M258.3,80s.63,1.8.81,2.68c0,.08-.18.16-.48.24h0a4.25,4.25,0,0,1-4.35-.73c-.08-.07,0-.18.1-.15a6.39,6.39,0,0,0,4,.31c0-.25-1.19-3-1.06-3.08a7.71,7.71,0,0,1,2.08,0c-1.22-3.79-3-7.35-4.18-11.14,0-.14.15-.22.21-.1a64,64,0,0,1,5,11.8C260.61,80.32,258.68,80,258.3,80Z" style="fill: rgb(38, 50, 56); transform-origin: 257.345px 75.5968px;" id="elldr9dfqs07" class="animable"></path><path d="M258.48,82.56a5.16,5.16,0,0,1-1.57,2.07,2.27,2.27,0,0,1-1.34.45c-1,0-1.31-.89-1.34-1.7a5.55,5.55,0,0,1,.13-1.3A6.6,6.6,0,0,0,258.48,82.56Z" style="fill: rgb(38, 50, 56); transform-origin: 256.355px 83.58px;" id="eltfh5ohzftnf" class="animable"></path><path d="M256.91,84.63a2.27,2.27,0,0,1-1.34.45c-1,0-1.31-.89-1.34-1.7A2.4,2.4,0,0,1,256.91,84.63Z" style="fill: rgb(255, 154, 187); transform-origin: 255.57px 84.1991px;" id="elcfvb9zmn81b" class="animable"></path><path d="M236.32,82.13c3.79-1.06,1.65-9.8,1.65-9.8s2-1.44,3.5-6.5c0,0-.77,4.24-2.88,6.46-.35.38,12.34-4.4,10.92-14.71,0,0,5.27,7.78,15.12,8.33.31,0-3.25-8.74-5.73-10.34a19.83,19.83,0,0,0-4.58-2.23,19.35,19.35,0,0,0-14.62.09C232,56.72,229,66.52,229.3,70.14,229.91,77.24,234.52,82.63,236.32,82.13Z" style="fill: rgb(38, 50, 56); transform-origin: 246.964px 67.0564px;" id="elo2flx0oil8" class="animable"></path><path d="M239.06,72.4c7-2.2,11.49-8.24,10.15-15.66a.17.17,0,0,1,.32-.08c2.92,7.11-3.62,14.63-10.5,15.88C238.87,72.57,238.9,72.45,239.06,72.4Z" style="fill: rgb(38, 50, 56); transform-origin: 244.584px 64.5574px;" id="elrwv7a7rtckh" class="animable"></path><path d="M249.32,57.3a0,0,0,0,1,.07,0c2.82,3.25,6.42,9.38,11.66,7.71a.11.11,0,1,1,.08.21C256.25,67.24,250.93,61.39,249.32,57.3Z" style="fill: rgb(38, 50, 56); transform-origin: 255.262px 61.466px;" id="eltza7ypduyao" class="animable"></path><path d="M238,80.29s-5.08-4.94-7.4-3,2.27,9.61,5.53,10.15A3.14,3.14,0,0,0,239.92,85Z" style="fill: rgb(211, 118, 106); transform-origin: 234.945px 82.1801px;" id="elk7ntd6jr28" class="animable"></path><path d="M231.94,79.44c-.05,0,0,.08,0,.08,2.3.46,3.8,2.22,5,4.12a1.73,1.73,0,0,0-2.64,0s0,.13.08.1a2,2,0,0,1,2.22.26,10,10,0,0,1,1.33,1.5c.13.17.46,0,.34-.2l0,0C237.75,82.55,234.91,79.15,231.94,79.44Z" style="fill: rgb(38, 50, 56); transform-origin: 235.107px 82.4962px;" id="elf2i9mxy5d77" class="animable"></path></g><defs>     <filter id="active" height="200%">         <feMorphology in="SourceAlpha" result="DILATED" operator="dilate" radius="2"></feMorphology>                <feFlood flood-color="#32DFEC" flood-opacity="1" result="PINK"></feFlood>        <feComposite in="PINK" in2="DILATED" operator="in" result="OUTLINE"></feComposite>        <feMerge>            <feMergeNode in="OUTLINE"></feMergeNode>            <feMergeNode in="SourceGraphic"></feMergeNode>        </feMerge>    </filter>    <filter id="hover" height="200%">        <feMorphology in="SourceAlpha" result="DILATED" operator="dilate" radius="2"></feMorphology>                <feFlood flood-color="#ff0000" flood-opacity="0.5" result="PINK"></feFlood>        <feComposite in="PINK" in2="DILATED" operator="in" result="OUTLINE"></feComposite>        <feMerge>            <feMergeNode in="OUTLINE"></feMergeNode>            <feMergeNode in="SourceGraphic"></feMergeNode>        </feMerge>            <feColorMatrix type="matrix" values="0   0   0   0   0                0   1   0   0   0                0   0   0   0   0                0   0   0   1   0 "></feColorMatrix>    </filter></defs></svg>