<svg class="animated" id="freepik_stories-messaging-1" xmlns="http://www.w3.org/2000/svg" width="500" height="500" version="1.1" xmlns:xlink="http://www.w3.org/1999/xlink" xmlns:svgjs="http://svgjs.com/svgjs"><style>svg#freepik_stories-messaging-1:not(.animated) .animable {opacity: 0;}svg#freepik_stories-messaging-1.animated #freepik--background-complete--inject-12 {animation: 1s 1 forwards cubic-bezier(.36,-0.01,.5,1.38) slideUp;animation-delay: 0s;}svg#freepik_stories-messaging-1.animated #freepik--Device--inject-12 {animation: 1s 1 forwards cubic-bezier(.36,-0.01,.5,1.38) fadeIn;animation-delay: 0s;}svg#freepik_stories-messaging-1.animated #freepik--Plant--inject-12 {animation: 1s 1 forwards cubic-bezier(.36,-0.01,.5,1.38) lightSpeedRight;animation-delay: 0s;}svg#freepik_stories-messaging-1.animated #freepik--speech-bubbles--inject-12 {animation: 1s 1 forwards cubic-bezier(.36,-0.01,.5,1.38) zoomOut;animation-delay: 0s;}svg#freepik_stories-messaging-1.animated #freepik--Floor--inject-12 {animation: 1s 1 forwards cubic-bezier(.36,-0.01,.5,1.38) slideLeft;animation-delay: 0s;}svg#freepik_stories-messaging-1.animated #freepik--Character--inject-12 {animation: 1s 1 forwards cubic-bezier(.36,-0.01,.5,1.38) lightSpeedLeft;animation-delay: 0s;}            @keyframes slideUp {                0% {                    opacity: 0;                    transform: translateY(30px);                }                100% {                    opacity: 1;                    transform: inherit;                }            }                    @keyframes fadeIn {                0% {                    opacity: 0;                }                100% {                    opacity: 1;                }            }                    @keyframes lightSpeedRight {              from {                transform: translate3d(50%, 0, 0) skewX(-20deg);                opacity: 0;              }              60% {                transform: skewX(10deg);                opacity: 1;              }              80% {                transform: skewX(-2deg);              }              to {                opacity: 1;                transform: translate3d(0, 0, 0);              }            }                    @keyframes zoomOut {                0% {                    opacity: 0;                    transform: scale(1.5);                }                100% {                    opacity: 1;                    transform: scale(1);                }            }                    @keyframes slideLeft {                0% {                    opacity: 0;                    transform: translateX(-30px);                }                100% {                    opacity: 1;                    transform: translateX(0);                }            }                    @keyframes lightSpeedLeft {              from {                transform: translate3d(-50%, 0, 0) skewX(20deg);                opacity: 0;              }              60% {                transform: skewX(-10deg);                opacity: 1;              }              80% {                transform: skewX(2deg);              }              to {                opacity: 1;                transform: translate3d(0, 0, 0);              }            }        </style><g id="freepik--background-complete--inject-12" class="animable" style="transform-origin: 250px 203.21px;"><path d="M427,199.65l-11.39-11.39H360.76V143.18h76.55v45l-10.31,0Zm-65.24-12.39H416l10,10v-10l10.31,0V144.18H361.76Z" style="fill: rgb(235, 235, 235); transform-origin: 399.035px 171.415px;" id="elyeqouqm8kdm" class="animable"></path><path d="M384.75,165.72a3.58,3.58,0,1,1-3.58-3.58A3.58,3.58,0,0,1,384.75,165.72Z" style="fill: rgb(235, 235, 235); transform-origin: 381.17px 165.72px;" id="elyux3ua8sum" class="animable"></path><path d="M402.62,165.72a3.58,3.58,0,1,1-3.58-3.58A3.59,3.59,0,0,1,402.62,165.72Z" style="fill: rgb(235, 235, 235); transform-origin: 399.04px 165.72px;" id="ell0h5vpp6tga" class="animable"></path><path d="M420.48,165.72a3.58,3.58,0,1,1-3.58-3.58A3.58,3.58,0,0,1,420.48,165.72Z" style="fill: rgb(235, 235, 235); transform-origin: 416.9px 165.72px;" id="el1eebjv80561" class="animable"></path><path d="M73,263.24v-11.4l-10.31,0V206.76h76.55v45.08H84.39Zm-9.31-12.42,10.31,0v10l10-10h54.26V207.76H63.69Z" style="fill: rgb(235, 235, 235); transform-origin: 100.965px 235px;" id="el8rd2i305fdi" class="animable"></path><path d="M115.25,229.3a3.58,3.58,0,1,0,3.58-3.58A3.58,3.58,0,0,0,115.25,229.3Z" style="fill: rgb(235, 235, 235); transform-origin: 118.83px 229.3px;" id="elrw3236nn3n7" class="animable"></path><path d="M97.38,229.3a3.58,3.58,0,1,0,3.58-3.58A3.58,3.58,0,0,0,97.38,229.3Z" style="fill: rgb(235, 235, 235); transform-origin: 100.96px 229.3px;" id="elau8ryzk9sfn" class="animable"></path><path d="M79.52,229.3a3.58,3.58,0,1,0,3.58-3.58A3.58,3.58,0,0,0,79.52,229.3Z" style="fill: rgb(235, 235, 235); transform-origin: 83.1px 229.3px;" id="elng4obom1k2m" class="animable"></path></g><g id="freepik--Device--inject-12" class="animable" style="transform-origin: 250px 253.06px;"><path d="M334.75,61.12H165.23a17.32,17.32,0,0,0-17.15,17.47v349A17.33,17.33,0,0,0,165.23,445H334.75a17.34,17.34,0,0,0,17.17-17.47v-349A17.33,17.33,0,0,0,334.75,61.12Zm6.45,355.65c0,9.19-6.88,16.62-15.37,16.62H174.18c-8.51,0-15.39-7.43-15.39-16.62V91.82c0-18.71,6.88-19.63,15.39-19.63h30.37c1.76,0,3.21,2,3.21,4.5v1.07c0,5.83,3.19,5.85,7.11,5.85h70.25c3.95,0,7.11,0,7.11-5.85V76.69c0-2.49,1.43-4.5,3.22-4.5h30.38c8.49,0,15.37,2.49,15.37,19.63Z" style="fill: rgb(55, 71, 79); transform-origin: 250px 253.06px;" id="elapmtmfei2yc" class="animable"></path><path d="M259.58,76.33H240.41a1.18,1.18,0,0,1-1.18-1.18h0A1.18,1.18,0,0,1,240.41,74h19.17a1.18,1.18,0,0,1,1.18,1.19h0A1.18,1.18,0,0,1,259.58,76.33Z" style="fill: rgb(38, 50, 56); transform-origin: 249.995px 75.165px;" id="eleadhdyc83kq" class="animable"></path><path d="M341.2,91.82v325c0,9.19-6.88,16.62-15.36,16.62H174.18c-8.5,0-15.38-7.43-15.38-16.62V91.82c0-18.71,6.88-19.63,15.38-19.63h30.37c1.77,0,3.21,2,3.21,4.5v1.07c0,5.83,3.19,5.85,7.11,5.85h70.25c3.95,0,7.11,0,7.11-5.85V76.69c0-2.49,1.43-4.5,3.22-4.5h30.39C334.32,72.19,341.2,74.68,341.2,91.82Z" style="fill: rgb(255, 255, 255); transform-origin: 250px 252.815px;" id="el2dg2cdu4un4" class="animable"></path><path d="M341.2,91.82v32.45H158.8V91.82c0-18.71,6.88-19.63,15.38-19.63h30.37c1.77,0,3.21,2,3.21,4.5v1.07c0,5.82,3.19,5.84,7.11,5.84h70.26c3.95,0,7.11,0,7.11-5.84V76.69c0-2.49,1.42-4.5,3.22-4.5h30.38C334.32,72.19,341.2,74.68,341.2,91.82Z" style="fill: rgb(56, 128, 255); transform-origin: 250px 98.23px;" id="elkpceo61jwi" class="animable"></path><polygon points="177.26 113.51 171.87 108.46 177.26 103.42 178.09 104.31 173.66 108.46 178.09 112.62 177.26 113.51" style="fill: rgb(255, 255, 255); transform-origin: 174.98px 108.465px;" id="el0s2ej42xg43n" class="animable"></polygon><path d="M327.07,105.32a1.06,1.06,0,1,1-1.06-1.06A1.06,1.06,0,0,1,327.07,105.32Z" style="fill: rgb(255, 255, 255); transform-origin: 326.01px 105.32px;" id="elo36m8hdyeb" class="animable"></path><path d="M327.07,109.09A1.06,1.06,0,1,1,326,108,1.05,1.05,0,0,1,327.07,109.09Z" style="fill: rgb(255, 255, 255); transform-origin: 326.011px 109.06px;" id="elvivh511wr0k" class="animable"></path><path d="M327.07,112.86A1.06,1.06,0,1,1,326,111.8,1.05,1.05,0,0,1,327.07,112.86Z" style="fill: rgb(255, 255, 255); transform-origin: 326.01px 112.86px;" id="eljfbgd41r6kb" class="animable"></path><g id="freepik--u5Zjqx--inject-12" class="animable" style="transform-origin: 196.025px 80.3951px;"><path d="M199.31,79.49l-.29.29c-.06.06-.11.12-.17.17a4,4,0,0,0-5.66,0,1.29,1.29,0,0,0-.16-.17c-.09-.1-.19-.19-.29-.29h0l0,0,.37-.33a4.06,4.06,0,0,1,.86-.55,4.56,4.56,0,0,1,1.13-.38l.57-.07h.5l.39,0a3.76,3.76,0,0,1,1,.25,3.81,3.81,0,0,1,.71.33,3.85,3.85,0,0,1,.67.47l.31.28Z" style="fill: rgb(255, 255, 255); transform-origin: 196.025px 79.055px;" id="elrgjephj55z" class="animable"></path><path d="M194.12,80.87l-.46-.46a3.36,3.36,0,0,1,4.73,0l-.47.46a2.7,2.7,0,0,0-3.8,0Z" style="fill: rgb(255, 255, 255); transform-origin: 196.025px 80.1534px;" id="elcidvjz742q" class="animable"></path><path d="M197.46,81.34l-.47.46a1.34,1.34,0,0,0-1-.4,1.35,1.35,0,0,0-1,.4l-.46-.46A2,2,0,0,1,197.46,81.34Z" style="fill: rgb(255, 255, 255); transform-origin: 195.995px 81.2508px;" id="elafnovgf07j" class="animable"></path><path d="M196.44,82.22a.41.41,0,0,1-.42.41.41.41,0,0,1-.41-.41.41.41,0,0,1,.41-.42A.42.42,0,0,1,196.44,82.22Z" style="fill: rgb(255, 255, 255); transform-origin: 196.025px 82.2151px;" id="eldj697eea5nb" class="animable"></path></g><path d="M170.69,80.38a1.21,1.21,0,1,1,1.21,1.21A1.21,1.21,0,0,1,170.69,80.38Z" style="fill: rgb(255, 255, 255); transform-origin: 171.9px 80.38px;" id="el0ldlondjxs4a" class="animable"></path><path d="M174.5,80.38a1.21,1.21,0,1,1,1.21,1.21A1.21,1.21,0,0,1,174.5,80.38Z" style="fill: rgb(255, 255, 255); transform-origin: 175.71px 80.38px;" id="eli39mcrdyuug" class="animable"></path><path d="M178.3,80.38a1.21,1.21,0,1,1,1.21,1.21A1.21,1.21,0,0,1,178.3,80.38Z" style="fill: rgb(255, 255, 255); transform-origin: 179.51px 80.38px;" id="eluml5ctt1af" class="animable"></path><path d="M182.11,80.38a1.21,1.21,0,1,1,1.21,1.21A1.21,1.21,0,0,1,182.11,80.38Z" style="fill: rgb(255, 255, 255); transform-origin: 183.32px 80.38px;" id="eleoa28mizux" class="animable"></path><path d="M185.92,80.38a1.21,1.21,0,1,1,1.21,1.21A1.21,1.21,0,0,1,185.92,80.38Z" style="fill: rgb(255, 255, 255); transform-origin: 187.13px 80.38px;" id="eldwrnjvqqjxb" class="animable"></path><path d="M327.52,83h-9.85V78.45h9.85Zm-9.34-.52H327V79h-8.82Z" style="fill: rgb(255, 255, 255); transform-origin: 322.595px 80.725px;" id="elcuifj427nyt" class="animable"></path><rect x="318.49" y="79.23" width="6.34" height="3.01" style="fill: rgb(255, 255, 255); transform-origin: 321.66px 80.735px;" id="el52vxr5sc7j3" class="animable"></rect><rect x="327.52" y="79.52" width="0.88" height="2.44" style="fill: rgb(255, 255, 255); transform-origin: 327.96px 80.74px;" id="elhajgsfjvjn" class="animable"></rect><polygon points="182.03 415.83 181.14 415.83 181.14 419.93 179.47 419.93 179.47 417.84 176.52 417.84 176.52 419.93 174.86 419.93 174.86 415.83 173.97 415.83 178 411.67 182.03 415.83" style="fill: rgb(235, 235, 235); transform-origin: 178px 415.8px;" id="elk807ws2586" class="animable"></polygon><rect x="316.69" y="411.67" width="9.72" height="1.39" style="fill: rgb(235, 235, 235); transform-origin: 321.55px 412.365px;" id="elaf6tz3i22du" class="animable"></rect><rect x="316.69" y="415.1" width="9.72" height="1.39" style="fill: rgb(235, 235, 235); transform-origin: 321.55px 415.795px;" id="eloa5qv6sg48" class="animable"></rect><rect x="316.69" y="418.54" width="9.72" height="1.39" style="fill: rgb(235, 235, 235); transform-origin: 321.55px 419.235px;" id="elk9b8qz2cpce" class="animable"></rect><polygon points="253.04 415.94 250.28 418.89 247.52 415.94 248 415.48 250.28 417.91 252.56 415.48 253.04 415.94" style="fill: rgb(235, 235, 235); transform-origin: 250.28px 417.185px;" id="elmennfw6mc3o" class="animable"></polygon><path d="M250.28,421.94a5,5,0,1,1,5-5A5,5,0,0,1,250.28,421.94Zm0-9.38a4.36,4.36,0,1,0,4.36,4.36A4.37,4.37,0,0,0,250.28,412.56Z" style="fill: rgb(235, 235, 235); transform-origin: 250.28px 416.94px;" id="elk70seqaoql" class="animable"></path><path d="M232.42,106.13v5.22a.5.5,0,0,1-.5.48.49.49,0,0,1-.49-.48v-3.73l-1.27,1.77a.48.48,0,0,1-.4.21h0a.49.49,0,0,1-.4-.21l-1.27-1.77v3.73a.49.49,0,0,1-1,0v-5.22a.49.49,0,0,1,.49-.49h0a.45.45,0,0,1,.39.21l1.76,2.44,1.76-2.44a.48.48,0,0,1,.4-.21h0A.51.51,0,0,1,232.42,106.13Z" style="fill: rgb(255, 255, 255); transform-origin: 229.755px 108.745px;" id="elyp104axr16b" class="animable"></path><path d="M234.12,111.35v-5.22a.48.48,0,0,1,.49-.49h2.89a.49.49,0,0,1,0,1h-2.4v1.62h2.06a.5.5,0,0,1,.49.49.49.49,0,0,1-.49.49H235.1v1.63h2.4a.49.49,0,0,1,0,1h-2.87s0,0,0,0h0A.48.48,0,0,1,234.12,111.35Z" style="fill: rgb(255, 255, 255); transform-origin: 236.059px 108.755px;" id="elffc6rq6qq26" class="animable"></path><path d="M239.17,110.29a.47.47,0,0,1,.65-.06,2.86,2.86,0,0,0,1.69.68,1.91,1.91,0,0,0,1.1-.32A.8.8,0,0,0,243,110a.44.44,0,0,0-.08-.28.81.81,0,0,0-.26-.27,3.39,3.39,0,0,0-1.21-.41h0a4.62,4.62,0,0,1-1.14-.35,1.85,1.85,0,0,1-.82-.69,1.29,1.29,0,0,1-.21-.72,1.66,1.66,0,0,1,.71-1.3,2.63,2.63,0,0,1,1.53-.46,3.48,3.48,0,0,1,1.93.7.46.46,0,0,1,.12.63.44.44,0,0,1-.63.13,2.55,2.55,0,0,0-1.42-.56,1.66,1.66,0,0,0-1,.3.71.71,0,0,0-.34.56.38.38,0,0,0,.07.24.83.83,0,0,0,.23.23,3.07,3.07,0,0,0,1.11.39h0a5.83,5.83,0,0,1,1.22.37,2.06,2.06,0,0,1,.88.74,1.37,1.37,0,0,1,.22.75,1.7,1.7,0,0,1-.77,1.37,2.72,2.72,0,0,1-1.63.5,3.76,3.76,0,0,1-2.27-.88A.48.48,0,0,1,239.17,110.29Z" style="fill: rgb(255, 255, 255); transform-origin: 241.48px 108.695px;" id="elyx0rau0t0ag" class="animable"></path><path d="M245,110.29a.46.46,0,0,1,.64-.06,2.89,2.89,0,0,0,1.69.68,2,2,0,0,0,1.11-.32.82.82,0,0,0,.38-.64.51.51,0,0,0-.08-.28.76.76,0,0,0-.27-.27,3.32,3.32,0,0,0-1.21-.41h0a4.84,4.84,0,0,1-1.15-.35,2,2,0,0,1-.82-.69,1.37,1.37,0,0,1-.2-.72,1.66,1.66,0,0,1,.71-1.3,2.59,2.59,0,0,1,1.53-.46,3.44,3.44,0,0,1,1.92.7.46.46,0,0,1,.13.63.44.44,0,0,1-.63.13,2.55,2.55,0,0,0-1.42-.56,1.7,1.7,0,0,0-1,.3.72.72,0,0,0-.33.56.45.45,0,0,0,.06.24.89.89,0,0,0,.24.23,3.07,3.07,0,0,0,1.11.39h0a5.65,5.65,0,0,1,1.22.37,2.09,2.09,0,0,1,.89.74,1.46,1.46,0,0,1,.21.75,1.71,1.71,0,0,1-.76,1.37,2.75,2.75,0,0,1-1.64.5,3.73,3.73,0,0,1-2.26-.88A.47.47,0,0,1,245,110.29Z" style="fill: rgb(255, 255, 255); transform-origin: 247.315px 108.645px;" id="eljuym3k4xn49" class="animable"></path><path d="M254.11,110.37H252l-.43,1.15a.49.49,0,0,1-.46.31l-.17,0a.5.5,0,0,1-.29-.64l1.95-5.21a.51.51,0,0,1,.47-.31.49.49,0,0,1,.47.31l2,5.21a.51.51,0,0,1-.3.64l-.16,0a.48.48,0,0,1-.46-.31Zm-.36-1-.72-1.9-.71,1.9Z" style="fill: rgb(255, 255, 255); transform-origin: 253.093px 108.75px;" id="elbzj6t4vgort" class="animable"></path><path d="M256.11,108.66a3.27,3.27,0,0,1,5.28-2.5.5.5,0,0,1,.1.71.52.52,0,0,1-.72.08,2.29,2.29,0,0,0-1.39-.48,2.16,2.16,0,0,0-1.59.65,2.08,2.08,0,0,0,0,3.06,2.16,2.16,0,0,0,1.59.65,2.47,2.47,0,0,0,1.21-.34v-1.21h-1.27a.51.51,0,0,1-.5-.51.49.49,0,0,1,.5-.49h1.76a.5.5,0,0,1,.52.49v2a.66.66,0,0,1,0,.15l0,0h0a.37.37,0,0,1-.17.21,3.26,3.26,0,0,1-5.27-2.48Z" style="fill: rgb(255, 255, 255); transform-origin: 258.857px 108.646px;" id="eli6dp72i7zv" class="animable"></path><path d="M263.59,111.35v-5.22a.49.49,0,0,1,.49-.49H267a.49.49,0,1,1,0,1h-2.39v1.62h2.06a.5.5,0,0,1,.48.49.49.49,0,0,1-.48.49h-2.06v1.63H267a.49.49,0,1,1,0,1h-2.86s0,0,0,0h0A.49.49,0,0,1,263.59,111.35Z" style="fill: rgb(255, 255, 255); transform-origin: 265.544px 108.757px;" id="el1fmt8xioojm" class="animable"></path><path d="M268.65,110.29a.46.46,0,0,1,.64-.06,2.86,2.86,0,0,0,1.69.68,2,2,0,0,0,1.11-.32.82.82,0,0,0,.38-.64.51.51,0,0,0-.08-.28,1,1,0,0,0-.27-.27,3.32,3.32,0,0,0-1.21-.41h0a4.9,4.9,0,0,1-1.14-.35,1.91,1.91,0,0,1-.82-.69,1.37,1.37,0,0,1-.2-.72,1.68,1.68,0,0,1,.7-1.3,2.63,2.63,0,0,1,1.53-.46,3.48,3.48,0,0,1,1.93.7.46.46,0,0,1,.13.63.44.44,0,0,1-.63.13,2.58,2.58,0,0,0-1.43-.56,1.69,1.69,0,0,0-1,.3.69.69,0,0,0-.33.56.38.38,0,0,0,.06.24.76.76,0,0,0,.24.23,3.08,3.08,0,0,0,1.1.39h0a5.65,5.65,0,0,1,1.22.37,2.15,2.15,0,0,1,.89.74,1.46,1.46,0,0,1,.21.75,1.71,1.71,0,0,1-.76,1.37,2.77,2.77,0,0,1-1.64.5,3.73,3.73,0,0,1-2.26-.88A.47.47,0,0,1,268.65,110.29Z" style="fill: rgb(255, 255, 255); transform-origin: 270.958px 108.645px;" id="eliqxxzsjezr8" class="animable"></path></g><g id="freepik--Plant--inject-12" class="animable" style="transform-origin: 428.066px 391.591px;"><path d="M454.77,366.17C444,380.77,432.76,397.7,430,416c0,.27.41.36.47.09a110.54,110.54,0,0,1,4.77-14.66c7.09-1.95,14-3.55,17.76-10.58,3.8-7.23,3.31-16.65,2.59-24.53C455.56,365.91,455,365.89,454.77,366.17Z" style="fill: rgb(56, 128, 255); transform-origin: 443.045px 391.118px;" id="elept4f1kof5u" class="animable"></path><path d="M435.37,401.31c4.84-10.87,11.05-21.78,18.95-30.71.06-.06.14,0,.09.09-5.17,6.36-9.1,13.29-12.94,20.34,3.57-3.62,7.48-6.87,10.86-10.71.06-.07.17,0,.11.11-3.36,4-7,8.4-11.4,11.38q-1.76,3.26-3.55,6.51c.29-.17.6-.31.9-.46a0,0,0,1,1,0,.08c-.33.17-.66.34-1,.49-.57,1-1.13,2.05-1.72,3.08C435.58,401.74,435.26,401.54,435.37,401.31Z" style="fill: rgb(38, 50, 56); transform-origin: 444.886px 386.094px;" id="eljikjnc1x0tr" class="animable"></path><path d="M439,397.52a63.71,63.71,0,0,0,8.27-5.53c.07-.05.17.05.1.11a43.69,43.69,0,0,1-8.25,5.62C439,397.79,438.84,397.59,439,397.52Z" style="fill: rgb(38, 50, 56); transform-origin: 443.163px 394.856px;" id="elwk7cg5cf1t" class="animable"></path><path d="M428.77,413.29c0,.22.4.21.4,0,.05-6,0-12.08.09-18.14,1.55-3.12,4.86-4.84,7.17-7.34a31.8,31.8,0,0,0,4.29-6,43,43,0,0,0,5-16.63c.64-6.45-1.81-27.72-4.53-27-1.41.39-6,10.93-7.18,14.41a101.08,101.08,0,0,0-4.29,17.66C427.51,384.45,427.69,399,428.77,413.29Z" style="fill: rgb(56, 128, 255); transform-origin: 436.908px 375.807px;" id="elm4wuggdspxk" class="animable"></path><path d="M428.73,387.28l0,0c.33-7.63,2.05-15.33,3.65-22.73,1.74-8,3.76-15.47,7.86-22.58.08-.13.27,0,.21.12a83.47,83.47,0,0,0-6.32,17.34c.28-.43.61-.84.9-1.25.11-.16.37,0,.26.16a11,11,0,0,1-1.28,1.81l-.05,0c-1.41,5.7-2.43,11.52-3.3,17.34.07-.08.13-.16.2-.23s.12,0,.09.07l-.35.58c-.44,2.95-.84,5.89-1.25,8.81,5.25-4.49,9.74-9.78,12.27-16.3,0,0,.06,0,.05,0-2.48,6.76-6.39,12.78-12.4,16.88l-.33,2.35c0,.17-.29.12-.28,0,0-.7,0-1.4.06-2.09A.17.17,0,0,1,428.73,387.28Z" style="fill: rgb(38, 50, 56); transform-origin: 435.161px 365.838px;" id="elsf50kn6hlo" class="animable"></path><path d="M431.2,376.23a120,120,0,0,0,10.7-18.43.07.07,0,0,1,.13.06,59.73,59.73,0,0,1-10.63,18.53C431.31,376.5,431.12,376.35,431.2,376.23Z" style="fill: rgb(38, 50, 56); transform-origin: 436.609px 367.094px;" id="elyp8crrmed7l" class="animable"></path><path d="M436.54,356.32c1.66-2.94,3.41-5.8,5-8.8,0-.08.16,0,.12.07a45.25,45.25,0,0,1-4.85,8.88A.15.15,0,1,1,436.54,356.32Z" style="fill: rgb(38, 50, 56); transform-origin: 439.094px 352.018px;" id="el179phm8toy3" class="animable"></path><path d="M435.89,357.6s0,.06,0,.06S435.86,357.6,435.89,357.6Z" style="fill: rgb(38, 50, 56); transform-origin: 435.883px 357.63px;" id="elauryqzqjpcg" class="animable"></path><path d="M424.69,395.85a60.73,60.73,0,0,1-1.41,11.88c.07.43.13.86.19,1.3a56.72,56.72,0,0,0,2.13-13.24.42.42,0,0,0,0-.41h0a87,87,0,0,0-1.33-17.93c-1.86-11.08-5.94-21.71-13.67-30a.55.55,0,0,0-.85.18c-3.12,7.93-2,17.39.62,25.29a46.56,46.56,0,0,0,6.13,12C419.16,388.63,422.54,391.79,424.69,395.85Z" style="fill: rgb(56, 128, 255); transform-origin: 416.756px 378.175px;" id="elxcudn0g02z9" class="animable"></path><path d="M411.53,351.13c7.32,11.89,12.41,26,13,40,0,.25-.4.32-.44.06q-.25-1.89-.57-3.75h0c-3-2.9-6.14-6-8.31-9.59,0-.06.06-.13.11-.08a98.77,98.77,0,0,0,8.07,8.79c-.53-3.11-1.15-6.16-1.88-9.17l-.58-.68c-.13-.15.08-.37.21-.22l.18.2a105.21,105.21,0,0,0-3.83-12.16c-1.86-2.22-3.94-4.14-5.3-6.82a.05.05,0,1,1,.09-.06c1.1,1.53,2.15,3.08,3.39,4.5.49.56,1,1.09,1.55,1.64a94.53,94.53,0,0,0-6-12.49C411.14,351.12,411.42,351,411.53,351.13Z" style="fill: rgb(38, 50, 56); transform-origin: 417.868px 371.215px;" id="elzbiu3cb6sd" class="animable"></path><path d="M413,365.79c2.36,3.19,5.06,6.23,7.26,9.52.06.09-.08.19-.15.12a48.92,48.92,0,0,1-7.27-9.54C412.78,365.78,412.94,365.7,413,365.79Z" style="fill: rgb(38, 50, 56); transform-origin: 416.551px 370.602px;" id="ell0t2qzvrgl" class="animable"></path><path d="M420.6,376.05l.1.1a.08.08,0,0,1-.11.11l-.1-.11C420.42,376.08,420.53,376,420.6,376.05Z" style="fill: rgb(38, 50, 56); transform-origin: 420.59px 376.153px;" id="elnorcuw7ydak" class="animable"></path><path d="M400.05,374a36.49,36.49,0,0,0,7.73,18.12,19.16,19.16,0,0,0,6.27,4.89c2.71,1.35,5.55,2.89,8.36,4a55.48,55.48,0,0,1,3,10.52l.27-.93c-1.8-15.48-11.82-28.71-24.63-37.2A.63.63,0,0,0,400.05,374Z" style="fill: rgb(56, 128, 255); transform-origin: 412.861px 392.402px;" id="ely24x8o46fh" class="animable"></path><path d="M404.48,378.55c-.09-.08,0-.24.13-.17a52.42,52.42,0,0,1,16.33,20.12c.09.21-.2.4-.32.19-.6-1.05-1.2-2.06-1.82-3.06h0c-2.93-.55-5.69-2.61-7.87-4.56-.05-.05,0-.14.09-.09a17.63,17.63,0,0,0,3.7,2.6,38.32,38.32,0,0,0,3.72,1.47c-1.09-1.72-2.22-3.37-3.4-5a33.9,33.9,0,0,1-8.78-4.94.08.08,0,0,1,.08-.14,85.57,85.57,0,0,0,8.17,4.37,73.13,73.13,0,0,0-5.77-6.72c-1-.53-2-1.06-3-1.62-.08,0,0-.18.06-.15A10.64,10.64,0,0,1,408.1,382C407,380.83,405.76,379.68,404.48,378.55Z" style="fill: rgb(38, 50, 56); transform-origin: 412.7px 388.572px;" id="elres34gk7lsf" class="animable"></path><path d="M404.75,383.9a3.45,3.45,0,0,1,.5.35s0,.1-.07.08a3.7,3.7,0,0,1-.51-.29C404.58,384,404.66,383.84,404.75,383.9Z" style="fill: rgb(38, 50, 56); transform-origin: 404.94px 384.11px;" id="elk2gplfdiole" class="animable"></path><polygon points="445.63 445.02 410.53 445.02 413.36 413.05 413.98 406 442.18 406 442.8 413.05 445.63 445.02" style="fill: rgb(69, 90, 100); transform-origin: 428.08px 425.51px;" id="ele56kpvbhfdh" class="animable"></polygon><polygon points="442.8 413.05 413.36 413.05 413.98 406 442.18 406 442.8 413.05" style="fill: rgb(38, 50, 56); transform-origin: 428.08px 409.525px;" id="elf54vqov4nid" class="animable"></polygon><rect x="412.3" y="401.07" width="31.55" height="6.98" style="fill: rgb(69, 90, 100); transform-origin: 428.075px 404.56px;" id="eligj5vinqhl" class="animable"></rect></g><g id="freepik--speech-bubbles--inject-12" class="animable" style="transform-origin: 250.855px 200.22px;"><g id="elfpgg1sv7xn"><g style="opacity: 0.9; transform-origin: 338.88px 235.455px;" class="animable"><polygon points="456.11 260.25 220.44 260.25 220.44 210.66 431.19 210.66 431.19 244.33 456.11 260.25" style="fill: rgb(255, 255, 255); transform-origin: 338.275px 235.455px;" id="el1y0niubtr9t" class="animable"></polygon><path d="M456.11,260.75H219.94V210.16H431.69v33.9l26.13,16.69Zm-235.17-1H454.4l-23.71-15.14V211.16H220.94Z" style="fill: rgb(56, 128, 255); transform-origin: 338.88px 235.455px;" id="elzjozotbfkvl" class="animable"></path></g></g><rect x="236.41" y="222.34" width="168.94" height="2" style="fill: rgb(56, 128, 255); transform-origin: 320.88px 223.34px;" id="eldk62heoa9j4" class="animable"></rect><rect x="236.41" y="233.65" width="127.62" height="2" style="fill: rgb(56, 128, 255); transform-origin: 300.22px 234.65px;" id="eloo08nxvdibd" class="animable"></rect><rect x="236.41" y="244.95" width="157.89" height="2" style="fill: rgb(56, 128, 255); transform-origin: 315.355px 245.95px;" id="elp538akk9zj" class="animable"></rect><g id="elx4clhfaplah"><g style="opacity: 0.9; transform-origin: 338.88px 76.505px;" class="animable"><polygon points="456.11 101.3 220.44 101.3 220.44 51.71 431.19 51.71 431.19 85.38 456.11 101.3" style="fill: rgb(255, 255, 255); transform-origin: 338.275px 76.505px;" id="el0ypp0lpaahv" class="animable"></polygon><path d="M457.82,101.8H219.94V51.21H431.69V85.1Zm-236.88-1H454.4L430.69,85.65V52.21H220.94Z" style="fill: rgb(56, 128, 255); transform-origin: 338.88px 76.505px;" id="eln97yn9qoox" class="animable"></path></g></g><rect x="236.41" y="63.38" width="168.94" height="2" style="fill: rgb(56, 128, 255); transform-origin: 320.88px 64.38px;" id="elbi5lde8n6pn" class="animable"></rect><rect x="236.41" y="74.69" width="127.62" height="2" style="fill: rgb(56, 128, 255); transform-origin: 300.22px 75.69px;" id="el9ltd0ykqxg" class="animable"></rect><rect x="236.41" y="86" width="157.89" height="2" style="fill: rgb(56, 128, 255); transform-origin: 315.355px 87px;" id="el5jyiq45oq9r" class="animable"></rect><g id="elnv5mm0ex319"><polygon points="68.81 349.23 253.86 349.23 253.86 280.64 253.86 280.64 68.81 280.64 68.81 349.23" style="fill: rgb(56, 128, 255); opacity: 0.8; transform-origin: 161.335px 314.935px;" class="animable"></polygon></g><g id="el0lbuop833lyp"><polygon points="43.89 349.23 68.81 324.31 68.81 349.23 43.89 349.23" style="fill: rgb(56, 128, 255); opacity: 0.8; transform-origin: 56.35px 336.77px;" class="animable"></polygon></g><rect x="80.58" y="291.33" width="161.51" height="2" style="fill: rgb(255, 255, 255); transform-origin: 161.335px 292.33px;" id="elvq9wcsdicnp" class="animable"></rect><rect x="80.58" y="302.63" width="122.02" height="2" style="fill: rgb(255, 255, 255); transform-origin: 141.59px 303.63px;" id="el840r0zacruw" class="animable"></rect><rect x="80.58" y="313.94" width="150.95" height="2" style="fill: rgb(255, 255, 255); transform-origin: 156.055px 314.94px;" id="elcytoo9lctfn" class="animable"></rect><rect x="80.58" y="325.25" width="92.03" height="2" style="fill: rgb(255, 255, 255); transform-origin: 126.595px 326.25px;" id="el88x2oswa6r" class="animable"></rect><rect x="80.58" y="336.55" width="161.51" height="2" style="fill: rgb(255, 255, 255); transform-origin: 161.335px 337.55px;" id="elkyvtmis99al" class="animable"></rect><g id="elek3jg1txbrt"><polygon points="68.81 190.28 283.61 190.28 283.61 121.69 283.61 121.69 68.81 121.69 68.81 190.28" style="fill: rgb(56, 128, 255); opacity: 0.8; transform-origin: 176.21px 155.985px;" class="animable"></polygon></g><g id="eludwqty7yvp"><polygon points="43.89 190.28 68.81 165.35 68.81 190.28 43.89 190.28" style="fill: rgb(56, 128, 255); opacity: 0.8; transform-origin: 56.35px 177.815px;" class="animable"></polygon></g><rect x="82.47" y="132.37" width="187.48" height="2" style="fill: rgb(255, 255, 255); transform-origin: 176.21px 133.37px;" id="eloiso80lqsf" class="animable"></rect><rect x="82.47" y="143.68" width="141.63" height="2" style="fill: rgb(255, 255, 255); transform-origin: 153.285px 144.68px;" id="el5cig2ajbtti" class="animable"></rect><rect x="82.47" y="154.98" width="175.22" height="2" style="fill: rgb(255, 255, 255); transform-origin: 170.08px 155.98px;" id="el7wvgcfx44w7" class="animable"></rect><rect x="82.47" y="166.29" width="106.83" height="2" style="fill: rgb(255, 255, 255); transform-origin: 135.885px 167.29px;" id="elzqzzti82wf" class="animable"></rect><rect x="82.47" y="177.6" width="187.48" height="2" style="fill: rgb(255, 255, 255); transform-origin: 176.21px 178.6px;" id="elaadspmdndc6" class="animable"></rect></g><g id="freepik--Floor--inject-12" class="animable" style="transform-origin: 250px 445.02px;"><polygon points="43.89 445.02 95.42 444.78 146.94 444.69 250 444.52 353.06 444.69 404.58 444.77 456.11 445.02 404.58 445.26 353.06 445.35 250 445.52 146.94 445.35 95.42 445.26 43.89 445.02" style="fill: rgb(38, 50, 56); transform-origin: 250px 445.02px;" id="eld7pgql263v7" class="animable"></polygon></g><g id="freepik--Character--inject-12" class="animable" style="transform-origin: 226.76px 302.954px;"><g id="ele796lqe3hr"><rect x="68.81" y="369.62" width="314.8" height="61.86" style="fill: rgb(56, 128, 255); opacity: 0.8; transform-origin: 226.21px 400.55px;" class="animable"></rect></g><g id="el8houu9hngff"><polygon points="43.89 431.48 68.81 406.56 68.81 431.48 43.89 431.48" style="fill: rgb(56, 128, 255); opacity: 0.8; transform-origin: 56.35px 419.02px;" class="animable"></polygon></g><rect x="82.47" y="384.26" width="215.72" height="2" style="fill: rgb(255, 255, 255); transform-origin: 190.33px 385.26px;" id="elpjytbs56ucc" class="animable"></rect><rect x="82.47" y="395.57" width="266.87" height="2" style="fill: rgb(255, 255, 255); transform-origin: 215.905px 396.57px;" id="elmnfmrwptenm" class="animable"></rect><rect x="82.47" y="406.87" width="162.71" height="2" style="fill: rgb(255, 255, 255); transform-origin: 163.825px 407.87px;" id="elvpp61n1is2" class="animable"></rect><rect x="82.47" y="418.18" width="285.55" height="2" style="fill: rgb(255, 255, 255); transform-origin: 225.245px 419.18px;" id="el8a8mn2we6rl" class="animable"></rect><path d="M402.6,370.36c-2.84,1.09-85.45,2.59-88.68.74-.35-.2-.25-3.85-1.47-13.28-.06-.45-1.94-2.2-4.88-4.67-11.05-9.26-37-28.78-37-28.78l41.22-35.81,40,39.27L362.12,338s33.75,18.23,37.09,20.63S405.45,369.26,402.6,370.36Z" style="fill: rgb(247, 169, 160); transform-origin: 337.164px 330.266px;" id="elg3mzltq3v9j" class="animable"></path><path d="M402.6,370.35c-2.85,1.1-85.45,2.6-88.68.75-.35-.2-.25-3.85-1.47-13.28-.06-.45-1.94-2.2-4.89-4.67-3.84-3.22-5.66-4.69-11.38-9.14l52.41-19.27,3.14,3.09L362.12,338s33.75,18.22,37.09,20.63S405.45,369.26,402.6,370.35Z" style="fill: rgb(235, 235, 235); transform-origin: 349.969px 348.356px;" id="elb6qxihy6gg8" class="animable"></path><path d="M408.29,371.49c-2.87,1-90.88,2-94.05,0-.74-.45-1.42-5.56-2-12.57-.07-.88-9-8-10.2-9.32L356,331.44l6.81,6.41s39.69,18.47,42.94,21S411.16,370.5,408.29,371.49Z" style="fill: rgb(56, 128, 255); transform-origin: 355.835px 352.042px;" id="el28dwjico0yz" class="animable"></path><g id="elsvr4qwybbq8"><path d="M408.29,371.49c-2.87,1-90.88,2-94.05,0-.74-.45-1.42-5.56-2-12.57-.07-.88-9-8-10.2-9.32L356,331.44l6.81,6.41s39.69,18.47,42.94,21S411.16,370.5,408.29,371.49Z" style="opacity: 0.4; transform-origin: 355.835px 352.042px;" class="animable"></path></g><path d="M407.07,368.21c-13.82-.18-75.16.41-88.84,1.28-.11,0-.11.09,0,.09,13.7.48,75-.56,88.85-1.14C407.37,368.42,407.36,368.21,407.07,368.21Z" style="fill: rgb(38, 50, 56); transform-origin: 362.72px 368.94px;" id="ellknoj8ubego" class="animable"></path><path d="M367.21,338.43c-5.45-.95-12.1,0-16.21,3.89-.16.15.06.38.24.32a76.23,76.23,0,0,1,16-3.52A.35.35,0,0,0,367.21,338.43Z" style="fill: rgb(38, 50, 56); transform-origin: 359.231px 340.369px;" id="elwxb8jwonm6m" class="animable"></path><path d="M371.16,340.75c-5.45-.95-12.09,0-16.2,3.89-.16.15.06.38.23.32a76.37,76.37,0,0,1,16-3.52A.35.35,0,0,0,371.16,340.75Z" style="fill: rgb(38, 50, 56); transform-origin: 363.186px 342.689px;" id="el40ky0yjnfwo" class="animable"></path><path d="M375.12,343.08c-5.45-1-12.1,0-16.21,3.88-.16.15.06.38.24.32a76.14,76.14,0,0,1,16-3.52A.34.34,0,0,0,375.12,343.08Z" style="fill: rgb(38, 50, 56); transform-origin: 367.164px 345.004px;" id="elvaeq4vlfjt" class="animable"></path><path d="M379.07,345.4c-5.45-1-12.09,0-16.2,3.88-.16.15.05.38.23.32a77,77,0,0,1,16-3.52A.34.34,0,0,0,379.07,345.4Z" style="fill: rgb(38, 50, 56); transform-origin: 371.119px 347.324px;" id="elphmt82sv9og" class="animable"></path><path d="M377.11,325.74c-2.17-2.92-6.14-1.55-8.39.38a29.11,29.11,0,0,0-8.23,12.56.15.15,0,0,0,.13.2.68.68,0,0,0,.86.67c4.48-1.72,9.47-3,13.28-6C377,331.74,379.16,328.5,377.11,325.74Zm-9.38,9.82c-2.18.9-4.39,1.68-6.53,2.66a84.93,84.93,0,0,1,5-7.23,30.25,30.25,0,0,1,2.84-3.15c1.6-1.49,8-4.7,7.09,1.28C375.61,332.42,370.33,334.49,367.73,335.56Z" style="fill: rgb(38, 50, 56); transform-origin: 369.207px 331.814px;" id="ellogptdf9qra" class="animable"></path><path d="M346.65,337.42c4.51,1.86,9.66,1.7,14.43,2.11a.67.67,0,0,0,.64-.88.14.14,0,0,0,.07-.22,29,29,0,0,0-11.39-9.78c-2.7-1.24-6.89-1.45-8.16,2C341,333.83,344,336.34,346.65,337.42Zm-2.5-3.85c-2.52-5.49,4.5-4.18,6.45-3.19a31.31,31.31,0,0,1,3.61,2.23c2.41,1.68,4.55,3.66,6.78,5.57-2.34-.35-4.68-.49-7-.74C351.18,337.13,345.54,336.6,344.15,333.57Z" style="fill: rgb(38, 50, 56); transform-origin: 351.886px 333.677px;" id="elf7zqgvuium8" class="animable"></path><path d="M352.3,325.63l-51,26.41S248.26,304,243.4,303.63s-76.28,48.1-112.24,48.25C93.93,352,92,313,92,313l54.32-12.47c39.16-19.3,79.95-54,106.62-50.73C282,253.33,352.3,325.63,352.3,325.63Z" style="fill: rgb(38, 50, 56); transform-origin: 222.15px 300.812px;" id="ele27yoatw59d" class="animable"></path><path d="M339.85,318.91c-8.6,4.25-6.19,2.92-14.74,7.26-4.19,2.12-25.26,12.76-28.84,15.39-.08.06,0,.19.09.16,4.21-1.41,25-12.49,29.19-14.69,8.48-4.5,6-3.3,14.42-7.88A.13.13,0,1,0,339.85,318.91Z" style="fill: rgb(55, 71, 79); transform-origin: 318.141px 330.31px;" id="eli7tjcbznj7g" class="animable"></path><path d="M292.32,339.87c-10-8.79-42.6-37.38-43.93-38.45a18,18,0,0,0-3.4-2.55,3.59,3.59,0,0,0-3.14.26c-1.51.7-3,1.47-4.48,2.21l-8.84,4.31c-11.41,5.57-22.76,11.29-34.27,16.67-11.06,5.19-19,10.06-30.51,14.05a173.48,173.48,0,0,1-35.45,8.45c-1.48.18-3,.34-4.47.48a.09.09,0,0,0,0,.17A143,143,0,0,0,158.72,339c11.44-3.52,19.21-8.09,30.08-13.09,11.27-5.19,22.37-10.73,33.48-16.25,5.86-2.91,11.71-5.86,17.59-8.74,1.34-.65,3.24-2.07,4.76-1.37a8.61,8.61,0,0,1,1.76,1.3l2,1.63c2.52,2.09,42.53,36.55,43.84,37.55C292.28,340.08,292.42,340,292.32,339.87Z" style="fill: rgb(55, 71, 79); transform-origin: 208.062px 322.047px;" id="elp5lmel0mp99" class="animable"></path><path d="M91.94,313s-6.1,35.23,11.52,49.07,146.67,12.18,166.25,5.85S289.9,330,268.5,322.69c-20.36-7-107-10.35-109.12-11.2-.53-.22,7.68-5.14,7.65-5.44l-19.71-6Z" style="fill: rgb(38, 50, 56); transform-origin: 187.696px 336.346px;" id="eluquehld46n8" class="animable"></path><path d="M118.67,312.14c0-.15-.25-.11-.25,0a17.41,17.41,0,0,1-4.08,11.19c-3,3.46-7.42,5.4-11.42,7.42-.39.2-.1.8.3.68a35.44,35.44,0,0,0,7.08-3.05,17.05,17.05,0,0,0,5.32-4.42A15.2,15.2,0,0,0,118.67,312.14Z" style="fill: rgb(55, 71, 79); transform-origin: 110.801px 321.744px;" id="elp3z14tsahng" class="animable"></path><path d="M158,307.77c-.89-1.14-1.87-2.23-2.8-3.34-2.2-2.62-4.42-5.26-6.73-7.79-.22-.24-.65.1-.45.36,1.56,2,3.21,4,4.83,6,.83,1,1.66,2,2.5,3a19,19,0,0,1,2.34,3c.6,1.13-.19,2.09-1.36,2.22a4.07,4.07,0,0,1-2.82-1,37.26,37.26,0,0,1-4.77-5.11c-.93-1-1.86-2.09-2.81-3.12s-2.07-2.14-3.07-3.23c-.06-.07-.19,0-.13.1.88,1.2,1.68,2.45,2.56,3.66s1.76,2.38,2.66,3.56,1.74,2.21,2.66,3.28a10.85,10.85,0,0,0,2.69,2.41c1.67,1,4.58,1.2,5.47-1A3,3,0,0,0,158,307.77Z" style="fill: rgb(55, 71, 79); transform-origin: 150.805px 304.524px;" id="elyg74r6umfy" class="animable"></path><path d="M267,368.05c-6.74.13-13.48.52-20.22.67s-13.38.18-20.07.11q-20.15-.18-40.27-1.56c-13.54-.94-28.15-2.29-41.6-4.15-6.44-.89-13-1.64-19.33-3a30.53,30.53,0,0,1-15.24-7.79c-8.72-8.45-12.1-20.88-13.5-32.75-.18-1.59-.33-3.19-.46-4.79a.09.09,0,0,0-.17,0c.79,12.17,2.68,24.86,10.34,34.65A30.37,30.37,0,0,0,119,359.13c6,2.42,12.71,3,19.07,3.84,13.51,1.84,28.18,3.25,41.76,4.31s27.38,1.72,41.09,1.92,27.43,0,41.13-.67c1.67-.08,3.34-.18,5-.32A.08.08,0,0,0,267,368.05Z" style="fill: rgb(55, 71, 79); transform-origin: 181.624px 342.002px;" id="elge6ivfcw45" class="animable"></path><path d="M224.52,316.27c-4.24-.62-8.48-1.23-12.74-1.68s-8.63-.83-12.94-1.2c-8.54-.72-17.1-1.37-25.66-1.77-4.87-.23-9.73-.25-14.59-.19-.16,0-.15.22,0,.24,8.56.77,17.12,1.31,25.7,1.88s17.1,1.32,25.63,2.13c4.84.47,9.69.82,14.53,1.22C224.81,316.93,224.88,316.32,224.52,316.27Z" style="fill: rgb(55, 71, 79); transform-origin: 191.616px 314.151px;" id="elpqw4qdyabl" class="animable"></path><path d="M168,305.62a65.72,65.72,0,0,0-9.82,5.26,77.5,77.5,0,0,0-9.09,6.36c-.09.07,0,.17.1.13,3.34-1.54,6.54-3.47,9.72-5.32a93.63,93.63,0,0,0,9.3-6C168.45,305.91,168.32,305.5,168,305.62Z" style="fill: rgb(55, 71, 79); transform-origin: 158.693px 311.489px;" id="eli0i3l5owfus" class="animable"></path><path d="M139.93,236.47c1.14,20.06,7,52,17.15,53.71,9.24,1.57,32.84-10.95,42.45-14.7s-5.78-28.45-11.36-26c-8.63,3.86-21.84,11.18-23.66,10.2-2.27-1.22-4.23-7.72-14.72-27.77C145.49,223.76,139.44,227.93,139.93,236.47Z" style="fill: rgb(247, 169, 160); transform-origin: 171.26px 258.917px;" id="eld6yv5pap89r" class="animable"></path><path d="M199,243.12c4.32-.68,9.23-1.81,13.73-.88s7.13,7.58,6.81,9.28-4,12-8.51,11.19-.27-8.51-.26-9.48.06-2.19-.81-2.26-17.08,4.22-17.08,4.22Z" style="fill: rgb(247, 169, 160); transform-origin: 206.223px 252.322px;" id="elp8jy591z33q" class="animable"></path><path d="M199.12,243.8c.25,0,13.23-2.47,17.72-1.55s7.13,7.58,6.82,9.28-4,12-8.51,11.19-.27-8.51-.27-9.47.06-2.2-.81-2.27S197,255.2,197,255.2Z" style="fill: rgb(247, 169, 160); transform-origin: 210.342px 252.405px;" id="elu4hd9gw0p8d" class="animable"></path><path d="M213.72,261.86a5.41,5.41,0,0,1-.25-2.8,9.31,9.31,0,0,1,.7-2.85,16,16,0,0,0,1-2.38,5,5,0,0,0-.19-2.5c-.23-.7-.93-.61-1.54-.51a22.42,22.42,0,0,0-2.66.65c-.94.26-1.88.55-2.81.84a22.71,22.71,0,0,0-2.89.95.07.07,0,0,0,0,.13c.84-.13,1.66-.39,2.48-.6s1.87-.48,2.8-.7,1.74-.47,2.62-.66a2.72,2.72,0,0,1,1.26-.14c.33.14.34,1,.36,1.31A4.28,4.28,0,0,1,214,255a13,13,0,0,0-.92,2.38,6.46,6.46,0,0,0-.25,2.39,9.6,9.6,0,0,0,.71,2.14C213.61,262,213.77,262,213.72,261.86Z" style="fill: rgb(38, 50, 56); transform-origin: 210.142px 256.362px;" id="el01e443fcgbw7" class="animable"></path><path d="M182.61,253s14.62-9.06,17.64-10.84c6.07-3.57,29.73-8.46,32.85-8.21s3.06,6.73-13.08,10.48c-8.5,2-10.74,6.22-11.05,8.74s1.2,7.62,5.42,8.29,8.08-4.95,12.07-4.91.12,6.63-3.36,10.21a26.17,26.17,0,0,1-12.94,6.71c-3.89.69-16,3.44-16,3.44Z" style="fill: rgb(247, 169, 160); transform-origin: 208.656px 255.425px;" id="el5h322m2dxuj" class="animable"></path><path d="M220.15,259.45c-1.81.93-3.9,2.18-6,1.87s-3.31-2-4-3.91a8.06,8.06,0,0,1,0-6,10,10,0,0,1,3.75-4.18,24,24,0,0,1,6.4-2.72c.1,0,0-.18-.06-.16-2.1.51-8.56,1.85-10.75,6.93a8.25,8.25,0,0,0,.07,6.14c.61,1.84,1.67,3.71,3.67,4.25,2.45.66,5-1,7-2.13C220.35,259.48,220.24,259.4,220.15,259.45Z" style="fill: rgb(38, 50, 56); transform-origin: 214.637px 253.084px;" id="el8yexwi0d07" class="animable"></path><path d="M182.9,251.38l13.3,32.51s-32.76,11.1-40.66,6.86S139.45,260.08,138.16,238s10.16-11.59,14-4.13,11.92,24.58,12.56,24.49S182.9,251.38,182.9,251.38Z" style="fill: rgb(55, 71, 79); transform-origin: 167.13px 258.225px;" id="elksqnka7jqv" class="animable"></path><path d="M186.85,286.76c-2,.59-4.22,1.19-6.53,1.78l-10.83-32c1.92-.71,4.14-1.58,6.23-2.39C179.15,264.18,183.31,276.33,186.85,286.76Z" style="fill: rgb(56, 128, 255); transform-origin: 178.17px 271.345px;" id="elgblsosg8d1r" class="animable"></path><path d="M177.82,289.16l-2.11.48L165,258.26l2-.72C170.38,267.36,174.39,279.07,177.82,289.16Z" style="fill: rgb(56, 128, 255); transform-origin: 171.41px 273.59px;" id="elrvsaadru48i" class="animable"></path><path d="M173.4,290.13c-7.26,1.5-14.27,2.27-17.57.76l-.29-.14c-7.89-4.25-16.09-30.66-17.39-52.75a33.44,33.44,0,0,1,.41-8.9c0-.11.05-.21.07-.31s.09-.33.14-.49,0-.13.06-.2.1-.31.15-.45Z" style="fill: rgb(38, 50, 56); transform-origin: 155.711px 259.679px;" id="elb0d469gh3zs" class="animable"></path><path d="M186.29,279.09c-.4-1.14-.81-2.28-1.22-3.41-.82-2.28-5.8-15.78-8-20-.05-.11-.22,0-.19.09,1.2,4.62,6.49,17.95,7.37,20.15.45,1.13.91,2.25,1.37,3.37s1.07,2.2,1.53,3.32c.05.11.23.07.18-.05C187,281.42,186.69,280.23,186.29,279.09Z" style="fill: rgb(38, 50, 56); transform-origin: 182.108px 269.154px;" id="elgdzs7hw5alr" class="animable"></path><path d="M166.53,309.81l-76.16,4.43c.1-1.56,13-58.41,34-84.79,5.61-7,17.76-12.28,23.55.19C154.05,242.81,167.57,308.85,166.53,309.81Z" style="fill: rgb(69, 90, 100); transform-origin: 128.478px 268.182px;" id="eln1oba2h1t3b" class="animable"></path><path d="M143.12,240.05c-4.45.09-10.33-8-12.08-13.83-.11-.4,1.26-4.08,2.71-8.62.87-2.76,1.78-5.86,2.4-8.74.13-.6,17.14,8.29,17.14,8.29a47.12,47.12,0,0,0-4.13,10.7,6.52,6.52,0,0,0-.14,1.21,1.41,1.41,0,0,1,0,.2C148.89,231.59,147.43,240,143.12,240.05Z" style="fill: rgb(247, 169, 160); transform-origin: 142.162px 224.441px;" id="elkdjvb58m4g" class="animable"></path><path d="M137.25,209.17c-.22,5.06.28,17.49,9.88,19.8a10.41,10.41,0,0,0,1.87.29.49.49,0,0,0,0-.2,7.44,7.44,0,0,1,.13-1.21,47.22,47.22,0,0,1,4.14-10.7S141,210.74,137.25,209.17Z" style="fill: rgb(38, 50, 56); transform-origin: 145.242px 219.215px;" id="elhmyjll6xm8i" class="animable"></path><path d="M138.75,186.58c-3.56,5.86-4.87,25.09-1.38,30.33,5,7.61,15.64,10.9,22.68,4.3,6.84-6.39,8.1-31.48,4-36.49C158,177.35,144,177.91,138.75,186.58Z" style="fill: rgb(247, 169, 160); transform-origin: 150.856px 202.179px;" id="el6xskpbb5e85" class="animable"></path><path d="M153.88,202.37c0-.05-.1.06-.1.11,0,1.3-.23,2.79-1.42,3.18,0,0,0,.07,0,.07C153.81,205.58,154.09,203.6,153.88,202.37Z" style="fill: rgb(38, 50, 56); transform-origin: 153.151px 204.044px;" id="el0b7d1efzd89" class="animable"></path><path d="M152.77,201c-2.08-.24-2.39,3.94-.46,4.16S154.52,201.17,152.77,201Z" style="fill: rgb(38, 50, 56); transform-origin: 152.478px 203.079px;" id="elsdjs0ukrtfo" class="animable"></path><path d="M161.13,203s.09.07.09.12c-.14,1.29-.08,2.79,1.06,3.31a0,0,0,0,1,0,.07C160.85,206.14,160.79,204.15,161.13,203Z" style="fill: rgb(38, 50, 56); transform-origin: 161.619px 204.75px;" id="eltpk27z4lzo" class="animable"></path><path d="M162.38,201.68c2.1,0,2,4.18,0,4.19S160.63,201.68,162.38,201.68Z" style="fill: rgb(38, 50, 56); transform-origin: 162.445px 203.775px;" id="el66njhxp65a" class="animable"></path><path d="M151.47,198.24c.58-.1,1.1-.29,1.66-.44a2.82,2.82,0,0,0,1.61-.78.89.89,0,0,0-.06-1.08,2.21,2.21,0,0,0-2.19-.4,3.19,3.19,0,0,0-2,1.25A.94.94,0,0,0,151.47,198.24Z" style="fill: rgb(38, 50, 56); transform-origin: 152.609px 196.835px;" id="elb9bb6vlub4k" class="animable"></path><path d="M164.49,199.74a15.55,15.55,0,0,1-1.66-.43,2.76,2.76,0,0,1-1.62-.76.89.89,0,0,1,0-1.08,2.2,2.2,0,0,1,2.18-.42,3.21,3.21,0,0,1,2,1.23A1,1,0,0,1,164.49,199.74Z" style="fill: rgb(38, 50, 56); transform-origin: 163.265px 198.333px;" id="eldht1cfo6x7" class="animable"></path><path d="M150.44,213.76c.15.4.26.91.68,1.14a3.5,3.5,0,0,0,1.4.28s.07.06,0,.08a1.76,1.76,0,0,1-1.8,0,1.39,1.39,0,0,1-.45-1.47C150.31,213.68,150.41,213.7,150.44,213.76Z" style="fill: rgb(38, 50, 56); transform-origin: 151.382px 214.609px;" id="eld5lpccsqqhm" class="animable"></path><path d="M152.48,210.46a4.41,4.41,0,0,0,2.79,2.18,5.63,5.63,0,0,0,1.59.19,1.51,1.51,0,0,0,.3,0l.29,0a.33.33,0,0,0,.28-.27h0v-.14h0v-.11c.1-1,.12-2.52.12-2.52.35.21,2.15,1.19,2.15.66a66.05,66.05,0,0,0-.71-13.46c0-.15-.25-.13-.24,0-.23,4.16.28,8.33.12,12.51a7.8,7.8,0,0,0-2-.78c-.15,0,0,2.94-.06,3.38a.18.18,0,0,1,0,.05,6.14,6.14,0,0,1-4.46-1.75C152.52,210.27,152.41,210.35,152.48,210.46Z" style="fill: rgb(38, 50, 56); transform-origin: 156.27px 204.861px;" id="elwtd07o2ks1" class="animable"></path><path d="M155.8,212.65a4.89,4.89,0,0,1-2.24,1.07,2.27,2.27,0,0,1-1.32-.21c-.89-.46-.72-1.33-.39-2a5.3,5.3,0,0,1,.68-1A6.3,6.3,0,0,0,155.8,212.65Z" style="fill: rgb(38, 50, 56); transform-origin: 153.692px 212.126px;" id="el8xi3235bdx" class="animable"></path><path d="M153.56,213.72a2.27,2.27,0,0,1-1.32-.21c-.89-.46-.72-1.33-.39-2A2.27,2.27,0,0,1,153.56,213.72Z" style="fill: rgb(255, 155, 188); transform-origin: 152.572px 212.626px;" id="elgrhr9pldiy6" class="animable"></path><path d="M134.09,200.62c4.76,1.57,8.76-3.57,8.81-8.51,0,0,12.46,5,15.71-5.21a10.48,10.48,0,0,0,7.21,6.78l.47,4.18c1.42-.05,3.78-3.45,1.29-7.22,0,0,1.09-5.22-1.93-9.28a7.25,7.25,0,0,0-7.31-3,11,11,0,0,0-7.29-3.89,9.37,9.37,0,0,0-8,3.23s-6.7-.4-8.94,3.86a9.72,9.72,0,0,0-.67,7.9s-2.06,1.38-2.23,5.46C131.14,197.55,132.66,200.15,134.09,200.62Z" style="fill: rgb(38, 50, 56); transform-origin: 149.939px 187.668px;" id="ela1r3lh7m6q" class="animable"></path><path d="M158.56,185.91a12.79,12.79,0,0,1-.61,2.53,10.78,10.78,0,0,1-1.09,2.33,6.77,6.77,0,0,1-3.93,3,10.82,10.82,0,0,1-5.06,0c-.83-.23-1.68-.42-2.5-.7s-1.63-.62-2.47-.9c.77.41,1.57.78,2.36,1.18s1.66.59,2.5.88a10.68,10.68,0,0,0,5.33.15,7,7,0,0,0,4.17-3.31A10.68,10.68,0,0,0,158.56,185.91Z" style="fill: rgb(38, 50, 56); transform-origin: 150.73px 190.279px;" id="el13pbog45dxy" class="animable"></path><path d="M163.69,193.58a13.94,13.94,0,0,1-3.38-3.1,8.4,8.4,0,0,1-1.11-2,10.15,10.15,0,0,1-.58-2.23,5.48,5.48,0,0,0,.13,2.38,6.34,6.34,0,0,0,1.07,2.18,7.61,7.61,0,0,0,1.73,1.67A7,7,0,0,0,163.69,193.58Z" style="fill: rgb(38, 50, 56); transform-origin: 161.118px 189.915px;" id="elbkfuqjrvf14" class="animable"></path><path d="M138.87,202.55s-2.78-6.94-5.84-6.09-1.93,10.25,1,12.17a3.32,3.32,0,0,0,4.74-.73Z" style="fill: rgb(247, 169, 160); transform-origin: 135.042px 202.852px;" id="el932owskrs3s" class="animable"></path><path d="M133.42,199.15s-.08,0,0,.08c2,1.42,2.72,3.76,3,6.1a1.83,1.83,0,0,0-2.56-1.11c-.07,0,0,.13,0,.13a2.06,2.06,0,0,1,2,1.2,10.1,10.1,0,0,1,.64,2c.06.22.44.2.42,0v-.05C137.69,204.64,136.41,200.14,133.42,199.15Z" style="fill: rgb(38, 50, 56); transform-origin: 135.262px 203.429px;" id="elbubw18owfhg" class="animable"></path><path d="M120.52,242.23c-.3,20.18,9.31,59.81,19.36,65.24,11.64,6.29,57.18.55,66.76-4.06,3.82-1.83-10-26.82-14.51-26.06-18.7,3.18-34.83,3.6-36.8,1.65-3-3-13.38-25.85-20.22-40.11C126.52,221,120.66,233.18,120.52,242.23Z" style="fill: rgb(247, 169, 160); transform-origin: 163.906px 269.972px;" id="elajbkxsvpq8" class="animable"></path><path d="M205.43,303.79c2-.32,17-7.43,21.7-11.19a58.61,58.61,0,0,0,13-13.81c5.6-8.37,8.68-14.69,8.29-17.85-.45-3.66-.65-4.28-12.57,9.12-6.74,7.58-11.83,7.63-16.07,6.76a66.63,66.63,0,0,0-31.5,1.13S197.59,305.05,205.43,303.79Z" style="fill: rgb(247, 169, 160); transform-origin: 218.367px 281.257px;" id="eloni78b62xad" class="animable"></path><path d="M257.1,250.86,229,275.32a2.76,2.76,0,0,1-2.91.39l-14.87-8.22a1.18,1.18,0,0,1-.11-2.06L239.21,241a2.74,2.74,0,0,1,2.91-.39L257,248.8A1.18,1.18,0,0,1,257.1,250.86Z" style="fill: rgb(55, 71, 79); transform-origin: 234.107px 258.158px;" id="elddeyg04euy" class="animable"></path><path d="M255.66,248.06l-14.88-8.22a2.74,2.74,0,0,0-2.91.39L209.8,264.69a1.17,1.17,0,0,0,.1,2.05L224.77,275a2.76,2.76,0,0,0,2.91-.39l28.08-24.46A1.18,1.18,0,0,0,255.66,248.06Zm-28,25.24a2.56,2.56,0,0,1-2.68.42l-13.31-7.36c-.75-.41-.75-1.27,0-1.91l26.14-22.77c1.5-1.31,2.18-1,2.93-.63l2.66,1.47c.16.09.12.3-.08.47l-.08.08c-.47.41-.19.56.15.75l6.16,3.41a.8.8,0,0,0,1.1-.06l.08-.08a.68.68,0,0,1,.65-.16l2.66,1.48c.75.41,1.15.92-.23,2.12Z" style="fill: rgb(38, 50, 56); transform-origin: 232.793px 257.418px;" id="el6j4knyfb7hr" class="animable"></path><path d="M247.84,245.48l-1.68-.93c-.06,0-.06-.09,0-.14h0a.18.18,0,0,1,.2,0l1.68.93c.06,0,.06.09,0,.14h0A.21.21,0,0,1,247.84,245.48Z" style="fill: rgb(255, 255, 255); transform-origin: 247.1px 244.943px;" id="elh1mbcocjst" class="animable"></path><line x1="213.26" y1="263.01" x2="213.21" y2="262.98" style="fill: none; transform-origin: 213.235px 262.995px;" id="el87ymi1epluu" class="animable"></line><path d="M253.75,250.53,227.61,273.3a2.56,2.56,0,0,1-2.68.42l-13.31-7.36c-.75-.41-.75-1.27,0-1.91l26.14-22.77c1.51-1.31,2.18-1,2.93-.63l2.66,1.47c.16.09.12.3-.08.47l-.08.08c-.47.41-.19.56.15.75l6.16,3.41a.8.8,0,0,0,1.1-.06l.08-.08a.68.68,0,0,1,.65-.16l2.66,1.48C254.73,248.82,255.13,249.33,253.75,250.53Z" style="fill: rgb(255, 255, 255); transform-origin: 232.862px 257.327px;" id="elph5bm36fbbd" class="animable"></path><path d="M253.75,250.53l-1.95,1.7-16-8.85,1.95-1.7c1.5-1.31,2.18-1,2.93-.63l2.66,1.47c.16.09.12.3-.08.47l-.08.08c-.47.41-.19.56.15.75l6.16,3.41a.8.8,0,0,0,1.1-.06l.09-.08a.66.66,0,0,1,.64-.16l2.66,1.48C254.73,248.82,255.13,249.33,253.75,250.53Z" style="fill: rgb(56, 128, 255); transform-origin: 245.233px 246.48px;" id="elk92fq1lb9ks" class="animable"></path><polygon points="238.37 243.44 238.31 242.83 239.18 242.74 239.19 242.84 238.46 242.91 238.52 243.42 238.37 243.44" style="fill: rgb(255, 255, 255); transform-origin: 238.75px 243.09px;" id="el24zo67qwq23" class="animable"></polygon><path d="M252.18,250.26a.19.19,0,0,1-.18,0,.07.07,0,0,1,0-.13.17.17,0,0,1,.18,0S252.23,250.22,252.18,250.26Z" style="fill: rgb(255, 255, 255); transform-origin: 252.079px 250.193px;" id="elp48akp2qfy" class="animable"></path><path d="M251.88,250.53a.17.17,0,0,1-.18,0s0-.08,0-.13a.17.17,0,0,1,.18,0A.08.08,0,0,1,251.88,250.53Z" style="fill: rgb(255, 255, 255); transform-origin: 251.807px 250.465px;" id="elybiw9c4frni" class="animable"></path><path d="M251.58,250.79a.17.17,0,0,1-.18,0,.07.07,0,0,1,0-.12.17.17,0,0,1,.18,0C251.62,250.69,251.62,250.75,251.58,250.79Z" style="fill: rgb(255, 255, 255); transform-origin: 251.488px 250.73px;" id="elpzs599rnkxf" class="animable"></path><g id="freepik--u5zjqx--inject-12" class="animable" style="transform-origin: 242.009px 242.661px;"><path d="M242.3,242.78h-.08a.28.28,0,0,0-.15-.22.58.58,0,0,0-.35,0v-.06h.18a.28.28,0,0,1,.13,0l.06,0,0,0,0,0,.08.07,0,.06a.14.14,0,0,1,0,.06v0Z" style="fill: rgb(255, 255, 255); transform-origin: 242.01px 242.636px;" id="elzpmp6invek" class="animable"></path><path d="M241.73,242.62v-.05a.48.48,0,0,1,.24,0,.23.23,0,0,1,.17.2h-.08a.19.19,0,0,0-.1-.15A.43.43,0,0,0,241.73,242.62Z" style="fill: rgb(255, 255, 255); transform-origin: 241.935px 242.662px;" id="elws670x5yux8" class="animable"></path><path d="M242,242.82h-.07a.12.12,0,0,0-.06-.08.2.2,0,0,0-.11,0v0C241.86,242.66,242,242.72,242,242.82Z" style="fill: rgb(255, 255, 255); transform-origin: 241.88px 242.761px;" id="elbpe7mck973" class="animable"></path><path d="M241.82,242.83s0,0-.07,0,0,0,0-.05a.06.06,0,0,1,.07,0S241.84,242.81,241.82,242.83Z" style="fill: rgb(255, 255, 255); transform-origin: 241.774px 242.799px;" id="eljcc2hrfz4f" class="animable"></path></g><path d="M239.71,241.45a.2.2,0,0,1,.21,0c.06,0,.06.09,0,.14a.2.2,0,0,1-.21,0A.09.09,0,0,1,239.71,241.45Z" style="fill: rgb(255, 255, 255); transform-origin: 239.821px 241.52px;" id="el2zntc1ciz57" class="animable"></path><path d="M240.05,241.64a.18.18,0,0,1,.2,0c.06,0,.06.1,0,.15a.21.21,0,0,1-.2,0A.08.08,0,0,1,240.05,241.64Z" style="fill: rgb(255, 255, 255); transform-origin: 240.146px 241.713px;" id="elawup09k28y" class="animable"></path><path d="M240.38,241.82a.19.19,0,0,1,.2,0c.06,0,.07.09,0,.14a.18.18,0,0,1-.2,0A.09.09,0,0,1,240.38,241.82Z" style="fill: rgb(255, 255, 255); transform-origin: 240.488px 241.891px;" id="elrvj0t5wcsp8" class="animable"></path><path d="M240.72,242a.18.18,0,0,1,.2,0,.08.08,0,0,1,0,.14.2.2,0,0,1-.21,0A.08.08,0,0,1,240.72,242Z" style="fill: rgb(255, 255, 255); transform-origin: 240.817px 242.07px;" id="el9bl6hvsvygc" class="animable"></path><path d="M241.05,242.19a.18.18,0,0,1,.2,0c.06,0,.07.09,0,.14a.18.18,0,0,1-.2,0A.09.09,0,0,1,241.05,242.19Z" style="fill: rgb(255, 255, 255); transform-origin: 241.158px 242.26px;" id="el3mstpuvovxa" class="animable"></path><path d="M253.26,249.25l-.87-.48,0,0,.34-.3.88.49,0,0Zm-.77-.49.77.42.27-.24-.76-.42Z" style="fill: rgb(255, 255, 255); transform-origin: 253px 248.86px;" id="elgjpot2llqe" class="animable"></path><polygon points="253.33 248.85 252.77 248.54 252.53 248.75 253.09 249.06 253.33 248.85" style="fill: rgb(255, 255, 255); transform-origin: 252.93px 248.8px;" id="eluwzx1ktehfn" class="animable"></polygon><polygon points="253.42 249.22 253.35 249.17 253.54 249 253.62 249.04 253.42 249.22" style="fill: rgb(255, 255, 255); transform-origin: 253.485px 249.11px;" id="ely43a7i1ytd" class="animable"></polygon><polygon points="214.3 265.57 214.18 265.5 213.67 265.95 213.44 265.82 213.7 265.59 213.3 265.37 213.04 265.6 212.81 265.47 213.32 265.03 213.2 264.96 214.27 264.81 214.3 265.57" style="fill: rgb(235, 235, 235); transform-origin: 213.555px 265.38px;" id="elplrqavtaep" class="animable"></polygon><polygon points="226.89 272.03 225.56 271.3 225.74 271.15 227.06 271.88 226.89 272.03" style="fill: rgb(235, 235, 235); transform-origin: 226.31px 271.59px;" id="el56lq8lrz2nb" class="animable"></polygon><polygon points="226.46 272.41 225.13 271.68 225.31 271.52 226.63 272.26 226.46 272.41" style="fill: rgb(235, 235, 235); transform-origin: 225.88px 271.965px;" id="el0u0xeo952n3" class="animable"></polygon><polygon points="226.03 272.78 224.7 272.05 224.88 271.9 226.2 272.63 226.03 272.78" style="fill: rgb(235, 235, 235); transform-origin: 225.45px 272.34px;" id="elgfykyapst7b" class="animable"></polygon><polygon points="220.32 268.79 219.58 268.9 219.57 268.38 219.69 268.36 219.7 268.8 220.31 268.71 220.32 268.79" style="fill: rgb(235, 235, 235); transform-origin: 219.945px 268.63px;" id="ellw69a249sj" class="animable"></polygon><path d="M219.71,269.81a1.47,1.47,0,0,1-.72-.17,1,1,0,0,1-.53-.77,1.06,1.06,0,0,1,.39-.91,1.66,1.66,0,0,1,1.8-.22,1,1,0,0,1,.54.77,1.07,1.07,0,0,1-.4.91h0A1.63,1.63,0,0,1,219.71,269.81Zm.27-1.25a.8.8,0,0,0-.47.15.49.49,0,0,0,.62,0,.18.18,0,0,0,.06-.07A.46.46,0,0,0,220,268.56Z" style="fill: rgb(235, 235, 235); transform-origin: 219.825px 268.69px;" id="ela3enc0pqj9v" class="animable"></path><path d="M243.57,245.93a.79.79,0,0,1,.82-.09.32.32,0,0,1,.19.22s0,.07-.07.08-.1,0-.11,0a.25.25,0,0,0-.13-.16.56.56,0,0,0-.29-.05.61.61,0,0,0-.27.12.25.25,0,0,0-.1.21.21.21,0,0,0,.13.18.42.42,0,0,0,.25.06s.08,0,.08.06,0,.07-.1.07a.69.69,0,0,1-.35-.08A.33.33,0,0,1,243.57,245.93Z" style="fill: rgb(255, 255, 255); transform-origin: 243.978px 246.198px;" id="ell5uuhhdg60q" class="animable"></path><path d="M244.19,246.74l.64-.55a.11.11,0,0,1,.12,0,.05.05,0,0,1,0,.09l-.26.23.3.17.26-.23a.12.12,0,0,1,.13,0,.05.05,0,0,1,0,.09l-.63.56a.12.12,0,0,1-.13,0,.05.05,0,0,1,0-.09l.26-.22-.3-.17-.26.23a.12.12,0,0,1-.13,0A.06.06,0,0,1,244.19,246.74Z" style="fill: rgb(255, 255, 255); transform-origin: 244.781px 246.646px;" id="elr083gon1ern" class="animable"></path><path d="M245.49,247.29l-.29-.16-.2.09a.09.09,0,0,1-.1,0h0s0-.07,0-.09l.9-.41a.12.12,0,0,1,.1,0,0,0,0,0,1,0,.07l-.37.7a.12.12,0,0,1-.12,0s0,0,0,0a0,0,0,0,1,0-.06Zm.07-.13.13-.25-.32.15Z" style="fill: rgb(255, 255, 255); transform-origin: 245.4px 247.108px;" id="el4ju1k5jz5v6" class="animable"></path><path d="M246.67,247.3l-.19-.11-.57.5a.13.13,0,0,1-.13,0,.05.05,0,0,1,0-.09l.57-.5-.18-.1a.05.05,0,0,1,0-.09.13.13,0,0,1,.13,0l.5.28a.05.05,0,0,1,0,.09A.15.15,0,0,1,246.67,247.3Z" style="fill: rgb(255, 255, 255); transform-origin: 246.29px 247.3px;" id="elo4qlbhow46" class="animable"></path><polygon points="226.63 253.85 238.08 260.18 241.38 257.31 229.93 250.98 229.93 250.98 226.63 253.85 226.63 253.85" style="fill: rgb(69, 90, 100); transform-origin: 234.005px 255.58px;" id="eli153a01t2z" class="animable"></polygon><polygon points="239.14 260.77 238.08 260.18 239.09 259.3 239.14 260.77" style="fill: rgb(69, 90, 100); transform-origin: 238.61px 260.035px;" id="elg9cx3rdcz06" class="animable"></polygon><polygon points="240.09 257.5 229.95 251.89 230.02 251.84 240.15 257.44 240.09 257.5" style="fill: rgb(255, 255, 255); transform-origin: 235.05px 254.67px;" id="elgyvkg0iikl" class="animable"></polygon><polygon points="237.65 256.63 229.62 252.19 229.68 252.13 237.71 256.57 237.65 256.63" style="fill: rgb(255, 255, 255); transform-origin: 233.665px 254.38px;" id="elbtkicaqxf6i" class="animable"></polygon><polygon points="238.24 257.92 228.94 252.78 229 252.72 238.3 257.87 238.24 257.92" style="fill: rgb(255, 255, 255); transform-origin: 233.62px 255.32px;" id="el0ffezlyceeaw" class="animable"></polygon><polygon points="238.74 258.68 228.6 253.07 228.66 253.02 238.8 258.62 238.74 258.68" style="fill: rgb(255, 255, 255); transform-origin: 233.7px 255.85px;" id="elai9py8qvpuo" class="animable"></polygon><polygon points="238.4 258.97 228.26 253.37 228.33 253.31 238.46 258.92 238.4 258.97" style="fill: rgb(255, 255, 255); transform-origin: 233.36px 256.14px;" id="elv4emg1vj39" class="animable"></polygon><polygon points="235.25 257.71 227.93 253.66 227.99 253.61 235.31 257.66 235.25 257.71" style="fill: rgb(255, 255, 255); transform-origin: 231.62px 255.66px;" id="elu9buycvf4c" class="animable"></polygon><polygon points="218.85 260.63 230.3 266.96 233.59 264.09 222.15 257.76 222.15 257.76 218.85 260.63 218.85 260.63" style="fill: rgb(69, 90, 100); transform-origin: 226.22px 262.36px;" id="elfv1azuiszhw" class="animable"></polygon><polygon points="231.36 267.55 230.3 266.96 231.31 266.08 231.36 267.55" style="fill: rgb(69, 90, 100); transform-origin: 230.83px 266.815px;" id="elsdmbtfb9y7" class="animable"></polygon><polygon points="232.31 264.28 222.17 258.67 222.23 258.62 232.37 264.22 232.31 264.28" style="fill: rgb(255, 255, 255); transform-origin: 227.27px 261.45px;" id="el2077vpfb8is" class="animable"></polygon><polygon points="229.86 263.41 221.83 258.97 221.9 258.91 229.93 263.35 229.86 263.41" style="fill: rgb(255, 255, 255); transform-origin: 225.88px 261.16px;" id="el48ig3nxss5t" class="animable"></polygon><polygon points="230.46 264.7 221.16 259.56 221.22 259.5 230.52 264.64 230.46 264.7" style="fill: rgb(255, 255, 255); transform-origin: 225.84px 262.1px;" id="elqzbi54wlnoi" class="animable"></polygon><polygon points="230.95 265.45 220.82 259.85 220.88 259.8 231.02 265.4 230.95 265.45" style="fill: rgb(255, 255, 255); transform-origin: 225.92px 262.625px;" id="elc9sjz2tsuy" class="animable"></polygon><polygon points="230.62 265.75 220.48 260.15 220.54 260.09 230.68 265.69 230.62 265.75" style="fill: rgb(255, 255, 255); transform-origin: 225.58px 262.92px;" id="el419yqut5yp" class="animable"></polygon><polygon points="227.47 264.49 220.14 260.44 220.21 260.39 227.53 264.44 227.47 264.49" style="fill: rgb(255, 255, 255); transform-origin: 223.835px 262.44px;" id="elk1ijtahbx7" class="animable"></polygon><polygon points="245.71 255.05 234.26 248.72 237.04 246.3 248.49 252.63 245.71 255.05" style="fill: rgb(56, 128, 255); transform-origin: 241.375px 250.675px;" id="elw3pofj8qi7" class="animable"></polygon><polygon points="233.2 248.13 234.26 248.72 235.27 247.84 233.2 248.13" style="fill: rgb(56, 128, 255); transform-origin: 234.235px 248.28px;" id="eldgvpelbxehs" class="animable"></polygon><polygon points="245.57 251.84 237.13 247.17 237.2 247.11 245.64 251.78 245.57 251.84" style="fill: rgb(255, 255, 255); transform-origin: 241.385px 249.475px;" id="elamwkouxif" class="animable"></polygon><polygon points="246.93 253.07 236.79 247.46 236.86 247.41 246.99 253.01 246.93 253.07" style="fill: rgb(255, 255, 255); transform-origin: 241.89px 250.24px;" id="elw6d8t2a5ra" class="animable"></polygon><polygon points="246.59 253.36 236.46 247.76 236.52 247.7 246.65 253.31 246.59 253.36" style="fill: rgb(255, 255, 255); transform-origin: 241.555px 250.53px;" id="elica16lmtlw" class="animable"></polygon><polygon points="245.45 253.21 236.12 248.05 236.18 248 245.51 253.16 245.45 253.21" style="fill: rgb(255, 255, 255); transform-origin: 240.815px 250.605px;" id="elzrw0v3xlta9" class="animable"></polygon><polygon points="245.91 253.95 235.78 248.35 235.84 248.29 245.98 253.9 245.91 253.95" style="fill: rgb(255, 255, 255); transform-origin: 240.88px 251.12px;" id="el4uyfeul8n08" class="animable"></polygon><polygon points="242.93 252.78 235.44 248.64 235.5 248.59 242.99 252.73 242.93 252.78" style="fill: rgb(255, 255, 255); transform-origin: 239.215px 250.685px;" id="elsaqoxuq109i" class="animable"></polygon><polygon points="243.19 257.24 231.75 250.91 233.81 249.11 245.26 255.44 243.19 257.24" style="fill: rgb(56, 128, 255); transform-origin: 238.505px 253.175px;" id="elhnv9zgcbc7l" class="animable"></polygon><polygon points="230.69 250.32 231.75 250.91 232.76 250.03 230.69 250.32" style="fill: rgb(56, 128, 255); transform-origin: 231.725px 250.47px;" id="el0a3spo9tqrqp" class="animable"></polygon><polygon points="244.02 255.57 233.9 249.98 233.97 249.93 244.08 255.52 244.02 255.57" style="fill: rgb(255, 255, 255); transform-origin: 238.99px 252.75px;" id="elr17gpmonkgf" class="animable"></polygon><polygon points="241.89 254.88 233.56 250.28 233.63 250.22 241.95 254.83 241.89 254.88" style="fill: rgb(255, 255, 255); transform-origin: 237.755px 252.55px;" id="elivzd7eclsd" class="animable"></polygon><polygon points="242.39 255.64 233.23 250.57 233.29 250.52 242.45 255.58 242.39 255.64" style="fill: rgb(255, 255, 255); transform-origin: 237.84px 253.08px;" id="el3id96u3v013" class="animable"></polygon><polygon points="239.96 254.77 232.89 250.87 232.95 250.81 240.02 254.72 239.96 254.77" style="fill: rgb(255, 255, 255); transform-origin: 236.455px 252.79px;" id="el3l2drkij7p" class="animable"></polygon><polygon points="235.43 264 223.98 257.67 226.89 255.14 238.33 261.47 235.43 264" style="fill: rgb(56, 128, 255); transform-origin: 231.155px 259.57px;" id="el0j67fcvdzsmd" class="animable"></polygon><polygon points="222.92 257.09 223.98 257.67 224.99 256.79 222.92 257.09" style="fill: rgb(56, 128, 255); transform-origin: 223.955px 257.23px;" id="ell37rvnr2d99" class="animable"></polygon><polygon points="235.55 262.18 225.98 256.89 226.04 256.83 235.61 262.12 235.55 262.18" style="fill: rgb(255, 255, 255); transform-origin: 230.795px 259.505px;" id="elrx3tustiiw8" class="animable"></polygon><polygon points="234.43 262.04 225.64 257.18 225.7 257.13 234.49 261.99 234.43 262.04" style="fill: rgb(255, 255, 255); transform-origin: 230.065px 259.585px;" id="elbrak525g4ae" class="animable"></polygon><polygon points="235.67 261.28 226.65 256.3 226.72 256.24 235.74 261.23 235.67 261.28" style="fill: rgb(255, 255, 255); transform-origin: 231.195px 258.76px;" id="elt2kvoqs3iv8" class="animable"></polygon><polygon points="237 261.54 226.99 256 227.05 255.95 237.06 261.48 237 261.54" style="fill: rgb(255, 255, 255); transform-origin: 232.025px 258.745px;" id="elnh33bz9mfui" class="animable"></polygon><polygon points="234.4 262.51 225.3 257.48 225.36 257.42 234.47 262.45 234.4 262.51" style="fill: rgb(255, 255, 255); transform-origin: 229.885px 259.965px;" id="eli6wtoo1t5s" class="animable"></polygon><polygon points="228.08 270.4 216.63 264.07 219.06 261.96 230.5 268.29 228.08 270.4" style="fill: rgb(56, 128, 255); transform-origin: 223.565px 266.18px;" id="el1tmgrasr11g" class="animable"></polygon><polygon points="215.57 263.49 216.63 264.07 217.65 263.19 215.57 263.49" style="fill: rgb(56, 128, 255); transform-origin: 216.61px 263.63px;" id="eldzka24ykt4w" class="animable"></polygon><polygon points="229.3 268.42 219.17 262.82 219.23 262.76 229.37 268.37 229.3 268.42" style="fill: rgb(255, 255, 255); transform-origin: 224.27px 265.59px;" id="elmsbrge9gq3h" class="animable"></polygon><polygon points="228.97 268.71 218.83 263.11 218.89 263.06 229.03 268.66 228.97 268.71" style="fill: rgb(255, 255, 255); transform-origin: 223.93px 265.885px;" id="eltirihhgao5m" class="animable"></polygon><polygon points="227.82 268.57 218.49 263.41 218.56 263.35 227.89 268.51 227.82 268.57" style="fill: rgb(255, 255, 255); transform-origin: 223.19px 265.96px;" id="el9y7fubq4l5o" class="animable"></polygon><polygon points="228.29 269.3 218.16 263.7 218.22 263.65 228.35 269.25 228.29 269.3" style="fill: rgb(255, 255, 255); transform-origin: 223.255px 266.475px;" id="elqehrsr3gjnn" class="animable"></polygon><polygon points="225.31 268.13 217.82 264 217.88 263.94 225.37 268.08 225.31 268.13" style="fill: rgb(255, 255, 255); transform-origin: 221.595px 266.035px;" id="ela4axuxtjko" class="animable"></polygon><path d="M222,277.14c-4.41-.75,11.55-7,12.69-12s-4-4.3-8.39-2.19c-15.18,7.33-25.16,5-33.68,13.09S222,277.14,222,277.14Z" style="fill: rgb(247, 169, 160); transform-origin: 213.112px 270.647px;" id="elvc5ywdhsn7q" class="animable"></path><path d="M209.8,268.57a35.28,35.28,0,0,0-8.83,1.69,21.58,21.58,0,0,0-7,4.45c-.09.08,0,.24.11.16,4.43-3.76,10.19-5,15.71-6.17C209.89,268.68,209.88,268.56,209.8,268.57Z" style="fill: rgb(38, 50, 56); transform-origin: 201.898px 271.731px;" id="elnwzrdmh0d3" class="animable"></path><path d="M156.5,278c3.24,1.56,28.29-.54,28.29-.54l7.36,34.87s-43.29,1.94-52.35-3.22-18-40.87-19.33-60.9c-1.24-18.83,7-29.42,16.42-8.41C136.89,239.77,154.8,277.15,156.5,278Z" style="fill: rgb(55, 71, 79); transform-origin: 156.248px 270.469px;" id="eljqg29ulz24f" class="animable"></path><path d="M184.26,312.55c-2.77.05-6.09.1-9.68.11l-6.24-34.22c3.25-.11,6.65-.31,9.5-.49C179.78,288.37,182.14,301,184.26,312.55Z" style="fill: rgb(56, 128, 255); transform-origin: 176.3px 295.305px;" id="elz76s21xfjan" class="animable"></path><path d="M170.83,312.63l-3.1,0-6.24-34.06h3C166.42,288.77,168.73,301.21,170.83,312.63Z" style="fill: rgb(56, 128, 255); transform-origin: 166.16px 295.6px;" id="el2ewk406qk0h" class="animable"></path><path d="M139.48,308c-7.35-5.67-13.31-29.28-14.44-33.91-.72-3-1.33-5.95-1.92-8.94-1.17-6-2.16-12-3-18a.08.08,0,0,0-.16,0c.25,4.58.73,9.16,1.42,13.71a49.12,49.12,0,0,1-1.73-5.44c0-.09-.17,0-.16,0a27.84,27.84,0,0,0,2,6.29c.72,4.57,1.65,9.11,2.8,13.59.34,1.29,6.95,30.08,15.56,34.25,3,1.44,13.93,2.67,16.32,2.58.1,0,.15-.12,0-.15C153.1,311.33,142.1,310,139.48,308Z" style="fill: rgb(38, 50, 56); transform-origin: 137.877px 279.602px;" id="ely9r4fjlvdvq" class="animable"></path><path d="M183.92,306.71c-.19-1.19-.4-2.38-.6-3.57-.41-2.38-2.94-16.55-4.34-21.09a.11.11,0,0,0-.21.05c.37,4.76,3.23,18.81,3.72,21.13.24,1.19.5,2.37.76,3.56s.66,2.35.92,3.54c0,.11.21.1.19,0C184.16,309.12,184.11,307.91,183.92,306.71Z" style="fill: rgb(38, 50, 56); transform-origin: 181.566px 296.197px;" id="el64ofj1zg9gj" class="animable"></path><path d="M184.79,277.49c-2-.28-20.6.54-24.7.69a8.12,8.12,0,0,1-3-.14,4.28,4.28,0,0,1-2-2.18c-1-1.7-11.52-22.73-12.36-23.83-.32-.41-.61-.53-.36.12.44,1.11,10.61,21.84,11.57,23.5s1.72,3.14,3.65,3.42c.86.12,25.91-.79,27.18-1.07C185,278,185.1,277.53,184.79,277.49Z" style="fill: rgb(38, 50, 56); transform-origin: 163.63px 265.387px;" id="elgtlskfqcaoc" class="animable"></path></g><defs>     <filter id="active" height="200%">         <feMorphology in="SourceAlpha" result="DILATED" operator="dilate" radius="2"></feMorphology>                <feFlood flood-color="#32DFEC" flood-opacity="1" result="PINK"></feFlood>        <feComposite in="PINK" in2="DILATED" operator="in" result="OUTLINE"></feComposite>        <feMerge>            <feMergeNode in="OUTLINE"></feMergeNode>            <feMergeNode in="SourceGraphic"></feMergeNode>        </feMerge>    </filter>    <filter id="hover" height="200%">        <feMorphology in="SourceAlpha" result="DILATED" operator="dilate" radius="2"></feMorphology>                <feFlood flood-color="#ff0000" flood-opacity="0.5" result="PINK"></feFlood>        <feComposite in="PINK" in2="DILATED" operator="in" result="OUTLINE"></feComposite>        <feMerge>            <feMergeNode in="OUTLINE"></feMergeNode>            <feMergeNode in="SourceGraphic"></feMergeNode>        </feMerge>            <feColorMatrix type="matrix" values="0   0   0   0   0                0   1   0   0   0                0   0   0   0   0                0   0   0   1   0 "></feColorMatrix>    </filter></defs></svg>