<svg class="animated" id="freepik_stories-new-entries" xmlns="http://www.w3.org/2000/svg" width="500" height="500" version="1.1" xmlns:xlink="http://www.w3.org/1999/xlink" xmlns:svgjs="http://svgjs.com/svgjs"><style>svg#freepik_stories-new-entries:not(.animated) .animable {opacity: 0;}svg#freepik_stories-new-entries.animated #freepik--background-complete--inject-6 {animation: 1s 1 forwards cubic-bezier(.36,-0.01,.5,1.38) slideLeft;animation-delay: 0s;}svg#freepik_stories-new-entries.animated #freepik--Window--inject-6 {animation: 1s 1 forwards cubic-bezier(.36,-0.01,.5,1.38) slideUp;animation-delay: 0s;}svg#freepik_stories-new-entries.animated #freepik--Floor--inject-6 {animation: 1s 1 forwards cubic-bezier(.36,-0.01,.5,1.38) fadeIn;animation-delay: 0s;}svg#freepik_stories-new-entries.animated #freepik--Character--inject-6 {animation: 1s 1 forwards cubic-bezier(.36,-0.01,.5,1.38) zoomIn;animation-delay: 0s;}svg#freepik_stories-new-entries.animated #freepik--Plant--inject-6 {animation: 1s 1 forwards cubic-bezier(.36,-0.01,.5,1.38) lightSpeedRight;animation-delay: 0s;}            @keyframes slideLeft {                0% {                    opacity: 0;                    transform: translateX(-30px);                }                100% {                    opacity: 1;                    transform: translateX(0);                }            }                    @keyframes slideUp {                0% {                    opacity: 0;                    transform: translateY(30px);                }                100% {                    opacity: 1;                    transform: inherit;                }            }                    @keyframes fadeIn {                0% {                    opacity: 0;                }                100% {                    opacity: 1;                }            }                    @keyframes zoomIn {                0% {                    opacity: 0;                    transform: scale(0.5);                }                100% {                    opacity: 1;                    transform: scale(1);                }            }                    @keyframes lightSpeedRight {              from {                transform: translate3d(50%, 0, 0) skewX(-20deg);                opacity: 0;              }              60% {                transform: skewX(10deg);                opacity: 1;              }              80% {                transform: skewX(-2deg);              }              to {                opacity: 1;                transform: translate3d(0, 0, 0);              }            }        </style><g id="freepik--background-complete--inject-6" class="animable" style="transform-origin: 251.745px 246.57px;"><path d="M85.21,381.56l-13.13.28-6.66.11c-2.22.05-4.46,0-6.69.05h-.45v-.45l-.05-11.19v-.5h.5l13.24.06c4.41,0,8.82.11,13.24.16h.27v.27c0,1.9-.09,3.78-.13,5.65Zm0,0-.14-5.66c0-1.86-.12-3.7-.14-5.53l.28.27c-4.42.05-8.83.16-13.24.16l-13.24.07.5-.5-.06,11.19-.44-.45c2.18,0,4.35,0,6.54.06l6.58.11Z" style="fill: rgb(235, 235, 235); transform-origin: 71.855px 375.93px;" id="elr38l7deq29" class="animable"></path><path d="M70.44,395.67,57.31,396l-6.66.11c-2.23.05-4.46,0-6.69.05h-.45v-.45l0-11.19V384H44L57.2,384c4.41,0,8.82.11,13.24.16h.27v.27c0,1.9-.09,3.78-.13,5.65Zm0,0L70.29,390c0-1.86-.11-3.7-.13-5.53l.28.27c-4.42.05-8.83.16-13.24.16L44,385l.49-.5-.05,11.19-.44-.45c2.18,0,4.35,0,6.54.06l6.58.11Z" style="fill: rgb(235, 235, 235); transform-origin: 57.11px 390.08px;" id="el01zycphmzxy9" class="animable"></path><rect x="73.5" y="384.48" width="26.48" height="11.19" style="fill: rgb(235, 235, 235); transform-origin: 86.74px 390.075px;" id="el99axi09ovp" class="animable"></rect><path d="M187.76,127l-13.12.28-6.66.11c-2.23,0-4.47,0-6.7.06h-.44V127l-.06-11.19v-.5h.5l13.24.07c4.42,0,8.83.11,13.24.16H188v.27c0,1.9-.09,3.79-.13,5.66Zm0,0-.14-5.65c0-1.86-.11-3.7-.13-5.54l.27.28c-4.41.05-8.82.16-13.24.16l-13.24.06.5-.5L161.73,127l-.45-.44c2.18,0,4.36,0,6.55.05l6.58.12Z" style="fill: rgb(235, 235, 235); transform-origin: 174.39px 121.38px;" id="elty0la7u342b" class="animable"></path><path d="M173,141.12l-13.12.28-6.66.11c-2.23.05-4.47,0-6.7.06h-.44v-.45L146,129.93v-.5h.5l13.24.07c4.41,0,8.83.11,13.24.16h.28v.27c0,1.9-.08,3.79-.13,5.66Zm0,0-.14-5.65c0-1.86-.11-3.7-.13-5.54l.27.28c-4.41,0-8.83.16-13.24.16l-13.24.06.5-.5,0,11.19-.45-.44c2.18,0,4.36,0,6.55,0l6.58.12Z" style="fill: rgb(235, 235, 235); transform-origin: 159.63px 135.5px;" id="elz988crr1h4i" class="animable"></path><rect x="176.05" y="129.93" width="26.48" height="11.19" style="fill: rgb(235, 235, 235); transform-origin: 189.29px 135.525px;" id="elku5t2sr7yi9" class="animable"></rect><rect x="414.79" y="384.48" width="26.48" height="11.19" style="fill: rgb(235, 235, 235); transform-origin: 428.03px 390.075px;" id="elvmlku1c9yd" class="animable"></rect><rect x="414.79" y="43.24" width="26.48" height="11.19" style="fill: rgb(235, 235, 235); transform-origin: 428.03px 48.835px;" id="elgqj6xxrz2o" class="animable"></rect><path d="M456,68.54l-13.12.28-6.66.11c-2.23,0-4.46,0-6.7.06h-.44v-.45l-.06-11.19v-.5h.5l13.24.07c4.42,0,8.83.11,13.24.16h.28v.27c0,1.9-.09,3.79-.13,5.66Zm0,0-.14-5.65c0-1.86-.11-3.71-.13-5.54l.27.28c-4.41,0-8.82.15-13.24.16l-13.24.06.5-.5L430,68.54l-.45-.44c2.19,0,4.36,0,6.55.05l6.58.11Z" style="fill: rgb(235, 235, 235); transform-origin: 442.65px 62.92px;" id="elfkhna1vkvcu" class="animable"></path><path d="M70.44,54.45l-13.13.27-6.66.12c-2.23,0-4.46,0-6.69,0h-.45v-.44l0-11.19v-.51H44l13.24.06c4.41,0,8.82.11,13.24.16h.27v.27c0,1.89-.09,3.78-.13,5.65Zm0,0-.15-5.66c0-1.86-.11-3.7-.13-5.53l.28.27c-4.42,0-8.83.16-13.24.16L44,43.75l.49-.49L44.4,54.45,44,54c2.18,0,4.35,0,6.54,0l6.58.12Z" style="fill: rgb(235, 235, 235); transform-origin: 57.13px 48.77px;" id="el2yatzrj7gea" class="animable"></path><g id="elkoqbrz8e8qf"><rect x="217.72" y="343.09" width="26.48" height="11.19" style="fill: rgb(235, 235, 235); transform-origin: 230.96px 348.685px; transform: rotate(180deg);" class="animable"></rect></g><path d="M232.49,329l13.12-.28,6.67-.11c2.22,0,4.46,0,6.69,0h.44V329l.05,11.19v.5H259l-13.24-.06c-4.41,0-8.83-.12-13.24-.17h-.28v-.27c0-1.9.08-3.79.13-5.65Zm0,0,.14,5.65c.05,1.87.11,3.71.13,5.54l-.27-.27c4.41,0,8.83-.16,13.24-.17l13.24-.06-.5.5,0-11.19.45.45c-2.18,0-4.36,0-6.55-.06l-6.57-.11Z" style="fill: rgb(235, 235, 235); transform-origin: 245.85px 334.65px;" id="elpf2v1cstlo8" class="animable"></path><path d="M293.21,228.16H49.45V44H293.21Zm-242.76-1H292.21V45H50.45Z" style="fill: rgb(235, 235, 235); transform-origin: 171.33px 136.08px;" id="eld59uoyne9xs" class="animable"></path><path d="M58.56,49.16a2.31,2.31,0,1,1-2.31-2.31A2.31,2.31,0,0,1,58.56,49.16Z" style="fill: rgb(166, 166, 166); transform-origin: 56.25px 49.16px;" id="elndx5x7qp169" class="animable"></path><path d="M68,49.16a2.31,2.31,0,1,1-2.31-2.31A2.3,2.3,0,0,1,68,49.16Z" style="fill: rgb(235, 235, 235); transform-origin: 65.69px 49.16px;" id="elh1m2mxzw5t" class="animable"></path><path d="M77.4,49.16a2.31,2.31,0,1,1-2.3-2.31A2.3,2.3,0,0,1,77.4,49.16Z" style="fill: rgb(66, 140, 255); transform-origin: 75.09px 49.16px;" id="elv7swhvhdpb" class="animable"></path><rect x="49.95" y="53.18" width="242.77" height="1" style="fill: rgb(235, 235, 235); transform-origin: 171.335px 53.68px;" id="eli5an64q2l5e" class="animable"></rect><polygon points="339.46 426.15 456.22 426.15 459.98 352.06 335.7 352.06 339.46 426.15" style="fill: rgb(235, 235, 235); transform-origin: 397.84px 389.105px;" id="elrb80xfvco" class="animable"></polygon><path d="M447.71,386H344.79l-1.42-25.81h106Zm-102-1h101l1.53-23.81H344.43Z" style="fill: rgb(219, 219, 219); transform-origin: 396.37px 373.095px;" id="elg9cyviv2aqm" class="animable"></path><path d="M446.31,415.61H347.75l-1.16-23.31H447.77Zm-97.61-1h96.68l1.33-21.31H347.64Z" style="fill: rgb(219, 219, 219); transform-origin: 397.18px 403.955px;" id="elsf7lr4fptz" class="animable"></path><path d="M408.11,376H386.24l-.81-6.29h23.5Zm-21-1h20.12l.55-4.29H386.56Z" style="fill: rgb(219, 219, 219); transform-origin: 397.18px 372.855px;" id="ele5e5yu4xq7k" class="animable"></path><path d="M408.11,407.1H386.24l-.81-6.29h23.5Zm-21-1h20.12l.55-4.29H386.56Z" style="fill: rgb(219, 219, 219); transform-origin: 397.18px 403.955px;" id="el4eejokou7hz" class="animable"></path><polygon points="355.65 426.15 354.52 434.22 352.24 450.44 347.78 450.44 347.78 426.15 355.65 426.15" style="fill: rgb(235, 235, 235); transform-origin: 351.715px 438.295px;" id="elmsw93hvmrq" class="animable"></polygon><polygon points="355.65 426.15 354.52 434.22 347.78 434.22 347.78 426.15 355.65 426.15" style="fill: rgb(219, 219, 219); transform-origin: 351.715px 430.185px;" id="el22w60ilpwlw" class="animable"></polygon><polygon points="440.03 426.15 441.17 434.22 443.45 450.44 447.9 450.44 447.9 426.15 440.03 426.15" style="fill: rgb(235, 235, 235); transform-origin: 443.965px 438.295px;" id="ela4eeu613d5v" class="animable"></polygon><polygon points="440.03 426.15 441.17 434.22 447.9 434.22 447.9 426.15 440.03 426.15" style="fill: rgb(219, 219, 219); transform-origin: 443.965px 430.185px;" id="el60gvp336hw9" class="animable"></polygon><rect x="401.46" y="62.16" width="55.45" height="67.26" style="fill: rgb(235, 235, 235); transform-origin: 429.185px 95.79px;" id="elik5juh2i70s" class="animable"></rect><rect x="407.8" y="68.3" width="42.78" height="54.98" style="fill: rgb(255, 255, 255); transform-origin: 429.19px 95.79px;" id="ellbicxuby07" class="animable"></rect><rect x="407.8" y="68.3" width="1.67" height="54.98" style="fill: rgb(199, 199, 199); transform-origin: 408.635px 95.79px;" id="elagcyly93747" class="animable"></rect><rect x="456.91" y="62.16" width="1.67" height="67.26" style="fill: rgb(199, 199, 199); transform-origin: 457.745px 95.79px;" id="elusjdl5dp1ij" class="animable"></rect><g id="elb6m2ood2ots"><rect x="430.14" y="81.01" width="10.09" height="30.05" style="fill: rgb(235, 235, 235); transform-origin: 435.185px 96.035px; transform: rotate(180deg);" class="animable"></rect></g><path d="M445.13,91.1h-27.9V75.38h27.9Zm-26.9-1h25.9V76.38h-25.9Z" style="fill: rgb(235, 235, 235); transform-origin: 431.18px 83.24px;" id="elwm79949vk2p" class="animable"></path><rect x="401.46" y="227.9" width="55.45" height="67.26" style="fill: rgb(235, 235, 235); transform-origin: 429.185px 261.53px;" id="elwwairj9nxbp" class="animable"></rect><rect x="407.8" y="234.04" width="42.78" height="54.98" style="fill: rgb(255, 255, 255); transform-origin: 429.19px 261.53px;" id="el1940qvfjm7v" class="animable"></rect><rect x="407.8" y="234.04" width="1.67" height="54.98" style="fill: rgb(199, 199, 199); transform-origin: 408.635px 261.53px;" id="el49u39kffd5l" class="animable"></rect><rect x="456.91" y="227.9" width="1.67" height="67.26" style="fill: rgb(199, 199, 199); transform-origin: 457.745px 261.53px;" id="elbayy4wgak7c" class="animable"></rect><rect x="422.13" y="246.75" width="10.09" height="30.05" style="fill: rgb(235, 235, 235); transform-origin: 427.175px 261.775px;" id="elz2ryzagjho" class="animable"></rect><path d="M445.13,256.84h-27.9V241.12h27.9Zm-26.9-1h25.9V242.12h-25.9Z" style="fill: rgb(235, 235, 235); transform-origin: 431.18px 248.98px;" id="el9ad2xjwug8" class="animable"></path><rect x="401.46" y="145.33" width="55.45" height="67.26" style="fill: rgb(235, 235, 235); transform-origin: 429.185px 178.96px;" id="el3m0ze3rmnbr" class="animable"></rect><rect x="407.8" y="151.47" width="42.78" height="54.98" style="fill: rgb(255, 255, 255); transform-origin: 429.19px 178.96px;" id="elagrjcb3r8r8" class="animable"></rect><rect x="407.8" y="151.47" width="1.67" height="54.98" style="fill: rgb(199, 199, 199); transform-origin: 408.635px 178.96px;" id="ela2neifcwqwq" class="animable"></rect><rect x="456.91" y="145.33" width="1.67" height="67.26" style="fill: rgb(199, 199, 199); transform-origin: 457.745px 178.96px;" id="elfipdjw6mbi" class="animable"></rect><rect x="425.04" y="165.68" width="8.64" height="21.85" style="fill: rgb(235, 235, 235); transform-origin: 429.36px 176.605px;" id="elig6zszehno" class="animable"></rect><path d="M443.28,194.52H419.07V178.46h24.21Zm-23.21-1h22.21V179.46H420.07Z" style="fill: rgb(219, 219, 219); transform-origin: 431.175px 186.49px;" id="elwlf1fcls6qa" class="animable"></path></g><g id="freepik--Window--inject-6" class="animable" style="transform-origin: 249.88px 187.395px;"><rect x="76.04" y="63.41" width="347.93" height="248.11" style="fill: rgb(255, 255, 255); transform-origin: 250.005px 187.465px;" id="el8om1f9bhal4" class="animable"></rect><path d="M424,311.52,76,311.88h-.36v-.36L75.54,63.41v-.5H76l347.92.2h.3v.3Zm0,0-.3-248.11.3.3L76,63.91l.5-.5L76.4,311.52l-.36-.36Z" style="fill: rgb(199, 199, 199); transform-origin: 249.88px 187.395px;" id="eljy5w88r1i1i" class="animable"></path><rect x="76.04" y="63.41" width="347.93" height="9.67" style="fill: rgb(55, 71, 79); transform-origin: 250.005px 68.245px;" id="elnp31rjz376" class="animable"></rect><path d="M83.72,68.24a2.4,2.4,0,1,1-2.4-2.4A2.39,2.39,0,0,1,83.72,68.24Z" style="fill: rgb(199, 199, 199); transform-origin: 81.32px 68.24px;" id="elj0ps8ddqia" class="animable"></path><path d="M93.52,68.24a2.4,2.4,0,1,1-2.4-2.4A2.4,2.4,0,0,1,93.52,68.24Z" style="fill: rgb(255, 255, 255); transform-origin: 91.12px 68.24px;" id="el5jtypgtf4rs" class="animable"></path><path d="M103.31,68.24a2.4,2.4,0,1,1-2.4-2.4A2.39,2.39,0,0,1,103.31,68.24Z" style="fill: rgb(66, 140, 255); transform-origin: 100.91px 68.24px;" id="el7gf0o3tbmp2" class="animable"></path><path d="M118.53,103.71a.7.7,0,1,1-1.4,0V96.29h0a.7.7,0,0,1,.28-.59.71.71,0,0,1,1,.15l4.12,5.71V96.29a.7.7,0,0,1,.69-.69.71.71,0,0,1,.71.69v7.42a.69.69,0,0,1-1.23.45.27.27,0,0,1-.07-.08l-4.08-5.67Z" style="fill: rgb(66, 140, 255); transform-origin: 120.53px 99.9894px;" id="el7zphs8qri5i" class="animable"></path><path d="M126.39,101.22A3.16,3.16,0,0,1,129.51,98a3.06,3.06,0,0,1,3.08,3v.07a.45.45,0,0,1,0,.11.62.62,0,0,1-.67.51h-4.06a1.58,1.58,0,0,0,.43.84,2,2,0,0,0,1.23.58,2.1,2.1,0,0,0,1.33-.32.73.73,0,0,1,1,0,.59.59,0,0,1,0,.83,3.22,3.22,0,0,1-2.29.85A3.18,3.18,0,0,1,126.39,101.22Zm1.39-.62h3.62a2.08,2.08,0,0,0-1.89-1.36A1.79,1.79,0,0,0,127.78,100.6Z" style="fill: rgb(66, 140, 255); transform-origin: 129.491px 101.236px;" id="elcat0bz42sm" class="animable"></path><path d="M142.52,99.05l-2.11,5a.45.45,0,0,1,0,.1,0,0,0,0,1,0,0s0,0-.06.08h0l-.08.07s0,0,0,0a.41.41,0,0,1-.11.07h0l-.1,0h0a.27.27,0,0,1-.13,0,.25.25,0,0,1-.12,0h0l-.09,0h0a.38.38,0,0,1-.11-.08h0a.27.27,0,0,1-.08-.07h0s-.05,0-.06-.08a0,0,0,0,1,0,0,.45.45,0,0,1-.05-.1l-.94-2.21-.9,2.21-.07.1h0l-.07.08h0l-.07.08-.12.08h0l-.07,0h0a.32.32,0,0,1-.13,0,.22.22,0,0,1-.12,0h0l-.08,0h0a.38.38,0,0,1-.11-.08s0,0,0,0l-.08-.07h0a.35.35,0,0,0,0-.08s0,0,0,0a.44.44,0,0,0-.06-.1l-2.1-5a.66.66,0,0,1,.37-.88.64.64,0,0,1,.85.38l1.5,3.44.9-2.14a.69.69,0,0,1,.62-.41.67.67,0,0,1,.63.41l.91,2.14,1.51-3.44a.63.63,0,0,1,.85-.38A.66.66,0,0,1,142.52,99.05Z" style="fill: rgb(66, 140, 255); transform-origin: 138.601px 101.253px;" id="elwa6kawj815b" class="animable"></path><path d="M148.7,101.22A3.17,3.17,0,0,1,151.82,98a3.06,3.06,0,0,1,3.08,3v.07a.45.45,0,0,1,0,.11.62.62,0,0,1-.67.51h-4.06a1.58,1.58,0,0,0,.43.84,2,2,0,0,0,1.23.58,2.1,2.1,0,0,0,1.33-.32.73.73,0,0,1,1,0,.58.58,0,0,1,0,.83,3.22,3.22,0,0,1-2.29.85A3.19,3.19,0,0,1,148.7,101.22Zm1.4-.62h3.61a2.08,2.08,0,0,0-1.89-1.36A1.78,1.78,0,0,0,150.1,100.6Z" style="fill: rgb(66, 140, 255); transform-origin: 151.801px 101.236px;" id="elulz19p2f76k" class="animable"></path><path d="M162.27,100.68v3.06a.68.68,0,0,1-.67.68.69.69,0,0,1-.68-.68v-3.06a1.31,1.31,0,0,0-1.32-1.29,1.28,1.28,0,0,0-1.28,1.29v3.06a.22.22,0,0,1,0,.13.7.7,0,0,1-.68.55.67.67,0,0,1-.67-.68v-5a.66.66,0,0,1,.67-.67.69.69,0,0,1,.63.39A2.58,2.58,0,0,1,159.6,98,2.67,2.67,0,0,1,162.27,100.68Z" style="fill: rgb(66, 140, 255); transform-origin: 159.62px 101.21px;" id="el0w7rqiekznl" class="animable"></path><path d="M167.65,98.73a.72.72,0,0,1-.71.7h-.32V103a.71.71,0,0,1,0,1.42A1.43,1.43,0,0,1,165.2,103V99.43h-.37a.7.7,0,0,1-.71-.7.69.69,0,0,1,.71-.7h.37V96.17a.71.71,0,0,1,1.42,0V98h.32A.7.7,0,0,1,167.65,98.73Z" style="fill: rgb(66, 140, 255); transform-origin: 165.885px 99.94px;" id="elobpz5nf9ooc" class="animable"></path><path d="M172.93,98.7a.68.68,0,0,1-.68.68,1.23,1.23,0,0,0-.76.24,1.84,1.84,0,0,0-.59.62,3.67,3.67,0,0,0-.52,1.07v2.43a.7.7,0,0,1-.71.68.69.69,0,0,1-.68-.68v-5a.67.67,0,0,1,.68-.66.68.68,0,0,1,.71.66v.09a1.23,1.23,0,0,1,.26-.25,2.85,2.85,0,0,1,1.61-.5A.66.66,0,0,1,172.93,98.7Z" style="fill: rgb(66, 140, 255); transform-origin: 170.96px 101.25px;" id="elhwxgofqu4ab" class="animable"></path><path d="M179.43,98.7v4.83a3,3,0,0,1-4.37,2.74.67.67,0,0,1-.34-.91.71.71,0,0,1,.91-.28,1.65,1.65,0,0,0,.74.18,1.69,1.69,0,0,0,1.6-1.16,2.52,2.52,0,0,1-1.21.3,2.69,2.69,0,0,1-2.68-2.68v-3a.68.68,0,0,1,.67-.67.65.65,0,0,1,.68.67v3a1.32,1.32,0,0,0,2.64,0v-3a.65.65,0,0,1,.67-.67A.68.68,0,0,1,179.43,98.7Z" style="fill: rgb(66, 140, 255); transform-origin: 176.755px 102.325px;" id="elf51eucu32an" class="animable"></path><path d="M109.5,100a5.49,5.49,0,1,1-5.49-5.5A5.49,5.49,0,0,1,109.5,100Z" style="fill: rgb(66, 140, 255); transform-origin: 104.01px 99.99px;" id="elqaald05l9r" class="animable"></path><rect x="103.38" y="96.89" width="1" height="6.2" style="fill: rgb(255, 255, 255); transform-origin: 103.88px 99.99px;" id="eld5j4hfc2kj" class="animable"></rect><g id="eli7wbmhwm1h"><rect x="103.38" y="96.89" width="1" height="6.2" style="fill: rgb(255, 255, 255); transform-origin: 103.88px 99.99px; transform: rotate(90deg);" class="animable"></rect></g><path d="M119,121h-1.34a.16.16,0,0,1-.16-.16.16.16,0,0,1,.16-.15h3a.15.15,0,0,1,.15.15.16.16,0,0,1-.15.16h-1.35v4a.15.15,0,0,1-.15.15A.16.16,0,0,1,119,125Z" style="fill: rgb(166, 166, 166); transform-origin: 119.155px 122.92px;" id="elij1o45n226" class="animable"></path><path d="M121.62,121.17a.15.15,0,0,1,.15-.15.16.16,0,0,1,.16.15v.15a.16.16,0,1,1-.31,0Zm0,1a.16.16,0,0,1,.15-.16.16.16,0,0,1,.16.16V125a.16.16,0,0,1-.16.15.15.15,0,0,1-.15-.15Z" style="fill: rgb(166, 166, 166); transform-origin: 121.775px 123.085px;" id="el6ucwy6d25xo" class="animable"></path><path d="M124.5,122.2a.16.16,0,0,1-.15.15H124v2.28a.25.25,0,0,0,.23.23.18.18,0,0,1,.16.16.17.17,0,0,1-.16.15.53.53,0,0,1-.55-.54v-2.28h-.39c-.16,0-.16-.08-.16-.15s0-.16.16-.16h.39v-1.16a.15.15,0,0,1,.15-.15.17.17,0,0,1,.17.15V122h.4A.16.16,0,0,1,124.5,122.2Z" style="fill: rgb(166, 166, 166); transform-origin: 123.819px 122.95px;" id="elt471h2vcn8o" class="animable"></path><path d="M126,120.85a.16.16,0,0,1,.32,0V125a.16.16,0,0,1-.32,0Z" style="fill: rgb(166, 166, 166); transform-origin: 126.16px 122.925px;" id="elckoimknnac7" class="animable"></path><path d="M127.62,123.61a1.55,1.55,0,0,1,1.52-1.57,1.53,1.53,0,0,1,1.51,1.46h0a.15.15,0,0,1-.15.15h-2.57a1.23,1.23,0,0,0,1.21,1.2,1.18,1.18,0,0,0,1-.57.15.15,0,0,1,.21,0,.16.16,0,0,1,0,.21,1.5,1.5,0,0,1-1.27.71A1.54,1.54,0,0,1,127.62,123.61Zm.33-.25h2.37a1.2,1.2,0,0,0-2.37,0Z" style="fill: rgb(166, 166, 166); transform-origin: 129.135px 123.62px;" id="el3i1xd82t5c6" class="animable"></path><path d="M339.57,142.82l-.95,1.32a.1.1,0,0,1-.09.05h0a.09.09,0,0,1-.09-.05l-.95-1.32v2.45a.1.1,0,0,1-.1.1.1.1,0,0,1-.11-.1v-2.76a.12.12,0,0,1,0-.08,0,0,0,0,0,0,0,.11.11,0,0,1,.15,0l1.06,1.47,1.05-1.47a.11.11,0,0,1,.15,0l0,0a.08.08,0,0,1,0,0v2.76a.1.1,0,0,1-.11.1.09.09,0,0,1-.1-.1Z" style="fill: rgb(166, 166, 166); transform-origin: 338.482px 143.885px;" id="elwfxtqoipnyb" class="animable"></path><path d="M342.57,143.39v1.88a.1.1,0,0,1-.1.1.09.09,0,0,1-.1-.1V145a1,1,0,0,1-.79.41,1,1,0,0,1,0-2.08,1,1,0,0,1,.79.41v-.31a.09.09,0,0,1,.1-.1A.1.1,0,0,1,342.57,143.39Zm-.2.94a.79.79,0,1,0-.79.84A.82.82,0,0,0,342.37,144.33Z" style="fill: rgb(166, 166, 166); transform-origin: 341.555px 144.37px;" id="el4c84qgv2f57" class="animable"></path><path d="M343.38,145.21l.64-.87-.64-.88a.11.11,0,0,1,0-.14.11.11,0,0,1,.14,0l.61.82.6-.82a.09.09,0,0,1,.13,0,.1.1,0,0,1,0,.14l-.64.88.64.87a.1.1,0,0,1,0,.14s0,0-.05,0-.07,0-.08,0l-.6-.82-.61.82a.09.09,0,0,1-.08,0,.07.07,0,0,1-.06,0A.11.11,0,0,1,343.38,145.21Z" style="fill: rgb(166, 166, 166); transform-origin: 344.122px 144.326px;" id="elo9hjo19s28" class="animable"></path><path d="M346.06,145a.21.21,0,0,1,0,.42.21.21,0,1,1,0-.42Z" style="fill: rgb(166, 166, 166); transform-origin: 346.06px 145.21px;" id="el3v4vwsfeyei" class="animable"></path><path d="M348,145.19l1.39-1.26a.75.75,0,0,0,.26-.57.77.77,0,0,0-.77-.76.76.76,0,0,0-.52.2l-.14.13a.1.1,0,0,1-.15,0,.1.1,0,0,1,0-.14l.14-.14a1,1,0,0,1,.66-.25.94.94,0,0,1,.72.32,1,1,0,0,1,.25.65,1,1,0,0,1-.31.73l-1.2,1.08h1.41a.1.1,0,0,1,0,.2h-1.68s-.06,0-.07,0A.11.11,0,0,1,348,145.19Z" style="fill: rgb(166, 166, 166); transform-origin: 348.89px 143.89px;" id="el91bababfrg" class="animable"></path><path d="M350.56,145.08a.11.11,0,0,1,0-.15.12.12,0,0,1,.16,0,.8.8,0,0,0,1.12,0,.8.8,0,0,0,.24-.57.8.8,0,0,0-.23-.56.81.81,0,0,0-1.13,0,.09.09,0,0,1-.15,0l0,0h0a0,0,0,0,1,0,0v0l.14-1.21s0-.05.05-.07a.07.07,0,0,1,.06,0h1.39a.11.11,0,0,1,0,.22h-1.3l-.1.88a1,1,0,0,1,.5-.14,1,1,0,0,1,.72.3,1,1,0,0,1,.29.71,1,1,0,0,1-.29.72,1,1,0,0,1-.72.29A1,1,0,0,1,350.56,145.08Z" style="fill: rgb(166, 166, 166); transform-origin: 351.425px 144.007px;" id="el5ngz3yjr0ht" class="animable"></path><path d="M353.12,143.88a1.84,1.84,0,0,1,.29-1,.93.93,0,0,1,.74-.45,1,1,0,0,1,.75.45,1.92,1.92,0,0,1,.29,1,1.9,1.9,0,0,1-.29,1,.94.94,0,0,1-.75.45.91.91,0,0,1-.74-.45A1.82,1.82,0,0,1,353.12,143.88Zm.21,0a1.73,1.73,0,0,0,.25.93.73.73,0,0,0,.57.36.72.72,0,0,0,.57-.36,1.78,1.78,0,0,0,0-1.85.67.67,0,0,0-.57-.36.68.68,0,0,0-.57.36A1.72,1.72,0,0,0,353.33,143.88Z" style="fill: rgb(166, 166, 166); transform-origin: 354.155px 143.88px;" id="elqmhw88p9hn" class="animable"></path><path d="M357.4,144.33a1,1,0,0,1,1.07-1,1,1,0,0,1,.66.23.09.09,0,0,1,0,.14.1.1,0,0,1-.14,0,.92.92,0,0,0-.54-.18.84.84,0,1,0,0,1.68A.92.92,0,0,0,359,145a.11.11,0,0,1,.14,0,.1.1,0,0,1,0,.15,1.07,1.07,0,0,1-.66.22A1,1,0,0,1,357.4,144.33Z" style="fill: rgb(166, 166, 166); transform-origin: 358.286px 144.35px;" id="el08dsyxuyeei" class="animable"></path><path d="M361.51,144.11a.66.66,0,0,0-1.32,0v1.16h0v0a.1.1,0,0,1-.06.05h0a.11.11,0,0,1-.08,0l0,0v-2.82a.11.11,0,0,1,.1-.1.11.11,0,0,1,.11.1v1.1a.88.88,0,0,1,.66-.3.83.83,0,0,1,.87.82v1.16a.1.1,0,0,1-.11.1.1.1,0,0,1-.1-.1Z" style="fill: rgb(166, 166, 166); transform-origin: 360.92px 143.89px;" id="elcqsilxtqxm" class="animable"></path><path d="M364.51,143.39v1.88a.09.09,0,0,1-.1.1.1.1,0,0,1-.1-.1V145a1,1,0,0,1-.78.41,1,1,0,0,1,0-2.08,1,1,0,0,1,.78.41v-.31a.1.1,0,0,1,.1-.1A.09.09,0,0,1,364.51,143.39Zm-.2.94a.79.79,0,1,0-.78.84A.81.81,0,0,0,364.31,144.33Z" style="fill: rgb(166, 166, 166); transform-origin: 363.5px 144.369px;" id="elgtbgn94cexv" class="animable"></path><path d="M365.4,143.39a.1.1,0,0,1,.11-.1.09.09,0,0,1,.09.1v.46l0,0a1,1,0,0,1,.84-.51.09.09,0,0,1,.1.1.1.1,0,0,1-.1.11.77.77,0,0,0-.61.34,1.84,1.84,0,0,0-.25.48.08.08,0,0,0,0,0v.91a.09.09,0,0,1-.09.1.1.1,0,0,1-.11-.1Z" style="fill: rgb(166, 166, 166); transform-origin: 365.96px 144.335px;" id="elctvwfzu8u48" class="animable"></path><path d="M368.92,143.39v1.88a.1.1,0,0,1-.11.1.1.1,0,0,1-.1-.1V145a1,1,0,0,1-.78.41,1,1,0,0,1,0-2.08,1,1,0,0,1,.78.41v-.31a.1.1,0,0,1,.1-.1A.1.1,0,0,1,368.92,143.39Zm-.21.94a.79.79,0,1,0-.78.84A.81.81,0,0,0,368.71,144.33Z" style="fill: rgb(166, 166, 166); transform-origin: 367.905px 144.369px;" id="eldeniljqbaa" class="animable"></path><path d="M369.65,144.33a1.05,1.05,0,0,1,1.08-1,1,1,0,0,1,.66.23.11.11,0,0,1,0,.14.1.1,0,0,1-.14,0,.92.92,0,0,0-.54-.18.84.84,0,1,0,0,1.68.92.92,0,0,0,.54-.18.11.11,0,0,1,.14,0,.11.11,0,0,1,0,.15,1,1,0,0,1-.65.22A1.05,1.05,0,0,1,369.65,144.33Z" style="fill: rgb(166, 166, 166); transform-origin: 370.535px 144.36px;" id="elx2zohq50of" class="animable"></path><path d="M373,143.39a.12.12,0,0,1-.11.1h-.26V145a.17.17,0,0,0,.15.16.1.1,0,1,1,0,.2.35.35,0,0,1-.37-.36v-1.52h-.26c-.1,0-.1-.05-.1-.1s0-.1.1-.1h.26v-.78a.11.11,0,0,1,.1-.1.12.12,0,0,1,.12.1v.78h.26A.12.12,0,0,1,373,143.39Z" style="fill: rgb(166, 166, 166); transform-origin: 372.525px 143.88px;" id="elee10zbr5ho5" class="animable"></path><path d="M373.62,144.33a1,1,0,0,1,1-1,1,1,0,0,1,1,1h0v0a.09.09,0,0,1-.1.09h-1.71a.82.82,0,0,0,.81.8.8.8,0,0,0,.67-.38.1.1,0,0,1,.14,0,.11.11,0,0,1,0,.14,1,1,0,0,1-.84.47A1,1,0,0,1,373.62,144.33Zm.22-.16h1.58a.8.8,0,0,0-1.58,0Z" style="fill: rgb(166, 166, 166); transform-origin: 374.616px 144.39px;" id="elrsxsr9q0rzd" class="animable"></path><path d="M376.28,143.39a.09.09,0,0,1,.1-.1.1.1,0,0,1,.1.1v.46l0,0a1,1,0,0,1,.84-.51.1.1,0,0,1,.1.1.11.11,0,0,1-.1.11.75.75,0,0,0-.61.34,1.84,1.84,0,0,0-.25.48.08.08,0,0,0,0,0v.91a.1.1,0,0,1-.1.1.09.09,0,0,1-.1-.1Z" style="fill: rgb(166, 166, 166); transform-origin: 376.84px 144.335px;" id="ele8hm9xao9q6" class="animable"></path><path d="M378,144.94a.11.11,0,0,1,.15,0,1.13,1.13,0,0,0,.64.24.59.59,0,0,0,.39-.13.3.3,0,0,0,.16-.25.31.31,0,0,0-.15-.26,1,1,0,0,0-.44-.15h0a1,1,0,0,1-.47-.16.44.44,0,0,1-.23-.37.53.53,0,0,1,.23-.41.86.86,0,0,1,.51-.14,1.12,1.12,0,0,1,.62.22.11.11,0,0,1,0,.15.11.11,0,0,1-.14,0,.86.86,0,0,0-.51-.21.66.66,0,0,0-.4.12.33.33,0,0,0-.13.24.27.27,0,0,0,.12.21,1.07,1.07,0,0,0,.43.14h0a1.4,1.4,0,0,1,.5.17.52.52,0,0,1,.24.43.54.54,0,0,1-.24.42.91.91,0,0,1-.52.16,1.26,1.26,0,0,1-.77-.29A.11.11,0,0,1,378,144.94Z" style="fill: rgb(166, 166, 166); transform-origin: 378.747px 144.335px;" id="elrucdmtb8r09" class="animable"></path><rect x="117.42" y="129.61" width="262.43" height="10.24" style="fill: rgb(235, 235, 235); transform-origin: 248.635px 134.73px;" id="el01fgexhldawk" class="animable"></rect><path d="M119.92,178.09a2.39,2.39,0,0,1,1.45.49.16.16,0,0,1,0,.23.14.14,0,0,1-.21,0,2,2,0,0,0-1.26-.43,2,2,0,1,0,0,3.91,1.9,1.9,0,0,0,1.24-.44.16.16,0,0,1,.23,0,.15.15,0,0,1,0,.22,2.39,2.39,0,0,1-1.45.49,2.27,2.27,0,1,1,0-4.54Z" style="fill: rgb(166, 166, 166); transform-origin: 119.448px 180.29px;" id="elxkbovjn1lid" class="animable"></path><path d="M125.28,179.65v2.83a.15.15,0,1,1-.3,0V182a1.47,1.47,0,0,1-1.18.62,1.57,1.57,0,0,1,0-3.13,1.46,1.46,0,0,1,1.18.61v-.46a.15.15,0,0,1,.3,0Zm-.3,1.41a1.18,1.18,0,1,0-1.18,1.26A1.23,1.23,0,0,0,125,181.06Z" style="fill: rgb(166, 166, 166); transform-origin: 123.818px 181.06px;" id="elq5luub4xieq" class="animable"></path><path d="M127.71,179.65a.17.17,0,0,1-.16.16h-.4v2.28a.25.25,0,0,0,.23.23.16.16,0,1,1,0,.31.53.53,0,0,1-.55-.54v-2.28h-.39c-.15,0-.15-.08-.15-.16s0-.15.15-.15h.39v-1.16a.17.17,0,0,1,.15-.16.17.17,0,0,1,.17.16v1.16h.4A.17.17,0,0,1,127.71,179.65Z" style="fill: rgb(166, 166, 166); transform-origin: 127px 180.407px;" id="el9eisuee32r" class="animable"></path><path d="M128.69,181.07a1.52,1.52,0,0,1,3-.11h0v0a.15.15,0,0,1-.15.14H129a1.22,1.22,0,0,0,1.21,1.2,1.15,1.15,0,0,0,1-.57.16.16,0,0,1,.21-.05.17.17,0,0,1,0,.22,1.5,1.5,0,0,1-1.27.71A1.54,1.54,0,0,1,128.69,181.07Zm.33-.25h2.37a1.2,1.2,0,0,0-2.37,0Z" style="fill: rgb(166, 166, 166); transform-origin: 130.19px 181.172px;" id="elsdiyfmoiqra" class="animable"></path><path d="M135.54,182.38a1.47,1.47,0,0,1-1.47,1.47,1.59,1.59,0,0,1-.65-.15.15.15,0,0,1-.07-.2.15.15,0,0,1,.21-.07,1.09,1.09,0,0,0,.51.11,1.16,1.16,0,0,0,1.17-1.16V182a1.44,1.44,0,0,1-1.17.61,1.56,1.56,0,0,1,0-3.11,1.44,1.44,0,0,1,1.17.61v-.46a.16.16,0,0,1,.16-.15.15.15,0,0,1,.14.15Zm-.3-1.33a1.17,1.17,0,1,0-2.34,0,1.17,1.17,0,1,0,2.34,0Z" style="fill: rgb(166, 166, 166); transform-origin: 134.087px 181.675px;" id="elv32d8jrvmg" class="animable"></path><path d="M138.36,179.5a1.57,1.57,0,1,1-1.48,1.56A1.53,1.53,0,0,1,138.36,179.5Zm0,2.82a1.26,1.26,0,1,0-1.17-1.26A1.23,1.23,0,0,0,138.36,182.32Z" style="fill: rgb(166, 166, 166); transform-origin: 138.45px 181.067px;" id="el72wb0r47isb" class="animable"></path><path d="M140.9,179.66a.16.16,0,0,1,.16-.16.16.16,0,0,1,.14.16v.69a.35.35,0,0,1,.05-.08,1.5,1.5,0,0,1,1.25-.77.16.16,0,0,1,.15.16.15.15,0,0,1-.15.15,1.14,1.14,0,0,0-.91.51,3,3,0,0,0-.38.73.13.13,0,0,0,0,0v1.38a.15.15,0,0,1-.14.15.15.15,0,0,1-.16-.15Z" style="fill: rgb(166, 166, 166); transform-origin: 141.775px 181.04px;" id="elfojrin9tr3a" class="animable"></path><path d="M143.44,179.65a.15.15,0,0,1,.15-.15.15.15,0,0,1,.16.15v1.7a1,1,0,0,0,1,1,1,1,0,0,0,1-1v-1.7a.11.11,0,0,1,0-.08v0a0,0,0,0,0,0,0s0,0,.06,0h.07s.05,0,.08,0a.09.09,0,0,1,0,.05.1.1,0,0,1,0,.07v2.73a1.47,1.47,0,0,1-1.49,1.47,1.54,1.54,0,0,1-.64-.15.15.15,0,0,1-.06-.2.15.15,0,0,1,.19-.08,1.16,1.16,0,0,0,.51.12,1.17,1.17,0,0,0,1.19-1.16v-.2a1.32,1.32,0,0,1-1,.44,1.27,1.27,0,0,1-1.27-1.27Z" style="fill: rgb(166, 166, 166); transform-origin: 144.678px 181.695px;" id="el1wun3rb3ykn" class="animable"></path><path d="M339.57,200.28l-.95,1.32a.12.12,0,0,1-.09.05h0a.11.11,0,0,1-.09-.05l-.95-1.32v2.45a.11.11,0,0,1-.1.1.11.11,0,0,1-.11-.1V200a.09.09,0,0,1,0-.08h0a.12.12,0,0,1,.15,0l1.06,1.47,1.05-1.47a.12.12,0,0,1,.15,0l0,0a.14.14,0,0,1,0,.06v2.76a.11.11,0,0,1-.11.1.1.1,0,0,1-.1-.1Z" style="fill: rgb(166, 166, 166); transform-origin: 338.482px 201.367px;" id="eli7jxf2w1s79" class="animable"></path><path d="M342.57,200.85v1.88a.11.11,0,0,1-.1.1.1.1,0,0,1-.1-.1v-.31a1,1,0,0,1-1.77-.63,1,1,0,0,1,1-1,1,1,0,0,1,.79.41v-.3a.1.1,0,0,1,.1-.11A.11.11,0,0,1,342.57,200.85Zm-.2.94a.79.79,0,1,0-1.57,0,.79.79,0,1,0,1.57,0Z" style="fill: rgb(166, 166, 166); transform-origin: 341.585px 201.81px;" id="eltal8723zr6n" class="animable"></path><path d="M343.38,202.67l.64-.87-.64-.88a.12.12,0,0,1,0-.15.1.1,0,0,1,.14,0l.61.82.6-.82a.09.09,0,0,1,.13,0,.11.11,0,0,1,0,.15l-.64.88.64.87a.1.1,0,0,1,0,.14l-.05,0s-.07,0-.08,0l-.6-.82-.61.82a.09.09,0,0,1-.08,0l-.06,0A.11.11,0,0,1,343.38,202.67Z" style="fill: rgb(166, 166, 166); transform-origin: 344.122px 201.78px;" id="elann7lsnt7h" class="animable"></path><path d="M346.06,202.4a.22.22,0,0,1,.21.22.21.21,0,0,1-.21.21.21.21,0,0,1-.22-.21A.22.22,0,0,1,346.06,202.4Z" style="fill: rgb(166, 166, 166); transform-origin: 346.055px 202.615px;" id="eljex68w9uxmn" class="animable"></path><path d="M348,202.65l1.39-1.26a.75.75,0,0,0,.06-1.08.75.75,0,0,0-.57-.25.8.8,0,0,0-.52.19l-.14.14a.11.11,0,0,1-.15,0,.1.1,0,0,1,0-.14l.14-.14a1,1,0,0,1,.66-.25.94.94,0,0,1,.72.32,1,1,0,0,1-.06,1.37l-1.2,1.08h1.41a.1.1,0,0,1,.1.11.1.1,0,0,1-.1.1h-1.68a.08.08,0,0,1-.07,0A.11.11,0,0,1,348,202.65Z" style="fill: rgb(166, 166, 166); transform-origin: 348.89px 201.354px;" id="elvi199zl0uv" class="animable"></path><path d="M350.56,202.54a.11.11,0,0,1,0-.15.12.12,0,0,1,.16,0,.82.82,0,0,0,.56.23.79.79,0,0,0,.56-.24.76.76,0,0,0,.24-.56.79.79,0,0,0-.23-.56.79.79,0,0,0-1.13,0,.11.11,0,0,1-.15,0l0,0h0s0,0,0,0v0l.14-1.2a.1.1,0,0,1,.05-.08l.06,0h1.39a.11.11,0,0,1,.11.11.1.1,0,0,1-.11.1h-1.3l-.1.89a1,1,0,0,1,.5-.14,1,1,0,0,1,.72.3,1,1,0,0,1,.29.71,1,1,0,0,1-.29.72,1,1,0,0,1-1.44,0Z" style="fill: rgb(166, 166, 166); transform-origin: 351.425px 201.478px;" id="ellcrs4tbpr4q" class="animable"></path><path d="M353.12,201.34a1.82,1.82,0,0,1,.29-1,.91.91,0,0,1,.74-.45.94.94,0,0,1,.75.45,2,2,0,0,1,0,2.08.94.94,0,0,1-.75.45.91.91,0,0,1-.74-.45A1.82,1.82,0,0,1,353.12,201.34Zm.21,0a1.69,1.69,0,0,0,.25.92.71.71,0,0,0,.57.36.69.69,0,0,0,.57-.36,1.76,1.76,0,0,0,0-1.84.67.67,0,0,0-.57-.36.68.68,0,0,0-.57.36A1.69,1.69,0,0,0,353.33,201.34Z" style="fill: rgb(166, 166, 166); transform-origin: 354.155px 201.38px;" id="elzx06q91i0h" class="animable"></path><path d="M357.4,201.78a1,1,0,0,1,1.07-1,1.08,1.08,0,0,1,.66.23.09.09,0,0,1,0,.14.1.1,0,0,1-.14,0,.87.87,0,0,0-.54-.19.85.85,0,1,0,0,1.69.87.87,0,0,0,.54-.19.11.11,0,0,1,.14,0,.1.1,0,0,1,0,.15,1.07,1.07,0,0,1-.66.22A1,1,0,0,1,357.4,201.78Z" style="fill: rgb(166, 166, 166); transform-origin: 358.281px 201.805px;" id="elnfvevg0n81" class="animable"></path><path d="M361.51,201.57a.66.66,0,0,0-1.32,0v1.16h0v0s0,0,0,0a.1.1,0,0,1-.06.05h0a.11.11,0,0,1-.08,0l0,0V200a.11.11,0,0,1,.1-.1.11.11,0,0,1,.11.1v1.1a.85.85,0,0,1,.66-.31.83.83,0,0,1,.87.83v1.16a.11.11,0,0,1-.11.1.11.11,0,0,1-.1-.1Z" style="fill: rgb(166, 166, 166); transform-origin: 360.92px 201.39px;" id="elie04n28e0o8" class="animable"></path><path d="M364.51,200.85v1.88a.1.1,0,0,1-.1.1.11.11,0,0,1-.1-.1v-.31a1,1,0,0,1-.78.41,1,1,0,0,1,0-2.09,1,1,0,0,1,.78.41v-.3a.11.11,0,0,1,.1-.11A.1.1,0,0,1,364.51,200.85Zm-.2.94a.79.79,0,1,0-.78.84A.81.81,0,0,0,364.31,201.79Z" style="fill: rgb(166, 166, 166); transform-origin: 363.498px 201.785px;" id="elb5xst4nhrkr" class="animable"></path><path d="M365.4,200.85a.1.1,0,0,1,.11-.1.09.09,0,0,1,.09.1v.46l0-.05a1,1,0,0,1,.84-.51.1.1,0,0,1,0,.2.79.79,0,0,0-.61.34,1.86,1.86,0,0,0-.25.49v.95a.09.09,0,0,1-.09.1.1.1,0,0,1-.11-.1Z" style="fill: rgb(166, 166, 166); transform-origin: 365.96px 201.79px;" id="elp18e9a96ug" class="animable"></path><path d="M368.92,200.85v1.88a.11.11,0,0,1-.11.1.11.11,0,0,1-.1-.1v-.31a1,1,0,0,1-.78.41,1,1,0,0,1,0-2.09,1,1,0,0,1,.78.41v-.3a.11.11,0,0,1,.1-.11A.11.11,0,0,1,368.92,200.85Zm-.21.94a.79.79,0,1,0-.78.84A.81.81,0,0,0,368.71,201.79Z" style="fill: rgb(166, 166, 166); transform-origin: 367.903px 201.785px;" id="elalusplrhd2o" class="animable"></path><path d="M369.65,201.78a1.05,1.05,0,0,1,1.08-1,1.08,1.08,0,0,1,.66.23.11.11,0,0,1,0,.14.1.1,0,0,1-.14,0,.87.87,0,0,0-.54-.19.85.85,0,1,0,0,1.69.87.87,0,0,0,.54-.19.11.11,0,0,1,.14,0,.11.11,0,0,1,0,.15,1,1,0,0,1-.65.22A1.06,1.06,0,0,1,369.65,201.78Z" style="fill: rgb(166, 166, 166); transform-origin: 370.535px 201.805px;" id="eljtixvfs52va" class="animable"></path><path d="M373,200.85a.12.12,0,0,1-.11.1h-.26v1.52a.16.16,0,0,0,.15.15.13.13,0,0,1,.11.11.12.12,0,0,1-.11.1.35.35,0,0,1-.37-.36V201h-.26c-.1,0-.1,0-.1-.1s0-.11.1-.11h.26V200a.11.11,0,0,1,.1-.1.12.12,0,0,1,.12.1v.77h.26A.12.12,0,0,1,373,200.85Z" style="fill: rgb(166, 166, 166); transform-origin: 372.525px 201.365px;" id="elz2to5l2hxcn" class="animable"></path><path d="M373.62,201.79a1,1,0,0,1,2-.08h0a.09.09,0,0,1-.1.1h-1.71a.82.82,0,0,0,.81.8.8.8,0,0,0,.67-.38.11.11,0,0,1,.14,0,.12.12,0,0,1,0,.15,1,1,0,0,1-.84.47A1,1,0,0,1,373.62,201.79Zm.22-.16h1.58a.8.8,0,0,0-.78-.68A.81.81,0,0,0,373.84,201.63Z" style="fill: rgb(166, 166, 166); transform-origin: 374.619px 201.8px;" id="elexc5gsb3si8" class="animable"></path><path d="M376.28,200.85a.09.09,0,0,1,.1-.1.1.1,0,0,1,.1.1v.46l0-.05a1,1,0,0,1,.84-.51.1.1,0,0,1,0,.2.78.78,0,0,0-.61.34,1.86,1.86,0,0,0-.25.49v.95a.1.1,0,0,1-.1.1.09.09,0,0,1-.1-.1Z" style="fill: rgb(166, 166, 166); transform-origin: 376.84px 201.79px;" id="elo42l4new4ro" class="animable"></path><path d="M378,202.4a.11.11,0,0,1,.15,0,1.07,1.07,0,0,0,.64.25.59.59,0,0,0,.39-.13.3.3,0,0,0,.16-.26.31.31,0,0,0-.15-.25,1.1,1.1,0,0,0-.44-.16h0a1.18,1.18,0,0,1-.47-.16.46.46,0,0,1-.23-.38.54.54,0,0,1,.23-.41.93.93,0,0,1,.51-.14,1.12,1.12,0,0,1,.62.23.1.1,0,0,1,0,.14.1.1,0,0,1-.14,0,.92.92,0,0,0-.51-.2.66.66,0,0,0-.4.11.34.34,0,0,0-.13.24.25.25,0,0,0,.12.21.93.93,0,0,0,.43.15h0a1.4,1.4,0,0,1,.5.17.49.49,0,0,1,0,.84.85.85,0,0,1-.52.17,1.21,1.21,0,0,1-.77-.3A.1.1,0,0,1,378,202.4Z" style="fill: rgb(166, 166, 166); transform-origin: 378.746px 201.79px;" id="el4daqp8qlak1" class="animable"></path><rect x="117.42" y="187.07" width="262.43" height="10.24" style="fill: rgb(235, 235, 235); transform-origin: 248.635px 192.19px;" id="el0qy6j4jc9rfj" class="animable"></rect><path d="M118,211.36h0a.15.15,0,0,1-.14-.16V207a.16.16,0,0,1,.15-.16h.84a2.24,2.24,0,0,1,0,4.48Zm.83-.32a1.92,1.92,0,1,0,0-3.84h-.68V211Z" style="fill: rgb(166, 166, 166); transform-origin: 119.472px 209.1px;" id="elzmn9zu7btsp" class="animable"></path><path d="M122.1,209.8a1.52,1.52,0,0,1,3-.12h0v0a.15.15,0,0,1-.15.14h-2.57a1.23,1.23,0,0,0,1.21,1.2,1.18,1.18,0,0,0,1-.57.14.14,0,0,1,.2,0,.17.17,0,0,1,.06.22,1.5,1.5,0,0,1-1.27.71A1.55,1.55,0,0,1,122.1,209.8Zm.33-.25h2.37a1.2,1.2,0,0,0-2.37,0Z" style="fill: rgb(166, 166, 166); transform-origin: 123.6px 209.919px;" id="el1bf7ypfrgtc" class="animable"></path><path d="M126,210.7a.16.16,0,0,1,.22,0,1.64,1.64,0,0,0,1,.36,1,1,0,0,0,.6-.19.48.48,0,0,0,.24-.38.53.53,0,0,0-.23-.39,1.56,1.56,0,0,0-.66-.23h0a1.8,1.8,0,0,1-.7-.25.64.64,0,0,1-.34-.56.76.76,0,0,1,.34-.61,1.29,1.29,0,0,1,.76-.21,1.76,1.76,0,0,1,.94.33.17.17,0,0,1,0,.22.16.16,0,0,1-.21.05,1.33,1.33,0,0,0-.77-.32.92.92,0,0,0-.59.18.46.46,0,0,0-.2.36.37.37,0,0,0,.18.31,1.44,1.44,0,0,0,.64.22h0a2.13,2.13,0,0,1,.76.26.75.75,0,0,1,.35.64.77.77,0,0,1-.36.63,1.26,1.26,0,0,1-.78.25,1.93,1.93,0,0,1-1.15-.45A.15.15,0,0,1,126,210.7Z" style="fill: rgb(166, 166, 166); transform-origin: 127.149px 209.805px;" id="el07jvtxbe3dg6" class="animable"></path><path d="M129.14,209.79a1.57,1.57,0,0,1,1.61-1.56,1.61,1.61,0,0,1,1,.34.14.14,0,0,1,0,.21.16.16,0,0,1-.21,0,1.26,1.26,0,0,0-.8-.28,1.26,1.26,0,1,0,0,2.52,1.31,1.31,0,0,0,.8-.27.14.14,0,0,1,.21,0,.14.14,0,0,1,0,.22,1.6,1.6,0,0,1-2.59-1.23Z" style="fill: rgb(166, 166, 166); transform-origin: 130.472px 209.771px;" id="elpshr5jxcnep" class="animable"></path><path d="M133,208.39a.16.16,0,0,1,.16-.16.16.16,0,0,1,.15.16v.69l0-.08a1.53,1.53,0,0,1,1.26-.77.16.16,0,0,1,.15.16.15.15,0,0,1-.15.15,1.14,1.14,0,0,0-.91.51,3,3,0,0,0-.38.73.11.11,0,0,0,0,.05v1.37a.16.16,0,0,1-.15.16.16.16,0,0,1-.16-.16Z" style="fill: rgb(166, 166, 166); transform-origin: 133.845px 209.795px;" id="elxh7wrtek0x" class="animable"></path><path d="M135.83,207.36a.16.16,0,0,1,.15-.16.16.16,0,0,1,.16.16v.14a.16.16,0,1,1-.31,0Zm0,1a.15.15,0,0,1,.15-.15.15.15,0,0,1,.16.15v2.82a.16.16,0,0,1-.16.16.16.16,0,0,1-.15-.16Z" style="fill: rgb(166, 166, 166); transform-origin: 135.985px 209.27px;" id="el57ab25hmdak" class="animable"></path><path d="M137.62,209.84v-1.46a.15.15,0,0,1,.15-.15.16.16,0,0,1,.16.15v.45a1.49,1.49,0,0,1,1.19-.6,1.56,1.56,0,0,1,0,3.11,1.48,1.48,0,0,1-1.19-.62v1.79a.16.16,0,0,1-.16.16.16.16,0,0,1-.15-.16Zm.31-.06a1.2,1.2,0,1,0,2.39,0,1.22,1.22,0,0,0-1.2-1.24,1.21,1.21,0,0,0-1.19,1.19Z" style="fill: rgb(166, 166, 166); transform-origin: 139.088px 210.45px;" id="elh5pw2qdf5t" class="animable"></path><path d="M142.93,208.38a.16.16,0,0,1-.16.15h-.4v2.28a.24.24,0,0,0,.23.23.18.18,0,0,1,.16.16.17.17,0,0,1-.16.16.54.54,0,0,1-.55-.55v-2.28h-.39c-.15,0-.15-.07-.15-.15s0-.15.15-.15h.39v-1.17a.16.16,0,0,1,.32,0v1.17h.4A.16.16,0,0,1,142.93,208.38Z" style="fill: rgb(166, 166, 166); transform-origin: 142.22px 209.13px;" id="els4wbp6mp3o" class="animable"></path><path d="M144.4,207.36a.16.16,0,0,1,.15-.16.16.16,0,0,1,.16.16v.14a.16.16,0,1,1-.31,0Zm0,1a.15.15,0,0,1,.15-.15.15.15,0,0,1,.16.15v2.82a.16.16,0,0,1-.16.16.16.16,0,0,1-.15-.16Z" style="fill: rgb(166, 166, 166); transform-origin: 144.555px 209.27px;" id="ely1goy0tp7k" class="animable"></path><path d="M147.52,208.23a1.57,1.57,0,1,1-1.48,1.56A1.53,1.53,0,0,1,147.52,208.23Zm0,2.82a1.26,1.26,0,1,0-1.17-1.26A1.23,1.23,0,0,0,147.52,211.05Z" style="fill: rgb(166, 166, 166); transform-origin: 147.61px 209.797px;" id="el2s2cp8him24" class="animable"></path><path d="M152.42,209.5a1,1,0,0,0-1-1,1,1,0,0,0-1,1v1.73a.09.09,0,0,1,0,.07.13.13,0,0,1-.11.06h0a.22.22,0,0,1-.1-.09,0,0,0,0,1,0,0v-2.87a.16.16,0,0,1,.16-.16.15.15,0,0,1,.14.16v.3a1.27,1.27,0,0,1,2.25.81v1.7a.16.16,0,0,1-.16.16.16.16,0,0,1-.15-.16Z" style="fill: rgb(166, 166, 166); transform-origin: 151.485px 209.804px;" id="elcv8b29tab6w" class="animable"></path><path d="M339.06,261.43l-.95,1.33a.14.14,0,0,1-.09.05h0a.11.11,0,0,1-.09-.05l-.95-1.32v2.45a.11.11,0,0,1-.1.1.11.11,0,0,1-.11-.1v-2.76a.09.09,0,0,1,0-.08h0a.12.12,0,0,1,.15,0l1.06,1.47,1.05-1.47a.12.12,0,0,1,.15,0l0,0s0,0,0,.06v2.76a.1.1,0,0,1-.2,0Z" style="fill: rgb(166, 166, 166); transform-origin: 337.97px 262.507px;" id="elr5ioz3jt7m" class="animable"></path><path d="M342.06,262v1.88a.11.11,0,0,1-.1.1.1.1,0,0,1-.1-.1v-.31a1,1,0,0,1-.79.41,1,1,0,0,1,0-2.09,1,1,0,0,1,.79.41V262a.1.1,0,0,1,.1-.11A.11.11,0,0,1,342.06,262Zm-.2.94a.79.79,0,1,0-1.57,0,.79.79,0,1,0,1.57,0Z" style="fill: rgb(166, 166, 166); transform-origin: 341.042px 262.935px;" id="elkwah20l0u7m" class="animable"></path><path d="M342.87,263.83l.64-.88-.64-.87a.12.12,0,0,1,0-.15.1.1,0,0,1,.14,0l.6.82.6-.82a.1.1,0,0,1,.14,0,.11.11,0,0,1,0,.15l-.64.87.64.88a.1.1,0,0,1,0,.14l-.05,0a.11.11,0,0,1-.09,0l-.6-.82-.6.82a.09.09,0,0,1-.08,0l-.06,0A.11.11,0,0,1,342.87,263.83Z" style="fill: rgb(166, 166, 166); transform-origin: 343.612px 262.94px;" id="elvaiwdrb1pr" class="animable"></path><path d="M345.54,263.56a.22.22,0,0,1,.22.22.21.21,0,0,1-.22.21.21.21,0,0,1-.21-.21A.21.21,0,0,1,345.54,263.56Z" style="fill: rgb(166, 166, 166); transform-origin: 345.545px 263.775px;" id="elyd45h3xdfym" class="animable"></path><path d="M347.54,263.7a.11.11,0,0,1,0-.15.09.09,0,0,1,.15,0,.82.82,0,0,0,.56.23.8.8,0,0,0,.57-.24.79.79,0,0,0,.23-.56.83.83,0,0,0-.23-.57.8.8,0,0,0-.56-.23.8.8,0,0,0-.57.24.11.11,0,0,1-.15,0,.05.05,0,0,1,0,0h0v-.06l.15-1.2a.09.09,0,0,1,0-.08l.07,0h1.39a.1.1,0,0,1,.1.1.1.1,0,0,1-.1.11h-1.3l-.11.89a1,1,0,0,1,.51-.14,1,1,0,0,1,.71.29,1,1,0,0,1,0,1.44,1,1,0,0,1-.72.29A1,1,0,0,1,347.54,263.7Z" style="fill: rgb(166, 166, 166); transform-origin: 348.388px 262.57px;" id="el6h0oewm9v3i" class="animable"></path><path d="M350.1,262.5a1.9,1.9,0,0,1,.28-1,.84.84,0,0,1,1.49,0,2,2,0,0,1,0,2.08.84.84,0,0,1-1.49,0A1.9,1.9,0,0,1,350.1,262.5Zm.2,0a1.61,1.61,0,0,0,.26.92.69.69,0,0,0,.57.36.72.72,0,0,0,.57-.36,1.69,1.69,0,0,0,.25-.92,1.73,1.73,0,0,0-.25-.93.71.71,0,0,0-.57-.35.68.68,0,0,0-.57.35A1.65,1.65,0,0,0,350.3,262.5Z" style="fill: rgb(166, 166, 166); transform-origin: 351.13px 262.54px;" id="elxfch0c5e7h" class="animable"></path><path d="M353.12,262.5a1.82,1.82,0,0,1,.29-1,.91.91,0,0,1,.74-.45.94.94,0,0,1,.75.45,2,2,0,0,1,0,2.08.94.94,0,0,1-.75.45.91.91,0,0,1-.74-.45A1.82,1.82,0,0,1,353.12,262.5Zm.21,0a1.69,1.69,0,0,0,.25.92.71.71,0,0,0,.57.36.69.69,0,0,0,.57-.36,1.61,1.61,0,0,0,.26-.92,1.65,1.65,0,0,0-.26-.93.68.68,0,0,0-.57-.35.7.7,0,0,0-.57.35A1.73,1.73,0,0,0,353.33,262.5Z" style="fill: rgb(166, 166, 166); transform-origin: 354.155px 262.54px;" id="el7zrpmyehcqh" class="animable"></path><path d="M357.4,262.94a1,1,0,0,1,1.07-1,1.08,1.08,0,0,1,.66.23.09.09,0,0,1,0,.14.11.11,0,0,1-.14,0,.87.87,0,0,0-.54-.19.85.85,0,1,0,0,1.69.87.87,0,0,0,.54-.19.11.11,0,0,1,.14,0,.1.1,0,0,1,0,.15,1.14,1.14,0,0,1-.66.22A1,1,0,0,1,357.4,262.94Z" style="fill: rgb(166, 166, 166); transform-origin: 358.281px 262.965px;" id="elaa20n68dmpc" class="animable"></path><path d="M361.51,262.72a.66.66,0,0,0-1.32,0v1.17h0s0,0,0,0h0a.09.09,0,0,1-.06.06h0a.11.11,0,0,1-.08,0l0,0v-2.81a.11.11,0,0,1,.1-.1.11.11,0,0,1,.11.1v1.1a.85.85,0,0,1,.66-.31.83.83,0,0,1,.87.82v1.17a.11.11,0,0,1-.11.1.11.11,0,0,1-.1-.1Z" style="fill: rgb(166, 166, 166); transform-origin: 360.92px 262.53px;" id="elgg5rkxic13" class="animable"></path><path d="M364.51,262v1.88a.1.1,0,0,1-.1.1.11.11,0,0,1-.1-.1v-.31a1,1,0,0,1-.78.41,1,1,0,0,1,0-2.09,1,1,0,0,1,.78.41V262a.11.11,0,0,1,.1-.11A.1.1,0,0,1,364.51,262Zm-.2.94a.79.79,0,1,0-.78.84A.81.81,0,0,0,364.31,263Z" style="fill: rgb(166, 166, 166); transform-origin: 363.498px 262.935px;" id="elzerwj2lumij" class="animable"></path><path d="M365.4,262a.1.1,0,0,1,.11-.1.09.09,0,0,1,.09.1v.46l0-.05a1,1,0,0,1,.84-.51.09.09,0,0,1,.1.1.1.1,0,0,1-.1.1.77.77,0,0,0-.61.34,1.86,1.86,0,0,0-.25.49,0,0,0,0,0,0,0v.92a.09.09,0,0,1-.09.1.1.1,0,0,1-.11-.1Z" style="fill: rgb(166, 166, 166); transform-origin: 365.96px 262.925px;" id="elw4wajx6mtoo" class="animable"></path><path d="M368.92,262v1.88a.11.11,0,0,1-.11.1.11.11,0,0,1-.1-.1v-.31a1,1,0,0,1-.78.41,1,1,0,0,1,0-2.09,1,1,0,0,1,.78.41V262a.11.11,0,0,1,.1-.11A.11.11,0,0,1,368.92,262Zm-.21.94a.79.79,0,1,0-.78.84A.81.81,0,0,0,368.71,263Z" style="fill: rgb(166, 166, 166); transform-origin: 367.903px 262.935px;" id="elgs7pvmr9dsn" class="animable"></path><path d="M369.65,262.94a1.05,1.05,0,0,1,1.08-1,1.08,1.08,0,0,1,.66.23.11.11,0,0,1,0,.14.11.11,0,0,1-.14,0,.87.87,0,0,0-.54-.19.85.85,0,1,0,0,1.69.87.87,0,0,0,.54-.19.11.11,0,0,1,.14,0,.11.11,0,0,1,0,.15,1.08,1.08,0,0,1-.65.22A1.06,1.06,0,0,1,369.65,262.94Z" style="fill: rgb(166, 166, 166); transform-origin: 370.535px 262.965px;" id="el4xqdj9cp25m" class="animable"></path><path d="M373,262a.12.12,0,0,1-.11.1h-.26v1.52a.16.16,0,0,0,.15.15.13.13,0,0,1,.11.11.12.12,0,0,1-.11.1.35.35,0,0,1-.37-.36v-1.52h-.26c-.1,0-.1-.05-.1-.1s0-.11.1-.11h.26v-.77a.11.11,0,0,1,.1-.1.12.12,0,0,1,.12.1v.77h.26A.12.12,0,0,1,373,262Z" style="fill: rgb(166, 166, 166); transform-origin: 372.525px 262.5px;" id="elrnr8fsp3f5p" class="animable"></path><path d="M373.62,263a1,1,0,0,1,2-.08h0c0,.06,0,.09-.1.09h-1.71a.83.83,0,0,0,.81.81.8.8,0,0,0,.67-.38.11.11,0,0,1,.14,0,.12.12,0,0,1,0,.15,1,1,0,0,1-.84.47A1,1,0,0,1,373.62,263Zm.22-.17h1.58a.8.8,0,0,0-.78-.67A.81.81,0,0,0,373.84,262.78Z" style="fill: rgb(166, 166, 166); transform-origin: 374.619px 263.01px;" id="elp3dq5y1yvsd" class="animable"></path><path d="M376.28,262a.09.09,0,0,1,.1-.1.1.1,0,0,1,.1.1v.46l0-.05a1,1,0,0,1,.84-.51.1.1,0,0,1,.1.1.11.11,0,0,1-.1.1.75.75,0,0,0-.61.34,1.86,1.86,0,0,0-.25.49,0,0,0,0,0,0,0v.92a.1.1,0,0,1-.1.1.09.09,0,0,1-.1-.1Z" style="fill: rgb(166, 166, 166); transform-origin: 376.84px 262.925px;" id="elnzhg5h9po3l" class="animable"></path><path d="M378,263.56a.1.1,0,0,1,.15,0,1.07,1.07,0,0,0,.64.25.65.65,0,0,0,.39-.13.3.3,0,0,0,.16-.26c0-.1,0-.16-.15-.25a1.1,1.1,0,0,0-.44-.16h0a1.36,1.36,0,0,1-.47-.16.46.46,0,0,1-.23-.38.54.54,0,0,1,.23-.41.93.93,0,0,1,.51-.14,1.12,1.12,0,0,1,.62.23.1.1,0,0,1,0,.14.1.1,0,0,1-.14,0,.93.93,0,0,0-.51-.21.66.66,0,0,0-.4.12.34.34,0,0,0-.13.24.25.25,0,0,0,.12.21,1.06,1.06,0,0,0,.43.15h0a1.4,1.4,0,0,1,.5.17.49.49,0,0,1,0,.84.85.85,0,0,1-.52.17,1.21,1.21,0,0,1-.77-.3A.1.1,0,0,1,378,263.56Z" style="fill: rgb(166, 166, 166); transform-origin: 378.746px 262.95px;" id="el4pvqd5kfoc8" class="animable"></path><rect x="117.42" y="215.8" width="262.43" height="42.67" style="fill: rgb(235, 235, 235); transform-origin: 248.635px 237.135px;" id="elxlxdnx9d8nb" class="animable"></rect><path d="M120.24,152.74h-2l-.4,1.06a.16.16,0,0,1-.15.1h0a.16.16,0,0,1-.09-.21l1.55-4.15a.17.17,0,0,1,.15-.09.18.18,0,0,1,.16.09l1.55,4.15a.17.17,0,0,1-.09.21h0a.18.18,0,0,1-.15-.1Zm-1.92-.31h1.81l-.9-2.4Z" style="fill: rgb(166, 166, 166); transform-origin: 119.304px 151.675px;" id="elfcup8wo3tjc" class="animable"></path><path d="M121.73,150.92a.16.16,0,0,1,.15-.16.16.16,0,0,1,.16.16v1.7a1,1,0,0,0,.95,1,1,1,0,0,0,1-1v-1.7a.16.16,0,0,1,.15-.16.16.16,0,0,1,.16.16v1.7A1.28,1.28,0,0,1,123,153.9a1.27,1.27,0,0,1-1.26-1.28Z" style="fill: rgb(166, 166, 166); transform-origin: 123.015px 152.33px;" id="eladkmmbn0ttq" class="animable"></path><path d="M126.8,150.92a.16.16,0,0,1-.15.16h-.4v2.28a.25.25,0,0,0,.23.23.16.16,0,1,1,0,.31.53.53,0,0,1-.55-.54v-2.28h-.39c-.15,0-.15-.08-.15-.16s0-.15.15-.15h.39v-1.16a.17.17,0,0,1,.15-.16.17.17,0,0,1,.17.16v1.16h.4A.16.16,0,0,1,126.8,150.92Z" style="fill: rgb(166, 166, 166); transform-origin: 126.095px 151.677px;" id="elu2e55i1n9v" class="animable"></path><path d="M130.44,152a1,1,0,0,0-2,0v1.82a.2.2,0,0,1-.1.08h-.05a.18.18,0,0,1-.12-.05s0,0,0,0a.09.09,0,0,1,0-.05v-4.17a.15.15,0,0,1,.15-.15.16.16,0,0,1,.16.15v1.65a1.31,1.31,0,0,1,1-.46,1.24,1.24,0,0,1,1.31,1.23v1.75a.16.16,0,0,1-.16.15.15.15,0,0,1-.15-.15Z" style="fill: rgb(166, 166, 166); transform-origin: 129.478px 151.715px;" id="elkdgo4thn1qs" class="animable"></path><path d="M133.4,150.77a1.57,1.57,0,1,1-1.49,1.57A1.54,1.54,0,0,1,133.4,150.77Zm0,2.82a1.26,1.26,0,0,0,0-2.52,1.26,1.26,0,0,0,0,2.52Z" style="fill: rgb(166, 166, 166); transform-origin: 133.48px 152.338px;" id="elfco3hexz2ii" class="animable"></path><path d="M135.93,150.93a.15.15,0,0,1,.16-.15.15.15,0,0,1,.15.15v.69a.3.3,0,0,1,0-.08,1.51,1.51,0,0,1,1.25-.76.16.16,0,0,1,.16.15.16.16,0,0,1-.16.15,1.14,1.14,0,0,0-.91.51,2.87,2.87,0,0,0-.37.73.13.13,0,0,0,0,.05v1.38a.15.15,0,0,1-.15.15.15.15,0,0,1-.16-.15Z" style="fill: rgb(166, 166, 166); transform-origin: 136.775px 152.34px;" id="elqei3145a88" class="animable"></path><rect x="117.42" y="158.34" width="154.71" height="10.24" style="fill: rgb(235, 235, 235); transform-origin: 194.775px 163.46px;" id="elxafsu5qe46m" class="animable"></rect><path d="M285.8,153.9h0a.15.15,0,0,1-.14-.15v-4.17a.16.16,0,0,1,.16-.15h.83a2.24,2.24,0,1,1,0,4.47Zm.82-.31a1.93,1.93,0,1,0,0-3.85H286v3.85Z" style="fill: rgb(166, 166, 166); transform-origin: 287.35px 151.665px;" id="elhk3qebuk97t" class="animable"></path><path d="M292.21,150.92v2.83a.15.15,0,0,1-.15.15.16.16,0,0,1-.16-.15v-.47a1.45,1.45,0,0,1-1.17.62,1.57,1.57,0,0,1,0-3.13,1.44,1.44,0,0,1,1.17.61v-.46a.15.15,0,0,1,.16-.15A.15.15,0,0,1,292.21,150.92Zm-.31,1.42a1.18,1.18,0,1,0-1.17,1.25A1.22,1.22,0,0,0,291.9,152.34Z" style="fill: rgb(166, 166, 166); transform-origin: 290.748px 152.335px;" id="eljgj8t7upix" class="animable"></path><path d="M294.63,150.92a.16.16,0,0,1-.15.16h-.4v2.28a.25.25,0,0,0,.23.23.16.16,0,1,1,0,.31.53.53,0,0,1-.55-.54v-2.28h-.39c-.15,0-.15-.08-.15-.16s0-.15.15-.15h.39v-1.16a.17.17,0,0,1,.15-.16.18.18,0,0,1,.17.16v1.16h.4A.16.16,0,0,1,294.63,150.92Z" style="fill: rgb(166, 166, 166); transform-origin: 293.925px 151.677px;" id="el0lf7wj8ww02o" class="animable"></path><path d="M295.62,152.34a1.52,1.52,0,0,1,3-.11h0v0a.14.14,0,0,1-.15.14h-2.57a1.22,1.22,0,0,0,1.21,1.2,1.17,1.17,0,0,0,1-.56.15.15,0,0,1,.2-.06.18.18,0,0,1,.06.22,1.5,1.5,0,0,1-1.27.71A1.54,1.54,0,0,1,295.62,152.34Zm.33-.25h2.37a1.2,1.2,0,0,0-2.37,0Z" style="fill: rgb(166, 166, 166); transform-origin: 297.12px 152.442px;" id="elyng8btfkg" class="animable"></path><rect x="285.26" y="158.34" width="95.53" height="10.24" style="fill: rgb(235, 235, 235); transform-origin: 333.025px 163.46px;" id="el56wtzd53nac" class="animable"></rect><path d="M285.63,94.66a.16.16,0,0,1,.16-.15h2.3a.15.15,0,0,1,.15.15.15.15,0,0,1-.15.16H286v1.77h1.87a.16.16,0,0,1,0,.32H286v1.76h2.14a.15.15,0,0,1,.15.16.15.15,0,0,1-.15.15h-2.32a.15.15,0,0,1-.14-.15Z" style="fill: rgb(166, 166, 166); transform-origin: 286.96px 96.745px;" id="el9pn7lqwcmhg" class="animable"></path><path d="M291.59,97.13a1,1,0,0,0-1-1,1,1,0,0,0-1,1v1.72a.08.08,0,0,1,0,.07.13.13,0,0,1-.11.06h0a.14.14,0,0,1-.1-.08s0,0,0,0h0V96a.16.16,0,0,1,.16-.15.15.15,0,0,1,.14.15v.3a1.3,1.3,0,0,1,1-.45,1.27,1.27,0,0,1,1.27,1.27v1.7a.15.15,0,0,1-.16.15.15.15,0,0,1-.15-.15Z" style="fill: rgb(166, 166, 166); transform-origin: 290.665px 97.415px;" id="el3kmc3ontuxn" class="animable"></path><path d="M294.37,96a.17.17,0,0,1-.16.16h-.4v2.28a.25.25,0,0,0,.23.23.17.17,0,0,1,.16.16A.16.16,0,0,1,294,99a.53.53,0,0,1-.55-.54V96.16h-.39c-.15,0-.15-.08-.15-.16s0-.15.15-.15h.39V94.69a.17.17,0,0,1,.15-.16.17.17,0,0,1,.17.16v1.16h.4A.17.17,0,0,1,294.37,96Z" style="fill: rgb(166, 166, 166); transform-origin: 293.64px 96.7676px;" id="elytv2jhsbve" class="animable"></path><path d="M295.38,96a.15.15,0,0,1,.16-.15.15.15,0,0,1,.15.15v.69a.59.59,0,0,1,0-.08,1.53,1.53,0,0,1,1.26-.76.15.15,0,0,1,.15.15.15.15,0,0,1-.15.15,1.12,1.12,0,0,0-.91.52,3.19,3.19,0,0,0-.38.72.15.15,0,0,0,0,.06v1.37a.15.15,0,0,1-.15.15.15.15,0,0,1-.16-.15Z" style="fill: rgb(166, 166, 166); transform-origin: 296.225px 97.41px;" id="el5otwynee374" class="animable"></path><path d="M297.93,96a.15.15,0,0,1,.14-.15.16.16,0,0,1,.16.15v1.7a1,1,0,0,0,1.93,0V96a.11.11,0,0,1,0-.08v0h0a.08.08,0,0,1,.06,0h.07l.07,0s0,0,0,.05a.19.19,0,0,1,0,.07v2.73A1.47,1.47,0,0,1,299,100.2a1.5,1.5,0,0,1-.64-.14.17.17,0,0,1-.07-.21.18.18,0,0,1,.2-.08,1.1,1.1,0,0,0,.51.13,1.17,1.17,0,0,0,1.18-1.17v-.2a1.26,1.26,0,0,1-2.23-.83Z" style="fill: rgb(166, 166, 166); transform-origin: 299.147px 98.025px;" id="els85bjt9kds" class="animable"></path><path d="M305.09,94.82h-1.34a.16.16,0,0,1-.16-.16.16.16,0,0,1,.16-.15h3a.15.15,0,0,1,.15.15.16.16,0,0,1-.15.16H305.4v4a.15.15,0,0,1-.15.15.16.16,0,0,1-.16-.15Z" style="fill: rgb(166, 166, 166); transform-origin: 305.245px 96.74px;" id="elnftypig1u9a" class="animable"></path><path d="M307.11,96a.15.15,0,0,1,.14-.15.17.17,0,0,1,.17.15v1.7a1,1,0,0,0,.95,1,1,1,0,0,0,1-1V96a.11.11,0,0,1,0-.08v0h0a.08.08,0,0,1,.06,0h.07l.07,0s0,0,0,.05a.1.1,0,0,1,0,.07v2.73a1.47,1.47,0,0,1-1.49,1.47,1.5,1.5,0,0,1-.64-.14.18.18,0,0,1-.07-.21.18.18,0,0,1,.2-.08,1.1,1.1,0,0,0,.51.13,1.17,1.17,0,0,0,1.18-1.17v-.2a1.26,1.26,0,0,1-2.23-.83Z" style="fill: rgb(166, 166, 166); transform-origin: 308.303px 98.0451px;" id="elt1f8nez04c" class="animable"></path><path d="M311.13,97.47V96a.15.15,0,0,1,.15-.15.16.16,0,0,1,.16.15v.46a1.48,1.48,0,0,1,1.19-.61,1.56,1.56,0,0,1,0,3.11,1.48,1.48,0,0,1-1.19-.61v1.79a.16.16,0,0,1-.16.15.15.15,0,0,1-.15-.15Zm.31-.07a1.2,1.2,0,1,0,2.39,0,1.21,1.21,0,0,0-1.2-1.24,1.23,1.23,0,0,0-1.19,1.19Z" style="fill: rgb(166, 166, 166); transform-origin: 312.598px 98.07px;" id="elqvqty5o3rn" class="animable"></path><path d="M315.06,97.42a1.52,1.52,0,0,1,3-.11h0v0a.14.14,0,0,1-.15.14h-2.57a1.23,1.23,0,0,0,1.21,1.21,1.18,1.18,0,0,0,1-.57.15.15,0,0,1,.21,0,.16.16,0,0,1,.05.21,1.5,1.5,0,0,1-1.27.71A1.54,1.54,0,0,1,315.06,97.42Zm.33-.25h2.37a1.2,1.2,0,0,0-2.37,0Z" style="fill: rgb(166, 166, 166); transform-origin: 316.56px 97.5472px;" id="el8k03odfurk" class="animable"></path><rect x="285.26" y="103.42" width="95.53" height="10.24" style="fill: rgb(235, 235, 235); transform-origin: 333.025px 108.54px;" id="elxdo7szyfx" class="animable"></rect><rect x="370.56" y="103.42" width="10.24" height="10.24" style="fill: rgb(199, 199, 199); transform-origin: 375.68px 108.54px;" id="elr9ik4e0x1n" class="animable"></rect><polygon points="373.49 108.9 377.86 108.9 375.69 110.68 373.49 108.9" style="fill: rgb(235, 235, 235); transform-origin: 375.675px 109.79px;" id="elj7ma350qokk" class="animable"></polygon><polygon points="377.86 108.17 373.49 108.17 375.66 106.4 377.86 108.17" style="fill: rgb(235, 235, 235); transform-origin: 375.675px 107.285px;" id="elzc9u99fg4qe" class="animable"></polygon><path d="M291.15,110a.14.14,0,0,1,.2,0,2.06,2.06,0,0,0,1.34.57,1.89,1.89,0,0,0,1-.3,1,1,0,0,0,.5-.65.59.59,0,0,0-.25-.6,2.57,2.57,0,0,0-1-.36h0a2.31,2.31,0,0,1-1-.37.75.75,0,0,1-.31-.77,1.26,1.26,0,0,1,.6-.82,2,2,0,0,1,1.11-.32,2.06,2.06,0,0,1,1.28.51c.06,0,.06.12,0,.19a.17.17,0,0,1-.21,0,1.65,1.65,0,0,0-2.06-.2.94.94,0,0,0-.45.6.52.52,0,0,0,.22.54,2.34,2.34,0,0,0,.89.33h0a2.59,2.59,0,0,1,1,.4.83.83,0,0,1,.34.83,1.4,1.4,0,0,1-.66.88,2.25,2.25,0,0,1-1.19.35,2.3,2.3,0,0,1-1.5-.64A.13.13,0,0,1,291.15,110Z" style="fill: rgb(166, 166, 166); transform-origin: 292.829px 108.595px;" id="elpwq7cr11b7s" class="animable"></path><path d="M295.33,109.26a1.87,1.87,0,0,1,1.77-1.53,1.25,1.25,0,0,1,.92.38,1.29,1.29,0,0,1,.36.92c0,.06,0,.11,0,.17s0,0,0,0a.17.17,0,0,1-.15.12h-2.58a.62.62,0,0,0,0,.19,1,1,0,0,0,1,1,1.47,1.47,0,0,0,1.13-.58.16.16,0,0,1,.22,0,.14.14,0,0,1,0,.21,1.79,1.79,0,0,1-1.37.69h0a1.28,1.28,0,0,1-.92-.37,1.33,1.33,0,0,1-.35-.93A1.46,1.46,0,0,1,295.33,109.26Zm.38-.22h2.36a1,1,0,0,0-1-1A1.58,1.58,0,0,0,295.71,109Z" style="fill: rgb(166, 166, 166); transform-origin: 296.855px 109.28px;" id="elml99xtyvboh" class="animable"></path><path d="M300.52,106.57l-.73,4.16a.15.15,0,0,1-.16.13h0a.16.16,0,0,1-.13-.18l.74-4.16a.15.15,0,0,1,.18-.13A.16.16,0,0,1,300.52,106.57Z" style="fill: rgb(166, 166, 166); transform-origin: 300.011px 108.624px;" id="elgxofuzhg36g" class="animable"></path><path d="M301.11,109.26a1.85,1.85,0,0,1,1.76-1.53,1.25,1.25,0,0,1,.92.38,1.29,1.29,0,0,1,.36.92,1,1,0,0,1,0,.17s0,0,0,0a.15.15,0,0,1-.14.12H301.4a1.21,1.21,0,0,0,0,.19,1,1,0,0,0,1,1,1.51,1.51,0,0,0,1.14-.58.15.15,0,0,1,.21,0,.14.14,0,0,1,0,.21,1.77,1.77,0,0,1-1.37.69h0a1.28,1.28,0,0,1-.92-.37,1.33,1.33,0,0,1-.36-.93A1.5,1.5,0,0,1,301.11,109.26Zm.37-.22h2.37a1,1,0,0,0-1-1A1.58,1.58,0,0,0,301.48,109Z" style="fill: rgb(166, 166, 166); transform-origin: 302.626px 109.28px;" id="el0tg9mfw6wa9o" class="animable"></path><path d="M304.9,109.27a1.91,1.91,0,0,1,1.84-1.54,1.5,1.5,0,0,1,1,.34.17.17,0,0,1,0,.22.15.15,0,0,1-.21,0,1.12,1.12,0,0,0-.75-.27,1.62,1.62,0,0,0-1.54,1.29.78.78,0,0,0,0,.21,1,1,0,0,0,1.07,1,1.53,1.53,0,0,0,.86-.29.16.16,0,0,1,.21,0,.15.15,0,0,1,0,.21,1.94,1.94,0,0,1-1,.33,1.42,1.42,0,0,1-1-.37,1.32,1.32,0,0,1-.39-1A1.15,1.15,0,0,1,304.9,109.27Z" style="fill: rgb(166, 166, 166); transform-origin: 306.34px 109.25px;" id="el1piv7xg874" class="animable"></path><path d="M310.52,107.89a.15.15,0,0,1-.15.15h-.86l-.41,2.29a.06.06,0,0,0,0,0,.16.16,0,0,0,.17.17.16.16,0,0,1,.16.15.16.16,0,0,1-.16.16.48.48,0,0,1-.48-.48v-.09l.41-2.24h-.41a.16.16,0,0,1-.16-.15.16.16,0,0,1,.16-.16h.47l.2-1.22a.16.16,0,0,1,.18-.13.16.16,0,0,1,.13.18l-.2,1.17h.81A.16.16,0,0,1,310.52,107.89Z" style="fill: rgb(166, 166, 166); transform-origin: 309.578px 108.574px;" id="elfw64g9i28hd" class="animable"></path><rect x="337.27" y="277.75" width="42.58" height="14.08" style="fill: rgb(66, 140, 255); transform-origin: 358.56px 284.79px;" id="elrdzislxfhu" class="animable"></rect><path d="M348.3,284.55a2.34,2.34,0,0,1,2.34-2.3,2.44,2.44,0,0,1,1.48.5.37.37,0,0,1,.06.51.37.37,0,0,1-.51.07,1.59,1.59,0,0,0-1-.35,1.7,1.7,0,0,0-1.15.46,1.57,1.57,0,0,0-.47,1.11,1.53,1.53,0,0,0,.47,1.11,1.7,1.7,0,0,0,1.15.46,1.6,1.6,0,0,0,1-.35.39.39,0,0,1,.51.07.37.37,0,0,1-.06.51,2.38,2.38,0,0,1-1.48.5A2.33,2.33,0,0,1,348.3,284.55Z" style="fill: rgb(255, 255, 255); transform-origin: 350.278px 284.55px;" id="el0ybiphggdsf" class="animable"></path><path d="M355.32,284a.34.34,0,0,1-.34.33.57.57,0,0,0-.38.13,1,1,0,0,0-.3.3,2.06,2.06,0,0,0-.26.54v1.21a.35.35,0,0,1-.69,0V284a.35.35,0,0,1,.69,0v0a.86.86,0,0,1,.14-.13,1.43,1.43,0,0,1,.8-.25A.34.34,0,0,1,355.32,284Z" style="fill: rgb(255, 255, 255); transform-origin: 354.336px 285.211px;" id="elq4z1jngtrrl" class="animable"></path><path d="M355.61,285.25a1.59,1.59,0,0,1,1.56-1.59,1.52,1.52,0,0,1,1.54,1.48v.09a.31.31,0,0,1-.33.25h-2a1,1,0,0,0,.22.43,1,1,0,0,0,.61.28,1,1,0,0,0,.67-.16.35.35,0,0,1,.48,0,.29.29,0,0,1,0,.41,1.62,1.62,0,0,1-2.71-1.18Zm.7-.31h1.81a1.06,1.06,0,0,0-.95-.68A.9.9,0,0,0,356.31,284.94Z" style="fill: rgb(255, 255, 255); transform-origin: 357.16px 285.261px;" id="elzuflwxsbnx" class="animable"></path><path d="M362.43,285.26v1.25a.34.34,0,0,1-.33.34.35.35,0,0,1-.34-.27,1.46,1.46,0,0,1-.85.27,1.49,1.49,0,0,1-1.08-.46,1.63,1.63,0,0,1-.44-1.13,1.57,1.57,0,0,1,.44-1.12,1.44,1.44,0,0,1,1.08-.48,1.47,1.47,0,0,1,.85.28.35.35,0,0,1,.34-.28.34.34,0,0,1,.33.34Zm-.67,0a1,1,0,0,0-.25-.66.79.79,0,0,0-.6-.26.77.77,0,0,0-.59.26,1,1,0,0,0-.24.66,1,1,0,0,0,.24.66.8.8,0,0,0,.59.25.82.82,0,0,0,.6-.25A1,1,0,0,0,361.76,285.26Z" style="fill: rgb(255, 255, 255); transform-origin: 360.91px 285.255px;" id="el2ispu6fu33x" class="animable"></path><path d="M365.13,284a.36.36,0,0,1-.36.35h-.16v1.78a.35.35,0,0,1,.35.36.34.34,0,0,1-.35.35.71.71,0,0,1-.71-.71v-1.78h-.18a.36.36,0,0,1-.36-.35.35.35,0,0,1,.36-.35h.18v-.93a.35.35,0,0,1,.36-.35.34.34,0,0,1,.35.35v.93h.16A.36.36,0,0,1,365.13,284Z" style="fill: rgb(255, 255, 255); transform-origin: 364.245px 284.605px;" id="elt33n4ut77h" class="animable"></path><path d="M365.77,285.25a1.57,1.57,0,0,1,1.56-1.59,1.53,1.53,0,0,1,1.54,1.48v0s0,.05,0,.06a.3.3,0,0,1-.33.25h-2a.87.87,0,0,0,.21.43,1,1,0,0,0,.62.28A1,1,0,0,0,368,286a.35.35,0,0,1,.48,0,.29.29,0,0,1,0,.41,1.59,1.59,0,0,1-1.14.42A1.58,1.58,0,0,1,365.77,285.25Zm.69-.31h1.81a1.06,1.06,0,0,0-.94-.68A.91.91,0,0,0,366.46,284.94Z" style="fill: rgb(255, 255, 255); transform-origin: 367.32px 285.246px;" id="el0nj15wowgz1" class="animable"></path><rect x="285.17" y="277.75" width="42.58" height="14.08" style="fill: rgb(235, 235, 235); transform-origin: 306.46px 284.79px;" id="elx6mu99h4u4n" class="animable"></rect><path d="M296.2,284.55a2.35,2.35,0,0,1,2.34-2.3,2.4,2.4,0,0,1,1.48.5.37.37,0,0,1,.06.51.37.37,0,0,1-.51.07,1.59,1.59,0,0,0-1-.35,1.7,1.7,0,0,0-1.15.46,1.6,1.6,0,0,0-.46,1.11,1.56,1.56,0,0,0,.46,1.11,1.7,1.7,0,0,0,1.15.46,1.59,1.59,0,0,0,1-.35.39.39,0,0,1,.51.07.37.37,0,0,1-.06.51,2.37,2.37,0,0,1-3.82-1.8Z" style="fill: rgb(166, 166, 166); transform-origin: 298.178px 284.548px;" id="elj0ayqyrxjc" class="animable"></path><path d="M304,285.26v1.25a.34.34,0,0,1-.34.34.34.34,0,0,1-.33-.27,1.46,1.46,0,0,1-.85.27,1.52,1.52,0,0,1-1.09-.46,1.67,1.67,0,0,1-.43-1.13,1.61,1.61,0,0,1,.43-1.12,1.46,1.46,0,0,1,1.94-.2.34.34,0,0,1,.33-.28.34.34,0,0,1,.34.34Zm-.68,0a.91.91,0,0,0-.25-.66.81.81,0,0,0-1.19,0,1,1,0,0,0-.24.66,1,1,0,0,0,.24.66.83.83,0,0,0,1.19,0A1,1,0,0,0,303.28,285.26Z" style="fill: rgb(166, 166, 166); transform-origin: 302.48px 285.255px;" id="el4nc6nwuae7" class="animable"></path><path d="M307.81,285v1.52a.33.33,0,0,1-.33.34.34.34,0,0,1-.34-.34V285a.66.66,0,0,0-.66-.65.64.64,0,0,0-.64.65v1.52a.2.2,0,0,1,0,.07.35.35,0,0,1-.34.27.34.34,0,0,1-.34-.34V284a.34.34,0,0,1,.34-.34.34.34,0,0,1,.31.19,1.29,1.29,0,0,1,.68-.19A1.33,1.33,0,0,1,307.81,285Z" style="fill: rgb(166, 166, 166); transform-origin: 306.485px 285.26px;" id="el86ybgp29zgp" class="animable"></path><path d="M308.84,285.26a1.62,1.62,0,0,1,1.63-1.6,1.67,1.67,0,0,1,1,.35.34.34,0,1,1-.41.53,1,1,0,0,0-.6-.2.92.92,0,1,0,0,1.83,1,1,0,0,0,.6-.2.35.35,0,0,1,.48.07.34.34,0,0,1-.07.47,1.73,1.73,0,0,1-1,.34A1.62,1.62,0,0,1,308.84,285.26Z" style="fill: rgb(166, 166, 166); transform-origin: 310.245px 285.255px;" id="elwn6fs62ia3" class="animable"></path><path d="M312.4,285.25a1.58,1.58,0,0,1,1.56-1.59,1.53,1.53,0,0,1,1.54,1.48v0s0,.05,0,.06a.3.3,0,0,1-.33.25h-2a.81.81,0,0,0,.22.43,1,1,0,0,0,.61.28,1,1,0,0,0,.66-.16.35.35,0,0,1,.48,0,.28.28,0,0,1,0,.41,1.61,1.61,0,0,1-2.7-1.18Zm.7-.31h1.81a1.07,1.07,0,0,0-1-.68A.9.9,0,0,0,313.1,284.94Z" style="fill: rgb(166, 166, 166); transform-origin: 313.95px 285.248px;" id="elc5dx8ry85ow" class="animable"></path><path d="M316.91,282.38a.36.36,0,0,1,.36.35v3.77a.36.36,0,0,1-.71,0v-3.77A.35.35,0,0,1,316.91,282.38Z" style="fill: rgb(166, 166, 166); transform-origin: 316.915px 284.59px;" id="elepzqh1bru2g" class="animable"></path></g><g id="freepik--Floor--inject-6" class="animable" style="transform-origin: 250px 450.44px;"><polygon points="459.98 450.44 407.49 450.68 354.99 450.77 250 450.94 145.01 450.77 92.52 450.69 40.02 450.44 92.52 450.19 145.01 450.11 250 449.94 354.99 450.11 407.49 450.2 459.98 450.44" style="fill: rgb(38, 50, 56); transform-origin: 250px 450.44px;" id="elxudgw5v1l0l" class="animable"></polygon></g><g id="freepik--Character--inject-6" class="animable" style="transform-origin: 214.513px 337.077px;"><path d="M83.61,449.79l171.54.73c41.69-32.74,46-81.24,16.25-110.64-18-17.79-40.86-14.2-62.63-17h-.06c-7.58-1-15-2.75-22.08-6.48-22.41-11.82-35-39.71-53.9-63.18q-3.53-4.41-7.39-8.56c-15.5-16.55-46.37-17.09-62.51,6.19C21.82,310,40.6,398,83.61,449.79Z" style="fill: rgb(66, 140, 255); transform-origin: 165.321px 341.632px;" id="elhgi3ofnzapm" class="animable"></path><g id="elx3e3z0gz2g"><path d="M79.8,314.46c4.49,70.38,85.77,96.65,136.53,75.57,44.14-18.34,29.69-60.18-7.56-67.18h-.06c-7.58-1-15-2.75-22.08-6.48-22.41-11.82-35-39.71-53.9-63.18C104.64,238.59,76.5,262.93,79.8,314.46Z" style="opacity: 0.1; transform-origin: 161.577px 323.054px;" class="animable"></path></g><path d="M233.94,460.87c-2.65-1-62.43-48.75-63.56-52-.43-1.24,6-10.35,14.12-21.14,1.76-2.33,3.58-4.72,5.44-7.14,12.08-15.74,25.27-32.16,25.27-32.16l40.08,31.84-26.37,31.28-5.78,6.87s14.7,28.53,15.56,32.24S236.58,461.84,233.94,460.87Z" style="fill: rgb(235, 148, 129); transform-origin: 212.825px 404.693px;" id="elz41nz8lw75j" class="animable"></path><path d="M233.93,460.87c-2.64-1-62.42-48.74-63.55-52-.35-1,3.85-7.23,9.79-15.31,8.7,10.39,39,41.32,47.28,45.46,5.25,2.63,4.21-2.53,2.25-7.67,4,8.07,8.53,17.31,9,19.31C239.53,454.36,236.59,461.84,233.93,460.87Z" style="fill: rgb(38, 50, 56); transform-origin: 204.601px 427.258px;" id="elpvaomqyu3pm" class="animable"></path><path d="M295.77,319c-2.74,20.82-54.06,80.94-60,87.83l-1.35,1.57L192,375.81l.48-.63,37.39-48.95S168,362.3,137.1,345.93c-13.88-7.35-24.18-20.42-24.18-20.42L153.28,304s11.17,3.61,18.31,2.57c24.61-3.61,79.75-24.54,92.83-24C281.3,283.24,298.29,299.92,295.77,319Z" style="fill: rgb(38, 50, 56); transform-origin: 204.47px 345.48px;" id="elmjnuez0ks6" class="animable"></path><path d="M235.43,339.18a54.86,54.86,0,0,0-11.84-4.74l.19-.26c7.17,2.22,14.79,4.93,19.36,11.24,2.1,2.92,3.41,6.8,2.58,10.4a6.72,6.72,0,0,1-7.63,5.17c-9.5-1.06-11.16-12.92-18.58-17.2a9.18,9.18,0,0,0-2.34-1l.19-.25a12.12,12.12,0,0,1,4.19,2.26c3.56,2.91,5.49,7.15,8.3,10.69s7.22,6.44,11.73,4.77c5-1.83,4.62-8.31,2.73-12.28S239.06,341.3,235.43,339.18Zm-8.56,53.87a8.35,8.35,0,0,0-1.46,8.46l.44.33a8.64,8.64,0,0,1-.39-1.25c-1.28-5.06,2-8.95,6.79-10.07,4.54-1.06,9.15.08,13.74-.34a13.53,13.53,0,0,0,4.69-1.21l.43-.53c-4.27,2.41-9.45,1.28-14.08,1.28C233.49,389.72,229.39,390.31,226.87,393.05Zm-20-36.73c2.06,6.85,8.75,12.19,15.27,14.4a25.8,25.8,0,0,0,12.33,1c5-.79,10.39-2.82,15.35-.94s6.84,8,5.27,12.72l.46-.59a11.89,11.89,0,0,0-.05-6.07,9.26,9.26,0,0,0-5.6-6.35c-4.48-1.7-9.4-.2-13.9.65a26.63,26.63,0,0,1-14.16-.83,25.31,25.31,0,0,1-11.27-7.92,19.36,19.36,0,0,1-3.45-6.4Zm-6.34,26.07.23.18a25.43,25.43,0,0,1,1.24-3.06c1.58-3.18,4.8-5.61,8.48-4.29,4.13,1.46,6.65,6.4,6.76,10.55a29.1,29.1,0,0,1-1.28,8.48l.25.19a36.37,36.37,0,0,0,1.34-7.6,13.19,13.19,0,0,0-3.85-9.92c-2.27-2.2-5.49-3.14-8.39-1.58-2.42,1.28-3.67,3.87-4.55,6.35C200.68,381.91,200.6,382.15,200.53,382.39ZM277.7,290a9.81,9.81,0,0,1,2.86-1.91l-.3-.2a5,5,0,0,0-.65.33,9.22,9.22,0,0,0-4.75,9.45c.57,4.62,3.37,8.73,3,13.51a6.52,6.52,0,0,1-3.3,5.63,7.19,7.19,0,0,1-7-.83c-4.33-3-5.23-9.34-5.33-14.17a33,33,0,0,1,.92-8.4c.57-2.35,1.5-4.61,1.9-7a10.9,10.9,0,0,0,0-3.78h-.26c.47,2.69-.38,5.37-1.15,7.92a34.89,34.89,0,0,0-1.45,14.95c.53,4,1.84,8.69,5.52,11,2.87,1.77,6.88,1.79,9-1.08s1.55-7.14.51-10.37C275.67,300,273.26,294.22,277.7,290Zm-1.53,65.58c.16-.21.31-.43.45-.63.93-4.85,1-10.11,5-13.35a9.78,9.78,0,0,1,5.05-2c.08-.13.17-.26.24-.4a11,11,0,0,0-4.27,1.36C277.24,343.59,277.43,350,276.17,355.53ZM256.56,359c2.35,4.46,8.3,7.08,13.11,5.58l.38-.52a10.16,10.16,0,0,1-6.39.18,11.17,11.17,0,0,1-8-8.63,16.73,16.73,0,0,1,3.19-13.06c2.91-3.91,7.18-6.57,11.62-8.42,7.67-3.19,17-3.57,23.57-9l.28-.75a20,20,0,0,1-4.51,3.06c-4.55,2.27-9.61,3.16-14.46,4.6a38.68,38.68,0,0,0-12,5.63C257,342.38,252.57,351.34,256.56,359Zm-35.42-65.62-.28.1a18.84,18.84,0,0,1,2.6,3.49c4.93,8.41,4.27,18.83,9,27.35,1.86,3.33,4.55,6.36,8.18,7.76a12.62,12.62,0,0,0,9.8-.15,8.86,8.86,0,0,0,5-8.19c0-3.85-2-7.57-4.54-10.37-3.17-3.51-7.33-5.93-10.89-9A22.17,22.17,0,0,1,232.35,292c-.12-.63-.22-1.26-.28-1.9l-.27.08a20.3,20.3,0,0,0,2.18,7.3c2,4,5.34,6.88,8.84,9.54,3.78,2.89,7.82,5.67,10.23,9.87,2.27,4,3.17,9.33-.24,13-2.75,2.92-7.3,3.37-11,2.31-4.35-1.24-7.47-4.77-9.49-8.69-4.39-8.56-3.76-18.95-8.92-27.16A17.56,17.56,0,0,0,221.14,293.35Zm-23.22,15.51a30.54,30.54,0,0,0,3.84,12.2,23.25,23.25,0,0,0,9.29,8.68,46.55,46.55,0,0,0,6.71,2.84l.38-.19a42.18,42.18,0,0,1-8.69-3.91,22.84,22.84,0,0,1-9.13-11,29.53,29.53,0,0,1-1.59-17.43l-.3.09A27.23,27.23,0,0,0,197.92,308.86Zm-22.79,39.19.31-.06c1.28-4,3.69-7.56,8.14-8.48a11.37,11.37,0,0,1,10.3,3.14l.25-.09a11.43,11.43,0,0,0-4.36-2.83A11.21,11.21,0,0,0,179.65,341,13.27,13.27,0,0,0,175.13,348.05Zm-29,1.08a7,7,0,0,0,.82.16,6.77,6.77,0,0,1,.9,0,6.89,6.89,0,0,1,2.62.58c.26,0,.52.06.79.08A7.84,7.84,0,0,0,146.09,349.13Zm30.5-32.49c-.2,3.49,0,7.08,2.25,10,1.9,2.5,5.11,3,7.28.49,2.78-3.23,3.13-8.57,2.89-12.61a50.62,50.62,0,0,0-2.18-11.18l-.31.08c.32,1.07.61,2.13.88,3.19,1.29,5.25,2,10.84.49,16.12-.67,2.4-1.94,5.4-4.75,5.78-2.09.28-3.71-1.31-4.68-3-2.26-3.88-1.68-8.41-1.26-12.67.24-2.47.55-5,.7-7.44a2.27,2.27,0,0,1-.3.06C177.37,309.19,176.82,312.9,176.59,316.64Zm-24.77-6.19c.45,4.84-.19,9.65,0,14.48.17,4,1.32,8.14,4.77,10.57a6.89,6.89,0,0,0,9.32-1c2.9-3.22,2.93-7.67,2.05-11.67-1.18-5.39-3-10.67-4.58-15.95-.06-.2-.12-.42-.19-.63l-.35-.06c.07.26.15.51.22.76.8,2.71,1.58,5.41,2.38,8.11,1.48,5,4,11.06,2,16.29a8.07,8.07,0,0,1-4.92,5,7.08,7.08,0,0,1-6.73-2c-4-3.76-3.77-9.57-3.54-14.61a56.1,56.1,0,0,0-.67-13.33c-.08-.44-.2-.92-.33-1.4l-.29.15A37.27,37.27,0,0,1,151.82,310.45Zm-35,12.95c4.67,4.79,7.72,11.41,14.9,12.8,2.79.53,6.05.17,8-2.16,2.69-3.26,1.37-8-.11-11.46-1.3-3.06-3.1-5.88-4.69-8.8l-.26.14c.39.75.82,1.5,1.23,2.22,2.46,4.33,6.09,9.9,4.84,15.13-1.06,4.45-5.76,5.45-9.67,4.44-6.57-1.67-9.56-7.88-13.93-12.45Z" style="fill: rgb(69, 90, 100); transform-origin: 205.59px 342.235px;" id="el67bfvk4xinx" class="animable"></path><path d="M243.27,308a47.38,47.38,0,0,0-3.85,4.94c-1.33,1.73-2.67,3.45-4,5.18l0,0c.24-.51.47-1,.71-1.52.83-1.72,1.5-3.51,2.48-5.16a.09.09,0,1,0-.15-.09c-1,1.64-2.19,3.19-3.05,4.92-.41.81-.8,1.63-1.16,2.46-.19.46-.4.92-.57,1.38a6.63,6.63,0,0,0-.25.67q-.89,1.2-1.74,2.43c-1.26,1.83-2.37,3.75-3.64,5.56-.07.1.08.19.15.1,1.29-1.7,2.74-3.29,4.05-5s2.6-3.48,3.85-5.26,2.41-3.49,3.63-5.23a52.59,52.59,0,0,0,3.68-5.37A.07.07,0,0,0,243.27,308Z" style="fill: rgb(55, 71, 79); transform-origin: 235.721px 318.421px;" id="elii55qdydhla" class="animable"></path><path d="M200.48,368.39c2.33,2.16,4.84,4.16,7.3,6.18s4.95,4,7.44,6c5,4,9.94,8,15,11.94,2.77,2.15,5.56,4.28,8.44,6.28.13.09.27-.12.16-.22-4.72-4.29-9.75-8.22-14.74-12.2s-10-8-15-11.88c-2.76-2.14-5.51-4.34-8.4-6.31C200.51,368.12,200.38,368.3,200.48,368.39Z" style="fill: rgb(55, 71, 79); transform-origin: 219.652px 383.49px;" id="el7babdhxboyq" class="animable"></path><path d="M166.26,260a2.9,2.9,0,0,1-1.36,2.62,20.16,20.16,0,0,1-2.3,1.36c.12-2.91-.11-5.91-.28-8.77-.2-3.37-.62-6.66-1.1-10a0,0,0,0,0-.08,0c.26,3.37.41,6.76.58,10.14.15,2.95.08,5.95.25,8.9-.82.39-1.65.73-2.5,1,0-1,0-2.07,0-3.1,0-3.11-.28-6.18-.44-9.28,0-.08-.11-.08-.1,0,.11,3,0,6.08,0,9.1,0,1.17,0,2.33-.06,3.5-.58.2-1.16.38-1.73.56l-1.14.32c0-2-.17-4.09-.24-6.09-.13-3.23-.44-6.44-.61-9.67a.08.08,0,1,0-.16,0c.15,3.21.1,6.45.18,9.67.06,2.07,0,4.19.09,6.28a44.15,44.15,0,0,1-15.66.82,66.06,66.06,0,0,1-9-1.7c-.71-.19-2.54-.72-4.33-1.27,0-1-.06-2-.07-2.89,0-2.15-.15-4.32-.11-6.46,0-.07-.08-.07-.08,0-.11,2.15-.34,4.29-.39,6.46,0,.87,0,1.77-.06,2.67-.64-.19-1.26-.39-1.8-.58.2-4.06,0-8.19-.07-12.24,0-.1-.12-.1-.13,0-.15,4-.54,8-.49,12a6.12,6.12,0,0,1-1.19-.49c-.89-.74-.29-16.8-.24-20.55.1-7,.9-17.29,2.88-24A20.48,20.48,0,0,1,135.79,205c2.64-1.18,5.72-1,8.54-.91a16.64,16.64,0,0,1,8.28,2.61,17.82,17.82,0,0,1,6.28,5.77A35.55,35.55,0,0,1,162.5,221c2.09,7.09,2.86,26.55,3.37,33.45C166,256.32,166.23,258.17,166.26,260Z" style="fill: rgb(38, 50, 56); transform-origin: 143.83px 235.867px;" id="el859usq2u39s" class="animable"></path><path d="M131,260.68c10.27,19.45,26.73,41.67,32,44.58,6.68,3.68,43.16,2.13,45,1.85,4.46-.72,6-32.77,1.22-32.21-7.31.86-33.29,6.28-35.25,5.11s-16.47-12-31.68-24.43C131.75,247,124.62,248.61,131,260.68Z" style="fill: rgb(235, 148, 129); transform-origin: 170.368px 278.927px;" id="eld0fpe1o6aa5" class="animable"></path><path d="M203.19,305.71A94.71,94.71,0,0,0,216.41,309c3.53.43,13.75,1.38,14.6-2.47.59-2.62-5.35-3.89-9.53-4.88-2.2-.52-5.1-2.26-4.71-3.69.69-2.49,6.38-1,10.2.43,7.39,2.82,17.53,8.41,21.1,4.31,1.34-1.55-.85-3.61-3.88-5.49,4.74,2,9.68,3.45,11.25,1.79.89-.95.77-2,0-3.15a3.07,3.07,0,0,0,3.23-1.06c1.15-1.69.12-3.74-1.77-5.7a1.68,1.68,0,0,0,1.13-1c2.22-5-14.69-15.52-20-15.89-15.64-1.12-32.43,3.73-32.43,3.73C200.45,281.53,203.17,305.71,203.19,305.71Z" style="fill: rgb(235, 148, 129); transform-origin: 230.804px 290.729px;" id="elzmz3a237tqh" class="animable"></path><path d="M223.06,288.23a25.87,25.87,0,0,1,10.68,2.23c4.23,1.89,7.25,4.43,10.93,6.88.1.06,0,.21-.09.15-1.76-1.16-9-5.44-10.78-6.38a24.72,24.72,0,0,0-10.74-2.81S223,288.23,223.06,288.23Z" style="fill: rgb(38, 50, 56); transform-origin: 233.872px 292.867px;" id="elavqq7es8ntg" class="animable"></path><path d="M224.83,281.38a62.25,62.25,0,0,1,12.35,2.14c4.35,1.39,8,4.22,11.66,6.93q3.25,2.44,6.41,5c.09.07,0,.23-.1.15q-5.52-4.2-11.29-8.08a32.66,32.66,0,0,0-11.76-5c-2.4-.49-4.84-.8-7.28-1.1A0,0,0,0,1,224.83,281.38Z" style="fill: rgb(38, 50, 56); transform-origin: 240.054px 288.501px;" id="ele6tw27ot5d" class="animable"></path><path d="M228.14,275.1c4,.17,7.44.29,11.18,1.8,5,2,10.06,5.87,11.85,7.25,2,1.53,3.91,3.12,5.82,4.74.07.06,0,.2-.12.13a130.41,130.41,0,0,0-13.63-9.7,25.9,25.9,0,0,0-7.26-3.19,47,47,0,0,0-7.84-1A0,0,0,0,1,228.14,275.1Z" style="fill: rgb(38, 50, 56); transform-origin: 242.579px 282.07px;" id="el2mq2woct35k" class="animable"></path><path d="M145.8,289.15l11.53-25.24a179,179,0,0,0-17.55-12.15c-10.3-6.29-15.26-2.72-9,12.29A103.59,103.59,0,0,0,145.8,289.15Z" style="fill: rgb(69, 90, 100); transform-origin: 142.673px 268.975px;" id="elyh98vsismoi" class="animable"></path><path d="M153.64,262.22c-1.07,1.77-1.88,3.72-2.79,5.57s-1.75,3.55-2.56,5.35q-2.53,5.6-4.83,11.29c0,.06.08.12.11.05,1.8-3.63,3.56-7.27,5.26-11,.85-1.83,1.65-3.68,2.45-5.53s1.79-3.76,2.47-5.72C153.77,262.21,153.67,262.16,153.64,262.22Z" style="fill: rgb(38, 50, 56); transform-origin: 148.606px 273.351px;" id="el0ax1jdqw7j7a" class="animable"></path><g id="elo266s2x417"><path d="M130.8,264.05a103.59,103.59,0,0,0,15,25.1l9.63-21.1-25-19C127.31,250.1,127,255,130.8,264.05Z" style="opacity: 0.1; transform-origin: 141.725px 269.1px;" class="animable"></path></g><path d="M92.32,333.9c2.35.83,70.36-16.76,70.36-16.76l-7.29-23.65s4.15-7.42,2.53-14.72c-2.17-9.75-19.63-26.17-21-27.15-5.55-3.9-10.85-4-15.6-1.64C101.51,259.79,92.32,333.9,92.32,333.9Z" style="fill: rgb(69, 90, 100); transform-origin: 127.5px 291.168px;" id="elssgfwb7g49h" class="animable"></path><path d="M133.79,291.18a60.64,60.64,0,0,1,8.82-.72c1.47,0,2.92.09,4.39.19.73.06,1.45.09,2.18.11a9.25,9.25,0,0,0,2.29-.13c.06,0,.09.08,0,.1a15.36,15.36,0,0,1-2.11.49,16.33,16.33,0,0,1-2.1.12c-1.48,0-3-.06-4.46-.07-3,0-6,0-9,.16C133.68,291.44,133.66,291.2,133.79,291.18Z" style="fill: rgb(38, 50, 56); transform-origin: 142.614px 290.945px;" id="elxkxdmp7n5q" class="animable"></path><path d="M127.38,295.47a65.38,65.38,0,0,1,7-2.11c1.18-.28,2.37-.49,3.58-.67l1.73-.23c.64-.07,1.28-.06,1.92-.15.06,0,.09.09,0,.1-.6.1-1.18.3-1.77.43l-1.77.39c-1.19.27-2.37.55-3.56.8-2.38.51-4.74,1-7.1,1.63C127.29,295.7,127.26,295.51,127.38,295.47Z" style="fill: rgb(38, 50, 56); transform-origin: 134.485px 293.988px;" id="el69zqjusy7nr" class="animable"></path><path d="M113.1,258.44c-9.46,13.95-29.71,62-19.92,69.42s57.36-9.63,70.33-17.77C167.37,307.67,148.89,284,144,284c-4.05,0-22.51,11.23-23.24,10.13-.82-1.25,1.76-11.15,4.62-29.47C128.69,243.5,118.54,250.43,113.1,258.44Z" style="fill: rgb(235, 148, 129); transform-origin: 127.304px 290.148px;" id="el58hwb8txx7h" class="animable"></path><path d="M163.36,273.39c9.77-2.53,12.67-1.68,19.77-8.2,4.67-4.28,9.4-3.14,7.17,3.06-3.63,10.13-15.55,16.05-20.27,16.91Z" style="fill: rgb(235, 148, 129); transform-origin: 177.114px 273.896px;" id="elnzbio015vq" class="animable"></path><path d="M138.1,286s10.44-7.49,20.58-11.22c7-2.58,22.9-6.49,40.17,7.62,4.09,3.35,7.56,11-1.12,8-6.16-2.16-9.42-5.39-13.23-6,0,0,3.24,10.28-.27,14.26a97,97,0,0,1-9.93,9.72,19.77,19.77,0,0,1-2-1.69s-3.64,3.4-11.2,3.56Z" style="fill: rgb(235, 148, 129); transform-origin: 170.609px 291.25px;" id="elx53wa0tlbfj" class="animable"></path><path d="M165.76,273.4c3.66,1.39,11.37,4.49,16.79,9.21,6,5.25,16.21,17,12.29,21.38-2.87,3.23-7.15-.9-7.15-.9s3.19,5.73-.05,8.08c-2.94,2.15-6.07-1.25-6.07-1.25s1.34,3.81-1.9,5.33c-3.89,1.82-6-6.47-11.59-8C166.84,306.87,165.76,273.4,165.76,273.4Z" style="fill: rgb(235, 148, 129); transform-origin: 180.736px 294.455px;" id="elcfc8b4lszb7" class="animable"></path><path d="M176,288.05c3.22,1.88,9.45,8,11.77,14.87.05.16,0,.28-.11.15a78.75,78.75,0,0,0-11.71-15S175.91,288,176,288.05Z" style="fill: rgb(38, 50, 56); transform-origin: 181.865px 295.579px;" id="elercm9ekabu9" class="animable"></path><path d="M170.83,294.28c2.61,1.91,8.75,8.53,10.86,15.55.05.16-.05.28-.12.14a83.85,83.85,0,0,0-10.8-15.63S170.79,294.26,170.83,294.28Z" style="fill: rgb(38, 50, 56); transform-origin: 176.237px 302.154px;" id="el5mu8wzxlwo" class="animable"></path><path d="M184.49,284.34c3.35.58,5.64,1.92,8.59,3.5a46,46,0,0,0,4.47,2.16c1.4.56,3.47,1.41,4.74.13a2.66,2.66,0,0,0,.29-2.71,13,13,0,0,0-2.2-3.48s0-.1.07-.06a18.59,18.59,0,0,1,2.32,3.05,4.38,4.38,0,0,1,.59,2.49c-.27,1.84-2.35,2.32-3.9,2a14.52,14.52,0,0,1-2.69-.93c-.83-.36-1.65-.76-2.46-1.18-1.66-.86-3.27-1.82-4.91-2.7a44.38,44.38,0,0,0-5-2.16C184.39,284.43,184.42,284.33,184.49,284.34Z" style="fill: rgb(38, 50, 56); transform-origin: 193.884px 287.691px;" id="elq6xbp3eswe" class="animable"></path><path d="M192.59,294.94a100.18,100.18,0,0,0-8.16-10.51c0-.05,0-.11.06-.08,2.8,2.1,7.59,8,8.77,9.91s2.54,4.34,2.8,6.58c.4,3.38-1.77,4.28-2.58,4.55a4.4,4.4,0,0,1-2.93-.14,9,9,0,0,1-2.9-2.15s0-.11.06-.07c1.33,1.2,3.43,2.28,5.24,1.83a3.11,3.11,0,0,0,2-1.37,4,4,0,0,0,.22-2.79A18.56,18.56,0,0,0,192.59,294.94Z" style="fill: rgb(38, 50, 56); transform-origin: 190.269px 294.959px;" id="el1emiipdmyne" class="animable"></path><path d="M120.78,294.1a50.69,50.69,0,0,1-4.61,3,55,55,0,0,1-4.85,2.62,26.36,26.36,0,0,1,4.47-3.26A27.53,27.53,0,0,1,120.78,294.1Z" style="fill: rgb(38, 50, 56); transform-origin: 116.05px 296.91px;" id="ellfvtbd9l6he" class="animable"></path><path d="M97.3,283.83,125,281.74a178.39,178.39,0,0,0,2.17-21.23c.53-12.06-5-14.69-15.09-1.94A103.4,103.4,0,0,0,97.3,283.83Z" style="fill: rgb(69, 90, 100); transform-origin: 112.252px 266.994px;" id="elzlghtwr8bu" class="animable"></path><path d="M124.67,277.69c-2.07-.08-4.16.15-6.23.25s-3.94.18-5.91.34c-4.09.32-8.15.72-12.22,1.22-.07,0-.07.13,0,.12q6.07-.25,12.14-.68c2-.14,4-.33,6-.52s4.16-.25,6.2-.6C124.74,277.8,124.74,277.69,124.67,277.69Z" style="fill: rgb(38, 50, 56); transform-origin: 112.489px 278.647px;" id="elqvts9rr8vqr" class="animable"></path><path d="M125.76,279c.17-1,.3-2,.42-3,0-.21,0-.42.07-.63a34.63,34.63,0,0,0,1.08-3.64s0-.06-.07,0a27.94,27.94,0,0,0-.9,2.77c.16-1.54.3-3.08.32-4.63a0,0,0,0,0-.08,0c-.37,2-.6,4-.9,6-.14,1-.74,5.76-.8,5.77s-2.3.25-2.44.31-.09.19,0,.19l2.86-.21S125.62,279.83,125.76,279Z" style="fill: rgb(38, 50, 56); transform-origin: 124.851px 276.005px;" id="elf6f1qwp6396" class="animable"></path><rect x="152.16" y="307.36" width="76.46" height="3.42" style="fill: rgb(199, 199, 199); transform-origin: 190.39px 309.07px;" id="el51e2jc75vk2" class="animable"></rect><polygon points="228.62 307.36 228.62 310.79 182.76 310.79 185.38 307.36 228.62 307.36" style="fill: rgb(166, 166, 166); transform-origin: 205.69px 309.075px;" id="elevti1rkr7vw" class="animable"></polygon><polygon points="194.1 310.79 268.62 310.79 274.82 260.18 200.31 260.18 194.1 310.79" style="fill: rgb(166, 166, 166); transform-origin: 234.46px 285.485px;" id="elc8wwx3wj924" class="animable"></polygon><polygon points="198 310.79 272.52 310.79 278.72 260.18 204.21 260.18 198 310.79" style="fill: rgb(199, 199, 199); transform-origin: 238.36px 285.485px;" id="elq7zir7klgb" class="animable"></polygon><path d="M233.83,285.48a4.44,4.44,0,0,0,4.45,4.54,4.64,4.64,0,0,0,4.62-4.54,4.44,4.44,0,0,0-4.46-4.53A4.63,4.63,0,0,0,233.83,285.48Z" style="fill: rgb(255, 255, 255); transform-origin: 238.365px 285.485px;" id="elw61ejntlrj" class="animable"></path><path d="M126,251.66c.06,1.25,4.41,10.07,9.94,10.79,1.81.23,3.51-9.56,3.51-9.56l.29-.69,4.06-9.72-12.06-11S126,251.13,126,251.66Z" style="fill: rgb(235, 148, 129); transform-origin: 134.9px 246.967px;" id="elyax41w6ccg" class="animable"></path><path d="M143.85,242.48l-4.07,9.72a21.15,21.15,0,0,1-9.95-14c1-3.42,1.81-6.26,1.92-6.67a.15.15,0,0,0,0-.06l1.55,1.31Z" style="fill: rgb(38, 50, 56); transform-origin: 136.84px 241.835px;" id="elbezk7h38146" class="animable"></path><path d="M159.6,229.13c-1.67,18.41-12.88,19.49-16.85,19.12-3.61-.33-15.83-1.92-16.07-20.4s8.85-23.52,17.13-23.19S161.27,210.73,159.6,229.13Z" style="fill: rgb(235, 148, 129); transform-origin: 143.237px 226.474px;" id="elqwn94c06ltf" class="animable"></path><path d="M157.27,226.51a12.2,12.2,0,0,1-1.19-.46,2,2,0,0,1-1.12-.7.67.67,0,0,1,.12-.8,1.65,1.65,0,0,1,1.65-.11,2.37,2.37,0,0,1,1.35,1.07A.7.7,0,0,1,157.27,226.51Z" style="fill: rgb(38, 50, 56); transform-origin: 156.52px 225.403px;" id="ell7uzunkwxk" class="animable"></path><path d="M144.54,225.92c.44,0,.85,0,1.28-.06a2.07,2.07,0,0,0,1.29-.31.64.64,0,0,0,.12-.79,1.62,1.62,0,0,0-1.52-.64,2.41,2.41,0,0,0-1.62.6A.7.7,0,0,0,144.54,225.92Z" style="fill: rgb(38, 50, 56); transform-origin: 145.597px 225.013px;" id="elw56efu4rbjd" class="animable"></path><path d="M146.69,229.07s-.11,0-.11.1c-.14,1.25-.5,2.66-1.68,2.92,0,0-.05.07,0,.07C146.3,232.15,146.76,230.28,146.69,229.07Z" style="fill: rgb(38, 50, 56); transform-origin: 145.787px 230.615px;" id="elrzbpkru5rp" class="animable"></path><path d="M145.75,227.61c-2-.43-2.69,3.57-.85,4S147.42,228,145.75,227.61Z" style="fill: rgb(38, 50, 56); transform-origin: 145.265px 229.61px;" id="el09tql9s0ie09" class="animable"></path><path d="M144.93,227.68c-.39.17-.8.51-1.23.47s-.79-.52-1-1c0,0-.06,0-.07,0-.15.76,0,1.6.8,1.86s1.39-.35,1.72-1.08C145.17,227.85,145.09,227.62,144.93,227.68Z" style="fill: rgb(38, 50, 56); transform-origin: 143.866px 228.111px;" id="eljcwpr3kswg" class="animable"></path><path d="M154.05,230.05s.09.08.08.13c-.27,1.23-.38,2.69.67,3.3,0,0,0,.08,0,.07C153.44,233.1,153.6,231.18,154.05,230.05Z" style="fill: rgb(38, 50, 56); transform-origin: 154.264px 231.8px;" id="eltmnffaikfoh" class="animable"></path><path d="M155.4,229c2,.22,1.43,4.24-.44,4S153.7,228.78,155.4,229Z" style="fill: rgb(38, 50, 56); transform-origin: 155.234px 231.001px;" id="el4qmehz3nd8c" class="animable"></path><path d="M156.2,229.35c.28.26.54.7.92.78s.82-.3,1.16-.67c0,0,.06,0,.06,0-.09.77-.46,1.53-1.22,1.57s-1.1-.69-1.17-1.48C155.94,229.45,156.08,229.25,156.2,229.35Z" style="fill: rgb(38, 50, 56); transform-origin: 157.145px 230.177px;" id="elroe6atntkus" class="animable"></path><path d="M144.51,239.51c.22.36.41.83.85,1a3.25,3.25,0,0,0,1.39,0,0,0,0,0,1,0,.08,1.68,1.68,0,0,1-1.71.27,1.35,1.35,0,0,1-.69-1.32C144.38,239.46,144.48,239.46,144.51,239.51Z" style="fill: rgb(38, 50, 56); transform-origin: 145.546px 240.229px;" id="el168r4suh7gxi" class="animable"></path><path d="M150.72,235.68s-.11,1.9-.28,2.77c0,.08-.23.08-.53,0h0a4.21,4.21,0,0,1-3.72-2.33.09.09,0,0,1,.15-.09,6.43,6.43,0,0,0,3.57,1.82c.11-.23.07-3.26.21-3.24a7.85,7.85,0,0,1,1.89.83c.33-3.94,0-7.9.42-11.81,0-.14.22-.15.24,0a64.7,64.7,0,0,1,.09,12.75C152.7,236.9,151,235.9,150.72,235.68Z" style="fill: rgb(38, 50, 56); transform-origin: 149.609px 231.016px;" id="el8zq3dyuvbgn" class="animable"></path><path d="M126.9,228.91c3,.73,4.64-6.17,4.64-6.17s6.14,1,9.63-7.47a13.79,13.79,0,0,1-3.93,6.86s11.12,1.31,17.18-7c0,0-2.59,4.32-4.56,5.68,0,0,4.75-.52,7.58-3.85,0,0,1,5.55,2.25,7.24,0,0,2.69-19-15.21-19.92,0,0-11.13-1.09-16.51,7S126.9,228.91,126.9,228.91Z" style="fill: rgb(38, 50, 56); transform-origin: 142.55px 216.597px;" id="elql51scl5bir" class="animable"></path><path d="M129.48,229.53s-3-6.39-5.79-5.43-1.31,9.72,1.51,11.39a3.14,3.14,0,0,0,4.42-.92Z" style="fill: rgb(235, 148, 129); transform-origin: 125.909px 230.017px;" id="elmvau2fmvhb9" class="animable"></path><path d="M124.19,226.6s-.07.05,0,.08c2,1.24,2.73,3.4,3.15,5.58a1.73,1.73,0,0,0-2.46-.92c-.06,0,0,.13,0,.13a1.92,1.92,0,0,1,2,1,9.48,9.48,0,0,1,.7,1.86c.06.21.42.17.39-.06,0,0,0,0,0-.05C128.47,231.55,127,227.39,124.19,226.6Z" style="fill: rgb(38, 50, 56); transform-origin: 126.113px 230.534px;" id="elsvle63bunim" class="animable"></path><path d="M388.91,406.72c-1,2.65-49,62.27-52.21,63.39-1.24.43-10.33-6.05-21.09-14.19-2.33-1.76-4.72-3.59-7.13-5.46-15.7-12.13-32.08-25.37-32.08-25.37l32-40,31.2,26.47,6.85,5.81s28.58-14.62,32.29-15.46S389.89,404.08,388.91,406.72Z" style="fill: rgb(235, 148, 129); transform-origin: 332.699px 427.61px;" id="elamhvu9y78u6" class="animable"></path><path d="M388.92,406.72c-1,2.64-48.95,62.27-52.22,63.39-1.08.38-8.16-4.53-17.13-11.21,9.15-6.65,43.89-38,48.56-46.43,2.45-4.46-1.13-4.42-5.52-3.19,7.16-3.53,14.36-6.95,16.1-7.35C382.42,401.1,389.89,404.08,388.92,406.72Z" style="fill: rgb(38, 50, 56); transform-origin: 354.288px 435.96px;" id="el6ts3iz2nsa9" class="animable"></path><path d="M337.9,405.55l-33.27,44.89L192.35,372.53,181.53,365s-3.07,2.06-7.68,4.61c-6.41,3.54-15.81,8-24.11,9.25-13.94,2.07-37.22,1.85-49-13.86-9.9-13.23-4.52-30.49-4.52-30.49l15.3-6.57s36.22-30.17,59.68-31.08c10-.4,24.47,7.15,37.91,15S337.9,405.55,337.9,405.55Z" style="fill: rgb(38, 50, 56); transform-origin: 216.33px 373.642px;" id="elxr33muce9sk" class="animable"></path><path d="M334.17,402.78q.27,3,.52,5.92c0,.35.06.7.1,1.05l-.35.45c-.25-2.57-.47-5.15-.7-7.74A4.8,4.8,0,0,1,334.17,402.78Zm-19.23-14.25-.39-.28a21,21,0,0,0,.61,3.91c1.1,4.49,3.44,8.71,5.57,12.78a126.32,126.32,0,0,1,6.89,14.47l.23-.29A99.55,99.55,0,0,0,322.74,408c-2.41-4.62-5.13-9.28-6.75-14.27A22.22,22.22,0,0,1,314.94,388.53Zm-14.18,50.78a12.67,12.67,0,0,1-3.37,6.12l.24.16a12.13,12.13,0,0,0,3-4.63c1.49-4.17.89-8.76.29-13-.68-4.63-2-10.1-.3-14.65a5.69,5.69,0,0,1,5.4-4,8.1,8.1,0,0,1,5.45,2.82c3.68,4,2.93,9.23,1.54,14-1.22,4.22-2.92,8.37-2.64,12.85a15.37,15.37,0,0,0,.51,3.13l.24-.33c-2.17-8.23,4.52-16.07,3.31-24.42a10.41,10.41,0,0,0-5.78-7.72,5.87,5.87,0,0,0-8,2.84c-1.79,3.7-1.06,8.35-.51,12.27C300.76,429.48,301.87,434.52,300.76,439.31Zm-27.92-10.92.32.22a19.51,19.51,0,0,1,1.81-5.26,25.88,25.88,0,0,1,9.46-10.07c3.74-2.31,8-3.79,11.67-6.16a18.28,18.28,0,0,0,7.6-9.61,28.32,28.32,0,0,0,1.6-12.63,16.63,16.63,0,0,0-1.12-4.3c-.12-.11-.25-.2-.38-.3A19.92,19.92,0,0,1,305,391c-.65,5-2.33,10.22-6.16,13.71-3.4,3.09-7.82,4.73-11.85,6.81C280.25,415,274.45,420.88,272.84,428.39Zm-3-24.57c2.74,1.82,6.27,2.32,9,.28,3-2.25,3.82-6.42,3.79-10,0-4.85-1.61-10.32,1-14.77a11.83,11.83,0,0,1,8.85-5.33,13.1,13.1,0,0,1,2.8,0l-.44-.32a13.69,13.69,0,0,0-3,.13,12.27,12.27,0,0,0-7.7,4.28c-2.73,3.44-2.42,8-2.08,12.13.36,4.32.7,9.61-2.65,12.94-3.51,3.52-8.62,1.72-11.65-1.46-6.78-7.13-3.81-19,3.25-24.71,4.92-4,11.08-5.78,16.68-8.57l-.28-.21c-.8.4-1.6.78-2.41,1.14-7.05,3.17-15.11,5.9-19,13.13C262.3,389.41,262.85,399.19,269.83,403.82Zm3.24-41.25a10.51,10.51,0,0,0,2.26-3.26l-.29-.2a9.87,9.87,0,0,1-.79,1.51c-2.3,3.61-6.6,4.73-10.59,3.59a11.17,11.17,0,0,1-8-8.63,15.94,15.94,0,0,1,1.24-9.73l-.2-.14c-2,4.17-2.44,8.92-.18,13.26C259.5,364.58,268.16,367.27,273.07,362.57Zm-22.58,48c-.92.09-1.85.22-2.77.34l.38.27.19,0c5-.71,10.58-1,14,3.51a11.62,11.62,0,0,1,2.31,8l.32.23a12,12,0,0,0-3-9.12C259,410.54,254.63,410.16,250.49,410.61Zm.83-22.29c-4.3,2.56-9.57,1.4-14.29,1.4-3.54,0-7.64.59-10.16,3.33a7.27,7.27,0,0,0-1.49,2.41l.31.21a9,9,0,0,1,6.56-5.15c4.54-1.06,9.15.08,13.74-.34,3.47-.29,6.81-1.65,8.58-4.8a11.51,11.51,0,0,0,.93-8.55,9.26,9.26,0,0,0-5.6-6.35c-4.48-1.7-9.4-.2-13.9.65a26.63,26.63,0,0,1-14.16-.83,25.31,25.31,0,0,1-11.27-7.92c-3.22-4-5.41-9.73-3.07-14.69a8.31,8.31,0,0,1,12-3.9c7.42,4.28,9.08,16.14,18.58,17.2a6.72,6.72,0,0,0,7.63-5.17c.83-3.6-.48-7.48-2.58-10.4-4.86-6.73-13.2-9.35-20.76-11.68-4.45-1.37-9-2.78-12.93-5.26a22.84,22.84,0,0,1-9.13-11A31.91,31.91,0,0,1,198,305.71a1.19,1.19,0,0,0-.25-.13,27.26,27.26,0,0,0,.13,3.28,30.54,30.54,0,0,0,3.84,12.2,23.25,23.25,0,0,0,9.29,8.68c7.74,4.12,16.77,5,24.38,9.44,3.63,2.12,7,5,8.88,8.84s2.25,10.45-2.73,12.28c-4.51,1.67-9-1.38-11.73-4.77s-4.74-7.78-8.3-10.69c-3-2.43-7-3.65-10.51-1.58a10.39,10.39,0,0,0-4.79,9.52c.44,8.53,8.29,15.36,15.89,17.94a25.8,25.8,0,0,0,12.33,1c5-.79,10.39-2.82,15.35-.94C256.78,373.4,257.74,384.49,251.32,388.32Zm-49.46-9.19.25.18c1.61-3.09,4.77-5.38,8.37-4.09,4.13,1.46,6.65,6.4,6.76,10.55a21.48,21.48,0,0,1-.26,3.85l.25.18a22.33,22.33,0,0,0,.32-3,13.19,13.19,0,0,0-3.85-9.92c-2.27-2.2-5.49-3.14-8.39-1.58A8.39,8.39,0,0,0,201.86,379.13Zm-28.62-11.41c0,.76-.08,1.55-.14,2.32l.37-.19c.51-6.57-.05-13.35,1.39-19.72,1.09-4.8,3.48-9.53,8.72-10.62a11.48,11.48,0,0,1,12,5.35,15.2,15.2,0,0,1,.86,13.48c-1.76,4.38-4.91,8-7.82,11.64l.2.14c5.16-6.53,11.32-13.87,8.21-22.73a12.29,12.29,0,0,0-7.31-7.66A11.21,11.21,0,0,0,179.65,341c-3.61,2.64-4.85,7.46-5.5,11.64C173.37,357.6,173.5,362.67,173.24,367.72Zm-35.94,5.67a42.56,42.56,0,0,1,.32,6.41h.28c.23-7.51-2.69-15.24-.17-22.56,1.42-4.12,5.47-8.12,10.08-8s7.32,4.56,7.95,8.74c1,6.66-2.84,13.59-2.38,20.16l.29-.07a15.42,15.42,0,0,1,0-2.63c.39-5,2.53-9.77,2.58-14.82,0-3.36-.87-7.1-3.38-9.52a7.92,7.92,0,0,0-9.17-1.18C134.79,354.34,136.4,365.28,137.3,373.39Zm39.29-56.75c-.2,3.49,0,7.08,2.25,10,1.9,2.5,5.11,3,7.28.49,2.78-3.23,3.13-8.57,2.89-12.61-.3-5-1.71-9.72-3.16-14.45l-.39-.14c.7,2.24,1.39,4.47,1.94,6.68,1.29,5.25,2,10.84.49,16.12-.67,2.4-1.94,5.4-4.75,5.78-2.09.28-3.71-1.31-4.68-3-2.26-3.88-1.68-8.41-1.26-12.67.44-4.59,1.11-9.22.7-13.83,0-.49-.09-1-.17-1.48l-.3-.06a30.19,30.19,0,0,1,.3,5.21C177.65,307.35,176.88,312,176.59,316.64Zm-24.77-6.19c.45,4.84-.19,9.65,0,14.48.17,4,1.32,8.14,4.77,10.57a6.89,6.89,0,0,0,9.32-1c2.9-3.22,2.93-7.67,2.05-11.67-1.18-5.39-3-10.67-4.58-15.95a70.08,70.08,0,0,1-2.21-8.23l-.25.08c0,.11,0,.2,0,.31a70.31,70.31,0,0,0,2.09,7.91c.8,2.71,1.58,5.41,2.38,8.11,1.48,5,4,11.06,2,16.29a8.07,8.07,0,0,1-4.92,5,7.08,7.08,0,0,1-6.73-2c-4-3.76-3.77-9.57-3.54-14.61a56.1,56.1,0,0,0-.67-13.33,22.85,22.85,0,0,0-1.06-3.68l-.21.1A34.24,34.24,0,0,1,151.82,310.45ZM131.75,336.2c2.79.53,6.05.17,8-2.16,2.69-3.26,1.37-8-.11-11.46-1.58-3.71-3.87-7.06-5.64-10.67a1.59,1.59,0,0,0-.27.18c.68,1.39,1.43,2.73,2.19,4.05,2.46,4.33,6.09,9.9,4.84,15.13-1.06,4.45-5.76,5.45-9.67,4.44-6.48-1.65-9.47-7.71-13.75-12.26l-.24.18C121.61,328.39,124.69,334.83,131.75,336.2ZM95.61,353.37a.93.93,0,0,0,0,.24,6.29,6.29,0,0,0,2.22-.6c3.71-1.76,5.58-5.91,8.81-8.31,4-2.93,9.58-4.09,14-1.55,4.13,2.37,6.51,7.26,4.86,11.86-1.44,4-5,6.76-8,9.65a21.33,21.33,0,0,0-6,9.54,1,1,0,0,0,.27.14,20.52,20.52,0,0,1,5.25-8.81c2.67-2.75,5.87-5.16,7.8-8.52a9.72,9.72,0,0,0,.11-10,11.35,11.35,0,0,0-9.29-5.56,15,15,0,0,0-11,4.48C102.11,348.59,99.73,353,95.61,353.37Z" style="fill: rgb(69, 90, 100); transform-origin: 215.196px 371.51px;" id="elvlnbk274ere" class="animable"></path><path d="M181.53,365s-3.07,2.06-7.68,4.61c-8.16-9.76-25.43-27.5-26-28.13Z" style="fill: rgb(55, 71, 79); transform-origin: 164.69px 355.545px;" id="elkb6upa8ur7" class="animable"></path><path d="M124.83,317.86c-2.16,1.5-4.26,3.1-6.39,4.64s-4.27,2.95-6.27,4.6-4,3.49-5.87,5.3c-.92.88-1.84,1.76-2.73,2.67A24.94,24.94,0,0,0,101,337.9c-.07.1.07.21.16.15a28.45,28.45,0,0,0,2.9-2.36c1-.85,2-1.72,3-2.57,1.94-1.66,3.93-3.27,5.87-4.93s3.72-3.45,5.63-5.12,4.2-3.45,6.32-5.14C124.91,317.9,124.88,317.83,124.83,317.86Z" style="fill: rgb(55, 71, 79); transform-origin: 112.937px 327.96px;" id="elsjrvvgrgp8" class="animable"></path><path d="M326.5,401c-2,2.46-3.86,5.09-5.72,7.67s-3.72,5.18-5.56,7.79c-3.68,5.22-7.39,10.41-11,15.68-2,2.9-3.93,5.81-5.76,8.81-.08.13.14.26.23.15,4-5,7.61-10.24,11.28-15.46s7.34-10.46,10.94-15.73c2-2.89,4-5.77,5.79-8.77C326.78,401,326.59,400.87,326.5,401Z" style="fill: rgb(55, 71, 79); transform-origin: 312.581px 421.044px;" id="elr0737j6e4z" class="animable"></path><path d="M238,404.4c-5.59-4.41-11.38-8.56-17.17-12.69s-11.53-8.23-17.37-12.21c-1.68-1.15-3.38-2.27-5.07-3.39s-3.45-2.16-5.1-3.33c-.1-.07-.18.09-.09.16,1.52,1.09,3,2.31,4.45,3.44s2.84,2.17,4.28,3.24c2.8,2.08,5.63,4.11,8.46,6.16,5.74,4.14,11.52,8.24,17.35,12.24,3.32,2.28,6.62,4.56,10,6.72C237.9,404.87,238.14,404.55,238,404.4Z" style="fill: rgb(55, 71, 79); transform-origin: 215.602px 388.767px;" id="el1dyati8dmyj" class="animable"></path><path d="M273.85,358.08c-5.16-4.28-10.69-8.13-16.1-12.08s-10.92-8-16.42-12L225,322.17c-5.28-3.82-10.54-7.7-16.12-11.09q-4.59-2.77-9.41-5.11a60.81,60.81,0,0,0-9.72-4c-.1,0-.15.12-.06.17,2.75,1.54,5.64,2.83,8.42,4.31s5.46,3,8.13,4.62c5.54,3.36,10.77,7.18,16,11,10.92,7.85,21.81,15.73,32.8,23.47,6.15,4.33,12.18,8.9,18.56,12.88C273.8,358.54,274,358.23,273.85,358.08Z" style="fill: rgb(55, 71, 79); transform-origin: 231.773px 330.209px;" id="elrsucyy6cngs" class="animable"></path></g><g id="freepik--Plant--inject-6" class="animable" style="transform-origin: 420.178px 372.946px;"><path d="M422.76,376.71a60.24,60.24,0,0,0-3.06,10.63c.08.19,0,.86-.1.67-.08.59-1,.39-.92-.2.05-.38.1-.76.16-1.13-1.84-2.85-4.74-4.84-7-7.39a14.47,14.47,0,0,1-3.5-7.14c-1.31-7.32,1.41-14.64-.32-22-1.49-6.34-4.77-12.05-7.43-17.93-2.8-6.21-4.68-12.63-4.21-19.51.35-5.27,1.72-12.2,6.13-15.71,4.68-3.73,9.6-.05,12.46,4,8.27,11.8,11.18,25.9,11.47,40,.15,7.82.34,15.7-.71,23.47A63.55,63.55,0,0,1,422.76,376.71Z" style="fill: rgb(66, 140, 255); transform-origin: 411.433px 341.909px;" id="elc5b8jvbl84" class="animable"></path><path d="M419.44,390.18a133.06,133.06,0,0,0,2.05-21.9s0,0,.05-.08c.74-5.9,1.83-11.74,2.22-17.69a105.3,105.3,0,0,0-.6-19.28c0-.08-.12-.07-.11,0a124.33,124.33,0,0,1,.09,18.81c-.23,3.36-.6,6.7-1.13,10-.17,1.08-.39,2.16-.58,3.25h0a117.82,117.82,0,0,0-12.68-48.42c-.11-.2-.47,0-.37.18a122,122,0,0,1,10.68,36c-3.64-8.86-9.75-16.47-14-25.06,0,0-.1,0-.08,0,3.61,9.44,10.39,17.31,14.25,26.65.46,3.69.75,7.4.88,11.11a123,123,0,0,1-.51,15.24c-2.21-5.44-4.55-10.67-6.23-16.35a.12.12,0,0,0-.23.07c1.32,5.86,3.25,12.23,6.35,17.44-.35,3.58-.84,7.16-1.43,10.71-1.57,9.49-4.19,18.75-5.95,28.19a.22.22,0,0,0,.43.09A218.81,218.81,0,0,0,419.44,390.18Z" style="fill: rgb(38, 50, 56); transform-origin: 414.465px 367.045px;" id="elro5rdswxnk" class="animable"></path><path d="M417.07,315.45c0-.07-.13,0-.11,0,1.23,5,1.7,10,2.44,15.08a.19.19,0,0,0,.37,0C419.79,325.47,418.52,320.28,417.07,315.45Z" style="fill: rgb(38, 50, 56); transform-origin: 418.364px 323.048px;" id="elx6yjlsh8i5o" class="animable"></path><path d="M459.24,340.34a72.48,72.48,0,0,1-4.88,7.82c-3.75,5.38-7.57,10.26-8.87,16.84a40.82,40.82,0,0,1-2.19,8.67,26.63,26.63,0,0,1-4.23,6.52c-3.93,4.6-8.64,8.43-12.34,13.24a60.87,60.87,0,0,0-9,16.57c-.11.33-.63.18-.52-.14a.26.26,0,0,0,0-.08.07.07,0,0,1,0-.07c1-14.3,3.65-28.53,9.43-41.72a146.92,146.92,0,0,1,8.76-16.84,41.57,41.57,0,0,1,10.73-12.42c2.9-2.11,9.13-6,12.65-3.24C460.47,336.84,460.14,338.64,459.24,340.34Z" style="fill: rgb(66, 140, 255); transform-origin: 438.588px 372.36px;" id="eldlfnh6jgbi4" class="animable"></path><path d="M441.52,371.12a117.56,117.56,0,0,1-9.53,11c-1.57,1.66-3.16,3.29-4.73,5-.74.78-1.56,1.56-2.25,2.41.54-1.46,1.06-2.92,1.6-4.38,2.6-7,5.13-14.07,8.6-20.71a145.09,145.09,0,0,1,11.93-18.34c.11-.16-.14-.3-.25-.15-3.54,4.63-7.11,9.25-10.19,14.2a81.33,81.33,0,0,0-4.6,8.58A139.83,139.83,0,0,1,439,350.07c0-.06-.05-.11-.08-.05a65.71,65.71,0,0,0-7.14,19.39s0,0,0,0c-.82,1.78-1.58,3.59-2.31,5.42-3.08,7.73-5.9,15.57-8.58,23.46a86.49,86.49,0,0,1,3-15.69c0-.12-.14-.17-.18-.06a50.44,50.44,0,0,0-3.14,16.56q-1.52,4.5-3,9c-2.09,6.42-4.52,12.92-6,19.5a.13.13,0,0,0,.26.07c1.36-3.49,2.34-7.15,3.52-10.71s2.4-7.12,3.63-10.67c1.8-5.17,3.65-10.31,5.53-15.46,1.08-1.84,3-3.38,4.42-4.87s3.18-3.26,4.74-4.93a81.43,81.43,0,0,0,8-9.88C441.69,371.12,441.57,371.05,441.52,371.12Z" style="fill: rgb(38, 50, 56); transform-origin: 429.367px 386.827px;" id="el3vqrl2fk4c" class="animable"></path><path d="M442.77,365.1a74.54,74.54,0,0,0-9.46,12c0,.06.05.13.09.08,3.18-4,6.31-8,9.49-12C442.94,365.12,442.83,365,442.77,365.1Z" style="fill: rgb(38, 50, 56); transform-origin: 438.106px 371.129px;" id="ela8tdckj6uuk" class="animable"></path><path d="M383.47,346c1.51,3.37,3.22,7.41,2,11.15-.75,2.36-2.73,4.13-3.31,6.57-1.29,5.36,3.75,9.53,7.41,12.51,9.1,7.45,21.91,14.59,22.31,27.88,0,.47.83.44.82,0a.28.28,0,0,0,0-.09s.05,0,.06-.07a50.51,50.51,0,0,0,1.92-20c-.74-6.91-3.05-13.29-5.9-19.59-4.83-10.66-10-21.6-18.07-30.23-2.24-2.39-6.88-6.75-9.35-2.15S381.62,341.89,383.47,346Z" style="fill: rgb(66, 140, 255); transform-origin: 397.665px 367.205px;" id="el32weczn16ft" class="animable"></path><path d="M390.18,368.24c5.74,7.71,15.64,12.73,20.39,21.18a79.31,79.31,0,0,0-13.79-34.12.26.26,0,0,1,.4-.32,64.28,64.28,0,0,1,11.9,21.84,91.16,91.16,0,0,0-4.42-16.11c-.07-.2.22-.34.31-.14a59.41,59.41,0,0,1,4.69,18.08c5.47,18.58,3.95,39.54.43,58.14,0,.27-.46.23-.42,0,2-14.75,3.33-29.82,1.31-44.64-.05-.31-.1-.61-.14-.92-5.18-9.11-15-14.11-20.78-22.85C390,368.26,390.12,368.16,390.18,368.24Z" style="fill: rgb(38, 50, 56); transform-origin: 401.651px 395.946px;" id="elyr3b37wz87" class="animable"></path><path d="M389.31,362.05c3.08,3.49,6.09,7,9.17,10.51,0,0,0,.1-.06.06a50.08,50.08,0,0,1-9.33-10.38C389,362.08,389.19,361.91,389.31,362.05Z" style="fill: rgb(38, 50, 56); transform-origin: 393.773px 367.314px;" id="elihq8zolyvqi" class="animable"></path><path d="M390.2,348.47a107.14,107.14,0,0,0,8.71,15.08c0,.06-.05.14-.1.08a49.68,49.68,0,0,1-8.8-15.08A.1.1,0,0,1,390.2,348.47Z" style="fill: rgb(38, 50, 56); transform-origin: 394.456px 356.029px;" id="eljo7j0begtsl" class="animable"></path><polygon points="400.04 450.44 430.02 450.44 425.98 410.1 404.65 410.1 400.04 450.44" style="fill: rgb(69, 90, 100); transform-origin: 415.03px 430.27px;" id="elg5b70iy5ps5" class="animable"></polygon><polygon points="403.9 416.66 426.64 416.66 425.98 410.1 404.65 410.1 403.9 416.66" style="fill: rgb(38, 50, 56); transform-origin: 415.27px 413.38px;" id="eljxdi3jpomnb" class="animable"></polygon><g id="ell5lfxer785"><rect x="400.98" y="405.63" width="28.1" height="6.44" style="fill: rgb(69, 90, 100); transform-origin: 415.03px 408.85px; transform: rotate(180deg);" class="animable"></rect></g></g><defs>     <filter id="active" height="200%">         <feMorphology in="SourceAlpha" result="DILATED" operator="dilate" radius="2"></feMorphology>                <feFlood flood-color="#32DFEC" flood-opacity="1" result="PINK"></feFlood>        <feComposite in="PINK" in2="DILATED" operator="in" result="OUTLINE"></feComposite>        <feMerge>            <feMergeNode in="OUTLINE"></feMergeNode>            <feMergeNode in="SourceGraphic"></feMergeNode>        </feMerge>    </filter>    <filter id="hover" height="200%">        <feMorphology in="SourceAlpha" result="DILATED" operator="dilate" radius="2"></feMorphology>                <feFlood flood-color="#ff0000" flood-opacity="0.5" result="PINK"></feFlood>        <feComposite in="PINK" in2="DILATED" operator="in" result="OUTLINE"></feComposite>        <feMerge>            <feMergeNode in="OUTLINE"></feMergeNode>            <feMergeNode in="SourceGraphic"></feMergeNode>        </feMerge>            <feColorMatrix type="matrix" values="0   0   0   0   0                0   1   0   0   0                0   0   0   0   0                0   0   0   1   0 "></feColorMatrix>    </filter></defs></svg>