<svg class="animated" id="freepik_stories-trip" xmlns="http://www.w3.org/2000/svg" width="500" height="500" version="1.1" xmlns:xlink="http://www.w3.org/1999/xlink" xmlns:svgjs="http://svgjs.com/svgjs"><style>svg#freepik_stories-trip:not(.animated) .animable {opacity: 0;}svg#freepik_stories-trip.animated #freepik--background-complete--inject-16 {animation: 1s 1 forwards cubic-bezier(.36,-0.01,.5,1.38) zoomOut;animation-delay: 0s;}svg#freepik_stories-trip.animated #freepik--Plants--inject-16 {animation: 1s 1 forwards cubic-bezier(.36,-0.01,.5,1.38) fadeIn;animation-delay: 0s;}svg#freepik_stories-trip.animated #freepik--Floor--inject-16 {animation: 1s 1 forwards cubic-bezier(.36,-0.01,.5,1.38) lightSpeedLeft;animation-delay: 0s;}svg#freepik_stories-trip.animated #freepik--Airplane--inject-16 {animation: 1s 1 forwards cubic-bezier(.36,-0.01,.5,1.38) fadeIn;animation-delay: 0s;}svg#freepik_stories-trip.animated #freepik--Birds--inject-16 {animation: 1s 1 forwards cubic-bezier(.36,-0.01,.5,1.38) slideDown;animation-delay: 0s;}svg#freepik_stories-trip.animated #freepik--Shadow--inject-16 {animation: 1s 1 forwards cubic-bezier(.36,-0.01,.5,1.38) zoomOut;animation-delay: 0s;}svg#freepik_stories-trip.animated #freepik--Character--inject-16 {animation: 1s 1 forwards cubic-bezier(.36,-0.01,.5,1.38) slideLeft;animation-delay: 0s;}            @keyframes zoomOut {                0% {                    opacity: 0;                    transform: scale(1.5);                }                100% {                    opacity: 1;                    transform: scale(1);                }            }                    @keyframes fadeIn {                0% {                    opacity: 0;                }                100% {                    opacity: 1;                }            }                    @keyframes lightSpeedLeft {              from {                transform: translate3d(-50%, 0, 0) skewX(20deg);                opacity: 0;              }              60% {                transform: skewX(-10deg);                opacity: 1;              }              80% {                transform: skewX(2deg);              }              to {                opacity: 1;                transform: translate3d(0, 0, 0);              }            }                    @keyframes slideDown {                0% {                    opacity: 0;                    transform: translateY(-30px);                }                100% {                    opacity: 1;                    transform: translateY(0);                }            }                    @keyframes slideLeft {                0% {                    opacity: 0;                    transform: translateX(-30px);                }                100% {                    opacity: 1;                    transform: translateX(0);                }            }        </style><g id="freepik--background-complete--inject-16" class="animable" style="transform-origin: 248.61px 257.178px;"><path d="M461.07,428s-77-42.47-124.79-42.47c-57.35,0-113.08,18.93-134.23,25.18C146.52,427.11,38.93,428,38.93,428Z" style="fill: rgb(219, 219, 219); transform-origin: 250px 406.765px;" id="el4w5oegc9go7" class="animable"></path><path d="M38.93,428s43.74-24.71,93.14-24.71c34.48,0,84,5.12,130.59,13.51C280.41,420,372.8,428,372.8,428Z" style="fill: rgb(199, 199, 199); transform-origin: 205.865px 415.645px;" id="el9spfzmp7uj" class="animable"></path><path d="M278.21,300c5.28,0,137-.92,174.15-.92,2.6,0-.69-4.5-2.12-4.81-4.58-1-9.34-1.06-14-1.54a45.56,45.56,0,0,1-13.33-3.34c-3.65-1.54-7.31-3.33-11.27-4-7.66-1.2-14.39,3-21.57,4.79A16.27,16.27,0,0,1,377,288.46c-3.32-2-6.34-4.38-9.81-6.14a53.82,53.82,0,0,0-43-2,50.37,50.37,0,0,0-9.42,4.81c-3.51,2.31-6.53,5.25-10.05,7.53-7.8,5-17.45,3.4-25.95,6.29C278.28,299.14,277.75,300,278.21,300Z" style="fill: rgb(235, 235, 235); transform-origin: 365.682px 288.388px;" id="ele5ggovrc9cm" class="animable"></path><path d="M306.22,110.62c7,0,124.38.77,131.76.54.53,0,.81-.8.28-1.06-4.65-2.3-9.92-1.84-14.76-3.47-2.84-1-4.59-2.82-6.56-4.95a13.69,13.69,0,0,0-6.11-4,12.93,12.93,0,0,0-6.65-.2c-2.38.56-4.45,1.93-6.72,2.79-5.64,2.13-11.12.1-15.15-4.07-3.32-3.44-6.59-6.69-11.1-8.54a14.76,14.76,0,0,0-11.76-.16c-4.31,1.95-7.26,5.87-11.31,8.23-4.79,2.81-10.53,2.14-15.82,3s-9.36,5.3-14,7.87a9.84,9.84,0,0,1-5.06,1.57c-1,0-2.06-.31-3.08-.43-1.6-.2-3.12-.16-4.2,1.18C305.71,109.24,305.76,110.62,306.22,110.62Z" style="fill: rgb(235, 235, 235); transform-origin: 372.18px 98.7798px;" id="elr7t9snohbya" class="animable"></path><path d="M62,137.91c5.09,0,90.8.57,96.19.39.39,0,.6-.58.21-.77-3.39-1.68-7.25-1.34-10.78-2.53-2.07-.7-3.35-2.06-4.79-3.61a10,10,0,0,0-4.46-2.92,9.39,9.39,0,0,0-4.85-.15,42,42,0,0,0-4.91,2c-4.12,1.55-8.12.08-11.06-3-2.43-2.51-4.81-4.88-8.11-6.23a10.72,10.72,0,0,0-8.58-.12c-3.15,1.42-5.3,4.29-8.26,6-3.5,2-7.68,1.56-11.55,2.18S74.19,133.1,70.8,135a7.15,7.15,0,0,1-3.69,1.14,21.37,21.37,0,0,1-2.25-.32,3.07,3.07,0,0,0-3.06.87C61.6,136.91,61.64,137.91,62,137.91Z" style="fill: rgb(235, 235, 235); transform-origin: 110.144px 129.234px;" id="elu00jdjtrmxe" class="animable"></path><path d="M354.21,245.25c5.09,0,90.81.57,96.19.39.39,0,.6-.58.21-.77-3.39-1.68-7.24-1.34-10.77-2.53-2.08-.7-3.35-2.06-4.8-3.61a9.91,9.91,0,0,0-4.46-2.92,9.39,9.39,0,0,0-4.85-.15,42,42,0,0,0-4.91,2c-4.12,1.55-8.12.08-11.06-3-2.42-2.51-4.81-4.88-8.1-6.23a10.74,10.74,0,0,0-8.59-.12c-3.14,1.42-5.3,4.29-8.25,6-3.5,2.05-7.69,1.56-11.56,2.18s-6.83,3.87-10.22,5.75a7.21,7.21,0,0,1-3.7,1.14,21.37,21.37,0,0,1-2.25-.32A3.07,3.07,0,0,0,354,244C353.84,244.25,353.88,245.25,354.21,245.25Z" style="fill: rgb(235, 235, 235); transform-origin: 402.363px 236.574px;" id="elsfzjyrjnlsc" class="animable"></path><path d="M166.22,168.85c.1.28,135.09,0,133.39,0-.78,0,1.18-1.17.42-1.54-4.4-2.18-9.2-2.24-14-2.68a21.52,21.52,0,0,1-8.17-2c-2.55-1.33-4.13-3.64-5.94-5.78a25.36,25.36,0,0,0-23.05-8.73c-9.6,1.5-17.16,8.81-26.78,10.16-5.78.81-11.24-1.43-16.88-2.22a20.7,20.7,0,0,0-12.68,2.32c-3,1.51-5.86,2.78-9.3,3-2.65.19-5.3-.11-8-.14a17.82,17.82,0,0,0-11.69,4.67C163.17,166.32,161.81,168.85,166.22,168.85Z" style="fill: rgb(235, 235, 235); transform-origin: 231.63px 158.413px;" id="elfy2e0jz9dpj" class="animable"></path><path d="M83.19,427.66h-6a8.13,8.13,0,0,1-8.13-8.13V382.8l8.13-8.13h6a8.13,8.13,0,0,1,8.13,8.13v36.73A8.13,8.13,0,0,1,83.19,427.66Z" style="fill: rgb(166, 166, 166); transform-origin: 80.19px 401.165px;" id="elbdme51vyz1v" class="animable"></path><path d="M229.55,427.66h6a8.13,8.13,0,0,0,8.13-8.13V382.8l-8.13-8.13h-6a8.13,8.13,0,0,0-8.13,8.13v36.73A8.13,8.13,0,0,0,229.55,427.66Z" style="fill: rgb(166, 166, 166); transform-origin: 232.55px 401.165px;" id="elyqrbmyb0fh" class="animable"></path><path d="M254.18,351.88c-.31,14-1.21,22.82-1.21,22.82s-32.95,12.64-96.6,14.63c-63.64-2-96.59-14.63-96.59-14.63s-.91-8.86-1.22-22.82c-.07-3.28-.11-6.84-.09-10.63.11-33.55,4.34-85.32,26.13-121.83H228.14c21.8,36.51,26,88.28,26.14,121.83C254.29,345,254.25,348.6,254.18,351.88Z" style="fill: rgb(219, 219, 219); transform-origin: 156.373px 304.375px;" id="elotmyvh8w0fc" class="animable"></path><path d="M65,266.36v0c-1,4.05-2,8.25-2.75,12.52a3,3,0,0,1-2,2.32l-.13,0c-1.31-.65-2.68-1.45-3-2.07-.63-1.26,2.15-10.78,3.23-12.31S65,266.36,65,266.36Z" style="fill: rgb(166, 166, 166); transform-origin: 61.0141px 273.598px;" id="elak8bsyy30np" class="animable"></path><path d="M43.4,259.85c.27,4.13,1.68,8.28,5.22,10.67a46.21,46.21,0,0,0,10.69,4.9c1.67.58,2.38-2.07.73-2.64a52.65,52.65,0,0,1-8.51-3.7c-3.55-2-5.13-5.2-5.4-9.23-.11-1.75-2.85-1.76-2.73,0Z" style="fill: rgb(166, 166, 166); transform-origin: 52.1865px 267.018px;" id="elpn41eehs4o" class="animable"></path><path d="M53.37,257.44a8.61,8.61,0,1,1-8.6-8.61A8.6,8.6,0,0,1,53.37,257.44Z" style="fill: rgb(166, 166, 166); transform-origin: 44.76px 257.44px;" id="elubljnjk4c" class="animable"></path><path d="M231.32,222H81.43c-2.64,0-4.75-4.75-4-6.6s29.8-15.57,78.9-15.57,78.12,13.73,78.91,15.57S234,222,231.32,222Z" style="fill: rgb(235, 235, 235); transform-origin: 156.345px 210.915px;" id="elin2l3qmtlo" class="animable"></path><g id="el9q9vmfu0jun"><circle cx="84.14" cy="340.1" r="13.24" style="fill: rgb(166, 166, 166); transform-origin: 84.14px 340.1px; transform: rotate(-76.47deg);" class="animable"></circle></g><g id="elwmgm693ico"><circle cx="84.14" cy="340.1" r="11.44" style="fill: rgb(235, 235, 235); transform-origin: 84.14px 340.1px; transform: rotate(-80.75deg);" class="animable"></circle></g><path d="M70.9,313.69c2.28-1.35,7.4,5.3,4.71,7.37S67.27,315.85,70.9,313.69Z" style="fill: rgb(235, 235, 235); transform-origin: 73.0456px 317.469px;" id="eloizsi9uqqth" class="animable"></path><g id="el1dj9ggf0s2g"><circle cx="228.61" cy="340.1" r="13.24" style="fill: rgb(166, 166, 166); transform-origin: 228.61px 340.1px; transform: rotate(-14.98deg);" class="animable"></circle></g><g id="elx0ftu43ofms"><circle cx="228.61" cy="340.1" r="11.44" style="fill: rgb(235, 235, 235); transform-origin: 228.61px 340.1px; transform: rotate(-9.51deg);" class="animable"></circle></g><path d="M241.84,313.69c-2.27-1.35-7.39,5.3-4.7,7.37S245.47,315.85,241.84,313.69Z" style="fill: rgb(235, 235, 235); transform-origin: 239.7px 317.469px;" id="el7cxf7z8jft5" class="animable"></path><path d="M247.77,266.36v0c1,4.05,2,8.25,2.74,12.52a3,3,0,0,0,2,2.32l.14,0c1.3-.65,2.68-1.45,3-2.07.63-1.26-2.16-10.78-3.24-12.31S247.77,266.36,247.77,266.36Z" style="fill: rgb(166, 166, 166); transform-origin: 251.756px 273.598px;" id="ellg7depcckw" class="animable"></path><path d="M266.61,259.85c-.26,4-1.84,7.25-5.39,9.23a53,53,0,0,1-8.51,3.7c-1.66.57-.94,3.22.73,2.64a46.41,46.41,0,0,0,10.69-4.9c3.53-2.38,4.95-6.54,5.22-10.67.11-1.76-2.62-1.75-2.74,0Z" style="fill: rgb(166, 166, 166); transform-origin: 260.561px 267.018px;" id="elcv2c2gtn2r4" class="animable"></path><path d="M259.37,257.44a8.61,8.61,0,1,0,8.61-8.61A8.61,8.61,0,0,0,259.37,257.44Z" style="fill: rgb(166, 166, 166); transform-origin: 267.98px 257.44px;" id="elh7hoh0r5hnf" class="animable"></path><path d="M253.09,292.14c-11.42,3.5-60.56,21.64-91.85,82.28a3,3,0,0,1-2.67,1.64h-4.39a3,3,0,0,1-2.67-1.64c-31.3-60.64-80.44-78.78-91.86-82.28a3,3,0,0,1-2.1-3.26l0-.27.14-1.07.5-3.85a3,3,0,0,1,1.88-2.41l.13,0a3,3,0,0,0,2-2.32c.78-4.27,1.72-8.47,2.75-12.52,1.7-6.65,3.67-12.92,5.64-18.53a233.15,233.15,0,0,1,10-24.15,3,3,0,0,1,2.7-1.69H229.45a3,3,0,0,1,2.71,1.69,231.52,231.52,0,0,1,10,24.15c2,5.61,3.94,11.88,5.64,18.53,1,4.05,2,8.25,2.75,12.52a3,3,0,0,0,2,2.32l.14,0a3,3,0,0,1,1.88,2.41l.49,3.85.14,1.07,0,.27A3,3,0,0,1,253.09,292.14Z" style="fill: rgb(235, 235, 235); transform-origin: 156.375px 299.065px;" id="elgdypmu6je6a" class="animable"></path><path d="M255.16,288.61c-4.59,1.07-18.5,4.85-35.25,14.88-18.65,11.16-44.69,32.51-63.54,71.08-18.85-38.57-44.89-59.92-63.53-71.08-16.75-10-30.66-13.81-35.26-14.88l.14-1.07c4.58,1,18.66,4.86,35.62,15,18.48,11,44.14,32,63,69.6,18.89-37.59,44.56-58.56,63-69.6,17-10.14,31-14,35.62-15Z" style="fill: rgb(255, 255, 255); transform-origin: 156.37px 331.055px;" id="el54va2790tow" class="animable"></path><path d="M233.94,227.48,77.37,230.7c1.37-3.13,2.51-5.52,3.22-7a3,3,0,0,1,2.7-1.69H229.46a3,3,0,0,1,2.7,1.69C232.61,224.62,233.22,225.9,233.94,227.48Z" style="fill: rgb(219, 219, 219); transform-origin: 155.655px 226.355px;" id="elwdn7zyl0os" class="animable"></path><path d="M156.37,342.41a13.75,13.75,0,1,1,13.75-13.75A13.77,13.77,0,0,1,156.37,342.41Zm0-25.86a12.11,12.11,0,1,0,12.11,12.11A12.12,12.12,0,0,0,156.37,316.55Z" style="fill: rgb(255, 255, 255); transform-origin: 156.37px 328.66px;" id="elmjdxi5loycd" class="animable"></path><polygon points="159.39 341.92 156.44 325.79 154.24 341.9 147.01 319.23 148.58 318.73 153.59 334.47 156.2 315.39 159.62 334.02 163.44 318.21 165.04 318.59 159.39 341.92" style="fill: rgb(255, 255, 255); transform-origin: 156.025px 328.655px;" id="elw3y77mgbz59" class="animable"></polygon><path d="M152.54,233.1v30.55a5.26,5.26,0,0,1-5.26,5.26H79.6a5.25,5.25,0,0,1-5-6.93l.2-.59h0l10-30a5.25,5.25,0,0,1,5-3.59h57.43a4.94,4.94,0,0,1,1.1.12,5.24,5.24,0,0,1,4.16,5.14Z" style="fill: rgb(199, 199, 199); transform-origin: 113.432px 248.355px;" id="elfwo4xhgdk7m" class="animable"></path><g id="elclbw7eu0oae"><g style="opacity: 0.3; transform-origin: 113.441px 248.375px;" class="animable"><polygon points="141.89 227.84 100.83 268.91 88.12 268.91 129.2 227.84 141.89 227.84" style="fill: rgb(255, 255, 255); transform-origin: 115.005px 248.375px;" id="elixfglmmtuw" class="animable"></polygon><path d="M152.54,253.46v10.19a5.26,5.26,0,0,1-5.26,5.26H137.09Z" style="fill: rgb(255, 255, 255); transform-origin: 144.815px 261.185px;" id="eluvs34gzyf79" class="animable"></path><path d="M152.48,232.3l-36.62,36.61h-8.42l40.94-41A5.26,5.26,0,0,1,152.48,232.3Z" style="fill: rgb(255, 255, 255); transform-origin: 129.96px 248.41px;" id="el80xptp7qhgw" class="animable"></path><path d="M112.58,227.84,74.75,265.68a5.21,5.21,0,0,1-.13-3.7l.2-.59h0l33.55-33.55Z" style="fill: rgb(255, 255, 255); transform-origin: 93.461px 246.76px;" id="elofamjw82o4e" class="animable"></path></g></g><path d="M233.14,268.91H165.46a5.27,5.27,0,0,1-5.26-5.26V233.1a5.27,5.27,0,0,1,5.26-5.26H222.9a5.27,5.27,0,0,1,5,3.59l2.71,8.1,2.12,6.31,3.76,11.23,1.65,4.91A5.27,5.27,0,0,1,233.14,268.91Z" style="fill: rgb(199, 199, 199); transform-origin: 199.304px 248.375px;" id="elui4f0lorh" class="animable"></path><g id="ela3xzts9i0he"><g style="opacity: 0.3; transform-origin: 199.299px 248.375px;" class="animable"><path d="M175.54,227.84,160.2,243.18V233.1a5.27,5.27,0,0,1,5.26-5.26Z" style="fill: rgb(255, 255, 255); transform-origin: 167.87px 235.51px;" id="elb3m53c1yo6a" class="animable"></path><path d="M233.14,268.91h-8.51l11.85-11.84,1.65,4.91A5.27,5.27,0,0,1,233.14,268.91Z" style="fill: rgb(255, 255, 255); transform-origin: 231.514px 262.99px;" id="elry70jnjxp0n" class="animable"></path><path d="M210.14,227.84l-41.07,41.07h-3.61a5.22,5.22,0,0,1-3.49-1.33l39.74-39.74Z" style="fill: rgb(255, 255, 255); transform-origin: 186.055px 248.375px;" id="elb0nay1no3kf" class="animable"></path><polygon points="232.72 245.84 209.65 268.91 201.21 268.91 230.6 239.53 232.72 245.84" style="fill: rgb(255, 255, 255); transform-origin: 216.965px 254.22px;" id="elemy513vec37" class="animable"></polygon><polygon points="219.58 227.84 178.52 268.91 174.29 268.91 215.37 227.84 219.58 227.84" style="fill: rgb(255, 255, 255); transform-origin: 196.935px 248.375px;" id="el4xq46uwc1xe" class="animable"></polygon></g></g><rect x="57.1" y="372.14" width="198.54" height="19.67" style="fill: rgb(199, 199, 199); transform-origin: 156.37px 381.975px;" id="elwil27mo4spf" class="animable"></rect></g><g id="freepik--Plants--inject-16" class="animable" style="transform-origin: 250.042px 401.053px;"><path d="M383.88,407.3c-2.52-3.26-5.39-6.85-5.21-11.17.16-4,1.5-8.42,5.16-10.54,1.05-.61,1.81-.82,2.15.53.51,2.05-.36,4.54-.8,6.53a41.94,41.94,0,0,0-1.06,7.8c-.06,1.84.07,3.69.06,5.54,0,.23,0,.46,0,.69V407l.06.1a.19.19,0,0,1,0,.19l0,.06A.21.21,0,0,1,383.88,407.3Z" style="fill: rgb(56, 128, 255); transform-origin: 382.399px 396.273px;" id="el1zp1l2lq8ls" class="animable"></path><path d="M384.22,407.3c-2.06-3-4.47-6-4.17-9.83a16.87,16.87,0,0,1,1.35-5.11c.31-.73,1.22-2.94,2.18-3,1.74-.09-.58,6.89-.69,7.71a17.63,17.63,0,0,0,1.29,8.91c0,.23,0,.46,0,.69a19.67,19.67,0,0,1-1.63-6.21c-.26-3,.75-5.46,1.29-8.33.12-.62.6-2.58-.46-2.42-.7.1-1.61,2.25-1.8,2.71a16.69,16.69,0,0,0-1.3,4.84c-.36,3.82,2,6.92,4,10Z" style="fill: rgb(255, 255, 255); transform-origin: 382.152px 398.33px;" id="elmed5xyoa1ae" class="animable"></path><path d="M383.17,410.61l-.44.19h0a.11.11,0,0,1-.11,0,.19.19,0,0,1-.06-.23.18.18,0,0,1,.08-.06l.06,0,.14,0v0l0,0c1.78-2.19,3.92-4.07,5.68-6.29s3.22-4.34,5.07-6.32c1.16-1.25,7.3-7.09,8.61-3.48.58,1.6-.69,3.9-1.48,5.24a17.4,17.4,0,0,1-4.1,4.62C392.64,407.38,387.76,408.58,383.17,410.61Z" style="fill: rgb(56, 128, 255); transform-origin: 392.445px 402.036px;" id="elu9qx64h7mn" class="animable"></path><path d="M392.35,405.46a20.16,20.16,0,0,0,4.28-3.81c.42-.51,2.46-3,1.79-3.77-.43-.52-1.58.16-2,.37-1.66.9-2.85,2.51-4.12,3.87a77.11,77.11,0,0,1-8.31,7.65c-.21.11-.43.22-.63.34l-.53.28-.18.1-.14.08a.19.19,0,0,0,.06.23c.13-.08.27-.15.41-.22l-.3.23h0l.36-.17.08,0,.5-.38A84.89,84.89,0,0,0,392.35,405.46Zm-7.61,3.94c1.72-1.37,3.38-2.83,5-4.36,1.28-1.23,2.5-2.51,3.69-3.83a19.47,19.47,0,0,1,2.14-2.12c.6-.47,3-2,2.4.18-.42,1.59-2.48,3.39-3.67,4.4a28.19,28.19,0,0,1-4.29,3C388.27,407.62,386.49,408.5,384.74,409.4Z" style="fill: rgb(255, 255, 255); transform-origin: 390.524px 404.249px;" id="elwd9ln0ress8" class="animable"></path><path d="M375.3,419h0l-.11-.11c-2-3.17-5.25-7-5.06-11,.14-2.95,1.76-6.91,4.69-8.12,3.31-1.36,2.67,4.89,2.58,6.49A115.81,115.81,0,0,1,375.5,419l0,.08h0C375.44,419.1,375.36,419.06,375.3,419Z" style="fill: rgb(56, 128, 255); transform-origin: 373.815px 409.332px;" id="el8vztr9emutn" class="animable"></path><path d="M375.46,419c0-.25,0-.51,0-.76-.18-2.92-.23-5.85-.14-8.77,0-.74.6-6.38-.86-6.11-.89.16-1.42,2.27-1.61,3a11.68,11.68,0,0,0-.41,3.81c.2,2.95,1.7,5.61,2.75,8.36.06.12.1.25.15.38a.25.25,0,0,0,0,.09h0C375.36,419.06,375.43,419.1,375.46,419Zm-2.61-7.29a11.72,11.72,0,0,1-.11-3.92c.12-.86.64-4,1.74-4,.58,0,.52.33.64,1,.05.3.07.61.09.91,0,.76,0,1.51-.06,2.26-.07,1.32-.1,2.64-.11,4,0,2.17.06,4.33.21,6.49C374.49,416.16,373.32,414.06,372.85,411.75Z" style="fill: rgb(255, 255, 255); transform-origin: 373.94px 411.206px;" id="eljchvr2jnef" class="animable"></path><path d="M385.61,420.05a22.23,22.23,0,0,1-12.91,1.35l-.08,0a.15.15,0,0,1-.05-.19.17.17,0,0,1,.18-.12l.27.05c4.52-2.49,9.05-4.9,13.52-7.47,1-.6,7.85-4.33,8.21-1.68.23,1.64-2.27,3.56-3.35,4.49A22.58,22.58,0,0,1,385.61,420.05Z" style="fill: rgb(56, 128, 255); transform-origin: 383.66px 416.429px;" id="elncpqb5b6v5l" class="animable"></path><path d="M390.37,414.94c.28-.35.5-.79,0-1-1-.41-4.15,1.41-5.05,1.87-3.72,1.9-7.51,3.42-11.37,5l-1,.39h-.38a.15.15,0,0,0,.05.19l.1,0h.52a26.39,26.39,0,0,0,8.07-1.21,25.69,25.69,0,0,0,4.75-2.07C387.45,417.27,389.4,416.23,390.37,414.94Zm-16.91,6.22h-.25l.41-.14a74.73,74.73,0,0,0,9-3.62c1.47-.72,2.89-1.53,4.38-2.19.64-.29,2.4-1.14,3-.87s0,.7-.36,1-.69.55-.92.72A25.91,25.91,0,0,1,373.46,421.16Z" style="fill: rgb(255, 255, 255); transform-origin: 381.611px 417.635px;" id="elbuab7m8yj7p" class="animable"></path><path d="M364.1,428.35l-.44-.61,1.59-1.2c2.12-1.63,4.22-3.28,6.3-5,1.19-1,2.35-1.94,3.47-2.94l.12-.1.27-.25.3-.28a32.41,32.41,0,0,0,6.46-7.83c.57-1,1.08-2,1.58-3.05l.14-.3,0-.08c.05-.1.09-.2.14-.31l.11-.23c1.47-3.2,2.68-6.53,4-9.78.37-.93.74-1.87,1.12-2.8a.77.77,0,0,1,.07-.16,1.8,1.8,0,0,1,.08-.21c1.65-4.11,3.35-8.21,4.9-12.36.05-.16.28,0,.22.11-1,2.77-1.94,5.57-2.9,8.37-.13.37-.26.74-.38,1.11l-.77,2.21c-.51,1.47-1,2.93-1.58,4.39a108.34,108.34,0,0,1-5.05,12.17l-.47.86-.3.53-.36.62a34.73,34.73,0,0,1-8.14,9l-.66.54-.31.25-.16.13-.22.17h0l-.16.13-.58.45c-2.11,1.65-4.24,3.27-6.37,4.88C365.45,427.3,364.78,427.82,364.1,428.35Z" style="fill: rgb(56, 128, 255); transform-origin: 379.1px 404.571px;" id="elmapkfg8oss" class="animable"></path><path d="M390.29,381.83c1-3.29,4.15-8.77,8.33-8a3.23,3.23,0,0,1,2.77,3.31c0,2-1.36,3.84-2.53,5.32-3.12,4-6.59,7.6-9.43,11.78,0,0-.25.36-.31.45s-.18,0-.13-.1l.28-.41C389.29,390.09,389.05,385.73,390.29,381.83Z" style="fill: rgb(56, 128, 255); transform-origin: 395.185px 384.242px;" id="el944s5ddwmj" class="animable"></path><path d="M389.43,394.23l0-.09a33.46,33.46,0,0,1,1.79-3.66,70.75,70.75,0,0,1,4.71-7c.65-.87,3.92-5.05,1.21-5.34-1.14-.12-2.31.85-3.08,1.56a12.88,12.88,0,0,0-3,4.07,23.32,23.32,0,0,0-1.81,9.73c0,.15,0,.3,0,.45l-.06.14,0,.09s0,0,0,.06a.12.12,0,0,0,.15.09A.1.1,0,0,0,389.43,394.23Zm0-1a27.06,27.06,0,0,1,1.34-8.1,14,14,0,0,1,2-3.79,10.73,10.73,0,0,1,1.28-1.42,7.94,7.94,0,0,1,1.11-.9c.87-.59,2.05-.9,2.5-.46s.35,1-.07,1.93a7.84,7.84,0,0,1-.49.9c-.44.73-.95,1.42-1.45,2.1-.85,1.14-1.68,2.27-2.48,3.44-.54.79-1.06,1.6-1.54,2.42a35.53,35.53,0,0,0-2.24,4.39C389.4,393.59,389.41,393.42,389.42,393.25Z" style="fill: rgb(255, 255, 255); transform-origin: 393.694px 386.232px;" id="elldyabdss36" class="animable"></path><path d="M107.55,402c2,1.88,3.94,3.89,5.83,5.91,1.06,1.15,2.12,2.31,3.19,3.46s2.29,2.68,4,3.3h0s.2.12.2.12a0,0,0,0,1,0,0,.21.21,0,0,1-.25.26l-.11-.05h0a6.68,6.68,0,0,1-1.5-.34,37.15,37.15,0,0,1-4-1.2,34.41,34.41,0,0,1-7.67-3.84,28.69,28.69,0,0,1-5.74-5.09c-1.34-1.56-3.36-3.85-3.73-6-.34-1.9,2.11-1.52,3.24-1.19C103.49,398.23,105.63,400.27,107.55,402Z" style="fill: rgb(56, 128, 255); transform-origin: 109.258px 406.062px;" id="elk2aq9rbmwq" class="animable"></path><path d="M101.38,400.66c-.58.81,1.63,3.28,2.56,4.39a27.93,27.93,0,0,0,5,4.61,35.94,35.94,0,0,0,10.94,5.27l.47.14h0l.11,0a.21.21,0,0,0,.26-.25c-.32-.15-.62-.3-.91-.46s-.54-.3-.79-.46a47.13,47.13,0,0,1-7.71-6.26C108.51,405.06,102.16,399.58,101.38,400.66Zm18.08,13.81q.6.33,1.2.6l-1-.31a39.85,39.85,0,0,1-9.68-4.61,27.07,27.07,0,0,1-6.77-6.33c-.27-.37-2-2.54-1.58-3s2.37,1,2.41,1.06c.41.26.81.55,1.21.84.81.6,1.59,1.24,2.36,1.89,1.66,1.42,3.24,2.94,4.85,4.41A37.9,37.9,0,0,0,119.46,414.47Z" style="fill: rgb(255, 255, 255); transform-origin: 111.005px 407.799px;" id="elglio32r3hr6" class="animable"></path><path d="M122.89,393.63c1.85,3.58,2.29,7.69,2.34,11.67,0,2.12,0,4.25-.07,6.38a28.72,28.72,0,0,0,.21,5.69,2.21,2.21,0,0,0,0,.25,7,7,0,0,0,.5,1.51.09.09,0,0,1,0,.1l.09.14s0,.08-.05.05a1.49,1.49,0,0,1-.14-.12h0a.09.09,0,0,1-.11-.07l0-.06-.13-.12c-3.11-2.86-4.85-7.71-6-11.61a22.22,22.22,0,0,1-.7-12c.26-1,.7-3.37,1.91-3.71S122.5,392.87,122.89,393.63Z" style="fill: rgb(56, 128, 255); transform-origin: 122.138px 405.553px;" id="el382o1z9jf9n" class="animable"></path><path d="M121.26,396c-1.22.2-1,3.55-.93,4.36a43.23,43.23,0,0,0,1.11,7.34,38.52,38.52,0,0,0,4,11.25h0a.3.3,0,0,0,.17.26s0,0,0,.06a.1.1,0,0,0,.12.07,1.05,1.05,0,0,1,0-.19c-.13-.49-.25-1-.35-1.48,0-.09,0-.17,0-.25a82.31,82.31,0,0,1-1.09-10.56,40,40,0,0,0-1.11-7.3C123,398.9,122.28,395.78,121.26,396Zm1.09,1.77c1.67,3.86,1.62,8.44,1.9,12.56a43.24,43.24,0,0,0,1.15,8.27,40.77,40.77,0,0,1-3.54-10.26,52.3,52.3,0,0,1-1.1-6.1,23.36,23.36,0,0,1-.19-3.35,9.22,9.22,0,0,1,.26-2C121.25,395.64,122.06,397.06,122.35,397.72Z" style="fill: rgb(255, 255, 255); transform-origin: 122.999px 407.666px;" id="elqyaa2glecj" class="animable"></path><path d="M132.53,424.57a.25.25,0,0,1,0,.22h.08a.07.07,0,0,1,.06.07s0,.06-.05.07c-4.79.75-10.11,1-14.82-.31a19.17,19.17,0,0,1-5.61-2.52c-1.17-.79-3.53-2.39-3.66-4-.27-3.18,8.15.11,9.42.62,2.31.91,4.53,2,6.83,3,2.5,1,5.08,1.9,7.66,2.77A.15.15,0,0,1,132.53,424.57Z" style="fill: rgb(56, 128, 255); transform-origin: 120.597px 421.14px;" id="ele40xk0q7v7s" class="animable"></path><path d="M132.53,424.57l-.77-.08a40.72,40.72,0,0,1-12.13-3.29,37.16,37.16,0,0,0-5.92-2.25c-.51-.12-2.39-.72-2.09.49.16.62,3.24,2.4,4.08,2.79a25.78,25.78,0,0,0,6,1.9,42.26,42.26,0,0,0,10.6.73h.3s0-.07-.06-.06h-.08A.23.23,0,0,0,132.53,424.57Zm-9-.37a30,30,0,0,1-6.11-1.5,21.22,21.22,0,0,1-2.29-1,12.37,12.37,0,0,1-1.69-1c-1.3-.94-1.56-1.28-1.45-1.53s.34-.24,1.39-.07a11.22,11.22,0,0,1,2,.57c.92.35,1.82.73,2.71,1.12,1.8.77,3.58,1.57,5.43,2.21a31.78,31.78,0,0,0,8.19,1.71A48.6,48.6,0,0,1,123.53,424.2Z" style="fill: rgb(255, 255, 255); transform-origin: 122.094px 421.812px;" id="elj4mo1zgnzp" class="animable"></path><path d="M132,410.82a12.09,12.09,0,0,1,2.48,4.51c1.09,3.26,1.47,6.7,2.33,10,.13.5.27,1,.43,1.49,0,.05.34.59.3.56s-.16-.16-.43-.44h0c-1.29-1.36-5.15-5.55-6.63-8.38a24.2,24.2,0,0,1-2.22-5.55c-.21-.92-.6-3,.31-3.7S131.41,410.16,132,410.82Z" style="fill: rgb(56, 128, 255); transform-origin: 132.769px 418.257px;" id="elm09eyilcmw" class="animable"></path><path d="M130.07,411.62c-1.28.54,1.37,6.17,1.7,6.91a34.18,34.18,0,0,0,4.73,7.64c.21.27.42.53.64.79l.43.45s-.28-.52-.31-.58l-.07-.25c-.13-.41-.24-.82-.34-1.22-.85-2.23-1.65-4.47-2.54-6.68a31.85,31.85,0,0,0-2.24-4.63C131.86,413.72,130.63,411.39,130.07,411.62Zm1.05,1.17c2.87,4.11,3.91,9.07,5.8,13.63l.09.23c-.07-.1-.16-.2-.23-.31a39.23,39.23,0,0,1-4-6.27,38.38,38.38,0,0,1-1.8-4.16,17.71,17.71,0,0,1-.8-2.36c-.08-.35-.25-1.33,0-1.45S130.93,412.52,131.12,412.79Z" style="fill: rgb(255, 255, 255); transform-origin: 133.647px 419.507px;" id="elvzgq4dgu2j" class="animable"></path><path d="M107.18,378.49c4.52,7.53,2.22,17.2,6.22,25l0,0c.12.24.25.47.38.71a.16.16,0,0,1-.12.24.14.14,0,0,1-.12-.07l-.09-.17A41.9,41.9,0,0,1,104.86,392c-1.85-3.8-3.07-8.06-2.44-12.31.16-1,.39-3.13,1.66-3.53S106.63,377.56,107.18,378.49Z" style="fill: rgb(56, 128, 255); transform-origin: 108.027px 390.271px;" id="elcdqwzqakr6o" class="animable"></path><path d="M105.63,381.25c-.53.18-.6,1-.66,1.39a13.87,13.87,0,0,0-.07,3.22,22.38,22.38,0,0,0,1.64,6.38,46.05,46.05,0,0,0,5.34,10c.5.69,1,1.35,1.59,2l.21.24a.17.17,0,0,0,.13-.24c-.14-.23-.26-.45-.38-.68l0-.06a27.66,27.66,0,0,1-2.28-4.71,62.9,62.9,0,0,1-2-7.89C108.87,389.82,107.45,380.66,105.63,381.25Zm1.19,1.54a30.53,30.53,0,0,1,1.68,6.32c.48,2.13.93,4.27,1.44,6.39a31.24,31.24,0,0,0,1.62,4.93,24.53,24.53,0,0,0,2,3.82,35.14,35.14,0,0,1-2.48-3.46s0,0,0-.05a59.6,59.6,0,0,1-3.53-6.71.56.56,0,0,1,0-.08,28.15,28.15,0,0,1-2.15-6.31,16.16,16.16,0,0,1-.3-3.61c.07-1.37.26-2.47.73-2.49C106.11,381.53,106.55,382.21,106.82,382.79Z" style="fill: rgb(255, 255, 255); transform-origin: 109.332px 392.851px;" id="el90bz2z3ph75" class="animable"></path><path d="M107.74,393.94c1.24,2.18,2.53,4.34,3.82,6.49l1.83,3,0,.06.66,1.09a71.68,71.68,0,0,0,6.47,9.69,32.79,32.79,0,0,0,4.44,4.2l.49.4h0l.27.2.15.12c1.4,1.08,2.86,2.09,4.28,3.07,2,1.36,4,2.58,6.11,3.78l.19.1a2.61,2.61,0,0,0,.28.17l.14.08.27.16c.66.38,1.33.77,2,1.17l-.43.6a47.14,47.14,0,0,1-6.28-3.41.5.5,0,0,1-.12-.08c-.2-.12-.4-.24-.59-.37s-.48-.31-.72-.47l-1.7-1.14a50.29,50.29,0,0,1-9.17-7.6L120,415l-.09-.11-.16-.17-.24-.29c-.14-.17-.28-.35-.41-.53l-.12-.15a76.11,76.11,0,0,1-5.6-9c-.32-.55-.63-1.11-.94-1.66l-.51-.93-.76-1.42s0,0,0-.05c-1.19-2.23-2.33-4.48-3.53-6.71C107.51,393.93,107.68,393.84,107.74,393.94Z" style="fill: rgb(56, 128, 255); transform-origin: 123.366px 411.107px;" id="eljeoplqphhw9" class="animable"></path></g><g id="freepik--Floor--inject-16" class="animable" style="transform-origin: 250px 428.01px;"><polygon points="34.95 428.01 88.71 427.77 142.48 427.68 250 427.51 357.52 427.68 411.29 427.77 465.05 428.01 411.29 428.26 357.52 428.35 250 428.51 142.48 428.35 88.71 428.26 34.95 428.01" style="fill: rgb(38, 50, 56); transform-origin: 250px 428.01px;" id="el1rfwhmpr1t6" class="animable"></polygon></g><g id="freepik--Airplane--inject-16" class="animable" style="transform-origin: 182.025px 88.7055px;"><g id="el508lsf5oqa7"><g style="opacity: 0.6; transform-origin: 208.105px 100.415px;" class="animable"><polygon points="117.39 85.55 298.82 124.44 136.01 76.39 117.39 85.55" style="fill: rgb(235, 235, 235); transform-origin: 208.105px 100.415px;" id="elsgmiawrzu2" class="animable"></polygon><path d="M142.71,97.21c9.88,1.22,19.7,2.74,29.51,4.36,4.9.78,9.79,1.67,14.69,2.51l14.66,2.67,14.63,2.83c4.87,1,9.75,2,14.61,3,9.72,2.06,19.43,4.21,29.07,6.66-9.88-1.22-19.7-2.73-29.51-4.36-4.9-.78-9.79-1.67-14.69-2.5L201,109.7l-14.63-2.84c-4.87-1-9.75-1.94-14.61-3C162.06,101.81,152.36,99.65,142.71,97.21Z" style="fill: rgb(235, 235, 235); transform-origin: 201.295px 108.225px;" id="el8geuxovgkrg" class="animable"></path><path d="M211.42,94.09q9.47,2.31,18.8,5c6.24,1.75,12.44,3.62,18.63,5.5s12.36,3.88,18.5,5.93,12.27,4.19,18.34,6.47q-9.45-2.31-18.8-5c-6.23-1.76-12.43-3.62-18.63-5.51s-12.36-3.88-18.5-5.94S217.5,96.37,211.42,94.09Z" style="fill: rgb(235, 235, 235); transform-origin: 248.555px 105.54px;" id="elckqkilxarzl" class="animable"></path></g></g><path d="M112.8,87c.35-.4,5.21-3.8,5.58-4l-.83-.14S113.1,86.55,112.8,87Z" style="fill: rgb(56, 128, 255); transform-origin: 115.59px 84.93px;" id="el0tlncel6u3k" class="animable"></path><g id="elby862xh17sw"><path d="M112.8,87c.35-.4,5.21-3.8,5.58-4l-.83-.14S113.1,86.55,112.8,87Z" style="fill: rgb(255, 255, 255); opacity: 0.5; transform-origin: 115.59px 84.93px;" class="animable"></path></g><path d="M112.79,87h0c0,.09.37.16.75.21h0a3.62,3.62,0,0,0,1,0c.11-.08,3.61-1.83,5.76-2.9l.09,0h0l.3-.15.88-.44.35-.17-3.61-.62c-.21.14-1.85,1.29-3.3,2.34l-.15.1-.4.29c-.88.64-1.6,1.18-1.73,1.32v0Z" style="fill: rgb(56, 128, 255); transform-origin: 117.325px 85.0873px;" id="elpl8bd9bboqg" class="animable"></path><g id="elqv4x5xdn9t9"><g style="opacity: 0.1; transform-origin: 116.57px 85.7573px;" class="animable"><path d="M112.79,87h0c0,.09.37.16.75.21h0a3.62,3.62,0,0,0,1,0c.11-.08,3.71-1.88,5.85-2.94-.36.17-5,2.39-5.91,1.33-.88.64-1.6,1.18-1.73,1.32v0Z" id="elhkg9d4ud7eo" class="animable" style="transform-origin: 116.57px 85.7573px;"></path></g></g><path d="M65.23,91h0c0,.48,2.66.64,3,.53S97.61,80,97.61,80L87,75.78l-.3.21-.14.09c-2,1.36-7.83,5.43-13,9l-.3.21-.41.28C69.3,88.06,66.22,90.23,65.23,91Z" style="fill: rgb(56, 128, 255); transform-origin: 81.42px 83.6716px;" id="el1e9uueg5yrg" class="animable"></path><path d="M65.23,91C67.83,89,84.74,77.31,87,75.78l-1.35-.54s-19.7,15-20.29,15.58A.23.23,0,0,0,65.23,91Z" style="fill: rgb(56, 128, 255); transform-origin: 76.115px 83.12px;" id="elbx72lf4ylq9" class="animable"></path><g id="elyraj6ksq6ui"><path d="M65.23,91C67.83,89,84.74,77.31,87,75.78l-1.35-.54s-19.7,15-20.29,15.58A.23.23,0,0,0,65.23,91Z" style="fill: rgb(255, 255, 255); opacity: 0.5; transform-origin: 76.115px 83.12px;" class="animable"></path></g><g id="el9dr5hbdwai8"><g style="opacity: 0.5; transform-origin: 81.42px 83.6716px;" class="animable"><g id="elazduqpaemlj"><path d="M65.23,91h0c0,.48,2.66.64,3,.53S97.61,80,97.61,80L87,75.78s2.64,3-3.61,7.65c-4.27,3.15-8.8,3.81-10.49,2.15C69.3,88.06,66.22,90.23,65.23,91Z" style="opacity: 0.1; transform-origin: 81.42px 83.6716px;" class="animable"></path></g></g></g><path d="M89.38,83.73c.82.4,1.72.72,1.78-.11,0-.34-.24-.7-1.56-1.34-.31-.15-1.07-.48-1.29.21S89.07,83.58,89.38,83.73Z" style="fill: rgb(56, 128, 255); transform-origin: 89.7191px 83.104px;" id="el7z6em7fy5b9" class="animable"></path><g id="el4wrhuh1502"><path d="M89.38,83.73c.82.4,1.72.72,1.78-.11,0-.34-.24-.7-1.56-1.34-.31-.15-1.07-.48-1.29.21S89.07,83.58,89.38,83.73Z" style="opacity: 0.1; transform-origin: 89.7191px 83.104px;" class="animable"></path></g><path d="M82.66,86.48c.82.4,1.72.72,1.78-.11,0-.34-.23-.7-1.56-1.34-.31-.15-1.07-.48-1.29.21S82.35,86.33,82.66,86.48Z" style="fill: rgb(56, 128, 255); transform-origin: 82.9991px 85.854px;" id="elt17s6rjz9r" class="animable"></path><g id="elug8fu5o1zg"><path d="M82.66,86.48c.82.4,1.72.72,1.78-.11,0-.34-.23-.7-1.56-1.34-.31-.15-1.07-.48-1.29.21S82.35,86.33,82.66,86.48Z" style="opacity: 0.1; transform-origin: 82.9991px 85.854px;" class="animable"></path></g><path d="M75.94,89.23c.83.4,1.72.71,1.79-.11,0-.34-.24-.7-1.56-1.34-.32-.15-1.07-.48-1.3.21S75.63,89.08,75.94,89.23Z" style="fill: rgb(56, 128, 255); transform-origin: 76.2828px 88.602px;" id="elkbcjxs19zj" class="animable"></path><g id="el4p77lv5rxgv"><path d="M75.94,89.23c.83.4,1.72.71,1.79-.11,0-.34-.24-.7-1.56-1.34-.32-.15-1.07-.48-1.3.21S75.63,89.08,75.94,89.23Z" style="opacity: 0.1; transform-origin: 76.2828px 88.602px;" class="animable"></path></g><path d="M78.14,82c.81,1.44,2.64,2,3.81,2.42,3.09,1.24,5.33,1.93,6.43-.88a3.81,3.81,0,0,0,.25-1c.18-2.12-2-3.17-3.12-3.76h0c-1.34-.71-2.29-1.17-3-1.46a5.49,5.49,0,0,0-2.2-.57c-.62,0-2,.14-2.49,2.72A3.71,3.71,0,0,0,78.14,82Z" style="fill: rgb(56, 128, 255); transform-origin: 83.1835px 81.1248px;" id="elvllkxb5ci8" class="animable"></path><path d="M78.1,80c0,1.57,1,2.85,2.2,2.85s2.2-1.28,2.2-2.85-1-2.86-2.2-2.86S78.1,78.42,78.1,80Z" style="fill: rgb(38, 50, 56); transform-origin: 80.3px 79.995px;" id="elhqh5ffvjvct" class="animable"></path><path d="M78.36,80a2,2,0,1,0,1.94-2.52A2.29,2.29,0,0,0,78.36,80Z" style="fill: rgb(69, 90, 100); transform-origin: 80.3185px 79.48px;" id="elqc3qhzt9ki" class="animable"></path><path d="M124.23,79.24l.51.19,1.15.41,4-1.71c3.85-1.65,8.4-3.59,9.28-3.89l-.11,0-.1,0-.14,0-.07,0-.31.1-.31.1-.87.29-.3.1-.28.09-.15,0-.48.16-.31.11-4.09,1.37-.39.13-1.52.52-2.62.88-.37.13-1.15.39h0l-.29.1-.14,0-.07,0Z" style="fill: rgb(56, 128, 255); transform-origin: 131.7px 77.04px;" id="elot98znrz68e" class="animable"></path><g id="elnj66o40qi3"><path d="M124.23,79.24l.51.19,1.15.41,4-1.71c3.85-1.65,8.4-3.59,9.28-3.89l-.11,0-.1,0-.14,0-.07,0-.31.1-.31.1-.87.29-.3.1-.28.09-.15,0-.48.16-.31.11-4.09,1.37-.39.13-1.52.52-2.62.88-.37.13-1.15.39h0l-.29.1-.14,0-.07,0Z" style="fill: rgb(255, 255, 255); opacity: 0.5; transform-origin: 131.7px 77.04px;" class="animable"></path></g><path d="M125.89,79.84,129,81s6.88-3.18,11-5.18l0,0,.05,0,1.18-.58a10.16,10.16,0,0,0,1.71-.94,8.87,8.87,0,0,0-3.69,0h0l-.06,0c-.85.29-5.13,2.11-8.89,3.72l-.09,0-.3.13Z" style="fill: rgb(56, 128, 255); transform-origin: 134.415px 77.553px;" id="elmcqi0h8t17" class="animable"></path><g id="eldk62n1q6bfs"><g style="opacity: 0.1; transform-origin: 132.945px 78.41px;" class="animable"><path d="M125.89,79.84,129,81s6.88-3.18,11-5.18c-.68.29-7.63,3.35-9.34,2.92a1,1,0,0,1-.73-.57Z" id="el4ox7w6n5jvy" class="animable" style="transform-origin: 132.945px 78.41px;"></path></g></g><path d="M118,75.46l7.47,3.59s-.08-6.4-.14-11v-.47c0-.13,0-.25,0-.38,0-1.57,0-2.84,0-3.42,0-1.85-.23-2.23-.72-1.93a23.88,23.88,0,0,0-3.33,3.05c-.53.69-1.72,4.89-2.5,7.78a.64.64,0,0,1,0,.07c0,.17-.09.33-.13.49Z" style="fill: rgb(56, 128, 255); transform-origin: 121.735px 70.404px;" id="elj3uolwuk1v9" class="animable"></path><g id="el8410e1k9ief"><g style="opacity: 0.1; transform-origin: 121.735px 73.55px;" class="animable"><path d="M118,75.46l7.47,3.59s-.08-6.4-.14-11c-1.1,2.45-3.27,5.8-6.75,5.19Z" id="el1dgunhkc7m9" class="animable" style="transform-origin: 121.735px 73.55px;"></path></g></g><path d="M130.65,83c.77-1.92-2.49-3.66-6.2-5.33S84.24,59.87,79,58.44,67.5,59,66.46,62c-1.57,4.53,5,8.33,28.67,18.14,3.1,1.28,17,4.61,24.75,4.64C128.22,84.79,130.27,83.91,130.65,83Z" style="fill: rgb(56, 128, 255); transform-origin: 98.502px 71.3734px;" id="elhbibuycar7l" class="animable"></path><g id="elu58puvxjddp"><path d="M130.65,83c.77-1.92-2.49-3.66-6.2-5.33S84.24,59.87,79,58.44,67.5,59,66.46,62c-1.57,4.53,5,8.33,28.67,18.14,3.1,1.28,17,4.61,24.75,4.64C128.22,84.79,130.27,83.91,130.65,83Z" style="fill: rgb(255, 255, 255); opacity: 0.5; transform-origin: 98.502px 71.3734px;" class="animable"></path></g><g id="el2dmhphynnfw"><path d="M95.13,80.13c3.1,1.28,17,4.61,24.75,4.64,8.34,0,10.39-.86,10.77-1.81s-.3-2-1.59-2.88a1.28,1.28,0,0,1-.1.57c-.34.86-2.21,1.66-9.77,1.63-7.07,0-17.24-5.75-20.06-6.91-21.45-8.9-29.84-9.64-28.42-13.76.62-1.79,3.22-3.17,6.29-3.55-4.76-.57-9.63,1.27-10.54,3.93C64.89,66.52,71.48,70.32,95.13,80.13Z" style="opacity: 0.1; transform-origin: 98.4979px 71.363px;" class="animable"></path></g><polygon points="119.08 76.63 118.24 76.26 118.24 77.5 119.08 77.86 119.08 76.63" style="fill: rgb(69, 90, 100); transform-origin: 118.66px 77.06px;" id="elxpfk51wxs" class="animable"></polygon><polygon points="117.55 75.97 116.65 75.58 116.65 76.81 117.55 77.2 117.55 75.97" style="fill: rgb(69, 90, 100); transform-origin: 117.1px 76.39px;" id="eleawdrihoch" class="animable"></polygon><polygon points="115.96 75.28 115.07 74.89 115.07 76.12 115.96 76.51 115.96 75.28" style="fill: rgb(69, 90, 100); transform-origin: 115.515px 75.7px;" id="elbsw61rs9hud" class="animable"></polygon><polygon points="114.37 74.59 113.48 74.2 113.48 75.44 114.37 75.82 114.37 74.59" style="fill: rgb(69, 90, 100); transform-origin: 113.925px 75.01px;" id="eliw4dag49xb" class="animable"></polygon><polygon points="112.79 73.9 111.89 73.52 111.89 74.75 112.79 75.14 112.79 73.9" style="fill: rgb(69, 90, 100); transform-origin: 112.34px 74.33px;" id="elnxwkkjjd5pg" class="animable"></polygon><polygon points="111.2 73.22 110.3 72.83 110.3 74.06 111.2 74.45 111.2 73.22" style="fill: rgb(69, 90, 100); transform-origin: 110.75px 73.64px;" id="elq5xus0otaln" class="animable"></polygon><polygon points="109.61 72.53 108.72 72.14 108.72 73.38 109.61 73.76 109.61 72.53" style="fill: rgb(69, 90, 100); transform-origin: 109.165px 72.95px;" id="elp5x3qh60hwl" class="animable"></polygon><polygon points="108.03 71.84 107.13 71.45 107.13 72.69 108.03 73.08 108.03 71.84" style="fill: rgb(69, 90, 100); transform-origin: 107.58px 72.265px;" id="el1pewc83aya8i" class="animable"></polygon><polygon points="106.44 71.16 105.54 70.77 105.54 72 106.44 72.39 106.44 71.16" style="fill: rgb(69, 90, 100); transform-origin: 105.99px 71.58px;" id="el4dna0bnqqph" class="animable"></polygon><polygon points="104.85 70.47 103.95 70.08 103.95 71.31 104.85 71.7 104.85 70.47" style="fill: rgb(69, 90, 100); transform-origin: 104.4px 70.89px;" id="elzi9t2o6m1q" class="animable"></polygon><polygon points="103.26 69.78 102.37 69.39 102.37 70.63 103.26 71.02 103.26 69.78" style="fill: rgb(69, 90, 100); transform-origin: 102.815px 70.205px;" id="elahbvopwznqu" class="animable"></polygon><polygon points="101.68 69.09 100.78 68.71 100.78 69.94 101.68 70.33 101.68 69.09" style="fill: rgb(69, 90, 100); transform-origin: 101.23px 69.52px;" id="el56067aschoc" class="animable"></polygon><polygon points="100.09 68.41 99.19 68.02 99.19 69.25 100.09 69.64 100.09 68.41" style="fill: rgb(69, 90, 100); transform-origin: 99.64px 68.83px;" id="eljsztzdq9exb" class="animable"></polygon><polygon points="98.5 67.72 97.61 67.33 97.61 68.57 98.5 68.95 98.5 67.72" style="fill: rgb(69, 90, 100); transform-origin: 98.055px 68.14px;" id="elr7ywqd3ffpr" class="animable"></polygon><polygon points="96.91 67.03 96.02 66.64 96.02 67.88 96.91 68.27 96.91 67.03" style="fill: rgb(69, 90, 100); transform-origin: 96.465px 67.455px;" id="elg3k5lwoemuk" class="animable"></polygon><polygon points="95.33 66.35 94.43 65.96 94.43 67.19 95.33 67.58 95.33 66.35" style="fill: rgb(69, 90, 100); transform-origin: 94.88px 66.77px;" id="elcyeuyf5act" class="animable"></polygon><polygon points="93.74 65.66 92.84 65.27 92.84 66.5 93.74 66.89 93.74 65.66" style="fill: rgb(69, 90, 100); transform-origin: 93.29px 66.08px;" id="ellmiliu65afc" class="animable"></polygon><polygon points="92.15 64.97 91.26 64.58 91.26 65.82 92.15 66.21 92.15 64.97" style="fill: rgb(69, 90, 100); transform-origin: 91.705px 65.395px;" id="elsszqeponjml" class="animable"></polygon><polygon points="90.56 64.28 89.67 63.9 89.67 65.13 90.56 65.52 90.56 64.28" style="fill: rgb(69, 90, 100); transform-origin: 90.115px 64.71px;" id="el1ztsnw7o3lx" class="animable"></polygon><polygon points="88.98 63.6 88.08 63.21 88.08 64.44 88.98 64.83 88.98 63.6" style="fill: rgb(69, 90, 100); transform-origin: 88.53px 64.02px;" id="elz5jiq3ugbil" class="animable"></polygon><polygon points="87.39 62.91 86.49 62.52 86.49 63.76 87.39 64.14 87.39 62.91" style="fill: rgb(69, 90, 100); transform-origin: 86.94px 63.33px;" id="elfao6uqqsfxc" class="animable"></polygon><polygon points="84.91 61.84 84.91 63.07 85.8 63.46 85.8 62.22 84.91 61.84" style="fill: rgb(69, 90, 100); transform-origin: 85.355px 62.65px;" id="el8o7u3xfzrnn" class="animable"></polygon><polygon points="83.32 61.15 83.32 62.38 84.22 62.77 84.22 61.54 83.32 61.15" style="fill: rgb(69, 90, 100); transform-origin: 83.77px 61.96px;" id="elug1jmhqzph" class="animable"></polygon><polygon points="81.73 60.46 81.73 61.7 82.63 62.08 82.63 60.85 81.73 60.46" style="fill: rgb(69, 90, 100); transform-origin: 82.18px 61.27px;" id="el4hsyid21uo7" class="animable"></polygon><polygon points="80.14 59.77 80.14 61.01 81.04 61.4 81.04 60.16 80.14 59.77" style="fill: rgb(69, 90, 100); transform-origin: 80.59px 60.585px;" id="elw6aiqil2g" class="animable"></polygon><path d="M76,59.27a4.49,4.49,0,0,0-1.67-.78v.83Z" style="fill: rgb(69, 90, 100); transform-origin: 75.165px 58.905px;" id="eloqlzaoyiinl" class="animable"></path><path d="M72.38,58.3v1.13c.42,0,.84-.06,1.26-.08v-1A6.65,6.65,0,0,0,72.38,58.3Z" style="fill: rgb(69, 90, 100); transform-origin: 73.01px 58.8599px;" id="elhqsbdgkdlyi" class="animable"></path><path d="M68.39,59.9c.35,0,.67-.07,1-.11s.63-.09,1-.12.9-.12,1.35-.17V58.37a6.37,6.37,0,0,0-1.59.44,5.86,5.86,0,0,0-.9.46,2.47,2.47,0,0,0-.42.3A3.09,3.09,0,0,0,68.39,59.9Z" style="fill: rgb(69, 90, 100); transform-origin: 70.065px 59.135px;" id="el6d89o2sez7e" class="animable"></path><path d="M96.91,70,107.43,75s16.73-9,28.73-15.51l0,0h0c6.4-3.5,11.29-6.21,11.21-6.32-.2-.27-3.42-.24-4.69-.06a2.19,2.19,0,0,0-.37.06c-.54.15-19.46,7.16-32.71,12.07Z" style="fill: rgb(56, 128, 255); transform-origin: 122.14px 63.9855px;" id="el7ng6wtiyp3g" class="animable"></path><g id="elbxekxp3pw9"><g style="opacity: 0.1; transform-origin: 116.535px 67.245px;" class="animable"><path d="M96.91,70,107.43,75s16.73-9,28.73-15.51c-.94.47-22.45,11.31-25.26,9.69-1.07-.62-1.34-2.2-1.27-4Z" id="elyx9a3962tie" class="animable" style="transform-origin: 116.535px 67.245px;"></path></g></g><path d="M95.38,69.26l3.12,1.5c8-3.35,41.24-16.5,44-17.6l.08,0,.07,0h0a2.19,2.19,0,0,0-.37.06C141.51,53.39,95.38,69.26,95.38,69.26Z" style="fill: rgb(56, 128, 255); transform-origin: 119.015px 61.96px;" id="elcc6zor1zolr" class="animable"></path><g id="elummy1r3s7i"><path d="M95.38,69.26l3.12,1.5c8-3.35,41.24-16.5,44-17.6l.08,0,.07,0h0a2.19,2.19,0,0,0-.37.06C141.51,53.39,95.38,69.26,95.38,69.26Z" style="fill: rgb(255, 255, 255); opacity: 0.5; transform-origin: 119.015px 61.96px;" class="animable"></path></g><path d="M117.91,69.5c1,.5,2.15.89,2.23-.14,0-.43-.3-.88-2-1.68-.39-.18-1.34-.6-1.62.26S117.52,69.31,117.91,69.5Z" style="fill: rgb(56, 128, 255); transform-origin: 118.31px 68.7126px;" id="el6n2mdvoa7gs" class="animable"></path><g id="elkjvms3gprx"><path d="M117.91,69.5c1,.5,2.15.89,2.23-.14,0-.43-.3-.88-2-1.68-.39-.18-1.34-.6-1.62.26S117.52,69.31,117.91,69.5Z" style="opacity: 0.1; transform-origin: 118.31px 68.7126px;" class="animable"></path></g><path d="M126.81,65c1,.5,2.15.89,2.23-.14,0-.42-.29-.88-1.95-1.67-.39-.19-1.33-.6-1.61.25S126.43,64.81,126.81,65Z" style="fill: rgb(56, 128, 255); transform-origin: 127.239px 64.2151px;" id="el9p5j5vct5aw" class="animable"></path><g id="ellvfho3vuoc"><path d="M126.81,65c1,.5,2.15.89,2.23-.14,0-.42-.29-.88-1.95-1.67-.39-.19-1.33-.6-1.61.25S126.43,64.81,126.81,65Z" style="opacity: 0.1; transform-origin: 127.239px 64.2151px;" class="animable"></path></g><path d="M135.74,60.45c1,.47,2,.83,2.08-.13,0-.4-.27-.82-1.82-1.56-.36-.17-1.24-.56-1.5.24S135.38,60.28,135.74,60.45Z" style="fill: rgb(56, 128, 255); transform-origin: 136.141px 59.7194px;" id="elnssp3hujjp" class="animable"></path><g id="elzsydntgnxzi"><path d="M135.74,60.45c1,.47,2,.83,2.08-.13,0-.4-.27-.82-1.82-1.56-.36-.17-1.24-.56-1.5.24S135.38,60.28,135.74,60.45Z" style="opacity: 0.1; transform-origin: 136.141px 59.7194px;" class="animable"></path></g><path d="M104.63,68.48c.81,1.44,2.64,2,3.81,2.42,3.09,1.24,5.33,1.93,6.43-.87a3.88,3.88,0,0,0,.25-1c.18-2.11-2-3.17-3.13-3.76h0c-1.34-.71-2.29-1.16-3-1.46a5.49,5.49,0,0,0-2.2-.57c-.62,0-2,.14-2.49,2.73A3.63,3.63,0,0,0,104.63,68.48Z" style="fill: rgb(56, 128, 255); transform-origin: 109.669px 67.6104px;" id="elkqf2tcqpeif" class="animable"></path><ellipse cx="106.79" cy="66.47" rx="2.2" ry="2.85" style="fill: rgb(38, 50, 56); transform-origin: 106.79px 66.47px;" id="elieedfnc8t5o" class="animable"></ellipse><path d="M104.85,66.47A2,2,0,1,0,106.79,64,2.29,2.29,0,0,0,104.85,66.47Z" style="fill: rgb(69, 90, 100); transform-origin: 106.817px 66px;" id="el3o38hldb4vb" class="animable"></path><path d="M138.1,74.57l.31-.1Z" style="fill: rgb(56, 128, 255); transform-origin: 138.255px 74.52px;" id="elpjlr1ozd11h" class="animable"></path></g><g id="freepik--Birds--inject-16" class="animable" style="transform-origin: 250.015px 129.927px;"><path d="M378.08,93.54a20.77,20.77,0,0,0-2.56-1.1,10.83,10.83,0,0,0-2.79-.64,2.33,2.33,0,0,0-.87.1,1.19,1.19,0,0,0-.26.12l-.17.13c-.12.08-.2.16-.3.24a12.36,12.36,0,0,0-1,1c-.63.7-1.19,1.44-1.75,2.2l.7-.25a23.29,23.29,0,0,0-2.85-.6,10.46,10.46,0,0,0-1.49-.1,5.32,5.32,0,0,0-.79,0,3.89,3.89,0,0,0-.43.11,2.67,2.67,0,0,0-.42.2A5.09,5.09,0,0,0,362,96.11a12.17,12.17,0,0,0-.84,1.19,19.19,19.19,0,0,0-1.33,2.54c.62-.73,1.21-1.47,1.84-2.16.31-.35.62-.69.95-1a4.36,4.36,0,0,1,1-.78,2.5,2.5,0,0,1,1.11-.11A10.34,10.34,0,0,1,366,96c.9.16,1.81.38,2.69.62l.44.12.25-.36c.51-.74,1.07-1.46,1.62-2.16.28-.35.57-.69.86-1l.22-.21.1-.08s0,0,0,0a1.45,1.45,0,0,1,.49-.1,13.57,13.57,0,0,1,2.64.26C376.27,93.18,377.17,93.37,378.08,93.54Z" style="fill: rgb(38, 50, 56); transform-origin: 368.955px 95.8168px;" id="ellczlaocqfx9" class="animable"></path><path d="M368,120.73a32.13,32.13,0,0,0-3.44-2.35,15.88,15.88,0,0,0-3.92-1.76,3.49,3.49,0,0,0-1.3-.12,2.09,2.09,0,0,0-.43.11l-.28.13a4.86,4.86,0,0,0-.51.28,18.22,18.22,0,0,0-1.8,1.21c-1.13.85-2.16,1.77-3.21,2.72l1.09-.16a32.2,32.2,0,0,0-4-1.71,17.83,17.83,0,0,0-2.15-.59,8.64,8.64,0,0,0-1.18-.15,5,5,0,0,0-.66,0,5.63,5.63,0,0,0-.68.17,7.57,7.57,0,0,0-2,1.26c-.57.48-1.08,1-1.58,1.5a26.85,26.85,0,0,0-2.69,3.35c1.11-.9,2.19-1.81,3.32-2.64a19.27,19.27,0,0,1,1.7-1.19A6.75,6.75,0,0,1,346,120a3.93,3.93,0,0,1,1.67.16,14.29,14.29,0,0,1,1.9.66c1.27.49,2.54,1.09,3.76,1.69l.61.31.48-.46c1-.93,2-1.84,3-2.7.51-.43,1-.85,1.55-1.21.13-.08.26-.17.38-.23l.18-.1s0,0,.06,0a2.07,2.07,0,0,1,.75,0,20,20,0,0,1,3.8,1.15C365.46,119.68,366.73,120.22,368,120.73Z" style="fill: rgb(38, 50, 56); transform-origin: 353.63px 120.552px;" id="el3tw87kiqjiv" class="animable"></path><path d="M118.53,164.84a19.11,19.11,0,0,0-2.35-1.5,11,11,0,0,0-2.65-1.09,2.39,2.39,0,0,0-.87-.05,2.05,2.05,0,0,0-.28.08l-.19.1-.33.19a11.72,11.72,0,0,0-1.17.85c-.74.59-1.41,1.23-2.09,1.88l.73-.13a22.31,22.31,0,0,0-2.71-1,11.11,11.11,0,0,0-1.46-.35,4.94,4.94,0,0,0-.79-.07,2.12,2.12,0,0,0-.43,0,2.64,2.64,0,0,0-.46.13,4.9,4.9,0,0,0-1.28.88c-.37.33-.7.68-1,1a18.36,18.36,0,0,0-1.72,2.3c.72-.63,1.43-1.26,2.16-1.84.36-.29.73-.58,1.11-.83a4.68,4.68,0,0,1,1.11-.6,2.46,2.46,0,0,1,1.12.07,10,10,0,0,1,1.28.4c.86.3,1.73.67,2.55,1l.42.19.31-.32c.62-.64,1.29-1.26,1.95-1.86a12.84,12.84,0,0,1,1-.84l.25-.17.11-.07,0,0a1.58,1.58,0,0,1,.5,0,13.42,13.42,0,0,1,2.55.68C116.8,164.19,117.66,164.52,118.53,164.84Z" style="fill: rgb(38, 50, 56); transform-origin: 109.005px 165.121px;" id="ely03kebxs2gh" class="animable"></path><path d="M141.33,161.15a31.35,31.35,0,0,0-2.59-3.28,16.07,16.07,0,0,0-3.21-2.84,3.77,3.77,0,0,0-1.21-.49,2,2,0,0,0-.44,0l-.31,0c-.21,0-.38.08-.57.11a20.85,20.85,0,0,0-2.07.63c-1.34.48-2.6,1.05-3.87,1.64l1.08.18a31,31,0,0,0-3.32-2.83,18.81,18.81,0,0,0-1.88-1.2,7.8,7.8,0,0,0-1.09-.49,3.86,3.86,0,0,0-.63-.17,5.43,5.43,0,0,0-.71,0,7.58,7.58,0,0,0-2.25.62c-.68.29-1.32.62-2,1a27.73,27.73,0,0,0-3.56,2.4c1.33-.52,2.63-1.07,4-1.53a20.54,20.54,0,0,1,2-.64,7.51,7.51,0,0,1,1.88-.31,3.89,3.89,0,0,1,1.55.66,16,16,0,0,1,1.62,1.19c1.06.85,2.1,1.79,3.09,2.73l.49.48.59-.3c1.2-.6,2.45-1.16,3.68-1.68a19,19,0,0,1,1.84-.69l.44-.12.2,0a.14.14,0,0,1,.07,0,1.93,1.93,0,0,1,.71.22,19.41,19.41,0,0,1,3.29,2.22C139.2,159.38,140.25,160.27,141.33,161.15Z" style="fill: rgb(38, 50, 56); transform-origin: 127.015px 156.774px;" id="elizja11tdbf" class="animable"></path><path d="M400.55,114.06a31.35,31.35,0,0,0-2.59-3.28,15.8,15.8,0,0,0-3.21-2.84,3.77,3.77,0,0,0-1.21-.49,2,2,0,0,0-.44,0l-.31,0c-.21,0-.38.08-.57.11a20.85,20.85,0,0,0-2.07.63c-1.33.48-2.6,1-3.87,1.64l1.08.18a31,31,0,0,0-3.32-2.83,18.81,18.81,0,0,0-1.88-1.2,7.8,7.8,0,0,0-1.09-.49,3.86,3.86,0,0,0-.63-.17,5.43,5.43,0,0,0-.71,0,7.58,7.58,0,0,0-2.25.62c-.68.29-1.32.62-2,1a29.57,29.57,0,0,0-3.56,2.4c1.33-.52,2.64-1.07,4-1.53a20.54,20.54,0,0,1,2-.64,7.51,7.51,0,0,1,1.88-.31,3.89,3.89,0,0,1,1.55.66,16,16,0,0,1,1.62,1.19c1.06.85,2.1,1.79,3.09,2.73l.49.48.59-.3c1.2-.6,2.46-1.16,3.69-1.68a17.88,17.88,0,0,1,1.83-.69l.44-.12.2,0s0,0,.07,0a2,2,0,0,1,.72.22,20.38,20.38,0,0,1,3.28,2.22C398.42,112.29,399.47,113.18,400.55,114.06Z" style="fill: rgb(38, 50, 56); transform-origin: 386.235px 109.684px;" id="elrxzxfm5kgg" class="animable"></path></g><g id="freepik--Shadow--inject-16" class="animable" style="transform-origin: 283.44px 451.21px;"><ellipse cx="283.44" cy="451.21" rx="138.76" ry="10.99" style="fill: rgb(235, 235, 235); transform-origin: 283.44px 451.21px;" id="eldb17n3crz9k" class="animable"></ellipse></g><g id="freepik--Character--inject-16" class="animable" style="transform-origin: 250.007px 263.61px;"><path d="M302.48,192.37c-.56.78-50.35,5.37-52.76,4.8a1.56,1.56,0,0,1-.34-.12c-3-1.24-17.19-13.09-18.27-14.09-2.64-2.47,6.93-21.13,10.11-24.29,2.11-2.11,6.17-3.08,6.17-3.08s10-33.9,16.78-41.22c1.7-1.83,32.61-4,38.26-1.72,2.42,1,8.46,6.58,8.66,7.63h0C311.31,121.82,303,191.58,302.48,192.37Z" style="fill: rgb(69, 90, 100); transform-origin: 270.875px 154.444px;" id="eljwvuphcjf6" class="animable"></path><path d="M302.48,192.37c-.56.78-50.35,5.37-52.76,4.8a1.56,1.56,0,0,1-.34-.12c4.17-13.15,23.79-74.88,24.41-75.3s30.2-1.64,37.3-1.46C311.31,121.82,303,191.58,302.48,192.37Z" style="fill: rgb(55, 71, 79); transform-origin: 280.237px 158.745px;" id="el9tvds5sxl15" class="animable"></path><path d="M313,110.13c-.55,4.45-2.37,7.94-4.22,8.16v0l-41.74.56,2.07-17.17,40.75-.54a1.39,1.39,0,0,1,.64-.06.85.85,0,0,1,.22,0h.14v0C312.55,101.86,313.5,105.69,313,110.13Z" style="fill: rgb(56, 128, 255); transform-origin: 290.087px 109.958px;" id="elcmn1o9vprwj" class="animable"></path><g id="elxtxi2h1ged"><path d="M313,110.13c-.55,4.45-2.37,7.94-4.22,8.16v0l-41.74.56,2.07-17.17,40.75-.54a1.39,1.39,0,0,1,.64-.06.85.85,0,0,1,.22,0h.14v0C312.55,101.86,313.5,105.69,313,110.13Z" style="opacity: 0.1; transform-origin: 290.087px 109.958px;" class="animable"></path></g><path d="M271.58,110.73c-.57,4.74-2.62,8.39-4.57,8.16s-3.08-4.28-2.5-9,2.62-8.39,4.57-8.16S272.16,106,271.58,110.73Z" style="fill: rgb(56, 128, 255); transform-origin: 268.045px 110.31px;" id="el1rg19payy1t" class="animable"></path><path d="M253.51,444.39c-2.41-.83-57.07-42.93-58.13-45.85-.42-1.1,5.25-9.43,12.39-19.28.07-.11.15-.21.22-.31,1.47-2,27.77-36,27.77-36l35.95,28.42-28.15,34.31-.47.59s13.71,25.47,14.54,28.81S255.91,445.22,253.51,444.39Z" style="fill: rgb(255, 196, 192); transform-origin: 233.534px 393.705px;" id="elvt7g7dsbt2p" class="animable"></path><path d="M195.39,398.54c1.05,2.93,55.71,45,58.12,45.85s4.94-6,4.12-9.28-14.54-28.82-14.54-28.82l.47-.58L247,402l-35.27-28c-1.18,1.37-3.56,4.64-3.78,4.94-.08.1-.15.21-.23.3C200.63,389.12,195,397.44,195.39,398.54Z" style="fill: rgb(235, 235, 235); transform-origin: 226.579px 409.231px;" id="el9ismt4czhv" class="animable"></path><path d="M253.54,444.65c-2.42-.85-57.3-43.58-58.36-46.53-.41-1.12,5.34-9.47,12.59-19.37l35.46,27.44s13.7,25.76,14.52,29.13S256,445.51,253.54,444.65Z" style="fill: rgb(56, 128, 255); transform-origin: 226.532px 411.737px;" id="ela3fwmslspdj" class="animable"></path><path d="M254.46,441.85c-9-7.39-46.12-36.34-55.6-43-.08-.05-.12,0-.05.06,8.79,7.52,46.12,36.16,55.54,43.05C254.54,442.14,254.65,442,254.46,441.85Z" style="fill: rgb(38, 50, 56); transform-origin: 226.666px 420.437px;" id="el71q0iksn0ru" class="animable"></path><path d="M255.75,430.59a9.4,9.4,0,0,0-7.25-2,9.09,9.09,0,0,0-5.88,3.32c0,.05.06.13.11.08a10.82,10.82,0,0,1,12.93-1.24C255.74,430.76,255.83,430.65,255.75,430.59Z" style="fill: rgb(38, 50, 56); transform-origin: 249.201px 430.25px;" id="eluremgpk524" class="animable"></path><path d="M246.09,409.89c-3.65-2.92-8.93-4.94-13.56-3.71-.18,0-.11.3,0,.33a64.34,64.34,0,0,1,13.23,3.88A.29.29,0,0,0,246.09,409.89Z" style="fill: rgb(38, 50, 56); transform-origin: 239.322px 408.126px;" id="elxzqzt552v3" class="animable"></path><path d="M248.07,413.21c-3.65-2.92-8.93-4.94-13.56-3.71-.18,0-.11.3,0,.33a64.34,64.34,0,0,1,13.23,3.88A.29.29,0,0,0,248.07,413.21Z" style="fill: rgb(38, 50, 56); transform-origin: 241.302px 411.446px;" id="eluqrt6tov90c" class="animable"></path><path d="M250.05,416.53c-3.65-2.92-8.93-4.94-13.56-3.71-.18.05-.11.3,0,.33A64.34,64.34,0,0,1,249.76,417,.29.29,0,0,0,250.05,416.53Z" style="fill: rgb(38, 50, 56); transform-origin: 243.25px 414.731px;" id="el0kdzn0pggs2" class="animable"></path><path d="M252,419.85c-3.65-2.92-8.93-4.94-13.56-3.71-.18.05-.11.3,0,.33a65,65,0,0,1,13.23,3.88A.29.29,0,0,0,252,419.85Z" style="fill: rgb(38, 50, 56); transform-origin: 245.232px 418.086px;" id="el0kd1qgrw5m4q" class="animable"></path><path d="M208,392c-4.14-3.21-9.13,3.22-5,6.43S212.15,395.19,208,392Z" style="fill: rgb(255, 255, 255); transform-origin: 205.504px 395.214px;" id="elv1pdycaxzy" class="animable"></path><path d="M257.72,403.16c-.66-3-4.19-3.31-6.59-2.6a24.4,24.4,0,0,0-10.67,6.81.12.12,0,0,0,0,.19.56.56,0,0,0,.43.81c4,.23,8.32,1,12.3,0C255.55,407.73,258.34,406,257.72,403.16Zm-10.61,4.31c-2-.07-4-.23-6-.22a73.86,73.86,0,0,1,6.32-3.84,26.46,26.46,0,0,1,3.28-1.43c1.75-.6,7.76-.86,5,3.43C254.25,407.78,249.47,407.54,247.11,407.47Z" style="fill: rgb(38, 50, 56); transform-origin: 249.103px 404.555px;" id="elsd4stzxe6we" class="animable"></path><path d="M230.24,401.61c2.83,3,6.85,4.65,10.38,6.61a.56.56,0,0,0,.79-.45c.08,0,.15,0,.14-.15a24.41,24.41,0,0,0-5.39-11.46c-1.64-1.89-4.79-3.5-6.95-1.32S228.6,399.86,230.24,401.61Zm-.59-3.83c0-5.1,4.91-1.66,6.07-.22a26.94,26.94,0,0,1,2,3,73,73,0,0,1,3.29,6.63c-1.67-1.07-3.42-2-5.14-3C233.83,403,229.67,400.59,229.65,397.78Z" style="fill: rgb(38, 50, 56); transform-origin: 234.851px 401.032px;" id="el9dcol3krs6i" class="animable"></path><path d="M218.76,364.14l35.15,29.26S310.21,327,312.27,317c2.35-11.34,8.87-100.18,8.72-104.61-.18-5.37-6.09-29-6.09-29H272.72s-5.9,116.18-7.13,119.78C264.27,307.06,218.76,364.14,218.76,364.14Z" style="fill: rgb(55, 71, 79); transform-origin: 269.876px 288.395px;" id="el1n2h8r73l4z" class="animable"></path><polygon points="215.04 369.7 219.98 360.38 256.51 392.41 249.33 398.71 215.04 369.7" style="fill: rgb(69, 90, 100); transform-origin: 235.775px 379.545px;" id="elr9ti26bw2b" class="animable"></polygon><path d="M257.23,384.59c-5.43-5.25-26.64-22.09-29.28-23.47-.06,0-.14.07-.09.12,1.91,2.28,20,17.09,29.23,23.52C257.19,384.83,257.32,384.67,257.23,384.59Z" style="fill: rgb(38, 50, 56); transform-origin: 242.552px 372.949px;" id="el7hyuti1471h" class="animable"></path><path d="M317,200.88a13.21,13.21,0,0,0-1.71-.4,9.7,9.7,0,0,1-1.78-.68,13.44,13.44,0,0,1-3.25-2.3,12.23,12.23,0,0,1-2.5-4c-.37-.85-2.09-5.37-2.11-5.41s-.17,0-.15.07c.12.63,1.3,4.54,1.65,5.51a12.74,12.74,0,0,0,2.6,4.67,10.44,10.44,0,0,0,3.6,2.42,7.26,7.26,0,0,0,1.94.52,3.09,3.09,0,0,0,1.76-.1C317.12,201.11,317.06,200.91,317,200.88Z" style="fill: rgb(38, 50, 56); transform-origin: 311.29px 194.719px;" id="el7l0lfdfz3oq" class="animable"></path><path d="M279.68,185.47l-.89,23.33-1,23.33-2.24,46.65c-.42,7.77-.84,15.54-1.33,23.31,0,1-.13,2-.23,3a1.35,1.35,0,0,1-.09.45,3.2,3.2,0,0,1-.19.37c-.12.23-.26.44-.39.65-.27.42-.55.82-.83,1.22-1.13,1.6-2.3,3.16-3.48,4.71-2.36,3.1-4.78,6.15-7.2,9.2q-7.28,9.14-14.66,18.18l-14.88,18,14.51-18.3c4.83-6.1,9.67-12.2,14.44-18.34q3.59-4.6,7.11-9.26c1.17-1.55,2.33-3.11,3.44-4.69.27-.4.55-.8.8-1.2s.57-.8.54-1.14c.08-.94.16-1.88.21-2.86.46-7.77.84-15.54,1.24-23.31L277,232.09l1.28-23.31Z" style="fill: rgb(38, 50, 56); transform-origin: 255.975px 271.67px;" id="elu3ifd8o2c4h" class="animable"></path><path d="M313.12,310.8c-.31,2.86-.59,5-.84,6.19-1.16,5.6-19.43,29-35.22,48.46l-10.83-68.11c1.93-24.17,6.49-113.93,6.49-113.93h21Z" style="fill: rgb(38, 50, 56); transform-origin: 289.675px 274.43px;" id="elc9pbnkqox6s" class="animable"></path><path d="M372.6,443c-2.22,1.23-70.1,13.56-73,12.38-1.1-.42-3.48-10.21-6-22.12l-.07-.37c-.53-2.45-6.61-44.13-6.61-44.13l40.66-7.49,9.65,43.18.12.74s28.09,6.9,31.13,8.53S374.83,441.73,372.6,443Z" style="fill: rgb(255, 196, 192); transform-origin: 330.125px 418.365px;" id="elfoopidtcyef" class="animable"></path><path d="M292.55,428.12c.33,1.61.66,3.18,1,4.72l.07.38c2.53,11.9,4.91,21.69,6,22.11,2.88,1.18,70.76-11.15,73-12.38s-1.11-7.66-4.12-9.28-31.13-8.52-31.13-8.52l-.12-.75-.73-4.65Z" style="fill: rgb(235, 235, 235); transform-origin: 332.95px 437.58px;" id="elbvojn0w7de8" class="animable"></path><path d="M373.2,443c-2.25,1.23-70.73,13.43-73.63,12.25-1.11-.44-3.46-10.31-6-22.32l44.13-8s28.31,7.06,31.35,8.7S375.45,441.77,373.2,443Z" style="fill: rgb(56, 128, 255); transform-origin: 333.752px 440.13px;" id="elc3bi066s0pn" class="animable"></path><path d="M371.73,440.43c-11.53,1.76-57.86,10-69.13,12.59-.09,0-.08.08,0,.07,11.46-1.5,57.73-10.08,69.14-12.47C372,440.57,372,440.39,371.73,440.43Z" style="fill: rgb(38, 50, 56); transform-origin: 337.235px 446.758px;" id="elqfqf4ea9wgp" class="animable"></path><path d="M364.23,431.94a9.39,9.39,0,0,0-6.37,4,9.14,9.14,0,0,0-1.47,6.59c0,.06.14,0,.14,0a10.81,10.81,0,0,1,7.73-10.44A.08.08,0,0,0,364.23,431.94Z" style="fill: rgb(38, 50, 56); transform-origin: 360.288px 437.248px;" id="elxqdnozu0h3" class="animable"></path><path d="M342.38,425.27c-4.61.76-9.65,3.33-11.83,7.59-.09.17.15.29.27.19a64.54,64.54,0,0,1,11.74-7.23A.29.29,0,0,0,342.38,425.27Z" style="fill: rgb(38, 50, 56); transform-origin: 336.636px 429.174px;" id="elw4eg2yvij5" class="animable"></path><path d="M346.17,426c-4.61.76-9.64,3.33-11.83,7.6-.08.16.15.28.28.18a64.46,64.46,0,0,1,11.73-7.23A.29.29,0,0,0,346.17,426Z" style="fill: rgb(38, 50, 56); transform-origin: 340.428px 429.904px;" id="el0b07am0f3ism" class="animable"></path><path d="M350,426.77c-4.6.76-9.64,3.33-11.83,7.6-.08.16.15.28.28.19a63.37,63.37,0,0,1,11.73-7.23A.3.3,0,0,0,350,426.77Z" style="fill: rgb(38, 50, 56); transform-origin: 344.244px 430.679px;" id="elhqbc5u28xt9" class="animable"></path><path d="M353.76,427.52c-4.61.76-9.65,3.33-11.83,7.6-.09.16.15.28.27.19a64,64,0,0,1,11.74-7.23A.3.3,0,0,0,353.76,427.52Z" style="fill: rgb(38, 50, 56); transform-origin: 348.002px 431.429px;" id="elsqfdsfbr10k" class="animable"></path><path d="M303.59,441.59c-5.16.94-3.71,8.94,1.45,8S308.75,440.66,303.59,441.59Z" style="fill: rgb(255, 255, 255); transform-origin: 304.315px 445.591px;" id="eltrewlc9a2u" class="animable"></path><path d="M345.16,412.13c-2.67-1.52-5.27.89-6.34,3.15a24.54,24.54,0,0,0-2.09,12.49.13.13,0,0,0,.17.11.57.57,0,0,0,.89.22c2.87-2.84,6.29-5.53,8.2-9.17C347.1,416.8,347.68,413.56,345.16,412.13Zm-3.9,10.77c-1.38,1.43-2.82,2.79-4.14,4.27a72.71,72.71,0,0,1,1.38-7.27,26.9,26.9,0,0,1,1.12-3.39c.73-1.7,4.56-6.34,5.9-1.43C346.27,417.79,342.9,421.19,341.26,422.9Z" style="fill: rgb(38, 50, 56); transform-origin: 341.778px 419.943px;" id="elrlm5yugh9nl" class="animable"></path><path d="M325.62,431.51c4.11-.1,8-2,11.86-3.28a.57.57,0,0,0,.19-.9c.05-.06.07-.15,0-.2a24.49,24.49,0,0,0-12.12-3.67c-2.5,0-5.81,1.23-5.63,4.29C320.06,430.65,323.22,431.57,325.62,431.51Zm-3.24-2.12c-3.81-3.39,2.05-4.76,3.89-4.66a26.36,26.36,0,0,1,3.55.49,72.92,72.92,0,0,1,7.12,2c-1.91.53-3.77,1.22-5.66,1.82C329,429.74,324.48,431.26,322.38,429.39Z" style="fill: rgb(38, 50, 56); transform-origin: 328.864px 427.486px;" id="elb2czrjssvr" class="animable"></path><path d="M306.5,183.41s-1.11,18-6.08,30.88c0,0-7.18,4.47-7.93,5.18L335.21,412l-43.81,8.52s-17.21-93.26-18.68-99.65c-2.35-10.26-21-97.53-21.78-102.49-1.72-10.37,7.85-34.93,7.85-34.93Z" style="fill: rgb(55, 71, 79); transform-origin: 292.972px 301.965px;" id="eln4pb7zvjfkn" class="animable"></path><path d="M330.74,402.34c-12.05,1.81-35.08,6.69-37.92,7.87-.06,0,0,.15,0,.15,3.07-.05,31.14-5.62,37.94-7.8A.11.11,0,0,0,330.74,402.34Z" style="fill: rgb(38, 50, 56); transform-origin: 311.826px 406.35px;" id="ely3lh8curf5" class="animable"></path><path d="M264.18,200.89c.88-.2,1.82-.14,2.71-.25a20.7,20.7,0,0,0,7.76-2.56,10.59,10.59,0,0,0,3.62-3.84c.51-.82,2.84-5.26,2.87-5.29s.27,0,.25.09c-.13.62-1.66,4.47-2.12,5.43a10.43,10.43,0,0,1-3.74,4.49,17.59,17.59,0,0,1-8.57,2.47,7.93,7.93,0,0,1-2.83-.26C264,201.11,264.06,200.91,264.18,200.89Z" style="fill: rgb(38, 50, 56); transform-origin: 272.724px 195.2px;" id="elzmrs74cl65" class="animable"></path><path d="M301.46,213.81a71.94,71.94,0,0,0-11.55,5.25.13.13,0,0,0,.1.24c3.89-1.63,7.86-3.19,11.65-5A.25.25,0,0,0,301.46,213.81Z" style="fill: rgb(38, 50, 56); transform-origin: 295.828px 216.55px;" id="elhcuo96f9no" class="animable"></path><path d="M302.93,187.23c0-.14-.24-.17-.24,0a128.2,128.2,0,0,1-.77,12.94c-.2,2-1.9,13-5.36,12.17-.58-.14-.87-.71-.95-1.59a13.93,13.93,0,0,1,.49-3.37c.4-2.31.73-4.62.95-7a63.24,63.24,0,0,0,0-13,.11.11,0,1,0-.22,0,119.14,119.14,0,0,1-1.22,18c-.46,2.87-1.94,7.17,1.05,7.64s5.1-6.74,5.49-8.71A66,66,0,0,0,302.93,187.23Z" style="fill: rgb(38, 50, 56); transform-origin: 299px 200.078px;" id="elh9uts67xaio" class="animable"></path><path d="M296.65,212.62a18.68,18.68,0,0,0-.8,2.28,5.3,5.3,0,0,0-.34,1.88c0,.12.17.13.24.05a6.51,6.51,0,0,0,.82-1.82c.27-.71.56-1.41.81-2.12A.39.39,0,0,0,296.65,212.62Z" style="fill: rgb(38, 50, 56); transform-origin: 296.453px 214.635px;" id="elbss3z86k5j5" class="animable"></path><path d="M262.38,183.41c-1.19,4.57-2.32,9.16-3.35,13.77s-2,9.24-2.58,13.92l-.16,1.75c-.05.58,0,1.16-.06,1.74l.52,3.47,1.32,7,2.82,13.89,11.58,55.5,11.6,55.5,5.75,27.76,5.68,27.78-6.16-27.68-6-27.7L271.5,294.61c-3.83-18.51-7.7-37-11.36-55.55l-2.68-13.92-1.26-7-.49-3.54A30,30,0,0,1,256,211c.66-4.7,1.72-9.31,2.82-13.91S261.11,188,262.38,183.41Z" style="fill: rgb(38, 50, 56); transform-origin: 275.605px 294.45px;" id="elcvuipivqh7g" class="animable"></path><polygon points="292.02 424.31 287.68 414.69 335.38 405.45 335.96 414.99 292.02 424.31" style="fill: rgb(69, 90, 100); transform-origin: 311.82px 414.88px;" id="eleyrkelynpi5" class="animable"></polygon><path d="M323.26,115.07c1.75,4.46,4.24,8.52,5.63,13.14a30.14,30.14,0,0,1,1.17,13.17c-2.48,16.18-23.55,25.89-38.35,20.86-7.07-2.4-13.23-8.14-15.11-15.51-2.3-9,2.52-17.7,5.44-25.94a42.15,42.15,0,0,0,2.37-14.37c0-4.29-.25-8.64.61-12.87.62-3,2.68-11.78,13.79-15.29,8-2.51,16.05,1.85,19.77,9.42C322.9,96.49,319.81,106.22,323.26,115.07Z" style="fill: rgb(38, 50, 56); transform-origin: 303.161px 120.56px;" id="elu0vtqjnmi9h" class="animable"></path><path d="M285.27,116.39c-3.45,7.38-8,14.92-9.3,23.06-1.1,6.76.72,14.06,6.6,18.08.05,0,.11,0,.06-.08-6.18-4.78-6.94-13-5.21-20.16,1.77-7.28,6-13.62,8.2-20.75C285.68,116.31,285.37,116.16,285.27,116.39Z" style="fill: rgb(38, 50, 56); transform-origin: 280.647px 136.903px;" id="el9e7hkditkye" class="animable"></path><path d="M283.71,116c-2.61,9.68-10.58,17.31-11.09,27.61,0,.12.18.15.19,0,.67-10.29,9.53-17.59,11.09-27.61A.1.1,0,0,0,283.71,116Z" style="fill: rgb(38, 50, 56); transform-origin: 278.26px 129.821px;" id="elpejt92y3qo" class="animable"></path><path d="M323.82,114.91a33.58,33.58,0,0,1-3-11.38c0-.2-.35-.22-.36,0-.93,14.22,15.34,24.87,11,39.57,0,.1.12.17.16.06,2.08-6.06.46-12.12-2.26-17.71C327.6,121.87,325.5,118.5,323.82,114.91Z" style="fill: rgb(38, 50, 56); transform-origin: 326.494px 123.294px;" id="el0ew0r72ecqrr" class="animable"></path><path d="M320.53,101.42c0-.27-.43-.19-.41.07a31.78,31.78,0,0,0,5,14.94c1.41,2.21,3.15,4.19,4.52,6.44,1.5,2.45,2.66,5.09,3.92,7.67,0,.07.12,0,.1,0-1.64-4.9-4.21-8.79-7.15-13A35.08,35.08,0,0,1,320.53,101.42Z" style="fill: rgb(38, 50, 56); transform-origin: 326.891px 115.912px;" id="elrhi12mkg2x" class="animable"></path><path d="M303.5,139.41c3.77,12,17.33,50.67,29.32,54.25,7.87,2.35,39.58,5.55,47.26,0,3-2.18,1.13-28.73-3.25-28.14s-30.57,2-33.68.84-24.85-30.47-33.23-38C295.46,115.42,301.46,133,303.5,139.41Z" style="fill: rgb(255, 196, 192); transform-origin: 341.033px 160.229px;" id="el7g93i5ntm4q" class="animable"></path><path d="M328.71,147.1l-18.18,19.35S301,138.86,300.42,130c-.59-10,4.66-8.13,11.86-1.85S328.71,147.1,328.71,147.1Z" style="fill: rgb(56, 128, 255); transform-origin: 314.542px 144.71px;" id="el064hcf9ntoqd" class="animable"></path><path d="M325,144.49c-.73.58-6.45,6.57-7.66,7.89s-6.23,6.71-7.37,8.19c-.05.06,0,.15.09.09,1.39-1.23,6.47-6.64,7.73-8s6.79-7.37,7.31-8.12C325.11,144.51,325,144.45,325,144.49Z" style="fill: rgb(38, 50, 56); transform-origin: 317.525px 152.578px;" id="elj7aa0pb02b" class="animable"></path><g id="elhiqmk7su9hk"><path d="M326.16,149.8l-15.63,16.65S301,138.86,300.43,130c-.37-6.27,1.54-7.89,4.78-6.68C310,129.31,319.34,141.05,326.16,149.8Z" style="opacity: 0.1; transform-origin: 313.272px 144.699px;" class="animable"></path></g><g id="el4jg5om1h7od"><rect x="134.84" y="304.09" width="66.36" height="123.5" style="fill: rgb(56, 128, 255); transform-origin: 168.02px 365.84px; transform: rotate(15.53deg);" class="animable"></rect></g><g id="elliuiyzhfjgg"><g style="opacity: 0.1; transform-origin: 168.033px 365.885px;" class="animable"><g id="elk5618nwgb8"><rect x="147.34" y="320.46" width="66.36" height="0.75" style="fill: rgb(2, 1, 0); transform-origin: 180.52px 320.835px; transform: rotate(15.53deg);" class="animable"></rect></g><g id="el3ol8f3xckk6"><rect x="143.77" y="333.32" width="66.36" height="0.75" style="fill: rgb(2, 1, 0); transform-origin: 176.95px 333.695px; transform: rotate(15.53deg);" class="animable"></rect></g><g id="elxguh1wfyled"><rect x="140.2" y="346.18" width="66.36" height="0.75" style="fill: rgb(2, 1, 0); transform-origin: 173.38px 346.555px; transform: rotate(15.7086deg);" class="animable"></rect></g><g id="elbj9o50qt69i"><rect x="136.62" y="359.03" width="66.36" height="0.75" style="fill: rgb(2, 1, 0); transform-origin: 169.8px 359.405px; transform: rotate(15.7086deg);" class="animable"></rect></g><g id="elufvjjy9t2x"><rect x="133.05" y="371.89" width="66.36" height="0.75" style="fill: rgb(2, 1, 0); transform-origin: 166.23px 372.265px; transform: rotate(15.53deg);" class="animable"></rect></g><g id="elklxmq4lta1e"><rect x="129.48" y="384.75" width="66.36" height="0.75" style="fill: rgb(2, 1, 0); transform-origin: 162.66px 385.125px; transform: rotate(15.53deg);" class="animable"></rect></g><g id="el98y9w6yfd6m"><rect x="125.91" y="397.61" width="66.36" height="0.75" style="fill: rgb(2, 1, 0); transform-origin: 159.09px 397.985px; transform: rotate(15.53deg);" class="animable"></rect></g><g id="elsuuljg8889"><rect x="122.34" y="410.46" width="66.36" height="0.75" style="fill: rgb(2, 1, 0); transform-origin: 155.52px 410.835px; transform: rotate(15.7086deg);" class="animable"></rect></g></g></g><g id="elvrygn1gvu"><rect x="165.46" y="304.09" width="5.12" height="123.5" style="fill: rgb(38, 50, 56); transform-origin: 168.02px 365.84px; transform: rotate(15.52deg);" class="animable"></rect></g><g id="elcwg3l7dy76v"><rect x="176.58" y="350.33" width="5.53" height="37.31" style="fill: rgb(38, 50, 56); transform-origin: 179.345px 368.985px; transform: rotate(15.52deg);" class="animable"></rect></g><polygon points="185.93 425.31 170.57 421.04 161.96 428.24 183.46 434.21 185.93 425.31" style="fill: rgb(38, 50, 56); transform-origin: 173.945px 427.625px;" id="elhph2kiv4otl" class="animable"></polygon><polygon points="122 407.54 137.35 411.81 141.02 422.43 119.52 416.45 122 407.54" style="fill: rgb(38, 50, 56); transform-origin: 130.27px 414.985px;" id="elcusmdmjnawe" class="animable"></polygon><polygon points="169.61 441.88 175.29 443.46 182.03 433.82 169.76 430.41 171.78 436.73 169.61 441.88" style="fill: rgb(38, 50, 56); transform-origin: 175.82px 436.935px;" id="ele6hi8sexphs" class="animable"></polygon><path d="M163.44,443.65a8.13,8.13,0,1,0,10-5.65A8.13,8.13,0,0,0,163.44,443.65Z" style="fill: rgb(55, 71, 79); transform-origin: 171.271px 445.835px;" id="elcdw823vdb" class="animable"></path><path d="M167,444.64a4.44,4.44,0,1,0,5.47-3.09A4.45,4.45,0,0,0,167,444.64Z" style="fill: rgb(219, 219, 219); transform-origin: 171.278px 445.828px;" id="elimd9n2ruit" class="animable"></path><path d="M171.9,443.21c-.17.62-.23,1.14-.14,1.16s.3-.45.47-1.07.24-1.13.15-1.16S172.07,442.6,171.9,443.21Z" style="fill: rgb(38, 50, 56); transform-origin: 172.069px 443.255px;" id="elflmkhh774jv" class="animable"></path><path d="M173.57,444.43c-.56.31-1,.63-.93.71s.54-.1,1.1-.42,1-.63.92-.71S174.12,444.11,173.57,444.43Z" style="fill: rgb(38, 50, 56); transform-origin: 173.651px 444.575px;" id="elglkgekjyp0d" class="animable"></path><path d="M173.89,446.46c-.62-.17-1.14-.23-1.16-.14s.45.3,1.06.47,1.14.24,1.16.15S174.5,446.63,173.89,446.46Z" style="fill: rgb(38, 50, 56); transform-origin: 173.84px 446.629px;" id="elnat4nq3ux6g" class="animable"></path><path d="M172.67,448.13c-.31-.56-.63-1-.72-.93s.11.54.42,1.1.64,1,.72.92S173,448.68,172.67,448.13Z" style="fill: rgb(38, 50, 56); transform-origin: 172.519px 448.211px;" id="elaxnwjxk5ypd" class="animable"></path><path d="M170.64,448.45c.17-.62.23-1.14.14-1.16s-.3.45-.48,1.06-.23,1.14-.14,1.16S170.46,449.06,170.64,448.45Z" style="fill: rgb(38, 50, 56); transform-origin: 170.469px 448.4px;" id="elk8bthyxm39m" class="animable"></path><path d="M169,447.23c.56-.31,1-.63.92-.72s-.53.11-1.09.42-1,.64-.92.72S168.41,447.55,169,447.23Z" style="fill: rgb(38, 50, 56); transform-origin: 168.915px 447.079px;" id="elyeqbxjdjttm" class="animable"></path><path d="M168.65,445.2c.62.17,1.14.23,1.16.14s-.45-.3-1.07-.48-1.13-.23-1.16-.14S168,445,168.65,445.2Z" style="fill: rgb(38, 50, 56); transform-origin: 168.695px 445.029px;" id="el5kf212fl7fs" class="animable"></path><path d="M169.87,443.53c.31.56.63,1,.71.92s-.1-.53-.42-1.09-.63-1-.71-.92S169.55,443,169.87,443.53Z" style="fill: rgb(38, 50, 56); transform-origin: 170.015px 443.445px;" id="elji020776alm" class="animable"></path><polygon points="127.43 430.16 121.75 428.58 120.95 416.85 133.22 420.26 128.22 424.63 127.43 430.16" style="fill: rgb(38, 50, 56); transform-origin: 127.085px 423.505px;" id="elwcg0reghs9o" class="animable"></polygon><path d="M131.8,434.86a8.13,8.13,0,1,1-5.65-10A8.12,8.12,0,0,1,131.8,434.86Z" style="fill: rgb(55, 71, 79); transform-origin: 123.966px 432.691px;" id="el0ix0jdsk4c2u" class="animable"></path><path d="M128.25,433.88a4.44,4.44,0,1,1-3.09-5.47A4.44,4.44,0,0,1,128.25,433.88Z" style="fill: rgb(219, 219, 219); transform-origin: 123.973px 432.688px;" id="elll9u9cea1k8" class="animable"></path><path d="M124.78,430.12c-.17.62-.38,1.09-.48,1.07s0-.55.15-1.16.38-1.09.47-1.07S125,429.51,124.78,430.12Z" style="fill: rgb(38, 50, 56); transform-origin: 124.617px 430.075px;" id="elhkay8jkv47h" class="animable"></path><path d="M122.73,430.3c.31.56.5,1.05.42,1.09s-.41-.36-.72-.92-.5-1-.42-1.09S122.41,429.75,122.73,430.3Z" style="fill: rgb(38, 50, 56); transform-origin: 122.58px 430.381px;" id="elekbi455lo2k" class="animable"></path><path d="M121.4,431.88c.62.17,1.1.39,1.07.48s-.54,0-1.16-.15-1.09-.38-1.07-.47S120.79,431.71,121.4,431.88Z" style="fill: rgb(38, 50, 56); transform-origin: 121.355px 432.047px;" id="el2gsclayi56n" class="animable"></path><path d="M121.58,433.93c.56-.31,1-.5,1.1-.41s-.37.4-.93.71-1,.51-1.09.42S121,434.25,121.58,433.93Z" style="fill: rgb(38, 50, 56); transform-origin: 121.671px 434.085px;" id="el90zah3xhm3" class="animable"></path><path d="M123.16,435.26c.18-.62.39-1.09.48-1.07s0,.55-.14,1.16-.39,1.09-.48,1.07S123,435.87,123.16,435.26Z" style="fill: rgb(38, 50, 56); transform-origin: 123.328px 435.305px;" id="el3v274lqzh4t" class="animable"></path><path d="M125.22,435.08c-.32-.56-.5-1.05-.42-1.09s.4.36.72.92.5,1,.42,1.09S125.53,435.63,125.22,435.08Z" style="fill: rgb(38, 50, 56); transform-origin: 125.37px 434.999px;" id="elt7qggt1j94" class="animable"></path><path d="M126.54,433.5c-.61-.17-1.09-.39-1.07-.48s.55,0,1.16.15,1.1.38,1.07.47S127.16,433.67,126.54,433.5Z" style="fill: rgb(38, 50, 56); transform-origin: 126.585px 433.333px;" id="elh3i3lytzz4v" class="animable"></path><path d="M126.36,431.44c-.56.32-1,.51-1.09.42s.36-.4.92-.71,1-.51,1.09-.42S126.91,431.13,126.36,431.44Z" style="fill: rgb(38, 50, 56); transform-origin: 126.275px 431.295px;" id="el4wond375s06" class="animable"></path><g id="elky8wgszj9m"><rect x="189.06" y="303.46" width="11.08" height="5.56" style="fill: rgb(38, 50, 56); transform-origin: 194.6px 306.24px; transform: rotate(15.52deg);" class="animable"></rect></g><g id="el3mhu33td7ya"><rect x="221.71" y="219.72" width="5.04" height="95.89" style="fill: rgb(199, 199, 199); transform-origin: 224.23px 267.665px; transform: rotate(15.53deg);" class="animable"></rect></g><g id="elmsk39psugza"><rect x="232.24" y="219.9" width="7.17" height="12.08" style="fill: rgb(38, 50, 56); transform-origin: 235.825px 225.94px; transform: rotate(15.53deg);" class="animable"></rect></g><path d="M316.54,165.73l-1.64,17.68H258.79s16-44.16,31.9-59.07c6.32-5.93,12.19-4.17,16.68.37,1,1,13.36,21.42,14.4,28.7C322.62,159.39,316.54,165.73,316.54,165.73Z" style="fill: rgb(56, 128, 255); transform-origin: 290.321px 151.984px;" id="el6n25cu99nn5" class="animable"></path><path d="M308.73,162.38a45.24,45.24,0,0,0-8.41,1c-1.39.32-2.75.73-4.12,1.17-.68.22-1.37.41-2.05.6a7.42,7.42,0,0,1-2.17.33c-.07,0-.08.12,0,.12a11.78,11.78,0,0,0,2.05.14,12.38,12.38,0,0,0,2-.3c1.4-.31,2.8-.71,4.21-1,2.83-.66,5.66-1.33,8.51-1.73C308.86,162.66,308.86,162.37,308.73,162.38Z" style="fill: rgb(38, 50, 56); transform-origin: 300.377px 164.061px;" id="el5alvy5mb6x7" class="animable"></path><path d="M315.29,166.17a48.22,48.22,0,0,0-6.85-1,30.7,30.7,0,0,0-3.46,0c-.55,0-1.11.06-1.66.1s-1.22.19-1.83.22c-.06,0-.07.13,0,.13.58,0,1.15.11,1.72.14l1.72.1c1.15.06,2.3.15,3.45.2,2.31.11,4.6.24,6.9.45C315.39,166.43,315.4,166.2,315.29,166.17Z" style="fill: rgb(38, 50, 56); transform-origin: 308.404px 165.816px;" id="elqn065c0ylx" class="animable"></path><g id="elu9d27qmle3"><g style="opacity: 0.1; transform-origin: 288.375px 175.225px;" class="animable"><path d="M315.51,176.84l-.05.48c-1.47.14-3,.2-4.44.2a64.36,64.36,0,0,1-9.9-.69c-1.41-.22-2.81-.49-4.2-.8l-1.54-.37c-1.32-.31-2.64-.66-3.95-1-1-.27-2-.53-2.95-.78l-1.37-.35c-1.76-.44-3.53-.83-5.31-1.13a38.33,38.33,0,0,0-4.89-.56A40.37,40.37,0,0,0,272,172c-3.11.28-6.21.83-9.3,1.38.1-.23.2-.47.29-.72a89.84,89.84,0,0,1,9-1.27,36.09,36.09,0,0,1,5-.09,38.83,38.83,0,0,1,4.94.66c2,.36,3.95.84,5.91,1.36l1.31.36,2.41.69c1.44.42,2.9.81,4.36,1.15l1.62.36c1.22.25,2.44.47,3.67.64a65.08,65.08,0,0,0,9.86.57C312.52,177.09,314,177,315.51,176.84Z" id="elblb58jdsjsq" class="animable" style="transform-origin: 289.105px 174.387px;"></path><path d="M316,171.47l0,.28-1.05-.16a63.67,63.67,0,0,0-9.86-.58,50.22,50.22,0,0,0-9.78,1.13c-2.08.43-4.13,1-6.19,1.56l-.62.18c-.92.25-1.84.51-2.77.75A53.77,53.77,0,0,1,266,176.51a39.52,39.52,0,0,1-4.22-.71l.29-.72c1.33.28,2.67.51,4,.66a55.36,55.36,0,0,0,19.49-1.8l1.58-.41.68-.19c2.44-.64,4.89-1.29,7.38-1.77a51.43,51.43,0,0,1,9.9-1,64.5,64.5,0,0,1,9.91.7Z" id="elhrd3z0von87" class="animable" style="transform-origin: 288.89px 173.649px;"></path><path d="M315.76,174.1l-.07.78c-.42-.07-.84-.12-1.26-.17a53.71,53.71,0,0,0-16.94,1.19,3.9,3.9,0,0,0-.57.13c-.66.14-1.32.31-2,.48-3.19.82-6.38,1.74-9.64,2.37a51.43,51.43,0,0,1-9.9,1,64.41,64.41,0,0,1-9.91-.7c-1.58-.24-3.16-.56-4.72-.92a1.36,1.36,0,0,1,.09-.23c1.55.35,3.11.64,4.68.86a63.62,63.62,0,0,0,9.85.58,50.23,50.23,0,0,0,9.79-1.13c3.22-.67,6.37-1.65,9.58-2.49l.62-.16a3.89,3.89,0,0,1,.49-.12,52.78,52.78,0,0,1,18.65-1.6Z" id="elriadbi0iqk" class="animable" style="transform-origin: 288.255px 176.812px;"></path></g></g><path d="M289.17,134c-4.89,7-25.5,36.33-26.1,37.86s-11.16,32.44-12.26,37.44c-.77,3.53-25.05-8.2-24.19-11.23,2-7.1,7.5-28.39,12.8-36.11,6.91-10.05,35.36-34,44-37.42S297.2,122.46,289.17,134Z" style="fill: rgb(255, 196, 192); transform-origin: 259.887px 166.425px;" id="elwohhdaqnh2" class="animable"></path><path d="M237,220.8c1.52-.91,2-.12.89,2.82s-8.06,13.65-4.13,15.75,13.51-13.13,15-18.17,2.14-13.73,2.14-13.73C248.49,210.06,241.93,215.78,237,220.8Z" style="fill: rgb(255, 196, 192); transform-origin: 241.734px 223.519px;" id="elpbagl18r1kr" class="animable"></path><path d="M230,191.57c-6.65,7.56-15.4,16.56-17.55,27.71a5.61,5.61,0,0,0,.44,3.66c-1,5,1,7,1,7,.44,4.94,2.81,6.69,2.81,6.69s-1.17,5.86,2.25,7.16c3.84,1.46,4.73-7,8.09-11.44,7.69-10,21.43-22.18,23.93-24.85Z" style="fill: rgb(255, 196, 192); transform-origin: 231.645px 217.764px;" id="elynul5em665" class="animable"></path><path d="M227.67,216.13a80.57,80.57,0,0,0-6.24,9.18,81.41,81.41,0,0,0-4.64,11.23.1.1,0,0,1-.19,0A43.09,43.09,0,0,1,227.53,216C227.66,215.9,227.78,216,227.67,216.13Z" style="fill: rgb(38, 50, 56); transform-origin: 222.157px 226.284px;" id="elbexb2qp254" class="animable"></path><path d="M222.28,210.61c-2,3-5.43,8.4-8.3,19.33a0,0,0,0,1-.07,0,38.64,38.64,0,0,1,8.22-19.42C222.27,210.33,222.41,210.4,222.28,210.61Z" style="fill: rgb(38, 50, 56); transform-origin: 218.121px 220.175px;" id="elqjg688xsin" class="animable"></path><path d="M219.33,207.69c-3.18,5.3-4.51,9-6.42,15.23,0,0-.08,0-.07,0,1.44-7.26,2.78-9.74,6.32-15.35C219.28,207.37,219.45,207.49,219.33,207.69Z" style="fill: rgb(38, 50, 56); transform-origin: 216.105px 215.194px;" id="elj7fvdlh8u3" class="animable"></path><path d="M258.14,186.3c.31-1.46.71-2.89,1.11-4.31s.86-2.83,1.32-4.24,1-2.8,1.53-4.18a12.2,12.2,0,0,1,1-2c.45-.6.87-1.21,1.33-1.79-.32.67-.68,1.32-1,2a11,11,0,0,0-.75,2c-.44,1.41-.9,2.81-1.37,4.22s-.95,2.8-1.48,4.18S258.75,184.94,258.14,186.3Z" style="fill: rgb(38, 50, 56); transform-origin: 261.285px 178.04px;" id="elcr8jd6v767b" class="animable"></path><path d="M276.36,158l-25.47-13.46s26.11-17.94,35.28-21c10.31-3.5,9.84,2.54,5.34,11.87S276.36,158,276.36,158Z" style="fill: rgb(56, 128, 255); transform-origin: 272.719px 140.267px;" id="elu6sb6ue7bw" class="animable"></path><path d="M278,153.37c-.82-.6-8.72-4.86-10.46-5.74s-8.8-4.59-10.67-5.36a.07.07,0,0,0-.08.12c1.69,1.1,8.81,4.85,10.56,5.8s9.66,5,10.59,5.3C278,153.52,278.06,153.41,278,153.37Z" style="fill: rgb(38, 50, 56); transform-origin: 267.391px 147.876px;" id="elsius1dqw4gn" class="animable"></path><path d="M273.06,156.29c1.15.49,2.28,1,3.39,1.55l-.26,0,6.37-8.72c2.11-2.92,4.23-5.82,6.24-8.83a49.73,49.73,0,0,1-2.65,4.73c-.94,1.55-2,3-3,4.51s-2.12,2.92-3.21,4.36-2.24,2.83-3.4,4.22l-.12.14-.14-.08C275.18,157.59,274.12,157,273.06,156.29Z" style="fill: rgb(38, 50, 56); transform-origin: 280.93px 149.27px;" id="elv7pnppe8rg" class="animable"></path><path d="M284.69,146.76a14.34,14.34,0,0,1,1.65-1.82,16.88,16.88,0,0,1,1.9-1.55,6.63,6.63,0,0,1-.71,1,10.29,10.29,0,0,1-.85.9A9,9,0,0,1,284.69,146.76Z" style="fill: rgb(38, 50, 56); transform-origin: 286.465px 145.075px;" id="elbmc9r6hwomo" class="animable"></path><path d="M294.58,123.6c.46,1,6.93,7.11,11.84,6,1.6-.37-.07-9.18-.07-9.18l0-.68.35-9.5-12-4.89-1.72-.62s.08,2.6.2,5.85c0,.15,0,.3,0,.46a4.61,4.61,0,0,0,0,.53c0,.48,0,1,.05,1.47s0,.74.06,1.13.06.78.08,1.18A62.26,62.26,0,0,0,294.58,123.6Z" style="fill: rgb(255, 196, 192); transform-origin: 300.047px 117.232px;" id="elfjb7qjqzf6p" class="animable"></path><path d="M306.72,110.19l-.25,6.74c-5,2-11.14.78-12.84.38-.07-.66-.13-1.34-.19-2,0-.4-.05-.78-.07-1.18s-.05-.76-.07-1.13,0-1-.05-1.47c0-.17,0-.35,0-.53s0-.31,0-.46c-.13-3.25-.21-5.85-.21-5.85l1.72.62Z" style="fill: rgb(38, 50, 56); transform-origin: 299.88px 111.368px;" id="ell8z5q01tsc" class="animable"></path><path d="M283.15,91.69c-8.13,14.57-.32,21.08,2.83,22.83,2.85,1.59,12.77,6.63,22.36-7s5.38-22-1-26S291.27,77.12,283.15,91.69Z" style="fill: rgb(255, 196, 192); transform-origin: 296.775px 97.9409px;" id="el98c7qfgc9bp" class="animable"></path><path d="M288.13,89.86a10,10,0,0,0,1.1.34,1.82,1.82,0,0,0,1.19.13.58.58,0,0,0,.35-.63,1.47,1.47,0,0,0-1.1-1,2.15,2.15,0,0,0-1.56,0A.64.64,0,0,0,288.13,89.86Z" style="fill: rgb(38, 50, 56); transform-origin: 289.264px 89.465px;" id="elzi8593ydryn" class="animable"></path><path d="M297.68,95.32a10.52,10.52,0,0,1-.87-.76,1.86,1.86,0,0,1-.74-.94.6.6,0,0,1,.35-.63,1.5,1.5,0,0,1,1.44.4,2.15,2.15,0,0,1,.81,1.33A.63.63,0,0,1,297.68,95.32Z" style="fill: rgb(38, 50, 56); transform-origin: 297.37px 94.1902px;" id="el1hiodflxdyi" class="animable"></path><path d="M293.68,97.91s.05.09,0,.13c-.61,1-1.14,2.16-.45,3,0,0,0,.07,0,0C292.23,100.31,293,98.72,293.68,97.91Z" style="fill: rgb(38, 50, 56); transform-origin: 293.226px 99.4906px;" id="elkj9fh8surkm" class="animable"></path><path d="M295.16,97.4c1.64.81-.09,4-1.62,3.29S293.78,96.72,295.16,97.4Z" style="fill: rgb(38, 50, 56); transform-origin: 294.387px 99.0498px;" id="elj6gkh89ptf" class="animable"></path><path d="M295.7,97.91c.19.34.29.81.61,1s.85.07,1.28-.12c.05,0,.06,0,0,.07-.32.62-.9,1.13-1.62.86A1.36,1.36,0,0,1,295.4,98C295.44,97.9,295.63,97.78,295.7,97.91Z" style="fill: rgb(38, 50, 56); transform-origin: 296.46px 98.8236px;" id="elal5r7rhshjn" class="animable"></path><path d="M288,94.56s-.1,0-.12,0c-.5,1-1.24,2.1-2.33,2,0,0-.06.05,0,.06C286.74,97.06,287.71,95.61,288,94.56Z" style="fill: rgb(38, 50, 56); transform-origin: 286.762px 95.6304px;" id="elxennslxech" class="animable"></path><path d="M287.68,93c-1.55-1-3.39,2.19-1.95,3.1S289,93.85,287.68,93Z" style="fill: rgb(38, 50, 56); transform-origin: 286.672px 94.5355px;" id="el03k44r0xtb7o" class="animable"></path><path d="M286.9,92.86c-.35,0-.78.19-1.09,0s-.42-.67-.45-1.12c0,0,0,0-.07,0-.36.6-.53,1.35,0,1.8s1.16.12,1.65-.4C287,93.07,287,92.85,286.9,92.86Z" style="fill: rgb(38, 50, 56); transform-origin: 285.967px 92.7459px;" id="elbqjx7g8jjqc" class="animable"></path><path d="M289,105.75a1.71,1.71,0,0,1-1.15.18,2.93,2.93,0,0,1-1-.78s-.08,0-.07,0a1.53,1.53,0,0,0,1,1.18,1.22,1.22,0,0,0,1.24-.52C289.16,105.79,289.09,105.73,289,105.75Z" style="fill: rgb(38, 50, 56); transform-origin: 287.939px 105.751px;" id="elchqwm7v7byu" class="animable"></path><path d="M286.87,99.86s-1,1.37-1.42,2.07c0,.06.12.19.35.33,0,0,0,0,0,0a3.78,3.78,0,0,0,3.92.54c.08,0,0-.16-.05-.15a5.73,5.73,0,0,1-3.53-.81c.06-.22,1.84-2.29,1.74-2.36a7.39,7.39,0,0,0-1.79-.52c2.05-2.92,4.56-5.48,6.56-8.42a.11.11,0,0,0-.16-.15,58.51,58.51,0,0,0-7.45,8.77C284.79,99.55,286.52,99.82,286.87,99.86Z" style="fill: rgb(38, 50, 56); transform-origin: 288.845px 96.7403px;" id="elsk199auspph" class="animable"></path><path d="M286.55,102.32a4,4,0,0,0,.81,1.88,1.8,1.8,0,0,0,.93.6c.8.2,1.17-.43,1.35-1a4.72,4.72,0,0,0,.15-1A5.16,5.16,0,0,1,286.55,102.32Z" style="fill: rgb(38, 50, 56); transform-origin: 288.17px 103.579px;" id="el39khrannzra" class="animable"></path><path d="M287.36,104.2a1.8,1.8,0,0,0,.93.6c.8.2,1.17-.43,1.35-1A1.88,1.88,0,0,0,287.36,104.2Z" style="fill: rgb(255, 156, 189); transform-origin: 288.5px 104.209px;" id="el7rv22f145st" class="animable"></path><path d="M306.81,107.53c-3.07-1.75.71-8.89.71-8.89s-1.42-1.69-1.61-6.43c0,0-.26,3.86,1.08,6.26.23.4-9.77-6.54-6.27-15.21a18.72,18.72,0,0,1-15,3.93c-.27-.06,4.76-6.9,7.26-7.75a17.76,17.76,0,0,1,4.49-.93,17.33,17.33,0,0,1,12.7,3.29c6,4.56,6.45,13.76,5.38,16.84C313.46,104.69,308.26,108.36,306.81,107.53Z" style="fill: rgb(38, 50, 56); transform-origin: 300.858px 92.9998px;" id="el0wqqovak4j5" class="animable"></path><path d="M306.56,98.46c-5.64-3.46-8.19-9.7-5.4-15.87.07-.15-.15-.27-.25-.14C296.8,88,300.84,96,306.55,98.59,306.69,98.65,306.69,98.54,306.56,98.46Z" style="fill: rgb(38, 50, 56); transform-origin: 302.944px 90.5009px;" id="el2j7e57wkzuv" class="animable"></path><path d="M300.94,83.06s0-.07-.05,0c-3.17,2.21-7.65,6.76-11.84,4.15-.11-.07-.23.09-.12.16C292.73,90.19,298.64,86.26,300.94,83.06Z" style="fill: rgb(38, 50, 56); transform-origin: 294.913px 85.6832px;" id="el41r0gcp6bdd" class="animable"></path><path d="M305.4,107.32s5.45-3.26,7.08-1.1-4,7.91-6.92,7.72a2.82,2.82,0,0,1-2.83-2.93Z" style="fill: rgb(255, 196, 192); transform-origin: 307.749px 109.713px;" id="ele7qs44voepv" class="animable"></path><path d="M310.83,107.83c.05,0,0,.08,0,.07-2.1-.07-3.77,1.15-5.19,2.56a1.56,1.56,0,0,1,2.3.57s-.05.11-.09.07a1.74,1.74,0,0,0-2-.23,8,8,0,0,0-1.47,1c-.16.12-.4-.09-.26-.25l0,0C305.12,109.34,308.3,107,310.83,107.83Z" style="fill: rgb(38, 50, 56); transform-origin: 307.465px 109.782px;" id="elisiwajnfzn" class="animable"></path><path d="M287.49,122.31c-.79-1,4.78-1,6.14.08s6.56,14.66,3.88,31.91S260.73,185,259.43,182.38l2.5-7.45c1.3-1.34,23.65-9,26.56-19.69C291.07,145.76,290.84,126.39,287.49,122.31Z" style="fill: rgb(38, 50, 56); transform-origin: 278.848px 152.139px;" id="elyx0v1p2o6w" class="animable"></path><polygon points="367.6 203.86 370.31 171.03 377.27 142.16 357.05 143.91 342.35 139.4 326.55 142.57 308.01 136.39 310.36 168.09 304.79 199.2 318.72 204.14 335.84 200.68 349.66 206.71 367.6 203.86" style="fill: rgb(235, 235, 235); transform-origin: 341.03px 171.55px;" id="elqtlmzyunt9" class="animable"></polygon><polygon points="349.66 206.71 357.05 143.91 342.35 139.4 335.84 200.68 349.66 206.71" style="fill: rgb(219, 219, 219); transform-origin: 346.445px 173.055px;" id="elgjwj37q25x" class="animable"></polygon><polygon points="318.72 204.14 326.55 142.57 308.01 136.39 310.36 168.09 304.79 199.2 318.72 204.14" style="fill: rgb(219, 219, 219); transform-origin: 315.67px 170.265px;" id="el94un00fa2j" class="animable"></polygon><path d="M374.69,156.63c2.17,4.07,7.39,9,8,12.36a3.92,3.92,0,0,1-2,4.25s3.47,1.53,3.49,4.68c0,1.62-2.58,3.05-2.58,3.05s2.73,1.35,2.57,4.15c-.13,2.23-2.7,3.34-2.7,3.34s2,2.5,1.16,4.74c-1.74,4.52-20.91,5.45-24.21-1.47-1.54-3.22,3.15-3.19,3.15-3.19s-6.74-1.67-7-5.62,5.8-3.54,5.8-3.54-6.52-1.68-6.41-5.8c.12-4.29,6.15-2.84,6.15-2.84s-4.4-2.69-3.6-5.83c1.34-5.17,9.72.85,13.88-.35l2-7.06Z" style="fill: rgb(255, 196, 192); transform-origin: 369.069px 176.694px;" id="elyj4dnn9ovui" class="animable"></path><path d="M378.82,162.49c-1.72-4,3.11-9.34,2-13.42-1.48-5.53-7.51.25-8.51,8.43l.33,6.49Z" style="fill: rgb(255, 196, 192); transform-origin: 376.649px 155.439px;" id="el4j0hzy9a6cc" class="animable"></path><path d="M381.07,188.69a.05.05,0,0,1,0,.1,33.3,33.3,0,0,1-19.81-.23c-.2-.07-.17-.43.07-.39A68.18,68.18,0,0,0,381.07,188.69Z" style="fill: rgb(38, 50, 56); transform-origin: 371.124px 189.176px;" id="elpj5yug84s5" class="animable"></path><path d="M381.68,181c.07,0,.09.11,0,.14-6.43,1.86-14.78,1.76-21.59-1.59-.23-.11-.32-.45,0-.34C364.75,181.1,375.53,181.84,381.68,181Z" style="fill: rgb(38, 50, 56); transform-origin: 370.811px 180.77px;" id="elkt284oc8xxc" class="animable"></path><path d="M359.64,170.34c6.65,2.95,13.58,3.48,20.77,3,.1,0,.1.13,0,.16-3.45,1.19-8.07,1-11.66.59a19.26,19.26,0,0,1-9.24-3.51C359.43,170.49,359.5,170.27,359.64,170.34Z" style="fill: rgb(38, 50, 56); transform-origin: 369.981px 172.366px;" id="elqc917hovsgs" class="animable"></path><path d="M321.6,94.33l1.34-10.86s-6.57-6.55-8.27-7.71-9.25-4-9.25-4l-7.69,6Z" style="fill: rgb(56, 128, 255); transform-origin: 310.335px 83.045px;" id="el3bux90qkkx6" class="animable"></path><path d="M288.8,78.77s17.08,6.91,33.75,24.37l-.95-8.81s-10.74-12.69-23.87-16.6Z" style="fill: rgb(56, 128, 255); transform-origin: 305.675px 90.435px;" id="eljb00xji0gdq" class="animable"></path><g id="el2nnij0qy92i"><path d="M288.8,78.77s17.08,6.91,33.75,24.37l-.95-8.81s-10.74-12.69-23.87-16.6Z" style="opacity: 0.1; transform-origin: 305.675px 90.435px;" class="animable"></path></g></g><defs>     <filter id="active" height="200%">         <feMorphology in="SourceAlpha" result="DILATED" operator="dilate" radius="2"></feMorphology>                <feFlood flood-color="#32DFEC" flood-opacity="1" result="PINK"></feFlood>        <feComposite in="PINK" in2="DILATED" operator="in" result="OUTLINE"></feComposite>        <feMerge>            <feMergeNode in="OUTLINE"></feMergeNode>            <feMergeNode in="SourceGraphic"></feMergeNode>        </feMerge>    </filter>    <filter id="hover" height="200%">        <feMorphology in="SourceAlpha" result="DILATED" operator="dilate" radius="2"></feMorphology>                <feFlood flood-color="#ff0000" flood-opacity="0.5" result="PINK"></feFlood>        <feComposite in="PINK" in2="DILATED" operator="in" result="OUTLINE"></feComposite>        <feMerge>            <feMergeNode in="OUTLINE"></feMergeNode>            <feMergeNode in="SourceGraphic"></feMergeNode>        </feMerge>            <feColorMatrix type="matrix" values="0   0   0   0   0                0   1   0   0   0                0   0   0   0   0                0   0   0   1   0 "></feColorMatrix>    </filter></defs></svg>